<?xml version="1.0" encoding="utf-8"?>
<!-- Generator: Adobe Illustrator 21.0.2, SVG Export Plug-In . SVG Version: 6.00 Build 0)  -->
<svg version="1.1" id="Layer_1" xmlns="http://www.w3.org/2000/svg" xmlns:xlink="http://www.w3.org/1999/xlink" x="0px" y="0px"
	 viewBox="0 0 7231 1676" style="enable-background:new 0 0 7231 1676;" xml:space="preserve">
<style type="text/css">
	.st0{fill:url(#SVGID_1_);}
	.st1{fill:#0058AF;}
	.st2{fill:#07348C;}
	.st3{opacity:0.59;fill:url(#SVGID_2_);}
	.st4{opacity:0.49;fill:#07348C;}
	.st5{fill:#0B155B;}
	.st6{fill:url(#SVGID_3_);}
	.st7{fill:#00AFE4;}
	.st8{fill:url(#SVGID_4_);}
	.st9{fill:none;stroke:#0B155B;stroke-width:20;stroke-miterlimit:10;}
	.st10{clip-path:url(#SVGID_6_);fill:url(#SVGID_7_);}
	.st11{clip-path:url(#SVGID_6_);fill:#0B155B;}
	.st12{fill:none;}
	.st13{font-family:'TTNorms-Bold';}
	.st14{font-size:72px;}
	.st15{letter-spacing:5;}
	.st16{font-size:69px;}
	.st17{fill:none;stroke:#0058AF;stroke-miterlimit:10;}
	.st18{fill:none;stroke:#00AFE4;stroke-miterlimit:10;}
	.st19{fill:#0A1447;}
	.st20{fill:url(#SVGID_8_);}
	.st21{opacity:0.63;fill:#0B155B;}
	.st22{fill:none;stroke:#07348C;stroke-width:4;stroke-miterlimit:10;}
	.st23{fill:url(#SVGID_9_);}
	.st24{fill:url(#SVGID_10_);}
	.st25{fill:none;stroke:#07348C;stroke-width:0.4581;stroke-miterlimit:10;}
	.st26{fill:#FF0300;}
	.st27{fill:none;stroke:#0B155B;stroke-miterlimit:10;}
	.st28{opacity:0.21;fill:#0B155B;}
	.st29{fill:none;stroke:#07348C;stroke-width:36;stroke-miterlimit:10;}
	.st30{clip-path:url(#SVGID_12_);}
	.st31{fill:url(#SVGID_13_);}
	.st32{fill:#073489;}
	.st33{fill:#00ACE1;}
	.st34{fill:none;stroke:#00AFE4;stroke-width:3;stroke-miterlimit:10;}
	.st35{opacity:0.44;fill:url(#SVGID_14_);}
	.st36{opacity:0.44;fill:url(#SVGID_15_);}
	.st37{fill:url(#SVGID_16_);}
	.st38{fill:url(#SVGID_17_);}
	.st39{fill:url(#SVGID_18_);}
	.st40{opacity:0.15;fill:#00AFE4;}
	.st41{opacity:0.24;clip-path:url(#SVGID_20_);fill:#45D7EF;}
	.st42{fill:none;stroke:#07348C;stroke-width:2;stroke-miterlimit:10;}
	.st43{fill:none;stroke:#00AFE4;stroke-width:5;stroke-linecap:round;stroke-miterlimit:10;}
	.st44{fill:none;stroke:#00AFE4;stroke-width:3;stroke-linecap:round;stroke-miterlimit:10;}
	.st45{fill:none;stroke:#00AFE4;stroke-width:10;stroke-linecap:round;stroke-miterlimit:10;}
	.st46{opacity:0.31;fill:#00AFE4;}
	.st47{fill:none;stroke:#00AFE4;stroke-width:15;stroke-linecap:round;stroke-miterlimit:10;}
	.st48{fill:url(#SVGID_21_);}
	.st49{fill:url(#SVGID_22_);}
	.st50{fill:url(#SVGID_23_);}
	.st51{fill:url(#SVGID_24_);}
	.st52{fill:none;stroke:#00AFE4;stroke-width:10;stroke-miterlimit:10;}
</style>
<linearGradient id="SVGID_1_" gradientUnits="userSpaceOnUse" x1="-13" y1="535.0106" x2="7232.5" y2="535.0106">
	<stop  offset="0" style="stop-color:#0B155B"/>
	<stop  offset="0.2663" style="stop-color:#0A1962"/>
	<stop  offset="0.6424" style="stop-color:#092574"/>
	<stop  offset="1" style="stop-color:#07348C"/>
</linearGradient>
<rect x="-13" y="0.6" class="st0" width="7245.5" height="1068.7"/>
<polygon class="st1" points="3964,740.1 3997,764.1 4729,764.1 4648,740.1 "/>
<rect x="4183" y="735.6" class="st2" width="265.5" height="20.4"/>
<rect x="-13" y="1069.4" class="st2" width="7245.5" height="627.9"/>
<linearGradient id="SVGID_2_" gradientUnits="userSpaceOnUse" x1="-12.3062" y1="1389.2522" x2="1677.3727" y2="1389.2522">
	<stop  offset="0" style="stop-color:#0B155B"/>
	<stop  offset="0.2777" style="stop-color:#0A1962"/>
	<stop  offset="0.6698" style="stop-color:#092674"/>
	<stop  offset="1" style="stop-color:#073489"/>
</linearGradient>
<rect x="-12.3" y="1064.5" class="st3" width="1689.7" height="649.5"/>
<rect x="3998.8" y="762.4" class="st4" width="730.3" height="35.7"/>
<rect x="4029" y="794.8" class="st5" width="33" height="445.5"/>
<polygon class="st5" points="1501,1052.5 1499,1052.5 1495.6,1052.5 1493.6,1052.5 1288.6,1136.5 1288.6,1175 1301.1,1175 
	1301.1,1146.5 1474.6,1113.7 1481.6,1193.5 1493,1193.5 1501.6,1193.5 1513,1193.5 1520,1113.7 1693.5,1146.5 1693.5,1175 
	1706,1175 1706,1136.5 "/>
<polygon class="st1" points="5083,896.1 4945,854.1 5852.5,855.6 6024.9,896.1 "/>
<polygon class="st1" points="6116.4,771.6 5960.4,744.6 5582.5,744.6 5590,771.6 "/>
<linearGradient id="SVGID_3_" gradientUnits="userSpaceOnUse" x1="4539.4253" y1="400.2991" x2="5413.0015" y2="400.2991">
	<stop  offset="0" style="stop-color:#0058AF"/>
	<stop  offset="0.3114" style="stop-color:#0153AA"/>
	<stop  offset="0.6746" style="stop-color:#03469C"/>
	<stop  offset="1" style="stop-color:#073489"/>
</linearGradient>
<rect x="4539.4" y="184.3" class="st6" width="873.6" height="432"/>
<circle class="st1" cx="1160.7" cy="872.2" r="38"/>
<circle class="st1" cx="1160.7" cy="967.2" r="49.4"/>
<path class="st1" d="M1124,882.3c0,0,3.9,18.9,3.9,30c0,11.1-13.2,36.9-13.2,36.9h46v-71.4L1124,882.3z"/>
<path class="st1" d="M1197.4,882.3c0,0-3.9,18.9-3.9,30c0,11.1,13.2,36.9,13.2,36.9h-46v-71.4L1197.4,882.3z"/>
<polygon class="st7" points="1168.1,1038.3 1158.5,1038.3 1123.3,1038.3 1138.3,1126.9 1158.5,1126.9 1168.1,1126.9 1188.3,1126.9 
	1203.3,1038.3 "/>
<rect x="1154" y="989.9" class="st1" width="15.2" height="48.4"/>
<rect x="1483.7" y="977.8" class="st5" width="27.5" height="96.5"/>
<g>
	<linearGradient id="SVGID_4_" gradientUnits="userSpaceOnUse" x1="4403.5947" y1="902.3818" x2="4756.2603" y2="902.3818">
		<stop  offset="0" style="stop-color:#0B155B"/>
		<stop  offset="0.2663" style="stop-color:#0A1962"/>
		<stop  offset="0.6424" style="stop-color:#092574"/>
		<stop  offset="1" style="stop-color:#07348C"/>
	</linearGradient>
	<path class="st8" d="M4724,701.7c-23.6-10.4-66.3-7.3-99.1-2.6c-29.9,4.3-60.2,4.3-90.1,0c-32.8-4.7-75.4-7.8-99.1,2.6
		c-41.8,18.4-38.3,58.9-15.6,131.3c22.7,72.3,34,82.4,20.2,122.8c-11.3,33-25.8,95.1-9.3,125.7c21.9,40.4,148.8,26.2,148.8,26.2
		s127,14.2,148.8-26.2c16.6-30.6,2.1-92.7-9.3-125.7c-13.9-40.3-2.5-50.4,20.2-122.8S4765.9,720.1,4724,701.7z"/>
	<rect x="4466.1" y="1103.3" class="st5" width="208.5" height="33.3"/>
	<path class="st5" d="M4595.6,1159.3h-47.5c-21.7,0-39.4-17.6-39.4-39.4l0,0H4635l0,0C4635,1141.7,4617.3,1159.3,4595.6,1159.3z"/>
	<rect x="4557.4" y="1123" class="st5" width="26" height="91.2"/>
	<polygon class="st5" points="4573.8,1193.6 4571.9,1193.6 4568.6,1193.6 4566.7,1193.6 4372.9,1273 4372.9,1309.4 4384.8,1309.4 
		4384.8,1282.4 4548.7,1251.5 4555.4,1326.9 4566.2,1326.9 4574.3,1326.9 4585.1,1326.9 4591.7,1251.5 4755.7,1282.4 4755.7,1309.4 
		4767.5,1309.4 4767.5,1273 	"/>
	<rect x="4362.5" y="1313.6" class="st5" width="33.1" height="26.5"/>
	<rect x="4745.3" y="1313.6" class="st5" width="33.1" height="26.5"/>
	<rect x="4553.7" y="1331.6" class="st5" width="33.1" height="26.5"/>
	<path class="st9" d="M4386.5,969.3v75.9c0,36.8,29.8,66.7,66.7,66.7h21.5"/>
	<path class="st5" d="M4414.7,982.6h-56.5c-2.3,0-4.2-1.9-4.2-4.2v0c0-17.9,14.5-32.5,32.5-32.5l0,0c17.9,0,32.5,14.5,32.5,32.5v0
		C4418.9,980.7,4417.1,982.6,4414.7,982.6z"/>
	<path class="st9" d="M4762.8,969.3v75.9c0,36.8-29.8,66.7-66.7,66.7h-21.5"/>
	<path class="st5" d="M4734.5,982.6h56.5c2.3,0,4.2-1.9,4.2-4.2v0c0-17.9-14.5-32.5-32.5-32.5l0,0c-17.9,0-32.5,14.5-32.5,32.5v0
		C4730.3,980.7,4732.2,982.6,4734.5,982.6z"/>
</g>
<rect x="4732.5" y="1509.6" class="st5" width="133.9" height="165.4"/>
<rect x="4866.4" y="1509.6" class="st1" width="45" height="165.4"/>
<rect x="4354.2" y="1509.6" class="st5" width="133.9" height="165.4"/>
<rect x="4488.1" y="1509.6" class="st1" width="45" height="165.4"/>
<polygon class="st5" points="4181.5,580.3 4183,735.6 4451.5,735.1 4441,580.3 "/>
<polygon class="st5" points="5507.5,581.1 5773,581.1 5795.5,740.1 5507.5,744.6 "/>
<polygon class="st1" points="3994.2,176.6 3965.8,169.6 3926.6,295.2 3955.1,303.4 "/>
<polygon class="st1" points="3999,161.1 4024.6,169.6 3988.1,303.4 3960.1,294.3 "/>
<polygon class="st1" points="4021.5,179.6 4047.7,173 4077.5,294 4049.5,300.1 "/>
<rect x="4104.3" y="176.3" class="st1" width="27.4" height="123.8"/>
<rect x="4135.9" y="176.3" class="st1" width="27.4" height="123.8"/>
<rect x="4179.7" y="176.3" transform="matrix(0.9631 -0.2691 0.2691 0.9631 90.563 1137.123)" class="st1" width="27.4" height="123.8"/>
<rect x="3805.1" y="300.1" class="st2" width="598.5" height="33.5"/>
<rect x="5081.8" y="895.8" class="st5" width="950.6" height="32.6"/>
<rect x="5582.5" y="771.1" class="st5" width="531.3" height="32.6"/>
<rect x="4583.4" y="233.8" class="st2" width="112.5" height="112.5"/>
<rect x="5145.3" y="233" class="st2" width="112.5" height="112.5"/>
<rect x="4695.9" y="457.2" class="st2" width="112.5" height="112.5"/>
<polygon class="st2" points="5522.5,595.1 5529.8,731.1 5777.5,727.8 5761.6,595.1 "/>
<polygon class="st5" points="5081.8,928.3 4945,881.8 4945,854.1 5081.8,895.8 "/>
<rect x="5931.9" y="921.6" class="st5" width="33" height="445.5"/>
<rect x="6045.3" y="793.1" class="st5" width="25.8" height="368.2"/>
<rect x="5104" y="921.6" class="st5" width="33" height="445.5"/>
<rect x="5399.5" y="925" class="st5" width="23.8" height="219.3"/>
<rect x="5310.6" y="925" class="st5" width="23.8" height="181.9"/>
<rect x="5013.4" y="893.8" class="st5" width="33" height="445.5"/>
<polygon class="st2" points="5931.9,1367 5917.2,1355.1 5917.2,928.3 5931.9,928.3 "/>
<rect x="5453.9" y="285" class="st5" width="62.2" height="62.2"/>
<rect x="5453.9" y="380" class="st5" width="62.2" height="62.2"/>
<rect x="5453.9" y="475" class="st5" width="62.2" height="62.2"/>
<polygon class="st5" points="5253.2,658.2 5585.2,658.2 5611.8,854.1 5273.2,854.1 "/>
<polygon class="st2" points="5282.5,678.6 5294.5,846.6 5591.5,846.6 5572,671.1 "/>
<circle class="st7" cx="5432.5" cy="758.8" r="66.6"/>
<g>
	<defs>
		<circle id="SVGID_5_" cx="5432.5" cy="758.8" r="66.6"/>
	</defs>
	<clipPath id="SVGID_6_">
		<use xlink:href="#SVGID_5_"  style="overflow:visible;"/>
	</clipPath>
	<linearGradient id="SVGID_7_" gradientUnits="userSpaceOnUse" x1="5395.2993" y1="762.9221" x2="5468.2642" y2="689.9573">
		<stop  offset="0" style="stop-color:#0B155B"/>
		<stop  offset="0.2663" style="stop-color:#0A1962"/>
		<stop  offset="0.6424" style="stop-color:#092574"/>
		<stop  offset="1" style="stop-color:#07348C"/>
	</linearGradient>
	<path class="st10" d="M5402.5,683.1v31.9c0,7.2,3.5,13.9,9.3,18l4.8,3.4c7,4.9,10.5,13.5,9,22l-4.4,23.9c-1,5.2,2.1,10.4,7.2,12
		l0,0c5.8,1.9,12.1-1.6,13.5-7.6l6.1-25c1.4-5.7,0.5-11.7-2.6-16.7l0,0c-1.5-2.5-0.7-5.7,1.9-7.1l2.3-1.3c4.9-2.7,8.5-7.1,10.3-12.4
		l10.6-32.1L5402.5,683.1z"/>
	<path class="st11" d="M5394,815.1c0,0,16.1-31.4,0-56.6c-16.1-25.1-42.2-19.2-42.2-19.2l12.9,52.6L5394,815.1z"/>
	<path class="st11" d="M5452.8,850.8c0,0-12.5-28.5-9.8-40.6c2.7-12,15.2-15.6,19.6-21.8c4.5-6.2,11.4-21.7,18.9-17.7
		c5.9,3.2-0.1,19.4,6.7,19.9s14,3.6,14,3.6L5452.8,850.8z"/>
</g>
<rect x="4152.5" y="933" class="st5" width="38" height="281.2"/>
<rect x="4616.6" y="262.3" class="st12" width="72.7" height="70.4"/>
<text transform="matrix(1 0 0 1 4616.6025 312.6812)" class="st7 st13 st14 st15">F</text>
<rect x="4717.2" y="489" class="st12" width="96.1" height="70.4"/>
<text transform="matrix(1 0 0 1 4717.2422 537.3564)" class="st7 st13 st16 st15">Bi</text>
<rect x="5170.5" y="261.6" class="st12" width="72.7" height="70.4"/>
<text transform="matrix(1 0 0 1 5170.479 312.0508)" class="st7 st13 st14 st15">O</text>
<rect x="4595.8" y="251.3" class="st7" width="9.9" height="9.9"/>
<rect x="4707.8" y="472.9" class="st7" width="9.9" height="9.9"/>
<rect x="5159" y="247.1" class="st7" width="9.9" height="9.9"/>
<rect x="4600.3" y="327.7" class="st7" width="80.7" height="6.4"/>
<rect x="4710.3" y="551.5" class="st7" width="80.7" height="6.4"/>
<rect x="5161.2" y="325.1" class="st7" width="80.7" height="6.4"/>
<line class="st17" x1="5370" y1="234.1" x2="5370" y2="569"/>
<g>
	<line class="st18" x1="4583.5" y1="234.1" x2="4583.5" y2="569"/>
	<g>
		<line class="st18" x1="4583.4" y1="233.8" x2="5370" y2="233.8"/>
		<line class="st18" x1="4695.9" y1="234.1" x2="4695.9" y2="569"/>
		<line class="st18" x1="4808.2" y1="234.1" x2="4808.2" y2="569"/>
		<line class="st18" x1="4920.6" y1="234.1" x2="4920.6" y2="569"/>
		<line class="st18" x1="5032.9" y1="234.1" x2="5032.9" y2="569"/>
		<line class="st18" x1="5145.3" y1="234.1" x2="5145.3" y2="569"/>
		<line class="st18" x1="5257.6" y1="234.1" x2="5257.6" y2="569"/>
		<line class="st18" x1="4583.4" y1="345.5" x2="5370" y2="345.5"/>
		<line class="st18" x1="4583.4" y1="457.2" x2="5370" y2="457.2"/>
	</g>
	<line class="st18" x1="4583.4" y1="569" x2="5370" y2="569"/>
</g>
<path class="st19" d="M4192,592.3l2.5,128H4438c0,0-8-127-6.5-128S4192,592.3,4192,592.3z"/>
<linearGradient id="SVGID_8_" gradientUnits="userSpaceOnUse" x1="970.3333" y1="1263.9631" x2="5222.5205" y2="1263.9631">
	<stop  offset="0" style="stop-color:#0058AF"/>
	<stop  offset="0.3563" style="stop-color:#034AA0"/>
	<stop  offset="1" style="stop-color:#073489"/>
</linearGradient>
<polygon class="st20" points="1618.2,1120.5 970.3,1418.4 5222.5,1417.9 4674.6,1109.6 "/>
<path class="st1" d="M2418.5,1157.8l12-790.1c0.3-18.9,15.7-34.1,34.6-34.1h1201.3c29.8,0,53.8,24.3,53.5,54.1l-7.5,767.9
	L2418.5,1157.8z"/>
<polygon class="st1" points="819.6,883.2 998.1,836.4 179,830.4 -56.5,879.8 "/>
<polygon class="st1" points="4235.7,886.5 4189,854.1 3695.6,854.1 3695.6,891.6 "/>
<polygon class="st1" points="1744.5,840.5 1612.5,878.5 2423.2,878.5 2423.2,840.5 "/>
<rect x="280.5" y="127.8" class="st2" width="1184" height="628.8"/>
<polygon class="st5" points="2562.7,485 2458.9,435.9 2464.5,1111.9 2562.7,1050.2 "/>
<polygon class="st5" points="3672.8,1121 3581.6,1062.1 3581.6,480.8 3679.1,426.8 "/>
<polygon class="st5" points="2458.9,435.9 2562.7,485 3581.6,480.8 3679.1,426.8 "/>
<polygon class="st5" points="3581.6,1062.1 2562.7,1050.2 2464.5,1111.9 3672.8,1121 "/>
<polygon class="st21" points="2562.7,869.3 2479.2,888.2 3064,888.2 3064,870 "/>
<path class="st5" d="M2637.4,663.1h-34V475.9l34,16.8C2637.4,492.7,2637.7,660,2637.4,663.1z"/>
<polygon class="st5" points="2571.4,663.1 2538,473.3 2577,492 2577,663.1 "/>
<polygon class="st5" points="2857.7,586.7 2857.7,598.8 2837.7,586.7 "/>
<polygon class="st5" points="3054.3,620.7 3049.3,612.3 2860,612.3 2860,614.6 3011.7,614.6 3018.8,620.7 "/>
<polygon class="st5" points="3029.8,562.1 3029.8,587 3035.4,587 3035.4,572.4 "/>
<path class="st5" d="M3049.5,585.1c0.1,0.6,0,27.1,0,27.1l4.8,8.4v-23.6L3049.5,585.1z"/>
<polygon class="st5" points="3018.8,640.1 2829.1,639.7 2822.8,637.6 3011.5,637.6 "/>
<polygon class="st5" points="3011.7,614.6 3011.7,637.6 3018.8,640.1 3018.8,620.7 "/>
<polygon class="st5" points="3064,677.1 3064,685.1 2560.6,685.1 2478.3,677.1 "/>
<polygon class="st5" points="3024.8,640.1 3024.8,663.1 3031.8,663.1 3031.8,646 "/>
<path class="st5" d="M3040.2,689.3c0,1.9,0,189.5,0,189.5l9.2-9.5l-2.2-177.7L3040.2,689.3z"/>
<polygon class="st5" points="2806.5,693 2783.6,689.3 2783.6,878.8 2806.5,871.6 "/>
<polygon class="st5" points="2756,687.2 2759.5,689.8 2760.6,874.1 2744.6,879.7 "/>
<polygon class="st5" points="2729.8,693.7 2689.2,886.5 2721.4,871.9 2732.8,693.7 "/>
<polygon class="st5" points="2704.6,699.4 2697.8,697.9 2634.9,878.8 2668.6,869.4 "/>
<path class="st5" d="M2677.8,690c0.6,0.1,19.9,7.9,19.9,7.9l6.8,1.4v-6.1L2677.8,690z"/>
<polygon class="st5" points="2775.5,962.9 2750.6,980.4 2562.7,980.4 2598.1,962.9 "/>
<polygon class="st5" points="2563.1,990 2537.5,1001.5 2563.1,1001.5 "/>
<polygon class="st5" points="2749.7,1010.7 2727.5,1027.1 2553.1,1027.1 2551.7,1029.4 2741,1029.4 2766.3,1010.7 "/>
<polygon class="st5" points="2750.6,980.4 2750.6,1004.1 2775.9,985.7 2775.5,962.9 "/>
<polygon class="st5" points="2725.5,1003.1 2725.5,1027.9 2751.5,1009.9 2751.5,1003.1 "/>
<polygon class="st5" points="2741,1029.4 2741,1053.7 2766.3,1031.9 2766.3,1010.7 "/>
<polygon class="st5" points="3079.5,435.9 3079.5,1111.9 3084.2,1069.4 3084.2,450.4 "/>
<polygon class="st5" points="2850.9,901.1 2850.9,1081.5 2870.1,1055.8 2870.1,901.1 "/>
<polygon class="st5" points="2874.7,881.2 2918.7,687.2 2889.2,874.4 "/>
<polygon class="st5" points="2913.1,881.2 2940.6,692.6 2943.7,692.6 2928.4,869.3 "/>
<path class="st5" d="M2978.5,694c0,0-12.6-5.4-11.7-4.7c0.9,0.7-11.2,192.8-11.2,192.8l7.7-7.2l-2.8-0.9l9.6-63.3L2978.5,694z"/>
<polygon class="st5" points="3015.3,687.2 2986,878.8 2995.8,869.3 3015.3,730 "/>
<polygon class="st5" points="2943.7,901.1 2915.9,1081.5 2921,1077.4 2948.4,901.1 "/>
<polygon class="st5" points="2969.4,904.4 2978.2,904.4 2978.2,922.1 2955.9,1061.1 2944.3,1083 "/>
<polygon class="st5" points="3001.8,904.8 3001,1083 3009,1060.4 3009,904.8 "/>
<polygon class="st5" points="2727,1052.1 2727,1077.8 2753.6,1055.6 2753.6,1042.8 2741,1052.3 "/>
<polygon class="st5" points="3296.8,765.9 3273,765.9 3273,833.6 3296.5,833.6 "/>
<circle class="st5" cx="2725.5" cy="565.6" r="72"/>
<circle class="st7" cx="3051.9" cy="384.8" r="14"/>
<path class="st5" d="M5182.9,1509.6H1002.2c-17.6,0-31.8-14.3-31.8-31.8v-59.4h4249.4v54.4
	C5219.8,1493.1,5203.3,1509.6,5182.9,1509.6z"/>
<rect x="1152.3" y="1509.6" class="st5" width="133.9" height="165.4"/>
<rect x="1286.2" y="1509.6" class="st1" width="45" height="165.4"/>
<rect x="1651.2" y="1509.6" class="st5" width="133.9" height="165.4"/>
<rect x="1785.1" y="1509.6" class="st1" width="45" height="165.4"/>
<path class="st5" d="M3178,648.8c0,0-65.5,187-62.5,186.9c3-0.1,125,0,125,0L3178,648.8z"/>
<path class="st5" d="M3311.3,638.2c-11.4-0.7-20.4-0.7-23.9-0.6c-3.5,0-12.5,0-23.9,0.6c-13.6,0.8-23,3.9-23,3.9v193.6h45.2h3.3
	h45.2V642.1C3334.2,642.1,3324.8,639,3311.3,638.2z"/>
<rect x="3203.5" y="757.2" class="st2" width="69.5" height="76.4"/>
<polygon class="st2" points="2697.8,697.9 2677.8,690 2612.8,871.5 2634.9,878.8 "/>
<polygon class="st2" points="2729.8,693.7 2708.2,688.7 2664.5,879.7 2689.2,886.5 "/>
<polygon class="st2" points="2756,687.2 2731.2,687.2 2720.5,877.1 2744.6,879.7 "/>
<polygon class="st2" points="2783.6,689.3 2759.5,689.3 2760.6,879.7 2783.6,878.8 "/>
<polygon class="st2" points="2918.7,687.2 2893.5,682.5 2848.5,872.1 2874.7,881.2 "/>
<polygon class="st2" points="2940.6,692.6 2918.7,687.2 2889.5,878.8 2913.1,881.2 "/>
<polygon class="st2" points="2966.8,689.3 2943.7,688.5 2932.2,881.7 2955.6,882.1 "/>
<polygon class="st2" points="3015.3,687.2 2984.8,682.5 2960.5,874 2986,878.8 "/>
<polygon class="st2" points="3040.2,689.3 3015.3,688.8 3015.3,878.8 3040.2,878.8 "/>
<polygon class="st2" points="3049.5,585.1 2857.7,586.7 2857.7,612.3 3049.5,612.3 "/>
<rect x="2720.8" y="637.3" class="st2" width="9.3" height="13.7"/>
<path class="st22" d="M2730.7,482.8c45.8,0,82.8,37.1,82.8,82.8s-37.1,82.8-82.8,82.8"/>
<path class="st2" d="M2747.3,659.5h-43.6l0,0c0-4.7,3.8-8.5,8.5-8.5h26.6C2743.5,651,2747.3,654.8,2747.3,659.5L2747.3,659.5z"/>
<polygon class="st2" points="2718.6,495.3 2723.2,474.8 2727.9,474.8 2732.3,495.7 "/>
<polygon class="st2" points="2837.7,586.7 2837.7,559.8 3029.8,562.1 3029.8,587.1 "/>
<rect x="2822.8" y="614.6" class="st2" width="188.9" height="23"/>
<rect x="2835.5" y="640.1" class="st2" width="188.9" height="23"/>
<polygon class="st2" points="2514.2,480.4 2548.5,665.3 2571.4,663.1 2540,476.1 "/>
<rect x="2562.7" y="980.4" class="st2" width="188.8" height="22.7"/>
<polygon class="st2" points="2537.5,1001.5 2537.5,1027.9 2725.4,1027.3 2725.5,1003.1 "/>
<path class="st2" d="M2551.7,1029.4l-1.9,22.3c1.3-0.2,191.3,0.5,191.3,0.5v-22.8H2551.7z"/>
<polygon class="st2" points="2534.8,1053.7 2535.8,1078.3 2727,1077.8 2727,1052.1 "/>
<polygon class="st5" points="2534.8,1053.7 2545.8,1050.2 2727,1052.1 "/>
<rect x="2827.5" y="901.1" class="st2" width="23.4" height="180.5"/>
<polygon class="st2" points="2915.9,1081.4 2889.2,1077.3 2917.4,903.7 2943.3,903.7 "/>
<polygon class="st2" points="2944.3,1083 2921,1077.4 2948,903.7 2969.4,904.4 "/>
<polygon class="st2" points="3001,1083 2975.8,1083 2978.2,904.4 3001.8,904.6 "/>
<polygon class="st2" points="3025.8,1083 3002.8,1077.8 3033.8,907.1 3058.8,907.1 "/>
<polygon class="st5" points="3025.8,1083 3040.2,1071.8 3058.8,907.1 "/>
<path class="st2" d="M3414.5,986.8v-69h-13.3h-13.3v69l-33,61c-7.2,13.4-0.1,30,14.6,33.9c8.4,2.3,19,3.9,31.7,3.9
	c12.2,0,22.5-1.8,30.9-4.2c14.3-4.1,21.2-20.3,14.3-33.5L3414.5,986.8z"/>
<path class="st2" d="M3540.8,993.3c-4.5-2.2-7.5-6.8-7.5-11.8v-42.2h0.8c3.4,0,6.2-2.8,6.2-6.2c0-3.4-2.8-6.2-6.2-6.2h-28.6
	c-3.4,0-6.2,2.8-6.2,6.2c0,3.4,2.8,6.2,6.2,6.2h0.5v42.2c0,5.1-2.9,9.6-7.5,11.9c-16.8,8.1-28.2,25.6-27.5,45.7
	c0.9,25.2,21.5,45.8,46.7,46.8c27.7,1.1,50.6-21.1,50.6-48.6C3568.3,1017.8,3557.1,1001.2,3540.8,993.3z"/>
<path class="st2" d="M3415.4,925.2h-28.6c-3.4,0-6.2-2.8-6.2-6.2l0,0c0-3.4,2.8-6.2,6.2-6.2h28.6c3.4,0,6.2,2.8,6.2,6.2l0,0
	C3421.7,922.5,3418.9,925.2,3415.4,925.2z"/>
<polygon class="st5" points="3718.1,649.8 3917.5,649.8 3925,842.4 3718.1,845.1 "/>
<polygon class="st5" points="1972.1,836.4 1972.1,648.5 2285.5,648.5 2295.5,840.5 "/>
<polygon class="st1" points="1869.5,573.8 1612.5,573.8 1592.5,721.8 1856.5,721.8 "/>
<polygon class="st5" points="716.5,637.8 407.5,637.8 365.5,831.8 683.5,831.8 "/>
<rect x="746.1" y="911.1" class="st2" width="30.6" height="413.3"/>
<rect x="776.7" y="911.1" class="st1" width="15.3" height="413.3"/>
<rect x="-1.7" y="911.1" class="st2" width="30.6" height="413.3"/>
<rect x="28.9" y="911.1" class="st5" width="15.3" height="413.3"/>
<rect x="892.8" y="883.2" class="st2" width="30.6" height="395.9"/>
<rect x="923.4" y="883.2" class="st1" width="15.3" height="395.9"/>
<rect x="-42.3" y="878.5" class="st5" width="862.2" height="32.6"/>
<linearGradient id="SVGID_9_" gradientUnits="userSpaceOnUse" x1="819.9961" y1="873.7125" x2="998.1103" y2="873.7125">
	<stop  offset="0" style="stop-color:#0058AF"/>
	<stop  offset="0.3114" style="stop-color:#0153AA"/>
	<stop  offset="0.6746" style="stop-color:#03469C"/>
	<stop  offset="1" style="stop-color:#073489"/>
</linearGradient>
<polygon class="st23" points="820,911.1 998.1,864.2 998.1,836.4 820,878.5 "/>
<rect x="285.5" y="845.3" class="st5" width="319" height="23"/>
<linearGradient id="SVGID_10_" gradientUnits="userSpaceOnUse" x1="604.5" y1="850.0492" x2="683.5" y2="850.0492">
	<stop  offset="0" style="stop-color:#0058AF"/>
	<stop  offset="0.3114" style="stop-color:#0153AA"/>
	<stop  offset="0.6746" style="stop-color:#03469C"/>
	<stop  offset="1" style="stop-color:#073489"/>
</linearGradient>
<polygon class="st24" points="604.5,845.3 683.5,831.8 683.5,849.8 604.5,868.3 "/>
<rect x="3710.6" y="886.5" class="st2" width="525.2" height="46.5"/>
<rect x="1688.7" y="876.6" class="st5" width="734.5" height="34.5"/>
<rect x="1310.7" y="756.6" class="st5" width="663.8" height="24.1"/>
<polygon class="st2" points="1991.4,662.4 1991.4,830.4 2279,831.9 2278,665.3 "/>
<g>
	<path class="st7" d="M2146.7,789c0,0,5.3-7.8,8-12.1c2.7-4.4,4.3-9.9,4.3-9.9s2.4,1.3,4-0.8c1.9-2.4,6.9-24.1,4.4-27
		c-2.4-2.8-4.8,0-4.8,0s2-26.5-5.7-37.8c-7.1-10.4-17.6-14.8-30.9-14.8c-13.3,0-23.8,4.3-30.9,14.8c-7.7,11.3-5.7,37.8-5.7,37.8
		s-2.4-2.8-4.8,0c-2.5,2.9,2.5,24.6,4.4,27c1.7,2.1,4,0.8,4,0.8s1.6,5.4,4.3,9.9c2.7,4.4,8,12.1,8,12.1s-3.4,7.3-7.8,11.2
		c-5,4.5-12.9,8.9-12.9,8.9s4,4.4,14.3,8.9c8.6,3.8,27.2,4.4,27.2,4.4s15.2,0.4,25.9-4.2c8.7-3.8,15.6-9,15.6-9s-7.9-4.4-12.9-8.9
		C2150.1,796.3,2146.7,789,2146.7,789z"/>
	<path class="st25" d="M2119.2,768.5c0,0-1.8,0.9-1.8,2.6c0,2.3,1.8,2.8,1.8,2.8"/>
	<path class="st25" d="M2133.2,768.4c0,0,1.4,0.6,1.4,2.5c0,1.8-1.1,2.5-1.1,2.5"/>
	<path class="st25" d="M2114.8,783.7l7.9-2.8c0,0,1.4,1.2,3.5,1.2c2.2,0,3.1-0.8,3.1-0.8s1.9,0.8,3.9,1.3c2.2,0.5,4.5,0.8,4.5,0.8"
		/>
	<path class="st25" d="M2122.5,784.3c0,0,1.8-0.5,3.6-0.5c1.7,0,4.1,0.6,4.2,0.7"/>
	<path class="st25" d="M2121.7,787.1c0.3,0,5.4,0.4,7.1,0.2c1.1-0.1,2.6-0.4,4-1.2c0.8-0.4,1.9-1.3,3.8-1.3"/>
	<path class="st25" d="M2104,787.8c0,0,9,11.9,22.3,11.9c13.1,0,21.8-12.4,21.8-12.4"/>
	<circle class="st2" cx="2111" cy="752" r="3.3"/>
	<circle class="st2" cx="2142.6" cy="752" r="3.3"/>
	<path class="st25" d="M2122.3,745c0,0-4.3-2.9-9.4-4.1c-5.9-1.4-9.4,0.3-9.4,0.3"/>
	<path class="st25" d="M2148,739.8c0,0-6.4-0.7-11,1.6c-4.3,2.2-7,5.4-7,5.4l-0.4,16.8"/>
	<path class="st25" d="M2123.2,774.2c0,0,0.8,1.2,2.2,1.2c1.3,0,2.6-1.2,2.6-1.2h3.5"/>
</g>
<path class="st5" d="M2081.9,740.4c0,0,30.8-7.2,39.1-21.6c8.9-15.3,15.9-40.6,15.9-40.6s-27.4-7.7-44.2,7.6
	C2069.3,707.1,2081.9,740.4,2081.9,740.4z"/>
<path class="st5" d="M2126.3,714.8c9.3,22.1,38,22.1,40.3,22.1c2.2,0,7.1-27.9-3.1-41.2c-10.2-13.3-27.9-18.3-27.9-18.3
	L2126.3,714.8z"/>
<polygon class="st26" points="1684.9,609.1 1686.8,692.7 1806.1,692.7 1801.4,609.1 "/>
<polygon class="st5" points="1774.4,649.9 1723.1,618.9 1725.7,678.9 "/>
<rect x="365.5" y="209.7" class="st1" width="99.7" height="75.9"/>
<rect x="698.3" y="352.5" class="st7" width="99.7" height="75.9"/>
<rect x="1014.8" y="455.6" class="st1" width="99.7" height="75.9"/>
<rect x="1264.2" y="247.6" class="st1" width="99.7" height="75.9"/>
<rect x="1168.2" y="613" class="st1" width="99.7" height="75.9"/>
<polygon class="st2" points="423.5,655.4 388.9,807.8 668.2,807.8 695.8,653.8 "/>
<g>
	<polygon class="st1" points="470.1,663.3 444.2,795.3 635.8,795.3 650.2,663.3 	"/>
	<polygon class="st5" points="550.7,712.2 497,726.4 549.7,747.6 605,728.3 	"/>
	<path class="st5" d="M585.7,732.9c0.2,0-3.5,19.3-3.5,19.3s-9.8,8-35.8,7.9c-22.8-0.1-33.2-10.2-33.2-10.2l2.3-20.2L585.7,732.9z"
		/>
	<line class="st27" x1="603.7" y1="728.2" x2="603.7" y2="750"/>
	<path class="st5" d="M609.4,757l-4.3-6.9h-2.8l-4.3,6.9c-0.3,0.5-0.5,1-0.5,1.6c0,1.7,1.4,3.1,3.1,3.1h1.7h2.8h1.7
		c1.7,0,3.1-1.4,3.1-3.1C609.9,758,609.7,757.4,609.4,757z"/>
	<polygon class="st28" points="470.1,663.3 466.3,682.5 648.1,682.5 650.2,663.3 	"/>
	<circle class="st7" cx="479.5" cy="671.7" r="3.9"/>
	<circle class="st7" cx="496.8" cy="671.7" r="3.9"/>
	<circle class="st7" cx="514" cy="671.7" r="3.9"/>
	<polyline class="st17" points="591.7,734.1 549.7,747.6 509.4,731.4 	"/>
</g>
<circle class="st29" cx="1991.3" cy="1143.3" r="77.6"/>
<polygon class="st1" points="3079.5,426.9 3079.5,1111.9 3058.8,1111.9 3058.8,426.8 "/>
<path class="st2" d="M3145.6,1080.8L3145.6,1080.8c-7.2,0-13.1-5.8-13.1-13.1V936.3h26.1v131.4
	C3158.6,1075,3152.8,1080.8,3145.6,1080.8z"/>
<path class="st2" d="M3194.1,1080.8L3194.1,1080.8c-7.2,0-13.1-5.8-13.1-13.1V936.3h26.1v131.4
	C3207.1,1075,3201.3,1080.8,3194.1,1080.8z"/>
<path class="st2" d="M3242.6,1080.8L3242.6,1080.8c-7.2,0-13.1-5.8-13.1-13.1V936.3h26.1v131.4
	C3255.6,1075,3249.8,1080.8,3242.6,1080.8z"/>
<path class="st2" d="M3291.1,1080.8L3291.1,1080.8c-7.2,0-13.1-5.8-13.1-13.1V936.3h26.1v131.4
	C3304.1,1075,3298.3,1080.8,3291.1,1080.8z"/>
<rect x="2478.3" y="663.1" class="st1" width="587.6" height="14"/>
<rect x="3065.9" y="829.4" class="st1" width="587.6" height="24.7"/>
<rect x="2478.3" y="889.7" class="st1" width="587.6" height="14"/>
<polygon class="st2" points="2603.3,475.9 2580,476.1 2577,663.1 2603.3,663.1 "/>
<path class="st26" d="M3538.2,998.7c-6.6-3.2-10.9-9.9-10.9-17.2v-9.2H3512v9.2c0,7.4-4.2,14-10.9,17.3c-15.3,7.4-24.7,23.1-24.1,40
	c0.8,22.2,18.8,40.2,41,41c0.6,0,1.1,0,1.7,0c23.5,0,42.7-19.1,42.7-42.7C3562.3,1020.9,3552.8,1005.8,3538.2,998.7z"/>
<path class="st7" d="M3405.6,991.4l-1.1-2.2l-6.7,0.1l-1.2,2.2l-33,61c-2,3.7-2.2,8-0.5,11.8c1.6,3.8,4.9,6.6,8.9,7.7
	c8.9,2.4,18.7,3.6,29.1,3.6c9.8,0,19.3-1.3,28.2-3.8c3.9-1.1,7.1-3.9,8.7-7.6c1.6-3.8,1.4-8-0.4-11.6L3405.6,991.4z"/>
<line class="st27" x1="3078" y1="828.6" x2="3651.9" y2="828.6"/>
<path class="st2" d="M3866.1,1333.2l-1591.3,0.8c-19.9,0-36-16.1-36-36v-33.2L3902,1264v33.3
	C3902,1317.1,3885.9,1333.2,3866.1,1333.2z"/>
<image style="overflow:visible;" width="13" height="13" xlink:href="8A36E1E9E7376772.png"  transform="matrix(1 0 0 1 408 215)">
</image>
<circle class="st2" cx="748.1" cy="363.5" r="6.2"/>
<circle class="st2" cx="1058.5" cy="469.4" r="6.2"/>
<circle class="st2" cx="1312.7" cy="262.2" r="6.2"/>
<circle class="st2" cx="1215" cy="629.5" r="6.2"/>
<rect x="3716.6" y="664.6" class="st2" width="185.4" height="162.3"/>
<polygon class="st5" points="2204.5,690 2204.5,580.8 2400.5,580.8 2400.5,708.8 2259.5,710.3 2181.5,780.6 "/>
<circle class="st7" cx="2259.8" cy="647.8" r="12.3"/>
<circle class="st7" cx="2304.2" cy="647.8" r="12.3"/>
<circle class="st7" cx="2348.5" cy="647.8" r="12.3"/>
<g>
	<defs>
		<circle id="SVGID_11_" cx="2725.5" cy="565.6" r="72"/>
	</defs>
	<clipPath id="SVGID_12_">
		<use xlink:href="#SVGID_11_"  style="overflow:visible;"/>
	</clipPath>
	<g class="st30">
		<path class="st7" d="M2647.5,520.9c0,0,4.2,8.9,20.6,11.4c9.8,1.5,24.7,0.5,34.2-18.9c6-12.1-3-26.1-3-26.1L2647.5,520.9z"/>
		<path class="st7" d="M2722.3,520.1c-23.9,4.8-46.1,33.6-25.2,51.9c20.1,17.6,39.7-9.2,38.9,11.4c-0.8,20.6,8.4,28.7,20.6,25.9
			c14.3-3.3,34.3-39.7,13-70.9C2752.5,513.5,2733.6,517.9,2722.3,520.1z"/>
		<path class="st7" d="M2682,629.3c0,0,13.4-15.1,37.8-10.9c28.2,4.9,21.7,29.5,21.2,30.3C2740.4,649.6,2682,629.3,2682,629.3z"/>
	</g>
</g>
<g>
	<linearGradient id="SVGID_13_" gradientUnits="userSpaceOnUse" x1="144.9353" y1="1042.7045" x2="518.0647" y2="1042.7045">
		<stop  offset="0" style="stop-color:#0B155B"/>
		<stop  offset="0.2663" style="stop-color:#0A1962"/>
		<stop  offset="0.6424" style="stop-color:#092574"/>
		<stop  offset="1" style="stop-color:#07348C"/>
	</linearGradient>
	<path class="st31" d="M484,830.4c-25-11-70.1-7.7-104.8-2.8c-31.6,4.5-63.7,4.5-95.3,0c-34.7-5-79.8-8.2-104.8,2.8
		c-44.3,19.5-40.5,62.3-16.5,138.9s36,87.2,21.3,129.9c-12,34.9-27.3,100.7-9.8,133c23.1,42.7,157.5,27.7,157.5,27.7
		s134.3,15.1,157.5-27.7c17.5-32.4,2.2-98.1-9.8-133c-14.7-42.7-2.7-53.3,21.3-129.9S528.2,849.8,484,830.4z"/>
	<rect x="211.1" y="1255.3" class="st5" width="220.6" height="35.3"/>
	<path class="st5" d="M348.1,1314.5h-50.2c-23,0-41.6-18.6-41.6-41.6v0h133.5v0C389.7,1295.9,371.1,1314.5,348.1,1314.5z"/>
	<rect x="307.6" y="1276.1" class="st5" width="27.5" height="96.5"/>
	<polygon class="st5" points="325,1350.8 323,1350.8 319.5,1350.8 317.5,1350.8 112.5,1434.8 112.5,1473.3 125,1473.3 125,1444.8 
		298.5,1412.1 305.5,1491.8 317,1491.8 325.5,1491.8 337,1491.8 344,1412.1 517.5,1444.8 517.5,1473.3 530,1473.3 530,1434.8 	"/>
	<rect x="101.5" y="1477.8" class="st5" width="35" height="28"/>
	<rect x="506.5" y="1477.8" class="st5" width="35" height="28"/>
	<rect x="303.7" y="1496.8" class="st5" width="35" height="28"/>
	<path class="st9" d="M126.8,1113.5v80.3c0,38.9,31.6,70.5,70.5,70.5h22.7"/>
	<path class="st5" d="M156.7,1127.6H96.9c-2.4,0-4.4-2-4.4-4.4v0c0-19,15.4-34.3,34.3-34.3h0c19,0,34.3,15.4,34.3,34.3v0
		C161.2,1125.6,159.2,1127.6,156.7,1127.6z"/>
	<path class="st9" d="M525,1113.5v80.3c0,38.9-31.6,70.5-70.5,70.5h-22.7"/>
	<path class="st5" d="M495.1,1127.6h59.8c2.4,0,4.4-2,4.4-4.4v0c0-19-15.4-34.3-34.3-34.3h0c-19,0-34.3,15.4-34.3,34.3v0
		C490.6,1125.6,492.6,1127.6,495.1,1127.6z"/>
</g>
<circle class="st2" cx="2158.1" cy="254.7" r="91.8"/>
<path class="st7" d="M4006.6,869.8c0.1-7.7,6.4-13.8,14.1-13.7c7.7,0.1,13.8,6.4,13.7,14.1c-0.1,8.9,1.8,25.8,7.5,33.2
	c6.5,8.6,16.1,10.7,22.8,11v-62.6c0-22.9,18.5-41.4,41.4-41.4l0,0c22.9,0,41.4,18.5,41.4,41.4v151.8h-82.8v-61.5
	c-12.5-0.4-31.4-4.2-44.9-21.9c-5.9-7.7-9.9-18.7-11.9-32.7C4006.5,878,4006.6,870.2,4006.6,869.8z"/>
<path class="st1" d="M4103.7,1003.7h5h90.9v37.2h-11.1l-13.2,124c-0.6,5.6-5.4,9.9-11,9.9h-58h-0.2h-58c-5.7,0-10.4-4.3-11-9.9
	l-13.2-124h-11.1v-37.2H4103.7z"/>
<path class="st2" d="M1832.1,1004.9h-166c0,0,0,112.5,22.5,184.5c17.1,54.7,45.5,96.4,58.1,113.3c3.9,5.1,9.9,8.2,16.3,8.2h69
	V1004.9z"/>
<path class="st2" d="M1818.1,1004.9h166c0,0,0,112.5-22.5,184.5c-17.1,54.7-45.5,96.4-58.1,113.3c-3.9,5.1-9.9,8.2-16.3,8.2h-69
	V1004.9z"/>
<rect x="3988.3" y="571.2" class="st32" width="66.5" height="56.4"/>
<circle class="st33" cx="4020.8" cy="599.2" r="14.2"/>
<line class="st34" x1="3720" y1="708.4" x2="3872.5" y2="707.2"/>
<line class="st34" x1="3720" y1="740.7" x2="3872.5" y2="739.5"/>
<line class="st34" x1="3720" y1="773" x2="3872.5" y2="771.7"/>
<g>
	<polyline class="st34" points="4212,608.6 4225.6,621.9 4212,633 	"/>
	<line class="st34" x1="4227.3" y1="633" x2="4245.7" y2="633"/>
</g>
<linearGradient id="SVGID_14_" gradientUnits="userSpaceOnUse" x1="5508.1875" y1="1319.9148" x2="5995.1875" y2="1319.9148" gradientTransform="matrix(-1 0 0 1 10396.0684 0)">
	<stop  offset="0" style="stop-color:#0B155B"/>
	<stop  offset="0.2663" style="stop-color:#0A1962"/>
	<stop  offset="0.6424" style="stop-color:#092574"/>
	<stop  offset="1" style="stop-color:#07348C"/>
</linearGradient>
<ellipse class="st35" cx="4644.4" cy="1319.9" rx="243.5" ry="59.5"/>
<linearGradient id="SVGID_15_" gradientUnits="userSpaceOnUse" x1="8918.5049" y1="1346.9669" x2="9201.6602" y2="1346.9669" gradientTransform="matrix(-1 0 0 1 10396.0684 0)">
	<stop  offset="0" style="stop-color:#0B155B"/>
	<stop  offset="0.2663" style="stop-color:#0A1962"/>
	<stop  offset="0.6424" style="stop-color:#092574"/>
	<stop  offset="1" style="stop-color:#07348C"/>
</linearGradient>
<ellipse class="st36" cx="1336" cy="1347" rx="141.6" ry="34.6"/>
<linearGradient id="SVGID_16_" gradientUnits="userSpaceOnUse" x1="4503.6431" y1="1273.4846" x2="4663.4429" y2="1273.4846">
	<stop  offset="0" style="stop-color:#0058AF"/>
	<stop  offset="0.3114" style="stop-color:#0153AA"/>
	<stop  offset="0.6746" style="stop-color:#03469C"/>
	<stop  offset="1" style="stop-color:#073489"/>
</linearGradient>
<circle class="st37" cx="4583.5" cy="1273.5" r="79.9"/>
<linearGradient id="SVGID_17_" gradientUnits="userSpaceOnUse" x1="1357.3666" y1="1289.5413" x2="1517.1665" y2="1289.5413">
	<stop  offset="0" style="stop-color:#0B155B"/>
	<stop  offset="0.2663" style="stop-color:#0A1962"/>
	<stop  offset="0.6424" style="stop-color:#092574"/>
	<stop  offset="1" style="stop-color:#07348C"/>
</linearGradient>
<circle class="st38" cx="1437.3" cy="1289.5" r="79.9"/>
<linearGradient id="SVGID_18_" gradientUnits="userSpaceOnUse" x1="4653.5342" y1="1193.5846" x2="4973.1338" y2="1193.5846">
	<stop  offset="0" style="stop-color:#0B155B"/>
	<stop  offset="0.2663" style="stop-color:#0A1962"/>
	<stop  offset="0.6424" style="stop-color:#092574"/>
	<stop  offset="1" style="stop-color:#07348C"/>
</linearGradient>
<circle class="st39" cx="4813.3" cy="1193.6" r="159.8"/>
<rect x="667" y="313.7" class="st40" width="158.1" height="158.1"/>
<rect x="3441.6" y="686.1" class="st5" width="84.5" height="72.8"/>
<rect x="3402.7" y="759" class="st5" width="162.3" height="70.4"/>
<rect x="3427.5" y="786.6" class="st7" width="104.9" height="16.8"/>
<path class="st2" d="M3438.3,651.4c0,0,10.8,26.5,0,41.4c-10.8,14.9-39.6,40.9-39.6,40.9l22.9,17.2l140-57.2l-50.5-34.1l-7.4-27.2
	c0,0,26-72.9,15.7-108.4c-6.3-21.7-43.9-38.1-83.6-30.6c-29.2,5.5-47.6,45.1-45.5,61.5c1.7,13.7,5.8,27.9,5.8,27.9l-16.6,13.3
	l14.1,12.5c0,0,6.6,40.5,17.4,41.3C3421.8,650.5,3438.3,651.4,3438.3,651.4z"/>
<ellipse class="st7" cx="3415.8" cy="574.2" rx="2.7" ry="6.4"/>
<path class="st7" d="M3387,527.5c12.9,7.5,36.1-3.4,36.1-3.4s6.8,15.7,21.1,13.6c14.3-2,26.8-13.6,26.8-13.6s-11.2,25.2,7.9,38.1
	c13.1,8.9,39.5,3.8,39.5,3.8s-17.7,10.5-12.9,34.3s26.4,23.1,26.4,23.1s26-12.5,21.3-53.1c-2.2-18.3-19.1-26.6-19.1-26.6
	s15.7-29.2,4.1-47.2c-10.2-15.9-43.5-9.3-43.5-9.3s-3.9-28.7-26.9-29.1c-23.8-0.5-35.7,29.1-35.7,29.1s-3.6-28.6-29-13.6
	S3374.1,520,3387,527.5z"/>
<path class="st5" d="M3470.6,575.8c0,0,11.9,0,13.2,9.4c1.3,9.3-13.2,13.6-13.2,13.6"/>
<polygon class="st2" points="3178,648.8 3145.6,829.4 3194.1,829.4 "/>
<rect x="2607.8" y="1008.1" class="st7" width="99.5" height="14.9"/>
<rect x="2544.5" y="1058.8" class="st26" width="99.5" height="14.9"/>
<rect x="2655.5" y="1058.8" class="st26" width="59.1" height="14.9"/>
<polygon class="st7" points="2922.5,912.5 2904.8,1010.7 2918.7,1013.1 2935.8,913.8 "/>
<path class="st7" d="M3242.7,1075.6L3242.7,1075.6c-4.5,0-8.2-3.7-8.2-8.2V947.6h16.4v119.8
	C3250.8,1072,3247.2,1075.6,3242.7,1075.6z"/>
<path class="st26" d="M3145.6,1075.6L3145.6,1075.6c-4.5,0-8.2-3.7-8.2-8.2v-55.8h16.4v55.8
	C3153.7,1072,3150.1,1075.6,3145.6,1075.6z"/>
<polygon class="st5" points="3121.6,957.5 3121.6,976.3 3310,976.3 3309.9,957.5 "/>
<polygon class="st5" points="3121.6,1044.5 3121.6,1063.3 3310,1063.3 3309.9,1044.5 "/>
<polygon class="st26" points="2732.8,739.3 2729.8,844.3 2738.5,844.3 2742.6,739.3 "/>
<polygon class="st26" points="2946.7,711.1 2940.5,817.1 2954.5,817.1 2961.2,711.8 "/>
<polygon class="st7" points="2675.2,708 2625.4,847.9 2639.3,852.7 2688,713.5 "/>
<rect x="2920.8" y="592.6" class="st7" width="122.7" height="15.1"/>
<rect x="2866.1" y="643.5" class="st26" width="69.3" height="15.1"/>
<rect x="2951.3" y="643.5" class="st26" width="46.4" height="15.1"/>
<rect x="3281" y="637.6" class="st2" width="26.1" height="191.1"/>
<g>
	<defs>
		<path id="SVGID_19_" d="M2418.5,1096.7l12-729c0.3-18.9,15.7-34.1,34.6-34.1h1201.3c29.8,0,53.8,24.3,53.5,54.1l-7.5,706.8
			L2418.5,1096.7z"/>
	</defs>
	<clipPath id="SVGID_20_">
		<use xlink:href="#SVGID_19_"  style="overflow:visible;"/>
	</clipPath>
	<polygon class="st41" points="2272.1,1125 3096.3,1125 3530.4,311.4 2712.2,311.4 	"/>
	<polygon class="st41" points="2199,1125 2247.8,1125 2681.8,311.4 2639.2,311.4 	"/>
	<polygon class="st41" points="4072.6,634.9 3739,634.9 3475.5,1121.9 3475.5,1611 3551.8,1611 	"/>
</g>
<g>
	<path class="st7" d="M1714,1139.9h-4.8v-9.2h4.8V1139.9z M1721.4,1139.9h-4.8v-9.2h4.8V1139.9z"/>
	<path class="st7" d="M1742.2,1156.7c-0.2,0.2-0.4,0.4-0.7,0.7c-0.3,0.3-0.9,0.6-1.9,1.1c-1,0.4-2,0.7-3.1,0.7
		c-2.2,0-4.1-0.8-5.5-2.3s-2.1-3.5-2.1-6v-11.7h5.4v11.2c0,1.1,0.4,2,1.1,2.7c0.7,0.7,1.6,1.1,2.7,1.1c1.2,0,2.2-0.4,2.9-1.2
		c0.7-0.8,1.1-1.9,1.1-3.4v-10.4h5.4v19.6h-5.4V1156.7z"/>
	<path class="st7" d="M1766.8,1144.9c-0.1-0.1-0.2-0.2-0.4-0.4c-0.2-0.2-0.5-0.4-1.1-0.7s-1.1-0.4-1.7-0.4c-0.7,0-1.3,0.2-1.8,0.5
		c-0.4,0.3-0.6,0.7-0.6,1.1c0,0.5,0.3,0.9,0.9,1.3c0.6,0.3,1.4,0.6,2.2,0.9c0.9,0.3,1.8,0.6,2.7,1s1.7,1,2.3,1.8
		c0.6,0.8,0.9,1.9,0.9,3.1c0,1.8-0.7,3.2-2.1,4.4c-1.4,1.2-3.3,1.8-5.7,1.8c-1,0-2-0.1-3-0.4c-0.9-0.2-1.7-0.5-2.3-0.9
		s-1.1-0.7-1.5-1c-0.4-0.3-0.8-0.6-0.9-0.9l-0.3-0.4l3-3c0.1,0.2,0.3,0.4,0.5,0.6c0.2,0.2,0.7,0.6,1.4,1s1.5,0.6,2.3,0.6
		c0.9,0,1.5-0.2,1.9-0.5s0.7-0.8,0.7-1.3c0-0.5-0.3-1-0.9-1.3c-0.6-0.4-1.4-0.7-2.3-0.9c-0.9-0.3-1.8-0.6-2.7-1
		c-0.9-0.4-1.6-1-2.2-1.8c-0.6-0.8-0.9-1.8-0.9-3c0-1.6,0.7-3,2.2-4.3c1.5-1.3,3.3-1.9,5.4-1.9c1.4,0,2.6,0.3,3.7,0.8s1.9,1,2.4,1.5
		l0.7,0.8L1766.8,1144.9z"/>
	<path class="st7" d="M1781.6,1150.7c0.2,1.1,0.8,2,1.7,2.7c0.9,0.7,2.1,1.1,3.5,1.1c1,0,2-0.2,2.8-0.6c0.9-0.4,1.5-0.8,1.8-1.2
		l0.6-0.6l2.8,3.6l-0.4,0.4c-0.2,0.2-0.5,0.4-1,0.8s-1.1,0.7-1.7,1c-0.6,0.3-1.4,0.6-2.3,0.8s-1.9,0.4-3,0.4c-2.9,0-5.3-1-7.4-3
		c-2-2-3-4.4-3-7.2c0-2.8,1-5.2,3-7.2c2-2,4.4-3,7.2-3s5.1,0.9,7,2.8c1.9,1.9,2.8,4.2,2.8,7l-0.2,2.2H1781.6z M1783.3,1144.3
		c-0.8,0.7-1.4,1.5-1.7,2.6h9c-0.2-1-0.7-1.9-1.5-2.6c-0.8-0.7-1.8-1-2.9-1S1784.1,1143.6,1783.3,1144.3z"/>
	<path class="st7" d="M1814.8,1144.3c-0.4-0.1-1-0.2-1.8-0.2c-1.4,0-2.5,0.4-3.4,1.3s-1.2,2.2-1.2,3.9v9.4h-5.4v-19.6h5.4v2.4
		c0.2-0.2,0.4-0.4,0.7-0.7s0.9-0.7,1.9-1.2c1-0.5,2-0.7,3.1-0.7h0.8V1144.3z"/>
	<path class="st7" d="M1826.1,1141.5c0.2-0.2,0.4-0.5,0.7-0.8c0.3-0.3,0.9-0.7,1.9-1.2c1-0.5,2-0.8,3.1-0.8c2.2,0,4.1,0.8,5.5,2.3
		c1.4,1.5,2.1,3.6,2.1,6.3v11.4h-5.4v-10.8c0-1.2-0.4-2.2-1.1-2.9c-0.7-0.7-1.6-1.1-2.7-1.1c-1.2,0-2.2,0.4-2.9,1.2
		s-1.1,1.9-1.1,3.4v10.2h-5.4v-19.6h5.4V1141.5z"/>
	<path class="st7" d="M1858.3,1156.7c-0.2,0.2-0.4,0.4-0.7,0.7c-0.3,0.3-0.9,0.6-1.8,1.1c-0.9,0.4-1.9,0.7-2.9,0.7
		c-2,0-3.5-0.5-4.8-1.6c-1.2-1.1-1.8-2.4-1.8-4c0-1.6,0.5-2.9,1.5-4c1-1.1,2.4-1.8,4.3-2.1l6.2-1.1c0-0.8-0.3-1.5-0.9-2
		c-0.6-0.5-1.4-0.8-2.5-0.8c-0.9,0-1.7,0.2-2.4,0.5s-1.2,0.7-1.5,1l-0.4,0.5l-3-3c0.1-0.1,0.2-0.2,0.3-0.4s0.4-0.5,0.9-0.9
		s1-0.8,1.6-1.1s1.3-0.6,2.2-0.9c0.9-0.3,1.8-0.4,2.8-0.4c2.5,0,4.5,0.7,6.1,2.2c1.6,1.5,2.3,3.3,2.3,5.6v12.2h-5.4V1156.7z
		 M1857.3,1153.5c0.7-0.8,1.1-1.9,1.1-3.2v-0.6l-4.4,0.8c-1.5,0.2-2.2,1-2.2,2.2c0,1.3,0.9,2,2.6,2
		C1855.6,1154.7,1856.5,1154.3,1857.3,1153.5z"/>
	<path class="st7" d="M1896.3,1147.9c0-1.2-0.3-2.2-0.9-2.9c-0.6-0.7-1.4-1.1-2.3-1.1c-1,0-1.9,0.4-2.6,1.2c-0.7,0.8-1,1.9-1,3.4
		v10.2h-5.4v-10.8c0-1.2-0.3-2.2-0.9-2.9c-0.6-0.7-1.4-1.1-2.3-1.1c-1,0-1.9,0.4-2.6,1.2c-0.7,0.8-1,1.9-1,3.4v10.2h-5.4v-19.6h5.4
		v2.4c0.1-0.2,0.3-0.5,0.6-0.8c0.3-0.3,0.9-0.7,1.7-1.2c0.9-0.5,1.8-0.8,2.9-0.8c0.8,0,1.5,0.1,2.2,0.4c0.7,0.2,1.2,0.5,1.6,0.8
		c0.4,0.3,0.8,0.6,1,1s0.5,0.6,0.6,0.9l0.2,0.4c0.1-0.1,0.1-0.2,0.3-0.4c0.1-0.2,0.4-0.4,0.8-0.8c0.4-0.4,0.8-0.7,1.3-1
		c0.5-0.3,1.1-0.6,1.8-0.8c0.8-0.2,1.6-0.4,2.4-0.4c2.2,0,3.9,0.7,5.1,2.2c1.3,1.5,1.9,3.6,1.9,6.4v11.4h-5.4V1147.9z"/>
	<path class="st7" d="M1914.3,1150.7c0.2,1.1,0.8,2,1.7,2.7c0.9,0.7,2.1,1.1,3.5,1.1c1,0,2-0.2,2.8-0.6c0.9-0.4,1.5-0.8,1.8-1.2
		l0.6-0.6l2.8,3.6l-0.4,0.4c-0.2,0.2-0.5,0.4-1,0.8s-1.1,0.7-1.7,1c-0.6,0.3-1.4,0.6-2.3,0.8s-1.9,0.4-3,0.4c-2.9,0-5.3-1-7.4-3
		c-2-2-3-4.4-3-7.2c0-2.8,1-5.2,3-7.2c2-2,4.4-3,7.2-3s5.1,0.9,7,2.8c1.9,1.9,2.8,4.2,2.8,7l-0.2,2.2H1914.3z M1916,1144.3
		c-0.8,0.7-1.4,1.5-1.7,2.6h9c-0.2-1-0.7-1.9-1.5-2.6c-0.8-0.7-1.8-1-2.9-1S1916.8,1143.6,1916,1144.3z"/>
	<path class="st7" d="M1940.3,1139.9h-4.8v-9.2h4.8V1139.9z M1947.7,1139.9h-4.8v-9.2h4.8V1139.9z"/>
</g>
<rect x="1277.2" y="1181.6" class="st5" width="35" height="28"/>
<path class="st1" d="M2430.9,1095.5h1290.4l172.4,158.9c12,11.1,4.2,31.2-12.2,31.2l-1624.7,2c-16.7,0-24.4-20.7-11.8-31.6
	L2430.9,1095.5z"/>
<g>
	<g>
		<polygon class="st5" points="2652.9,1132.6 2595.6,1132.6 2618.5,1112.1 2672.8,1112.1 		"/>
		<polygon class="st5" points="2717.8,1132.6 2660.6,1132.6 2680.1,1112.1 2734.4,1112.1 		"/>
		<polygon class="st5" points="2782.8,1132.6 2725.5,1132.6 2741.7,1112.1 2796,1112.1 		"/>
		<polygon class="st5" points="2847.7,1132.7 2790.4,1132.6 2803.3,1112.1 2857.6,1112.1 		"/>
		<polygon class="st5" points="2912.6,1132.7 2855.4,1132.7 2864.9,1112.1 2919.2,1112.1 		"/>
		<polygon class="st5" points="2977.6,1132.7 2920.3,1132.7 2926.5,1112.1 2980.8,1112.1 		"/>
		<polygon class="st5" points="3042.5,1132.8 2985.2,1132.7 2988.1,1112.1 3042.4,1112.1 		"/>
		<polygon class="st5" points="3107.4,1132.8 3050.2,1132.8 3049.7,1112.1 3104,1112.1 		"/>
		<polygon class="st5" points="3172.4,1132.8 3115.1,1132.8 3111.3,1112.1 3165.6,1112.1 		"/>
		<polygon class="st5" points="3237.3,1132.8 3180,1132.8 3172.9,1112.1 3227.2,1112.1 		"/>
		<polygon class="st5" points="3302.2,1132.9 3245,1132.8 3234.5,1112.1 3288.8,1112.1 		"/>
		<polygon class="st5" points="2585.3,1202 2518.1,1201.9 2541,1181.4 2605.3,1181.5 		"/>
		<polygon class="st5" points="2661.6,1202.1 2594.3,1202 2613.9,1181.5 2678.2,1181.6 		"/>
		<polygon class="st5" points="2737.8,1202.2 2670.6,1202.1 2686.8,1181.6 2751.1,1181.7 		"/>
		<polygon class="st5" points="2814.1,1202.3 2746.8,1202.2 2759.7,1181.7 2824,1181.8 		"/>
		<polygon class="st5" points="3271.5,1203.1 2823.1,1202.4 2832.6,1181.8 3261.4,1182.3 		"/>
		<polygon class="st5" points="3347.7,1203.2 3280.5,1203.1 3270,1182.3 3334.3,1182.4 		"/>
		<polygon class="st5" points="2598.1,1225.2 2527.5,1225 2548.9,1204.6 2616.6,1204.7 		"/>
		<polygon class="st5" points="3500.2,1203.4 3356.7,1203.2 3342.9,1182.4 3480.1,1182.6 		"/>
		<polygon class="st5" points="2607.9,1178.9 2544,1178.8 2566.8,1158.3 2627.8,1158.4 		"/>
		<polygon class="st5" points="2680.3,1178.9 2616.4,1178.9 2636,1158.4 2696.9,1158.4 		"/>
		<polygon class="st5" points="2752.8,1179 2688.9,1178.9 2705.1,1158.4 2766.1,1158.5 		"/>
		<polygon class="st5" points="2825.3,1179.1 2761.4,1179 2774.2,1158.5 2835.2,1158.6 		"/>
		<polygon class="st5" points="2897.7,1179.2 2833.8,1179.1 2843.4,1158.6 2904.3,1158.6 		"/>
		<polygon class="st5" points="2970.2,1179.3 2906.3,1179.2 2912.5,1158.6 2973.5,1158.7 		"/>
		<polygon class="st5" points="3042.7,1179.4 2978.8,1179.3 2981.6,1158.7 3042.6,1158.7 		"/>
		<polygon class="st5" points="3115.2,1179.5 3051.2,1179.4 3050.8,1158.8 3111.7,1158.8 		"/>
		<polygon class="st5" points="3187.6,1179.6 3123.7,1179.5 3119.9,1158.8 3180.9,1158.9 		"/>
		<polygon class="st5" points="3260.1,1179.6 3196.2,1179.6 3189,1158.9 3250,1158.9 		"/>
		<polygon class="st5" points="3332.6,1179.7 3268.6,1179.7 3258.2,1158.9 3319.1,1159 		"/>
		<polygon class="st5" points="2691,1155.8 2569.8,1155.7 2592.7,1135.2 2708,1135.3 		"/>
		<polygon class="st5" points="2759.7,1155.8 2699.1,1155.8 2715.7,1135.3 2773.3,1135.3 		"/>
		<polygon class="st5" points="2828.4,1155.9 2767.8,1155.8 2781.1,1135.3 2838.7,1135.3 		"/>
		<polygon class="st5" points="2897.1,1155.9 2836.5,1155.9 2846.4,1135.3 2904.1,1135.4 		"/>
		<polygon class="st5" points="2965.8,1156 2905.2,1156 2911.8,1135.4 2969.4,1135.4 		"/>
		<polygon class="st5" points="3034.5,1156.1 2973.9,1156 2977.1,1135.4 3034.8,1135.4 		"/>
		<polygon class="st5" points="3103.2,1156.1 3042.6,1156.1 3042.5,1135.4 3100.2,1135.5 		"/>
		<polygon class="st5" points="3171.9,1156.2 3111.3,1156.1 3107.9,1135.5 3165.5,1135.5 		"/>
		<polygon class="st5" points="3240.6,1156.2 3180,1156.2 3173.2,1135.5 3230.9,1135.5 		"/>
		<polygon class="st5" points="3309.3,1156.3 3248.7,1156.2 3238.6,1135.5 3296.2,1135.6 		"/>
		<polygon class="st5" points="3378,1156.3 3317.4,1156.3 3304,1135.6 3361.6,1135.6 		"/>
		<polygon class="st5" points="3376.2,1112.1 3357.7,1112.1 3296.1,1112.1 3309.9,1132.9 3374.8,1132.9 3394.4,1132.9 
			3432.1,1132.9 3412,1112.1 		"/>
		<polygon class="st5" points="3497,1132.9 3439.7,1132.9 3419.3,1112.1 3473.6,1112.1 		"/>
		<polygon class="st5" points="3574.7,1180 3486.1,1179.9 3465.6,1159.1 3550.1,1159.2 		"/>
		<polygon class="st5" points="3602.4,1203.6 3509.2,1203.4 3488.7,1182.6 3577.9,1182.7 		"/>
		<polygon class="st5" points="3561.9,1133 3504.7,1132.9 3480.9,1112.1 3535.2,1112.1 		"/>
		<polygon class="st5" points="3327.3,1159 3341.1,1179.7 3477.5,1179.9 3434.7,1135.6 3373.2,1135.6 3392.4,1159.1 		"/>
	</g>
</g>
<polyline class="st42" points="2768.9,1262 2796,1227.8 3343.1,1227.8 3380.7,1262 "/>
<line class="st43" x1="2158.1" y1="254.7" x2="2158.1" y2="183.2"/>
<line class="st44" x1="2158.1" y1="254.7" x2="2214.3" y2="300.6"/>
<circle class="st7" cx="2158.1" cy="254.7" r="6.7"/>
<rect x="5594.3" y="738.5" class="st2" width="265.5" height="20.4"/>
<rect x="5304.2" y="859.1" class="st2" width="265.5" height="20.4"/>
<rect x="3715" y="846.5" class="st2" width="214.6" height="20.4"/>
<rect x="1969.6" y="841" class="st2" width="326.8" height="20.4"/>
<g>
	<path class="st45" d="M1689.5,821.1c0,0-37.5-45.9-15.7-124.9c17.4-62.9,71.3-139.9,71.3-226.9c0-128.1-55.6-177.6-55.6-177.6"/>
	<path class="st45" d="M1850.7,265.8c0,0,67.9,93,58.2,234.8c-8.3,120.7-97.3,200.8-97.3,304c0,58,30.2,128.9,30.2,128.9"/>
	<line class="st45" x1="1925.4" y1="920.4" x2="2012.5" y2="777.7"/>
</g>
<rect x="668.4" y="496.7" class="st40" width="383.9" height="265.6"/>
<circle class="st46" cx="858.7" cy="629.5" r="74.3"/>
<polyline class="st47" points="820,626.6 853.2,653.8 899.9,600.1 "/>
<rect x="4901.5" y="506.1" class="st40" width="438" height="303"/>
<path class="st7" d="M5323.5,655.5l-4-24.3c-0.6-3.7-3.5-6.5-7.2-7l-81-10c-2.3-0.3-4.3-1.5-5.7-3.3l-10-13.3
	c-1.8-2.4-4.6-3.8-7.6-3.5c-3.8,0.3-6.8,3.2-7.5,6.8l-0.8,4.4c-0.9,4.8-5.8,7.8-10.5,6.5l-45.3-13.1c-5.2-1.5-7.6-7.4-5-12.1
	l7.4-13.3c1.7-3,1.3-6.7-0.8-9.4l-8.2-10c-2.8-3.4-7.8-4.1-11.4-1.5l-128.9,92.3c-3.6,2.6-8.6,1.9-11.4-1.6l-10.8-13.5
	c-4.7-5.9-13.3-7.1-19.4-2.6l0,0c-6.2,4.5-7.7,13.1-3.4,19.4l9.7,14.4c2.6,3.9,1.5,9.1-2.4,11.7l-2.9,1.9c-2.4,1.5-3.8,4.2-3.8,7
	v12.3c0,2.6,1.2,5.1,3.3,6.7l25.7,19.6c2.7,2.1,3.9,5.6,3,8.9l-6.4,23.1c-1.3,4.7,1.7,9.5,6.4,10.4l23.4,4.7c4.5,0.9,8.8-2,9.8-6.4
	l9.7-43.6c0.9-4,4.5-6.8,8.6-6.5l0.8,0c3.6,0.2,6.8,2.5,8.1,5.8l4.7,11.7c1.7,4.1,5.7,6.8,10.1,6.8h17.6c2.6,0,5.1-0.9,7.1-2.7
	l4.9-4.2c2-1.7,4.5-2.7,7.1-2.7h4.7c3.5,0,7,1.6,8.9,4.6c2,3.1,5.4,4.9,9.1,4.9h15.9c4.9,0,9.2-3.3,10.5-8l0.7-2.7
	c1.2-4.2,5.1-7.1,9.5-6.8l7.5,0.4c2.1,0.1,4.2,1.1,5.6,2.6l7.7,8.2c3.3,3.5,3,9-0.7,12.1l-7.1,6.1c-3.6,3.1-3.9,8.6-0.7,12.1
	l5.8,6.1c2.8,3,7.5,3.5,10.9,1.1l27.3-19.1c4-2.8,4.8-8.5,1.6-12.2l-19.6-23.3c-2.9-3.5-2.5-8.6,0.9-11.7l35.7-31.6
	c3.3-2.9,8.4-2.8,11.5,0.4l8.3,8.4c3,3.1,3.2,8,0.4,11.3l-14.2,16.9c-2.4,2.8-2.6,6.9-0.6,10l2.4,3.6c2.7,4.1,8.4,5,12.3,1.8
	l69.6-57.1C5322.8,661.5,5324,658.5,5323.5,655.5z"/>
<g>
	<path class="st1" d="M5627.3,671.6c0,0-14.7,66.3,6,77.7c12.6,6.9,28.1,5.1,28.1,5.1l1,44h54.1l6.7-115.4l-26.4-36.7L5627.3,671.6z
		"/>
	
		<linearGradient id="SVGID_21_" gradientUnits="userSpaceOnUse" x1="3758.189" y1="1093.1022" x2="3926.1719" y2="1093.1022" gradientTransform="matrix(0.9608 0.2772 -0.2772 0.9608 2307.0259 -1438.374)">
		<stop  offset="0" style="stop-color:#0B155B"/>
		<stop  offset="0.2663" style="stop-color:#0A1962"/>
		<stop  offset="0.6424" style="stop-color:#092574"/>
		<stop  offset="1" style="stop-color:#07348C"/>
	</linearGradient>
	<path class="st48" d="M5691,677.2l-76.8-4.3c0,0-14.4-79.5,113.4-64.2c58.4,7,58.8,143.9,13.1,150.7c-35.8,5.3-43.5-7.1-44.2-13.6
		c-1.3-12.6-3.7-39.1-3.7-39.1L5691,677.2z"/>
	<path class="st1" d="M5691.8,702.1c0,0,15.1-14.1,20.4,0.5c5.3,14.7-22,24.4-22,24.4L5691.8,702.1z"/>
	<path class="st5" d="M5548.3,905.5c0,0-14.5-114.8,89.1-114.8c103.5,0,159-18.5,185.2,25.8c26.1,44.3,36.7,111.5,36.7,111.5
		L5548.3,905.5z"/>
	<path class="st5" d="M5665.4,732.6H5612c-4.7,0-8.6-3.8-8.6-8.6v-34.6c0-4.7,3.8-8.6,8.6-8.6h53.4c4.7,0,8.6,3.8,8.6,8.6V724
		C5674,728.8,5670.1,732.6,5665.4,732.6z"/>
</g>
<g>
	<path class="st1" d="M1537,483.3c0,0,11.7,52.9-4.8,61.9c-10.1,5.5-22.4,4.1-22.4,4.1l-0.8,35.1h-43.1l-5.4-92.1l21.1-29.3
		L1537,483.3z"/>
	
		<linearGradient id="SVGID_22_" gradientUnits="userSpaceOnUse" x1="679.3995" y1="1788.0383" x2="813.407" y2="1788.0383" gradientTransform="matrix(-0.9608 0.2772 0.2772 0.9608 1703.7828 -1438.374)">
		<stop  offset="0" style="stop-color:#0B155B"/>
		<stop  offset="0.2663" style="stop-color:#0A1962"/>
		<stop  offset="0.6424" style="stop-color:#092574"/>
		<stop  offset="1" style="stop-color:#07348C"/>
	</linearGradient>
	<path class="st49" d="M1483.9,485.4l63.6-1.1c0,0,11.5-63.4-90.5-51.2c-46.6,5.6-46.9,114.9-10.4,120.2
		c23.1,3.4,30.9-8.3,33.4-13.8c4.2-9.2,4.7-28.2,4.7-28.2L1483.9,485.4z"/>
	<path class="st1" d="M1485.6,507.6c0,0-12-11.3-16.3,0.4c-4.2,11.7,17.5,19.4,17.5,19.4L1485.6,507.6z"/>
	<path class="st5" d="M1600.1,669.8c0,0,11.5-96-71-96.1c-82.6,0-126.9-10.2-147.7,25.1c-20.8,35.3-29.3,149.9-29.3,149.9
		L1600.1,669.8z"/>
</g>
<g>
	<linearGradient id="SVGID_23_" gradientUnits="userSpaceOnUse" x1="5513.1719" y1="1062.3881" x2="5886.3013" y2="1062.3881">
		<stop  offset="0" style="stop-color:#0B155B"/>
		<stop  offset="0.2663" style="stop-color:#0A1962"/>
		<stop  offset="0.6424" style="stop-color:#092574"/>
		<stop  offset="1" style="stop-color:#07348C"/>
	</linearGradient>
	<path class="st50" d="M5852.2,850.1c-25-11-70.1-7.7-104.8-2.8c-31.6,4.5-63.7,4.5-95.3,0c-34.7-5-79.8-8.2-104.8,2.8
		c-44.3,19.5-40.5,62.3-16.5,138.9s36,87.2,21.3,129.9c-12,34.9-27.3,100.7-9.8,133c23.1,42.7,157.5,27.7,157.5,27.7
		s134.3,15.1,157.5-27.7c17.5-32.4,2.2-98.1-9.8-133c-14.7-42.7-2.7-53.3,21.3-129.9S5896.5,869.5,5852.2,850.1z"/>
	<rect x="5579.3" y="1274.9" class="st5" width="220.6" height="35.3"/>
	<path class="st5" d="M5716.3,1334.2h-50.2c-23,0-41.6-18.6-41.6-41.6l0,0H5758l0,0C5758,1315.6,5739.3,1334.2,5716.3,1334.2z"/>
	<rect x="5675.9" y="1295.8" class="st5" width="27.5" height="96.5"/>
	<polygon class="st5" points="5693.2,1370.5 5691.2,1370.5 5687.7,1370.5 5685.7,1370.5 5480.7,1454.5 5480.7,1493 5493.2,1493 
		5493.2,1464.5 5666.7,1431.7 5673.7,1511.5 5685.2,1511.5 5693.7,1511.5 5705.2,1511.5 5712.2,1431.7 5885.7,1464.5 5885.7,1493 
		5898.2,1493 5898.2,1454.5 	"/>
	<rect x="5469.7" y="1497.5" class="st5" width="35" height="28"/>
	<rect x="5874.7" y="1497.5" class="st5" width="35" height="28"/>
	<rect x="5672" y="1516.5" class="st5" width="35" height="28"/>
	<path class="st9" d="M5495.1,1133.2v80.3c0,38.9,31.6,70.5,70.5,70.5h22.7"/>
	<path class="st5" d="M5525,1147.2h-59.8c-2.4,0-4.4-2-4.4-4.4l0,0c0-19,15.4-34.3,34.3-34.3h0c19,0,34.3,15.4,34.3,34.3l0,0
		C5529.4,1145.3,5527.4,1147.2,5525,1147.2z"/>
	<path class="st9" d="M5893.2,1133.2v80.3c0,38.9-31.6,70.5-70.5,70.5H5800"/>
	<path class="st5" d="M5863.3,1147.2h59.8c2.4,0,4.4-2,4.4-4.4l0,0c0-19-15.4-34.3-34.3-34.3l0,0c-19,0-34.3,15.4-34.3,34.3l0,0
		C5858.9,1145.3,5860.9,1147.2,5863.3,1147.2z"/>
</g>
<linearGradient id="SVGID_24_" gradientUnits="userSpaceOnUse" x1="1335.9851" y1="801.3751" x2="1658.6344" y2="801.3751">
	<stop  offset="0" style="stop-color:#0B155B"/>
	<stop  offset="0.2663" style="stop-color:#0A1962"/>
	<stop  offset="0.6424" style="stop-color:#092574"/>
	<stop  offset="1" style="stop-color:#07348C"/>
</linearGradient>
<path class="st51" d="M1597.5,621.8c0,0-75.7,0-97.3,0c-0.4,0-2.4,0-5.7,0c-21.7,0-97.3,0-97.3,0s-71,178.4-60,269
	c11.2,92.5,128.5,91.6,160.2,89.6c31.6,1.9,148.9,2.8,160.2-89.6C1668.5,800.3,1597.5,621.8,1597.5,621.8z"/>
<line class="st52" x1="1631.1" y1="879.5" x2="1682" y2="952"/>
</svg>
