<?xml version="1.0" encoding="utf-8"?>
<!-- Generator: Adobe Illustrator 21.0.2, SVG Export Plug-In . SVG Version: 6.00 Build 0)  -->
<svg version="1.1" id="Layer_1" xmlns="http://www.w3.org/2000/svg" xmlns:xlink="http://www.w3.org/1999/xlink" x="0px" y="0px"
	 viewBox="0 0 7231 1676" style="enable-background:new 0 0 7231 1676;" xml:space="preserve">
<style type="text/css">
	.st0{clip-path:url(#SVGID_2_);fill:#07348C;}
	.st1{clip-path:url(#SVGID_2_);fill:url(#SVGID_3_);}
	.st2{opacity:0.44;clip-path:url(#SVGID_2_);fill:url(#SVGID_4_);enable-background:new    ;}
	.st3{clip-path:url(#SVGID_2_);fill:url(#SVGID_5_);}
	.st4{clip-path:url(#SVGID_2_);}
	.st5{fill:url(#SVGID_6_);}
	.st6{fill:url(#SVGID_7_);}
	.st7{fill:url(#SVGID_8_);}
	.st8{fill:url(#SVGID_9_);}
	.st9{clip-path:url(#SVGID_2_);fill:none;stroke:#00AFE4;stroke-width:2;stroke-miterlimit:10;}
	.st10{fill:url(#SVGID_10_);}
	.st11{fill:url(#SVGID_11_);}
	.st12{clip-path:url(#SVGID_2_);fill:#0B155B;}
	.st13{opacity:0.66;clip-path:url(#SVGID_2_);fill:#0B155B;enable-background:new    ;}
	.st14{clip-path:url(#SVGID_2_);fill:url(#SVGID_12_);}
	.st15{opacity:0.22;clip-path:url(#SVGID_2_);fill:#0B155B;enable-background:new    ;}
	.st16{clip-path:url(#SVGID_2_);fill:url(#SVGID_13_);}
	.st17{clip-path:url(#SVGID_2_);fill:url(#SVGID_14_);}
	.st18{opacity:0.59;clip-path:url(#SVGID_2_);fill:#07348C;enable-background:new    ;}
	.st19{opacity:0.66;clip-path:url(#SVGID_2_);fill:#07348C;enable-background:new    ;}
	.st20{clip-path:url(#SVGID_2_);fill:none;stroke:#0B155B;stroke-width:19;stroke-miterlimit:10;}
	.st21{clip-path:url(#SVGID_2_);fill:url(#SVGID_15_);}
	.st22{clip-path:url(#SVGID_2_);fill:url(#SVGID_16_);}
	.st23{clip-path:url(#SVGID_2_);fill:none;stroke:#07348C;stroke-width:13;stroke-miterlimit:10;}
	.st24{fill:#0058AF;}
	.st25{opacity:0.57;clip-path:url(#SVGID_2_);fill:#07348C;enable-background:new    ;}
	.st26{opacity:0.39;clip-path:url(#SVGID_2_);fill:#0B155B;enable-background:new    ;}
	.st27{clip-path:url(#SVGID_2_);fill:#0058AF;}
	.st28{clip-path:url(#SVGID_2_);fill:url(#SVGID_17_);}
	.st29{clip-path:url(#SVGID_2_);fill:url(#SVGID_18_);}
	.st30{opacity:0.81;clip-path:url(#SVGID_2_);fill:#00AFE4;enable-background:new    ;}
	.st31{clip-path:url(#SVGID_2_);fill:#00AFE4;}
	.st32{clip-path:url(#SVGID_2_);fill:none;stroke:#07348C;stroke-width:3;stroke-miterlimit:10;}
	.st33{clip-path:url(#SVGID_2_);fill:#FF0300;}
	.st34{fill:none;stroke:#00AFE4;stroke-width:15;stroke-miterlimit:10;}
	.st35{fill:none;stroke:#00AFE4;stroke-width:4;stroke-miterlimit:10;}
	.st36{opacity:0.52;clip-path:url(#SVGID_2_);fill:#0058AF;enable-background:new    ;}
	.st37{opacity:0.36;clip-path:url(#SVGID_2_);fill:#0058AF;enable-background:new    ;}
	.st38{opacity:0.45;clip-path:url(#SVGID_2_);fill:#0058AF;enable-background:new    ;}
	.st39{clip-path:url(#SVGID_2_);fill:none;stroke:#0058AF;stroke-width:9;stroke-miterlimit:10;}
	.st40{clip-path:url(#SVGID_2_);fill:none;stroke:#0B155B;stroke-width:9;stroke-miterlimit:10;}
	.st41{clip-path:url(#SVGID_2_);fill:none;stroke:#00AFE4;stroke-width:5;stroke-miterlimit:10;}
	.st42{clip-path:url(#SVGID_2_);fill:none;stroke:#00AFE4;stroke-width:3;stroke-miterlimit:10;}
	.st43{opacity:0.44;clip-path:url(#SVGID_2_);fill:url(#SVGID_19_);enable-background:new    ;}
	.st44{clip-path:url(#SVGID_2_);fill:none;stroke:#0B155B;stroke-width:5;stroke-miterlimit:10;}
	.st45{clip-path:url(#SVGID_2_);fill:none;stroke:#00AFE4;stroke-width:4;stroke-miterlimit:10;}
	.st46{fill:#0B155B;}
	.st47{clip-path:url(#SVGID_2_);fill:none;}
	.st48{clip-path:url(#SVGID_2_);enable-background:new    ;}
	.st49{fill:#FF0300;}
	.st50{fill:none;stroke:#00AFE4;stroke-width:5;stroke-miterlimit:10;}
	.st51{clip-path:url(#SVGID_2_);fill:none;stroke:#0B155B;stroke-width:4;stroke-miterlimit:10;}
	.st52{opacity:0.15;clip-path:url(#SVGID_2_);fill:#00AFE4;enable-background:new    ;}
	.st53{clip-path:url(#SVGID_2_);fill:url(#SVGID_20_);}
	.st54{opacity:0.44;clip-path:url(#SVGID_2_);fill:url(#SVGID_21_);enable-background:new    ;}
	.st55{opacity:0.44;clip-path:url(#SVGID_2_);fill:url(#SVGID_22_);enable-background:new    ;}
	.st56{opacity:0.26;clip-path:url(#SVGID_2_);fill:url(#SVGID_23_);enable-background:new    ;}
	.st57{clip-path:url(#SVGID_2_);fill:none;stroke:#FF0300;stroke-width:3;stroke-miterlimit:10;}
	.st58{clip-path:url(#SVGID_2_);fill:none;stroke:#07348C;stroke-width:2;stroke-miterlimit:10;}
	.st59{opacity:0.81;clip-path:url(#SVGID_2_);fill:#07348C;enable-background:new    ;}
	.st60{fill:none;stroke:#0B155B;stroke-width:3;stroke-miterlimit:10;}
	.st61{clip-path:url(#SVGID_2_);fill:none;stroke:#0B155B;stroke-width:2;stroke-miterlimit:10;}
	.st62{clip-path:url(#SVGID_2_);fill:none;stroke:#07348C;stroke-miterlimit:10;}
	.st63{clip-path:url(#SVGID_2_);fill:none;stroke:#FF0300;stroke-width:2;stroke-miterlimit:10;}
	.st64{opacity:0.69;clip-path:url(#SVGID_2_);fill:#07348C;enable-background:new    ;}
	.st65{clip-path:url(#SVGID_2_);fill:none;stroke:#07348C;stroke-width:5;stroke-miterlimit:10;}
	.st66{clip-path:url(#SVGID_2_);fill:url(#SVGID_24_);}
	.st67{clip-path:url(#SVGID_2_);fill:url(#SVGID_25_);}
	.st68{fill:#07348C;}
	.st69{opacity:0.11;clip-path:url(#SVGID_2_);fill:#FF0300;enable-background:new    ;}
	.st70{clip-path:url(#SVGID_2_);fill:url(#SVGID_26_);}
	.st71{clip-path:url(#SVGID_2_);fill:url(#SVGID_27_);}
</style>
<g>
	<defs>
		<rect id="SVGID_1_" y="-10" width="7231" height="1686"/>
	</defs>
	<clipPath id="SVGID_2_">
		<use xlink:href="#SVGID_1_"  style="overflow:visible;"/>
	</clipPath>
	<rect x="-74.2" y="1295.8" class="st0" width="7305.2" height="380.2"/>
	
		<linearGradient id="SVGID_3_" gradientUnits="userSpaceOnUse" x1="-43.2" y1="158.3" x2="7279.6997" y2="158.3" gradientTransform="matrix(1 0 0 -1 0 1676)">
		<stop  offset="0" style="stop-color:#01A3DB;stop-opacity:0.1"/>
		<stop  offset="0.2845" style="stop-color:#0297D2;stop-opacity:0.199"/>
		<stop  offset="0.2896" style="stop-color:#0294D0;stop-opacity:0.2047"/>
		<stop  offset="0.3593" style="stop-color:#0477BB;stop-opacity:0.2828"/>
		<stop  offset="0.4358" style="stop-color:#055EAA;stop-opacity:0.3684"/>
		<stop  offset="0.5222" style="stop-color:#064B9D;stop-opacity:0.4652"/>
		<stop  offset="0.623" style="stop-color:#063E93;stop-opacity:0.578"/>
		<stop  offset="0.7513" style="stop-color:#07368E;stop-opacity:0.7216"/>
		<stop  offset="1" style="stop-color:#07348C"/>
	</linearGradient>
	<rect x="-43.2" y="1296.9" class="st1" width="7322.9" height="441.6"/>
	
		<linearGradient id="SVGID_4_" gradientUnits="userSpaceOnUse" x1="51.1" y1="44.4" x2="538.1" y2="44.4" gradientTransform="matrix(1 0 0 -1 0 1676)">
		<stop  offset="0" style="stop-color:#0B155B"/>
		<stop  offset="0.2663" style="stop-color:#0A1962"/>
		<stop  offset="0.6424" style="stop-color:#092574"/>
		<stop  offset="1" style="stop-color:#07348C"/>
	</linearGradient>
	<ellipse class="st2" cx="294.6" cy="1631.6" rx="243.5" ry="59.5"/>
	
		<linearGradient id="SVGID_5_" gradientUnits="userSpaceOnUse" x1="1471.5458" y1="-1137.9458" x2="5768.7373" y2="3159.2458" gradientTransform="matrix(1 0 0 -1 0 1676)">
		<stop  offset="0" style="stop-color:#0B155B"/>
		<stop  offset="0.2663" style="stop-color:#0A1962"/>
		<stop  offset="0.6424" style="stop-color:#092574"/>
		<stop  offset="1" style="stop-color:#07348C"/>
	</linearGradient>
	<rect x="-13.9" y="2.2" class="st3" width="7268.1" height="1326.3"/>
	<g class="st4">
		
			<linearGradient id="SVGID_6_" gradientUnits="userSpaceOnUse" x1="3940.3999" y1="1013.9" x2="6142.0005" y2="1013.9" gradientTransform="matrix(1 0 0 -1 0 1676)">
			<stop  offset="7.023552e-03" style="stop-color:#01A3DB;stop-opacity:0"/>
			<stop  offset="0.4294" style="stop-color:#0297D2;stop-opacity:0.199"/>
			<stop  offset="0.4335" style="stop-color:#0294D0;stop-opacity:0.2047"/>
			<stop  offset="0.4891" style="stop-color:#0477BB;stop-opacity:0.2828"/>
			<stop  offset="0.5501" style="stop-color:#055EAA;stop-opacity:0.3684"/>
			<stop  offset="0.619" style="stop-color:#064B9D;stop-opacity:0.4652"/>
			<stop  offset="0.6994" style="stop-color:#063E93;stop-opacity:0.578"/>
			<stop  offset="0.8017" style="stop-color:#07368E;stop-opacity:0.7216"/>
			<stop  offset="1" style="stop-color:#07348C"/>
		</linearGradient>
		<path class="st5" d="M6141.3,4V2.2H3941.4V4h-1v1318h2v-144.6H4087V1322h2v-144.6h144.6V1322h2v-144.6h144.6V1322h2v-144.6H4527
			V1322h2v-144.6h144.6V1322h2v-144.6h144.6V1322h2v-144.6H4967V1322h2v-144.6h144.6V1322h2v-144.6h144.6V1322h2v-144.6H5407V1322h2
			v-144.6h144.6V1322h2v-144.6h144.6V1322h2v-144.6h144.6V1322h2v-144.6h144.6V1322h2v-144.6H6140V1322h2V4H6141.3z M4087,1175.4
			h-144.6v-144.6H4087V1175.4z M4087,1028.8h-144.6V884.1H4087V1028.8z M4087,882.1h-144.6V737.5H4087V882.1z M4087,735.5h-144.6
			V590.8H4087V735.5z M4087,588.8h-144.6V444.2H4087V588.8z M4087,442.1h-144.6V297.5H4087V442.1z M4087,295.5h-144.6V150.8H4087
			V295.5z M4087,148.8h-144.6V4.2H4087V148.8z M4233.7,1175.4h-144.6v-144.6h144.6V1175.4z M4233.7,1028.8h-144.6V884.1h144.6
			V1028.8z M4233.7,882.1h-144.6V737.5h144.6V882.1z M4233.7,735.5h-144.6V590.8h144.6V735.5z M4233.7,588.8h-144.6V444.2h144.6
			V588.8z M4233.7,442.1h-144.6V297.5h144.6V442.1z M4233.7,295.5h-144.6V150.8h144.6V295.5z M4233.7,148.8h-144.6V4.2h144.6V148.8z
			 M4380.4,1175.4h-144.6v-144.6h144.6V1175.4z M4380.4,1028.8h-144.6V884.1h144.6V1028.8z M4380.4,882.1h-144.6V737.5h144.6V882.1z
			 M4380.4,735.5h-144.6V590.8h144.6V735.5z M4380.4,588.8h-144.6V444.2h144.6V588.8z M4380.4,442.1h-144.6V297.5h144.6V442.1z
			 M4380.4,295.5h-144.6V150.8h144.6V295.5z M4380.4,148.8h-144.6V4.2h144.6V148.8z M4527,1175.4h-144.6v-144.6H4527V1175.4z
			 M4527,1028.8h-144.6V884.1H4527V1028.8z M4527,882.1h-144.6V737.5H4527V882.1z M4527,735.5h-144.6V590.8H4527V735.5z M4527,588.8
			h-144.6V444.2H4527V588.8z M4527,442.1h-144.6V297.5H4527V442.1z M4527,295.5h-144.6V150.8H4527V295.5z M4527,148.8h-144.6V4.2
			H4527V148.8z M4673.7,1175.4H4529v-144.6h144.6v144.6H4673.7z M4673.7,1028.8H4529V884.1h144.6v144.7H4673.7z M4673.7,882.1H4529
			V737.5h144.6v144.6H4673.7z M4673.7,735.5H4529V590.8h144.6v144.7H4673.7z M4673.7,588.8H4529V444.2h144.6v144.6H4673.7z
			 M4673.7,442.1H4529V297.5h144.6v144.6H4673.7z M4673.7,295.5H4529V150.8h144.6v144.7H4673.7z M4673.7,148.8H4529V4.2h144.6v144.6
			H4673.7z M4820.3,1175.4h-144.6v-144.6h144.6V1175.4z M4820.3,1028.8h-144.6V884.1h144.6V1028.8z M4820.3,882.1h-144.6V737.5
			h144.6V882.1z M4820.3,735.5h-144.6V590.8h144.6V735.5z M4820.3,588.8h-144.6V444.2h144.6V588.8z M4820.3,442.1h-144.6V297.5
			h144.6V442.1z M4820.3,295.5h-144.6V150.8h144.6V295.5z M4820.3,148.8h-144.6V4.2h144.6V148.8z M4967,1175.4h-144.6v-144.6H4967
			V1175.4z M4967,1028.8h-144.6V884.1H4967V1028.8z M4967,882.1h-144.6V737.5H4967V882.1z M4967,735.5h-144.6V590.8H4967V735.5z
			 M4967,588.8h-144.6V444.2H4967V588.8z M4967,442.1h-144.6V297.5H4967V442.1z M4967,295.5h-144.6V150.8H4967V295.5z M4967,148.8
			h-144.6V4.2H4967V148.8z M5113.6,1175.4H4969v-144.6h144.6V1175.4z M5113.6,1028.8H4969V884.1h144.6V1028.8z M5113.6,882.1H4969
			V737.5h144.6V882.1z M5113.6,735.5H4969V590.8h144.6V735.5z M5113.6,588.8H4969V444.2h144.6V588.8z M5113.6,442.1H4969V297.5
			h144.6V442.1z M5113.6,295.5H4969V150.8h144.6V295.5z M5113.6,148.8H4969V4.2h144.6V148.8z M5260.3,1175.4h-144.6v-144.6h144.6
			V1175.4z M5260.3,1028.8h-144.6V884.1h144.6V1028.8z M5260.3,882.1h-144.6V737.5h144.6V882.1z M5260.3,735.5h-144.6V590.8h144.6
			V735.5z M5260.3,588.8h-144.6V444.2h144.6V588.8z M5260.3,442.1h-144.6V297.5h144.6V442.1z M5260.3,295.5h-144.6V150.8h144.6
			V295.5z M5260.3,148.8h-144.6V4.2h144.6V148.8z M5407,1175.4h-144.6v-144.6H5407V1175.4z M5407,1028.8h-144.6V884.1H5407V1028.8z
			 M5407,882.1h-144.6V737.5H5407V882.1z M5407,735.5h-144.6V590.8H5407V735.5z M5407,588.8h-144.6V444.2H5407V588.8z M5407,442.1
			h-144.6V297.5H5407V442.1z M5407,295.5h-144.6V150.8H5407V295.5z M5407,148.8h-144.6V4.2H5407V148.8z M5553.6,1175.4H5409v-144.6
			h144.6V1175.4z M5553.6,1028.8H5409V884.1h144.6V1028.8z M5553.6,882.1H5409V737.5h144.6V882.1z M5553.6,735.5H5409V590.8h144.6
			V735.5z M5553.6,588.8H5409V444.2h144.6V588.8z M5553.6,442.1H5409V297.5h144.6V442.1z M5553.6,295.5H5409V150.8h144.6V295.5z
			 M5553.6,148.8H5409V4.2h144.6V148.8z M5700.3,1175.4h-144.6v-144.6h144.6V1175.4z M5700.3,1028.8h-144.6V884.1h144.6V1028.8z
			 M5700.3,882.1h-144.6V737.5h144.6V882.1z M5700.3,735.5h-144.6V590.8h144.6V735.5z M5700.3,588.8h-144.6V444.2h144.6V588.8z
			 M5700.3,442.1h-144.6V297.5h144.6V442.1z M5700.3,295.5h-144.6V150.8h144.6V295.5z M5700.3,148.8h-144.6V4.2h144.6V148.8z
			 M5846.9,1175.4h-144.6v-144.6h144.6V1175.4z M5846.9,1028.8h-144.6V884.1h144.6V1028.8z M5846.9,882.1h-144.6V737.5h144.6V882.1z
			 M5846.9,735.5h-144.6V590.8h144.6V735.5z M5846.9,588.8h-144.6V444.2h144.6V588.8z M5846.9,442.1h-144.6V297.5h144.6V442.1z
			 M5846.9,295.5h-144.6V150.8h144.6V295.5z M5846.9,148.8h-144.6V4.2h144.6V148.8z M5993.6,1175.4H5849v-144.6h144.6V1175.4z
			 M5993.6,1028.8H5849V884.1h144.6V1028.8z M5993.6,882.1H5849V737.5h144.6V882.1z M5993.6,735.5H5849V590.8h144.6V735.5z
			 M5993.6,588.8H5849V444.2h144.6V588.8z M5993.6,442.1H5849V297.5h144.6V442.1z M5993.6,295.5H5849V150.8h144.6V295.5z
			 M5993.6,148.8H5849V4.2h144.6V148.8z M6140.2,1175.4h-144.6v-144.6h144.6V1175.4z M6140.2,1028.8h-144.6V884.1h144.6V1028.8z
			 M6140.2,882.1h-144.6V737.5h144.6V882.1z M6140.2,735.5h-144.6V590.8h144.6V735.5z M6140.2,588.8h-144.6V444.2h144.6V588.8z
			 M6140.2,442.1h-144.6V297.5h144.6V442.1z M6140.2,295.5h-144.6V150.8h144.6V295.5z M6140.2,148.8h-144.6V4.2h144.6V148.8z"/>
		
			<linearGradient id="SVGID_7_" gradientUnits="userSpaceOnUse" x1="3941.3999" y1="352.9" x2="6141.2998" y2="352.9" gradientTransform="matrix(1 0 0 -1 0 1676)">
			<stop  offset="7.023552e-03" style="stop-color:#01A3DB;stop-opacity:0"/>
			<stop  offset="0.4294" style="stop-color:#0297D2;stop-opacity:0.199"/>
			<stop  offset="0.4335" style="stop-color:#0294D0;stop-opacity:0.2047"/>
			<stop  offset="0.4891" style="stop-color:#0477BB;stop-opacity:0.2828"/>
			<stop  offset="0.5501" style="stop-color:#055EAA;stop-opacity:0.3684"/>
			<stop  offset="0.619" style="stop-color:#064B9D;stop-opacity:0.4652"/>
			<stop  offset="0.6994" style="stop-color:#063E93;stop-opacity:0.578"/>
			<stop  offset="0.8017" style="stop-color:#07368E;stop-opacity:0.7216"/>
			<stop  offset="1" style="stop-color:#07348C"/>
		</linearGradient>
		<rect x="3941.4" y="1322.1" class="st6" width="2199.9" height="2"/>
	</g>
	<g class="st4">
		
			<linearGradient id="SVGID_8_" gradientUnits="userSpaceOnUse" x1="12025.6895" y1="-9092.1953" x2="14227.4893" y2="-9092.1953" gradientTransform="matrix(-1 0 0 1 19195.2891 9759.1455)">
			<stop  offset="7.023552e-03" style="stop-color:#01A3DB;stop-opacity:0"/>
			<stop  offset="0.4294" style="stop-color:#0297D2;stop-opacity:0.199"/>
			<stop  offset="0.4335" style="stop-color:#0294D0;stop-opacity:0.2047"/>
			<stop  offset="0.4891" style="stop-color:#0477BB;stop-opacity:0.2828"/>
			<stop  offset="0.5501" style="stop-color:#055EAA;stop-opacity:0.3684"/>
			<stop  offset="0.619" style="stop-color:#064B9D;stop-opacity:0.4652"/>
			<stop  offset="0.6994" style="stop-color:#063E93;stop-opacity:0.578"/>
			<stop  offset="0.8017" style="stop-color:#07368E;stop-opacity:0.7216"/>
			<stop  offset="1" style="stop-color:#07348C"/>
		</linearGradient>
		<path class="st7" d="M4968.7,1325v1.9h2199.9v-1.9h1V7h-2v144.6H7023V7h-2v144.6h-144.6V7h-2v144.6h-144.6V7h-2v144.6h-144.6V7h-2
			v144.6h-144.6V7h-2v144.6H6290V7h-2v144.6h-144.6V7h-2v144.6h-144.6V7h-2v144.6h-144.6V7h-2v144.6H5703V7h-2v144.6h-144.6V7h-2
			v144.6h-144.6V7h-2v144.6H5263V7h-2v144.6h-144.6V7h-2v144.6h-144.6V7h-2v1318H4968.7z M7022.9,153.7h144.6v144.6h-144.6V153.7z
			 M7022.9,300.3h144.6v144.6h-144.6V300.3z M7022.9,447h144.6v144.6h-144.6V447z M7022.9,593.6h144.6v144.6h-144.6V593.6z
			 M7022.9,740.3h144.6v144.6h-144.6V740.3z M7022.9,886.9h144.6v144.6h-144.6V886.9z M7022.9,1033.6h144.6v144.6h-144.6V1033.6z
			 M7022.9,1180.3h144.6v144.6h-144.6V1180.3z M6876.2,153.7h144.6v144.6h-144.6V153.7z M6876.2,300.3h144.6v144.6h-144.6V300.3z
			 M6876.2,447h144.6v144.6h-144.6V447z M6876.2,593.6h144.6v144.6h-144.6V593.6z M6876.2,740.3h144.6v144.6h-144.6V740.3z
			 M6876.2,886.9h144.6v144.6h-144.6V886.9z M6876.2,1033.6h144.6v144.6h-144.6V1033.6z M6876.2,1180.3h144.6v144.6h-144.6V1180.3z
			 M6729.6,153.7h144.6v144.6h-144.6V153.7z M6729.6,300.3h144.6v144.6h-144.6V300.3z M6729.6,447h144.6v144.6h-144.6V447z
			 M6729.6,593.6h144.6v144.6h-144.6V593.6z M6729.6,740.3h144.6v144.6h-144.6V740.3z M6729.6,886.9h144.6v144.6h-144.6V886.9z
			 M6729.6,1033.6h144.6v144.6h-144.6V1033.6z M6729.6,1180.3h144.6v144.6h-144.6V1180.3z M6582.9,153.7h144.6v144.6h-144.6V153.7z
			 M6582.9,300.3h144.6v144.6h-144.6V300.3z M6582.9,447h144.6v144.6h-144.6V447z M6582.9,593.6h144.6v144.6h-144.6V593.6z
			 M6582.9,740.3h144.6v144.6h-144.6V740.3z M6582.9,886.9h144.6v144.6h-144.6V886.9z M6582.9,1033.6h144.6v144.6h-144.6V1033.6z
			 M6582.9,1180.3h144.6v144.6h-144.6V1180.3z M6436.3,153.7h144.6v144.6h-144.6V153.7z M6436.3,300.3h144.6v144.6h-144.6V300.3z
			 M6436.3,447h144.6v144.6h-144.6V447z M6436.3,593.6h144.6v144.6h-144.6V593.6z M6436.3,740.3h144.6v144.6h-144.6V740.3z
			 M6436.3,886.9h144.6v144.6h-144.6V886.9z M6436.3,1033.6h144.6v144.6h-144.6V1033.6z M6436.3,1180.3h144.6v144.6h-144.6V1180.3z
			 M6289.6,153.7h144.6v144.6h-144.6V153.7z M6289.6,300.3h144.6v144.6h-144.6V300.3z M6289.6,447h144.6v144.6h-144.6V447z
			 M6289.6,593.6h144.6v144.6h-144.6V593.6z M6289.6,740.3h144.6v144.6h-144.6V740.3z M6289.6,886.9h144.6v144.6h-144.6V886.9z
			 M6289.6,1033.6h144.6v144.6h-144.6V1033.6z M6289.6,1180.3h144.6v144.6h-144.6V1180.3z M6142.9,153.7h144.6v144.6h-144.6V153.7z
			 M6142.9,300.3h144.6v144.6h-144.6V300.3z M6142.9,447h144.6v144.6h-144.6V447z M6142.9,593.6h144.6v144.6h-144.6V593.6z
			 M6142.9,740.3h144.6v144.6h-144.6V740.3z M6142.9,886.9h144.6v144.6h-144.6V886.9z M6142.9,1033.6h144.6v144.6h-144.6V1033.6z
			 M6142.9,1180.3h144.6v144.6h-144.6V1180.3z M5996.3,153.7h144.6v144.6h-144.6V153.7z M5996.3,300.3h144.6v144.6h-144.6V300.3z
			 M5996.3,447h144.6v144.6h-144.6V447z M5996.3,593.6h144.6v144.6h-144.6V593.6z M5996.3,740.3h144.6v144.6h-144.6V740.3z
			 M5996.3,886.9h144.6v144.6h-144.6V886.9z M5996.3,1033.6h144.6v144.6h-144.6V1033.6z M5996.3,1180.3h144.6v144.6h-144.6V1180.3z
			 M5849.6,153.7h144.6v144.6h-144.6V153.7z M5849.6,300.3h144.6v144.6h-144.6V300.3z M5849.6,447h144.6v144.6h-144.6V447z
			 M5849.6,593.6h144.6v144.6h-144.6V593.6z M5849.6,740.3h144.6v144.6h-144.6V740.3z M5849.6,886.9h144.6v144.6h-144.6V886.9z
			 M5849.6,1033.6h144.6v144.6h-144.6V1033.6z M5849.6,1180.3h144.6v144.6h-144.6V1180.3z M5703,153.7h144.6v144.6H5703V153.7z
			 M5703,300.3h144.6v144.6H5703V300.3z M5703,447h144.6v144.6H5703V447z M5703,593.6h144.6v144.6H5703V593.6z M5703,740.3h144.6
			v144.6H5703V740.3z M5703,886.9h144.6v144.6H5703V886.9z M5703,1033.6h144.6v144.6H5703V1033.6z M5703,1180.3h144.6v144.6H5703
			V1180.3z M5556.3,153.7h144.6v144.6h-144.6V153.7z M5556.3,300.3h144.6v144.6h-144.6V300.3z M5556.3,447h144.6v144.6h-144.6V447z
			 M5556.3,593.6h144.6v144.6h-144.6V593.6z M5556.3,740.3h144.6v144.6h-144.6V740.3z M5556.3,886.9h144.6v144.6h-144.6V886.9z
			 M5556.3,1033.6h144.6v144.6h-144.6V1033.6z M5556.3,1180.3h144.6v144.6h-144.6V1180.3z M5409.7,153.7h144.6v144.6h-144.6V153.7z
			 M5409.7,300.3h144.6v144.6h-144.6V300.3z M5409.7,447h144.6v144.6h-144.6V447z M5409.7,593.6h144.6v144.6h-144.6V593.6z
			 M5409.7,740.3h144.6v144.6h-144.6V740.3z M5409.7,886.9h144.6v144.6h-144.6V886.9z M5409.7,1033.6h144.6v144.6h-144.6V1033.6z
			 M5409.7,1180.3h144.6v144.6h-144.6V1180.3z M5263,153.7h144.6v144.6H5263V153.7z M5263,300.3h144.6v144.6H5263V300.3z M5263,447
			h144.6v144.6H5263V447z M5263,593.6h144.6v144.6H5263V593.6z M5263,740.3h144.6v144.6H5263V740.3z M5263,886.9h144.6v144.6H5263
			V886.9z M5263,1033.6h144.6v144.6H5263V1033.6z M5263,1180.3h144.6v144.6H5263V1180.3z M5116.3,153.7H5261v144.6h-144.6V153.7
			H5116.3z M5116.3,300.3H5261v144.6h-144.6V300.3H5116.3z M5116.3,447H5261v144.6h-144.6V447H5116.3z M5116.3,593.6H5261v144.6
			h-144.6V593.6H5116.3z M5116.3,740.3H5261v144.6h-144.6V740.3H5116.3z M5116.3,886.9H5261v144.6h-144.6V886.9H5116.3z
			 M5116.3,1033.6H5261v144.6h-144.6v-144.6H5116.3z M5116.3,1180.3H5261v144.6h-144.6v-144.6H5116.3z M4969.7,153.7h144.6v144.6
			h-144.6V153.7z M4969.7,300.3h144.6v144.6h-144.6V300.3z M4969.7,447h144.6v144.6h-144.6V447z M4969.7,593.6h144.6v144.6h-144.6
			V593.6z M4969.7,740.3h144.6v144.6h-144.6V740.3z M4969.7,886.9h144.6v144.6h-144.6V886.9z M4969.7,1033.6h144.6v144.6h-144.6
			V1033.6z M4969.7,1180.3h144.6v144.6h-144.6V1180.3z"/>
		
			<linearGradient id="SVGID_9_" gradientUnits="userSpaceOnUse" x1="12026.6895" y1="-9753.1455" x2="14226.5889" y2="-9753.1455" gradientTransform="matrix(-1 0 0 1 19195.2891 9759.1455)">
			<stop  offset="7.023552e-03" style="stop-color:#01A3DB;stop-opacity:0"/>
			<stop  offset="0.4294" style="stop-color:#0297D2;stop-opacity:0.199"/>
			<stop  offset="0.4335" style="stop-color:#0294D0;stop-opacity:0.2047"/>
			<stop  offset="0.4891" style="stop-color:#0477BB;stop-opacity:0.2828"/>
			<stop  offset="0.5501" style="stop-color:#055EAA;stop-opacity:0.3684"/>
			<stop  offset="0.619" style="stop-color:#064B9D;stop-opacity:0.4652"/>
			<stop  offset="0.6994" style="stop-color:#063E93;stop-opacity:0.578"/>
			<stop  offset="0.8017" style="stop-color:#07368E;stop-opacity:0.7216"/>
			<stop  offset="1" style="stop-color:#07348C"/>
		</linearGradient>
		<rect x="4968.7" y="5" class="st8" width="2199.9" height="2"/>
	</g>
	<line class="st9" x1="7207" y1="1293.6" x2="2962.8" y2="1293.6"/>
	<g class="st4">
		
			<linearGradient id="SVGID_10_" gradientUnits="userSpaceOnUse" x1="18492.2891" y1="-9093.1953" x2="20693.5898" y2="-9093.1953" gradientTransform="matrix(-1 0 0 1 19195.2891 9759.1455)">
			<stop  offset="7.023552e-03" style="stop-color:#01A3DB;stop-opacity:0"/>
			<stop  offset="0.4294" style="stop-color:#0297D2;stop-opacity:0.199"/>
			<stop  offset="0.4335" style="stop-color:#0294D0;stop-opacity:0.2047"/>
			<stop  offset="0.4891" style="stop-color:#0477BB;stop-opacity:0.2828"/>
			<stop  offset="0.5501" style="stop-color:#055EAA;stop-opacity:0.3684"/>
			<stop  offset="0.619" style="stop-color:#064B9D;stop-opacity:0.4652"/>
			<stop  offset="0.6994" style="stop-color:#063E93;stop-opacity:0.578"/>
			<stop  offset="0.8017" style="stop-color:#07368E;stop-opacity:0.7216"/>
			<stop  offset="1" style="stop-color:#07348C"/>
		</linearGradient>
		<path class="st10" d="M-1497.9,1324v1.9H702v-1.9h1V6h-2v144.6H556.3V6h-2v144.6H409.7V6h-2v144.6H263V6h-2v144.6H116.4V6h-2
			v144.6H-30.3V6h-2v144.6h-144.6V6h-2v144.6h-144.6V6h-2v144.6h-144.6V6h-2v144.6h-144.6V6h-2v144.6h-144.6V6h-2v144.6h-144.6V6h-2
			v144.6h-144.6V6h-2v144.6h-144.6V6h-2v144.6h-144.6V6h-2v144.6h-144.6V6h-2v1318H-1497.9z M556.3,152.6H701v144.6H556.3V152.6z
			 M556.3,299.3H701v144.6H556.3V299.3z M556.3,446H701v144.6H556.3V446z M556.3,592.6H701v144.6H556.3V592.6z M556.3,739.3H701
			v144.6H556.3V739.3z M556.3,885.9H701v144.6H556.3V885.9z M556.3,1032.6H701v144.6H556.3V1032.6z M556.3,1179.2H701v144.6H556.3
			V1179.2z M409.7,152.6h144.6v144.6H409.7V152.6z M409.7,299.3h144.6v144.6H409.7V299.3z M409.7,446h144.6v144.6H409.7V446z
			 M409.7,592.6h144.6v144.6H409.7V592.6z M409.7,739.3h144.6v144.6H409.7V739.3z M409.7,885.9h144.6v144.6H409.7V885.9z
			 M409.7,1032.6h144.6v144.6H409.7V1032.6z M409.7,1179.2h144.6v144.6H409.7V1179.2z M263,152.6h144.6v144.6H263V152.6z M263,299.3
			h144.6v144.6H263V299.3z M263,446h144.6v144.6H263V446z M263,592.6h144.6v144.6H263V592.6z M263,739.3h144.6v144.6H263V739.3z
			 M263,885.9h144.6v144.6H263V885.9z M263,1032.6h144.6v144.6H263V1032.6z M263,1179.2h144.6v144.6H263V1179.2z M116.4,152.6H261
			v144.6H116.4V152.6z M116.4,299.3H261v144.6H116.4V299.3z M116.4,446H261v144.6H116.4V446z M116.4,592.6H261v144.6H116.4V592.6z
			 M116.4,739.3H261v144.6H116.4V739.3z M116.4,885.9H261v144.6H116.4V885.9z M116.4,1032.6H261v144.6H116.4V1032.6z M116.4,1179.2
			H261v144.6H116.4V1179.2z M-30.3,152.6h144.6v144.6H-30.3V152.6z M-30.3,299.3h144.6v144.6H-30.3V299.3z M-30.3,446h144.6v144.6
			H-30.3V446z M-30.3,592.6h144.6v144.6H-30.3V592.6z M-30.3,739.3h144.6v144.6H-30.3V739.3z M-30.3,885.9h144.6v144.6H-30.3V885.9z
			 M-30.3,1032.6h144.6v144.6H-30.3V1032.6z M-30.3,1179.2h144.6v144.6H-30.3V1179.2z M-176.9,152.6h144.6v144.6h-144.6V152.6z
			 M-176.9,299.3h144.6v144.6h-144.6V299.3z M-176.9,446h144.6v144.6h-144.6V446z M-176.9,592.6h144.6v144.6h-144.6V592.6z
			 M-176.9,739.3h144.6v144.6h-144.6V739.3z M-176.9,885.9h144.6v144.6h-144.6V885.9z M-176.9,1032.6h144.6v144.6h-144.6V1032.6z
			 M-176.9,1179.2h144.6v144.6h-144.6V1179.2z M-323.6,152.6H-179v144.6h-144.6V152.6z M-323.6,299.3H-179v144.6h-144.6V299.3z
			 M-323.6,446H-179v144.6h-144.6V446z M-323.6,592.6H-179v144.6h-144.6V592.6z M-323.6,739.3H-179v144.6h-144.6V739.3z
			 M-323.6,885.9H-179v144.6h-144.6V885.9z M-323.6,1032.6H-179v144.6h-144.6V1032.6z M-323.6,1179.2H-179v144.6h-144.6V1179.2z
			 M-470.3,152.6h144.6v144.6h-144.6V152.6z M-470.3,299.3h144.6v144.6h-144.6V299.3z M-470.3,446h144.6v144.6h-144.6V446z
			 M-470.3,592.6h144.6v144.6h-144.6V592.6z M-470.3,739.3h144.6v144.6h-144.6V739.3z M-470.3,885.9h144.6v144.6h-144.6V885.9z
			 M-470.3,1032.6h144.6v144.6h-144.6V1032.6z M-470.3,1179.2h144.6v144.6h-144.6V1179.2z M-616.9,152.6h144.6v144.6h-144.6V152.6z
			 M-616.9,299.3h144.6v144.6h-144.6V299.3z M-616.9,446h144.6v144.6h-144.6V446z M-616.9,592.6h144.6v144.6h-144.6V592.6z
			 M-616.9,739.3h144.6v144.6h-144.6V739.3z M-616.9,885.9h144.6v144.6h-144.6V885.9z M-616.9,1032.6h144.6v144.6h-144.6V1032.6z
			 M-616.9,1179.2h144.6v144.6h-144.6V1179.2z M-763.6,152.6H-619v144.6h-144.6V152.6z M-763.6,299.3H-619v144.6h-144.6V299.3z
			 M-763.6,446H-619v144.6h-144.6V446z M-763.6,592.6H-619v144.6h-144.6V592.6z M-763.6,739.3H-619v144.6h-144.6V739.3z
			 M-763.6,885.9H-619v144.6h-144.6V885.9z M-763.6,1032.6H-619v144.6h-144.6V1032.6z M-763.6,1179.2H-619v144.6h-144.6V1179.2z
			 M-910.2,152.6h144.6v144.6h-144.6L-910.2,152.6L-910.2,152.6z M-910.2,299.3h144.6v144.6h-144.6L-910.2,299.3L-910.2,299.3z
			 M-910.2,446h144.6v144.6h-144.6L-910.2,446L-910.2,446z M-910.2,592.6h144.6v144.6h-144.6L-910.2,592.6L-910.2,592.6z
			 M-910.2,739.3h144.6v144.6h-144.6L-910.2,739.3L-910.2,739.3z M-910.2,885.9h144.6v144.6h-144.6L-910.2,885.9L-910.2,885.9z
			 M-910.2,1032.6h144.6v144.6h-144.6L-910.2,1032.6L-910.2,1032.6z M-910.2,1179.2h144.6v144.6h-144.6L-910.2,1179.2L-910.2,1179.2
			z M-1056.9,152.6h144.6v144.6h-144.6V152.6z M-1056.9,299.3h144.6v144.6h-144.6V299.3z M-1056.9,446h144.6v144.6h-144.6V446z
			 M-1056.9,592.6h144.6v144.6h-144.6V592.6z M-1056.9,739.3h144.6v144.6h-144.6V739.3z M-1056.9,885.9h144.6v144.6h-144.6V885.9z
			 M-1056.9,1032.6h144.6v144.6h-144.6V1032.6z M-1056.9,1179.2h144.6v144.6h-144.6V1179.2z M-1203.5,152.6h144.6v144.6h-144.6
			V152.6z M-1203.5,299.3h144.6v144.6h-144.6V299.3z M-1203.5,446h144.6v144.6h-144.6V446z M-1203.5,592.6h144.6v144.6h-144.6V592.6
			z M-1203.5,739.3h144.6v144.6h-144.6V739.3z M-1203.5,885.9h144.6v144.6h-144.6V885.9z M-1203.5,1032.6h144.6v144.6h-144.6V1032.6
			z M-1203.5,1179.2h144.6v144.6h-144.6V1179.2z M-1350.2,152.6h144.6v144.6h-144.6V152.6z M-1350.2,299.3h144.6v144.6h-144.6V299.3
			z M-1350.2,446h144.6v144.6h-144.6V446z M-1350.2,592.6h144.6v144.6h-144.6V592.6z M-1350.2,739.3h144.6v144.6h-144.6V739.3z
			 M-1350.2,885.9h144.6v144.6h-144.6V885.9z M-1350.2,1032.6h144.6v144.6h-144.6V1032.6z M-1350.2,1179.2h144.6v144.6h-144.6
			V1179.2z M-1496.9,152.6h144.6v144.6h-144.6V152.6z M-1496.9,299.3h144.6v144.6h-144.6V299.3z M-1496.9,446h144.6v144.6h-144.6
			V446z M-1496.9,592.6h144.6v144.6h-144.6V592.6z M-1496.9,739.3h144.6v144.6h-144.6V739.3z M-1496.9,885.9h144.6v144.6h-144.6
			V885.9z M-1496.9,1032.6h144.6v144.6h-144.6V1032.6z M-1496.9,1179.2h144.6v144.6h-144.6V1179.2z"/>
		
			<linearGradient id="SVGID_11_" gradientUnits="userSpaceOnUse" x1="18493.2891" y1="-9754.1455" x2="20693.1895" y2="-9754.1455" gradientTransform="matrix(-1 0 0 1 19195.2891 9759.1455)">
			<stop  offset="7.023552e-03" style="stop-color:#01A3DB;stop-opacity:0"/>
			<stop  offset="0.4294" style="stop-color:#0297D2;stop-opacity:0.199"/>
			<stop  offset="0.4335" style="stop-color:#0294D0;stop-opacity:0.2047"/>
			<stop  offset="0.4891" style="stop-color:#0477BB;stop-opacity:0.2828"/>
			<stop  offset="0.5501" style="stop-color:#055EAA;stop-opacity:0.3684"/>
			<stop  offset="0.619" style="stop-color:#064B9D;stop-opacity:0.4652"/>
			<stop  offset="0.6994" style="stop-color:#063E93;stop-opacity:0.578"/>
			<stop  offset="0.8017" style="stop-color:#07368E;stop-opacity:0.7216"/>
			<stop  offset="1" style="stop-color:#07348C"/>
		</linearGradient>
		<rect x="-1497.9" y="4" class="st11" width="2199.9" height="2"/>
	</g>
	<rect x="1585.4" y="164.7" class="st12" width="1500.2" height="673.5"/>
	<rect x="2671.6" y="587.7" class="st13" width="247.5" height="154.5"/>
	
		<linearGradient id="SVGID_12_" gradientUnits="userSpaceOnUse" x1="2156.0474" y1="1245.5586" x2="2484.146" y2="1245.5586" gradientTransform="matrix(1 0 0 -1 0 1676)">
		<stop  offset="0" style="stop-color:#0B155B"/>
		<stop  offset="0.2663" style="stop-color:#0A1962"/>
		<stop  offset="0.6424" style="stop-color:#092574"/>
		<stop  offset="1" style="stop-color:#07348C"/>
	</linearGradient>
	<path class="st14" d="M2400.2,330.1L2400.2,330.1c0.1,0,2.9-104.7-80.1-104.7c-69.1,0-78.8,72.5-80,96.8
		c-0.3,5.4-1.8,10.6-4.5,15.2c-19.2,33.4-95.1,171.1-76.7,235.9c23.3,82,164.7,59.3,164.7,59.3s134.4,22.7,157.7-59.3
		C2502.3,499.5,2400.2,330.1,2400.2,330.1z"/>
	<path class="st0" d="M299.5,570.4l24,178.5v21.9l-152.1,535.6h356.1l-84-538v-72.6c0,0,29.2-16.5,17.2-56.5s-43.2-91.3-65.2-93.1
		s-69.1,0-69.1,0L299.5,570.4z"/>
	<polygon class="st0" points="1236.5,1033.8 1181.5,1085.8 1369.5,1278.8 1425.2,1028.7 1382.5,962.8 1325.5,1120.8 	"/>
	<polygon class="st0" points="299.5,570.4 226.1,712.5 301.3,868.6 332.5,798.9 295.7,719.5 323.4,667.7 	"/>
	<rect x="1689.2" y="309.6" class="st0" width="270" height="219.3"/>
	<rect x="1714.7" y="337.2" class="st15" width="220.5" height="164.3"/>
	<rect x="1959.1" y="333.1" class="st0" width="22.4" height="22.4"/>
	<rect x="1959.1" y="383.1" class="st0" width="22.4" height="22.4"/>
	<rect x="1959.1" y="433.1" class="st0" width="22.4" height="22.4"/>
	<rect x="1959.1" y="483.1" class="st0" width="22.4" height="22.4"/>
	<rect x="1813.7" y="528.9" class="st0" width="25.5" height="771.3"/>
	
		<linearGradient id="SVGID_13_" gradientUnits="userSpaceOnUse" x1="2789.45" y1="225.3999" x2="2789.45" y2="1256.7" gradientTransform="matrix(1 0 0 -1 0 1676)">
		<stop  offset="0" style="stop-color:#0B155B"/>
		<stop  offset="0.2663" style="stop-color:#0A1962"/>
		<stop  offset="0.6424" style="stop-color:#092574"/>
		<stop  offset="1" style="stop-color:#07348C"/>
	</linearGradient>
	<rect x="2776.7" y="419.3" class="st16" width="25.5" height="1031.3"/>
	
		<linearGradient id="SVGID_14_" gradientUnits="userSpaceOnUse" x1="1633.7" y1="326.4" x2="1993.6" y2="326.4" gradientTransform="matrix(1 0 0 -1 0 1676)">
		<stop  offset="0" style="stop-color:#0B155B"/>
		<stop  offset="0.2663" style="stop-color:#0A1962"/>
		<stop  offset="0.6424" style="stop-color:#092574"/>
		<stop  offset="1" style="stop-color:#07348C"/>
	</linearGradient>
	<polygon class="st17" points="1633.7,1291.1 1826.4,1291.1 1993.6,1321.1 1993.6,1408.1 1633.7,1408.1 	"/>
	<rect x="1839.2" y="980.7" class="st0" width="67.5" height="130.2"/>
	<rect x="2631.1" y="266.1" class="st18" width="316.7" height="189.4"/>
	<rect x="3249.7" y="215.2" class="st0" width="158.4" height="101.7"/>
	<rect x="3652.3" y="267.9" class="st0" width="158.4" height="101.7"/>
	<path class="st0" d="M3839.7,829.7h-333.6c-12.5,0-22.5-10.1-22.5-22.5V601.4c0-12.5,10.1-22.5,22.5-22.5h333.6
		c12.5,0,22.5,10.1,22.5,22.5v205.8C3862.3,819.6,3852.2,829.7,3839.7,829.7z"/>
	<rect x="2631.1" y="570.2" class="st0" width="316.7" height="189.4"/>
	<rect x="2716.8" y="1038.8" class="st0" width="59.9" height="128"/>
	<rect x="1906.6" y="1000.8" class="st0" width="15.5" height="22.7"/>
	<rect x="1905.7" y="1036.3" class="st0" width="15.5" height="22.7"/>
	<rect x="1905.7" y="1072.4" class="st0" width="15.5" height="22.7"/>
	<path class="st0" d="M3632.3,826.8c0,0,0.9,17.7-10.4,29c-7.3,7.3-18.7,14.1-26,18.1c-4.2,2.3-6.9,6.7-6.9,11.6l0,0h84v-59.3
		L3632.3,826.8z"/>
	<path class="st0" d="M3713.6,826.8c0,0-0.9,17.7,10.4,29c7.3,7.3,18.7,14.1,26,18.1c4.2,2.3,6.9,6.7,6.9,11.6l0,0h-84v-59.3
		L3713.6,826.8z"/>
	<rect x="3954.5" y="195.3" class="st19" width="383.6" height="383.6"/>
	<rect x="4796.8" y="227.3" class="st0" width="409.5" height="553.6"/>
	<rect x="4289.5" y="858.6" class="st0" width="427" height="585.9"/>
	<path class="st0" d="M3901.8,961.4l32.2-129.9l-37.8-151.1c0,0,70-61.5,103.3-61.3s58.3-2.1,66.9,21.7
		c23.1,64.2,21.8,64.7,36.2,166.1c11.7,82.5-15.7,187.8-15.7,187.8s-46.1-11.3-110.7-23.5C3911.6,959.1,3901.8,961.4,3901.8,961.4z"
		/>
	<polygon class="st0" points="3706.5,1426.8 3918.2,1085.8 3812.3,1091.8 3657.5,1410.8 	"/>
	<path class="st20" d="M2917,1559.8v-12.9c0-53.2-43.1-96.3-96.3-96.3h-61.5c-53.2,0-96.3,43.1-96.3,96.3v12.9"/>
	<circle class="st12" cx="2663" cy="1559.8" r="28"/>
	<circle class="st12" cx="2917" cy="1559.8" r="28"/>
	<rect x="4838.5" y="301.3" class="st12" width="334.4" height="397.4"/>
	<path class="st0" d="M4838.5,501.8l61-33l41,23l31-23c0,0,70,37,78,51s5,178.9,5,178.9H4839L4838.5,501.8z"/>
	
		<linearGradient id="SVGID_15_" gradientUnits="userSpaceOnUse" x1="5376.5" y1="507.7" x2="5660" y2="507.7" gradientTransform="matrix(1 0 0 -1 0 1676)">
		<stop  offset="0" style="stop-color:#0B155B"/>
		<stop  offset="0.2663" style="stop-color:#0A1962"/>
		<stop  offset="0.6424" style="stop-color:#092574"/>
		<stop  offset="1" style="stop-color:#07348C"/>
	</linearGradient>
	<path class="st21" d="M5526,885.8l-118.5,254l-31,304.8l54,6.2c0,0,22-113,26-152s30.2-130.5,30.2-130.5L5660,896.1L5526,885.8z"/>
	
		<linearGradient id="SVGID_16_" gradientUnits="userSpaceOnUse" x1="5571.5" y1="522.2" x2="5844.5" y2="522.2" gradientTransform="matrix(1 0 0 -1 0 1676)">
		<stop  offset="0" style="stop-color:#0B155B"/>
		<stop  offset="0.2663" style="stop-color:#0A1962"/>
		<stop  offset="0.6424" style="stop-color:#092574"/>
		<stop  offset="1" style="stop-color:#07348C"/>
	</linearGradient>
	<polygon class="st22" points="5571.5,900.8 5597.5,1162.8 5806.5,1406.8 5844.5,1376.8 5680.5,1128.8 5689.5,900.8 	"/>
	<path class="st0" d="M5719.5,927.1l-254,0.4l48-231.6c0,0,16-122.6,35-126.3s105,0,105,0s36,115,36,139.1
		C5689.5,732.9,5719.5,927.1,5719.5,927.1z"/>
	<path class="st0" d="M5625.5,724.8l94-5c0,0-30-153.1-54-151.8s-40,8.8-40,8.8V724.8z"/>
	<polygon class="st0" points="5548.5,569.8 5455.5,687.8 5502,738.8 5537.5,712.8 	"/>
	<path class="st12" d="M5845.8,1374.6l40.7,48.8l-118.5,83.1c0,0-11.5-14.7,1.4-35c10.5-16.7,30.4-35.8,30.4-35.8l9.3-31.2
		L5845.8,1374.6z"/>
	<path class="st12" d="M5425.7,1446.3l-7.3,63.1l-141.9-28.3c0,0,2.7-18.4,26.2-23.2c19.3-3.9,46.9-2.7,46.9-2.7l28.9-14.8
		L5425.7,1446.3z"/>
	<path class="st12" d="M3653.5,1414.8l-30.3,29c0,0-45.7,16.7-53,22s-10.7,21.7-10.7,21.7l142.3-7.3c0,0,2-34.3,4-42.7
		s5.3-15,5.3-15L3653.5,1414.8z"/>
	<path class="st23" d="M1894.1,705.8h-138.5c-22.6,0-41-18.4-41-41l0,0c0-22.6,18.4-41,41-41h138.5c22.6,0,41,18.4,41,41l0,0
		C1935.1,687.4,1916.8,705.8,1894.1,705.8z"/>
	<g class="st4">
		<path class="st24" d="M1249.6,1259.3h-87.2c-69.3,0-126.5-55.5-126.9-124.8c-0.4-69.6,56.1-126.3,125.6-126.3h33.8v49.1H1162
			c-42.1,0-77.1,33.6-77.5,75.7c-0.4,42.5,34.1,77.3,76.5,77.3h88.6c13.5,0,24.5,11,24.5,24.5l0,0
			C1274.1,1248.3,1263.2,1259.3,1249.6,1259.3z"/>
	</g>
	<rect x="2657.5" y="589.8" class="st12" width="264" height="148"/>
	<rect x="6217.7" y="69" class="st12" width="141" height="182.5"/>
	<rect x="5815.6" y="592" class="st0" width="192" height="146.9"/>
	<rect x="31.7" y="164.7" class="st25" width="139.6" height="188.4"/>
	<rect x="413.5" y="172.8" class="st0" width="872" height="679.9"/>
	<circle class="st26" cx="849.5" cy="506.8" r="282"/>
	<rect x="3679.5" y="294.8" class="st12" width="104" height="48"/>
	<path class="st27" d="M2277,349.3c0,0-2.5,38.5,3,52.5s28.5,12,28.5,12v30.5l47.5,11.2c0,0,0-36.3,0-54.7c0-13.7,4.2-52.7,4.2-52.7
		L2277,349.3z"/>
	<path class="st27" d="M2519.3,764.8l33.3-12L2430,537.5c0,0-24.7-56-42.7-70s-50.3-23.2-50.3-23.2h-11.5h-5.5h-11.5
		c0,0-32.3,9.2-50.3,23.2s-42.7,70-42.7,70l-122.7,215.3l29.2,15.3l131.5-191.3c0,0,4.1,25,1.4,47c-2.7,22-17.5,46.3-17.5,46.3
		s-31,40.2-34.3,98.2s17.6,257.4,17.6,257.4s-23.8,67.2-21.8,180.6s49,224.5,49,224.5l34.5-8.7l-0.3-364.7c0,0,20-54.7,26.3-102
		c5.1-38.3,6.2-143.9,7.7-177.4h16.4c1.5,33.5-0.7,139.1,4.4,177.4c6.3,47.3,26.3,102,26.3,102l-0.3,364.7l34.5,8.7
		c0,0,47-111.2,49-224.5s-21.8-180.6-21.8-180.6s20.9-199.4,17.6-257.4c-3.3-58-34.3-98.2-34.3-98.2s-14.8-24.3-17.5-46.3
		s1.4-47,1.4-47L2519.3,764.8z"/>
	<circle class="st27" cx="3297" cy="984.8" r="67.5"/>
	<circle class="st27" cx="3297" cy="1153.3" r="87.6"/>
	<path class="st27" d="M3231.9,1002.7c0,0,6.9,33.6,6.9,53.3c0,19.8-23.5,65.5-23.5,65.5h81.6V994.8L3231.9,1002.7z"/>
	<path class="st27" d="M3362.1,1002.7c0,0-6.9,33.6-6.9,53.3c0,19.8,23.5,65.5,23.5,65.5H3297V994.8L3362.1,1002.7z"/>
	<path class="st27" d="M416.7,432.1c0,0,7.6,52.5-14.2,57.7c-20,4.8-30.5,3.8-30.5,3.8v57h-46.8l-13.4-160.3l99.5,8.6L416.7,432.1z"
		/>
	
		<linearGradient id="SVGID_17_" gradientUnits="userSpaceOnUse" x1="201.6594" y1="1174.0303" x2="421.7345" y2="1174.0303" gradientTransform="matrix(1 0 0 -1 0 1676)">
		<stop  offset="0" style="stop-color:#0B155B"/>
		<stop  offset="0.2663" style="stop-color:#0A1962"/>
		<stop  offset="0.6424" style="stop-color:#092574"/>
		<stop  offset="1" style="stop-color:#07348C"/>
	</linearGradient>
	<path class="st28" d="M257.9,501c0,0-37.2,16.2-52.3,62.5c-24.9,76.5,74.6,139,119.2,75.2s16.6-198.9,16.6-198.9l75.2-7.7
		c0,0,27.3-76.3-44-90.5c-78.4-15.6-104,39.3-108.5,66.7S257.9,501,257.9,501z"/>
	<path class="st27" d="M1269.6,845.6c0,0,34.8,57.8,63.5,56.9c23.3-0.7,38.7-14.7,38.7-14.7l42.8,53.3l53.6-36.9l-101.6-130.5
		L1269.6,845.6z"/>
	
		<linearGradient id="SVGID_18_" gradientUnits="userSpaceOnUse" x1="1236.5686" y1="939.1429" x2="1500.4603" y2="939.1429" gradientTransform="matrix(1 0 0 -1 0 1676)">
		<stop  offset="0" style="stop-color:#0B155B"/>
		<stop  offset="0.2663" style="stop-color:#0A1962"/>
		<stop  offset="0.6424" style="stop-color:#092574"/>
		<stop  offset="1" style="stop-color:#07348C"/>
	</linearGradient>
	<path class="st29" d="M1365.8,795.2l-102.4,73.6c0,0-47.8-48-15.8-95.3s82-12.3,96.5-65.4c6.9-25.2,6-46.8,24.3-70.3
		c24.2-31.1,56.9-42.3,91.1-24.2c44.8,23.6,50.2,74.3,29,107.2c-18.4,28.6-28.6,21.5-42.3,30c-29.4,18.2,18.5,77.7-28.4,107.3
		L1365.8,795.2z"/>
	<rect x="1139" y="1234.4" class="st0" width="57.5" height="57.5"/>
	<path class="st0" d="M1215.5,1349.3h-95.6V1299c0-12.7,10.3-23,23-23h49.5c12.7,0,23,10.3,23,23L1215.5,1349.3L1215.5,1349.3z"/>
	<path class="st0" d="M1249.4,1349.3h-167l0,0c0-11.1,9-20.2,20.2-20.2h126.7C1240.4,1329.2,1249.4,1338.2,1249.4,1349.3
		L1249.4,1349.3z"/>
	<path class="st30" d="M923,663.2c0,0,20-29.2,30-45.5c10.2-16.7,16-37,16-37s8.9,4.8,15.2-3.2c7-8.8,25.8-90.3,16.4-101.3
		c-8.9-10.5-18.1,0-18.1,0s7.5-99.5-21.5-142c-26.7-39.2-66-55.5-116-55.5s-89.3,16.3-116,55.5c-29,42.5-21.5,142-21.5,142
		s-9.2-10.5-18.1,0c-9.4,11,9.4,92.5,16.4,101.3c6.3,7.9,15.2,3.2,15.2,3.2s5.8,20.3,16,37c10,16.3,30,45.5,30,45.5
		s-12.8,27.5-29.2,42.2c-18.9,17-48.4,33.5-48.4,33.5s27.8,16.9,58.6,34.5s97,15.3,97,15.3s66.2,2.3,97-15.3s58.6-34.5,58.6-34.5
		s-29.5-16.5-48.4-33.5C935.8,690.7,923,663.2,923,663.2z"/>
	<circle class="st31" cx="1171.5" cy="278.8" r="60"/>
	<path class="st32" d="M1112.8,278.8c0,0,26.9-26,60-26s60,26,60,26s-26.9,26-60,26S1112.8,278.8,1112.8,278.8z"/>
	<circle class="st31" cx="473.5" cy="224.8" r="20.4"/>
	<circle class="st31" cx="534.8" cy="224.8" r="20.4"/>
	<circle class="st31" cx="596.2" cy="224.8" r="20.4"/>
	<circle class="st33" cx="1171.5" cy="278.8" r="24.2"/>
	<path class="st31" d="M1794.5,355.5c5.7-2.6,21.5-2.5,23.5,18s-8.6,89-25.5,100c-13,8.4-60.5,10.3-56.5-17.9
		C1740,427.3,1764.8,368.8,1794.5,355.5z"/>
	<path class="st31" d="M1861.4,355.5c-5.7-2.6-21.5-2.5-23.5,18s8.6,89,25.5,100c13,8.4,60.5,10.3,56.5-17.9
		C1915.9,427.3,1891.1,368.8,1861.4,355.5z"/>
	<g class="st4">
		<path class="st34" d="M2936.9,329.3c-9.9,0-31.1-3.5-55.1,21s-47.3,57.7-94.6,57.7s-70.6-33.1-94.6-57.7s-45.2-21-55.1-21"/>
		<path class="st34" d="M2637.5,407.9c9.9,0,31.1,3.5,55.1-21s47.3-57.7,94.6-57.7s70.6,33.1,94.6,57.7s45.2,21,55.1,21"/>
		<line class="st35" x1="2730.7" y1="385.8" x2="2730.7" y2="346"/>
		<line class="st35" x1="2749.4" y1="403.8" x2="2749.4" y2="334.7"/>
		<line class="st35" x1="2768" y1="403.8" x2="2768" y2="334.7"/>
		<line class="st35" x1="2786.7" y1="403.8" x2="2786.7" y2="334.7"/>
		<line class="st35" x1="2805.4" y1="403.8" x2="2805.4" y2="334.7"/>
		<line class="st35" x1="2824.1" y1="403.8" x2="2824.1" y2="334.7"/>
		<line class="st35" x1="2842.8" y1="385.8" x2="2842.8" y2="346"/>
		<line class="st35" x1="2650.3" y1="403.8" x2="2650.3" y2="334.7"/>
		<line class="st35" x1="2669" y1="403.8" x2="2669" y2="334.7"/>
		<line class="st35" x1="2687.7" y1="385.8" x2="2687.7" y2="346"/>
		<line class="st35" x1="2924.4" y1="334.7" x2="2924.4" y2="403.8"/>
		<line class="st35" x1="2905.7" y1="334.7" x2="2905.7" y2="403.8"/>
		<line class="st35" x1="2887" y1="352.7" x2="2887" y2="392.6"/>
	</g>
	<path class="st36" d="M131.2,1082.1c0-21.6-13.2-40.2-32-48c-3-1.3-5-4.2-5-7.4v-30.5c3,0,5.5-2.5,5.5-5.5v-5.3
		c0-3-2.5-5.5-5.5-5.5H64.3c-3,0-5.5,2.5-5.5,5.5v5.3c0,3,2.5,5.5,5.5,5.5l0,0v30.5c0,3.3-2,6.2-5,7.4c-19.4,8.1-32.9,27.6-32,50.1
		c0.7,18.1,10.8,33.9,25.5,42.6c2.1,1.3,4.6,1.9,7,1.9h38.9c2.5,0,4.9-0.7,7-2C121,1117.8,131.2,1101.2,131.2,1082.1z"/>
	<path class="st27" d="M-126.7,1169.6c-7.4-0.3-14.5-2.2-20.8-5.3h-39.4v21.5h114.2v-21.5h-29.1
		C-109.2,1168-117.7,1169.9-126.7,1169.6z"/>
	<path class="st37" d="M758,993.3h5.5c3.7,0,6.9-2.8,7-6.5c0.1-3.8-2.9-6.9-6.7-6.9h-24.3h-24c-3.7,0-6.9,2.8-7,6.5
		c-0.1,3.8,2.9,6.9,6.7,6.9h5.8l-40.5,111c-2,5.4,2,11,7.7,11h51.2h51.2c5.7,0,9.7-5.7,7.7-11L758,993.3z"/>
	<path class="st38" d="M814.9,1303.1v-32.5h-11.1h-6h-11.1v32.5l-55.8,70.6c-2.9,3.7-0.3,9.1,4.4,9.1h62.5h6h62.5
		c4.7,0,7.3-5.4,4.4-9.1L814.9,1303.1z"/>
	<path class="st27" d="M813.5,1272.5h-26.3c-3.7,0-6.7-3-6.7-6.7l0,0c0-3.7,3-6.7,6.7-6.7h26.3c3.7,0,6.7,3,6.7,6.7l0,0
		C820.2,1269.5,817.2,1272.5,813.5,1272.5z"/>
	<rect x="3445.4" y="885.5" class="st0" width="470.7" height="49.5"/>
	<polygon class="st27" points="880.5,1294.1 851.2,1382.8 898.8,1382.8 898.8,1294.1 	"/>
	<polygon class="st27" points="912,1294.1 941.3,1382.8 893.7,1382.8 893.7,1294.1 	"/>
	<path class="st27" d="M911.6,1296.1h-30.5c-4.7,0-8.5-3.8-8.5-8.5l0,0c0-4.7,3.8-8.5,8.5-8.5h30.5c4.7,0,8.5,3.8,8.5,8.5l0,0
		C920.2,1292.2,916.3,1296.1,911.6,1296.1z"/>
	<g class="st4">
		<path class="st24" d="M850,1115.3L850,1115.3c-5.4,0-9.8-4.4-9.8-9.8v-86h19.7v86C859.8,1110.9,855.4,1115.3,850,1115.3z"/>
		<path class="st24" d="M858,1027.8h-16c-2.1,0-3.8-1.7-3.8-3.8v-4.4c0-2.1,1.7-3.8,3.8-3.8h16c2.1,0,3.8,1.7,3.8,3.8v4.4
			C861.7,1026.1,860,1027.8,858,1027.8z"/>
	</g>
	<g class="st4">
		<path class="st24" d="M895.8,1115.3L895.8,1115.3c-5.4,0-9.8-4.4-9.8-9.8v-86h19.7v86C905.6,1110.9,901.2,1115.3,895.8,1115.3z"/>
		<path class="st24" d="M903.7,1027.8h-15.9c-2.1,0-3.8-1.7-3.8-3.8v-4.4c0-2.1,1.7-3.8,3.8-3.8h15.9c2.1,0,3.8,1.7,3.8,3.8v4.4
			C907.5,1026.1,905.8,1027.8,903.7,1027.8z"/>
	</g>
	<g class="st4">
		<path class="st24" d="M941.5,1115.3L941.5,1115.3c-5.4,0-9.8-4.4-9.8-9.8v-86h19.7v86C951.3,1110.9,946.9,1115.3,941.5,1115.3z"/>
		<path class="st24" d="M949.5,1027.8h-15.9c-2.1,0-3.8-1.7-3.8-3.8v-4.4c0-2.1,1.7-3.8,3.8-3.8h15.9c2.1,0,3.8,1.7,3.8,3.8v4.4
			C953.2,1026.1,951.5,1027.8,949.5,1027.8z"/>
	</g>
	<g class="st4">
		<path class="st24" d="M987.2,1115.3L987.2,1115.3c-5.4,0-9.8-4.4-9.8-9.8v-86h19.7v86C997.1,1110.9,992.7,1115.3,987.2,1115.3z"/>
		<path class="st24" d="M995.2,1027.8h-15.9c-2.1,0-3.8-1.7-3.8-3.8v-4.4c0-2.1,1.7-3.8,3.8-3.8h15.9c2.1,0,3.8,1.7,3.8,3.8v4.4
			C999,1026.1,997.3,1027.8,995.2,1027.8z"/>
	</g>
	<circle class="st0" cx="997.2" cy="1137.3" r="40.4"/>
	<path class="st0" d="M1497.2,1382.8c0,0-128.6-331.4-137.2-353c-3.9-9.8,3.2-33.9,19.5-60.3c7.8-12.7,42.6,64,42.6,64l33.7-138.5
		c6.7-3.8,13.8-7.1,21.1-9.9c152.7-59.1,354.1,497.7,354.1,497.7H1497.2z"/>
	<polygon class="st27" points="310.7,1307.3 254,1563.8 287.5,1590.1 319.2,1602.5 309.1,1617.2 226.1,1600.1 201.7,1583.6 
		237.2,1306.4 	"/>
	<path class="st27" d="M391.2,1309.4c-0.7,0-11.2,278.5-11.2,278.5l26.7,4.8l84.4,13.3l-0.7-11.3l-39.2-18.2l-25.5-43.1l34.8-228.4
		L391.2,1309.4z"/>
	<rect x="616.6" y="1382.8" class="st12" width="1539.4" height="32"/>
	<line class="st39" x1="672.2" y1="1408.1" x2="672.2" y2="1706.6"/>
	<line class="st39" x1="1069.7" y1="1408.1" x2="1069.7" y2="1706.6"/>
	<line class="st40" x1="2121.1" y1="1408.1" x2="2121.1" y2="1706.6"/>
	<path class="st0" d="M2234,675.1c0,0,28.3,17.8,46,39.2c18.4,22.2,36.2,63.8,36.2,63.8h9.6l0.3-113.2l-83-5L2234,675.1z"/>
	<path class="st0" d="M2414.8,675.1c0,0-28.3,17.8-46,39.2c-18.4,22.2-36.2,63.8-36.2,63.8h-9.6l-0.3-113.2l83-5L2414.8,675.1z"/>
	<ellipse transform="matrix(0.7071 -0.7071 0.7071 0.7071 297.62 1763.5002)" class="st0" cx="2277.5" cy="522.5" rx="17" ry="17"/>
	<circle class="st0" cx="2243.6" cy="870.5" r="17"/>
	<circle class="st0" cx="2236.6" cy="1262.5" r="17"/>
	<circle class="st0" cx="2356" cy="522.5" r="17"/>
	<circle class="st0" cx="2390" cy="870.5" r="17"/>
	<circle class="st0" cx="2373" cy="1083.8" r="17"/>
	<path class="st0" d="M2325.2,621.8h-5.3c-5.7,0-10.3-4.6-10.3-10.3v-20.3c0-5.7,4.6-10.3,10.3-10.3h5.3c5.7,0,10.3,4.6,10.3,10.3
		v20.3C2335.5,617.2,2330.9,621.8,2325.2,621.8z"/>
	<path class="st0" d="M2140,750.3l-33.6-17.6c-3.9-2-5.4-6.8-3.3-10.7l7.6-14.4c2-3.9,6.8-5.4,10.7-3.3l33.6,17.6
		c3.9,2,5.4,6.8,3.3,10.7l-7.6,14.4C2148.7,750.9,2143.9,752.3,2140,750.3z"/>
	
		<rect x="2411.6" y="592.6" transform="matrix(0.9031 -0.4295 0.4295 0.9031 -25.1528 1108.3383)" class="st0" width="62.8" height="34.6"/>
	<path class="st0" d="M2277.4,1166.8h-68.8c-6.1,0-11.1-5-11.1-11.1v-29.3c0-6.1,5-11.1,11.1-11.1h68.8c6.1,0,11.1,5,11.1,11.1v29.3
		C2288.5,1161.8,2283.5,1166.8,2277.4,1166.8z"/>
	<circle class="st31" cx="2243.6" cy="870.5" r="6.4"/>
	<circle class="st31" cx="2390" cy="870.5" r="6.4"/>
	<circle class="st31" cx="2375.2" cy="1083.8" r="6.4"/>
	<circle class="st31" cx="2236.6" cy="1262.5" r="6.4"/>
	<circle class="st31" cx="2322.5" cy="603.1" r="6.4"/>
	<circle class="st31" cx="2130.7" cy="727.3" r="6.4"/>
	<circle class="st31" cx="2278" cy="522.5" r="6.4"/>
	<circle class="st31" cx="2449.3" cy="603.1" r="6.4"/>
	<circle class="st31" cx="2356" cy="522.5" r="6.4"/>
	<path class="st0" d="M2361.8,352.7h-85.1c-4,0-7.2-3.2-7.2-7.2V316c0-4,3.2-7.2,7.2-7.2h85.1c4,0,7.2,3.2,7.2,7.2v29.5
		C2369,349.5,2365.8,352.7,2361.8,352.7z"/>
	<path class="st41" d="M1981.6,394.3h78.8c15,0,27.2,12.2,27.2,27.2v260c0,14.9,8.6,28.4,22.1,34.7l23.9,11.2"/>
	<path class="st41" d="M1981.6,344.3h18.8c16.4,0,29.8-13.3,29.8-29.8v-55.8c0-15.1,12.2-27.3,27.3-27.3H2259
		c15.1,0,27.3,12.2,27.3,27.3v78.4"/>
	<path class="st41" d="M2449.3,603.1l108.3-53c24.1-11.4,51.9,6.2,51.9,32.9v443.2c0,20.8,16.9,37.7,37.7,37.7h56.3"/>
	<path class="st41" d="M2692.8,1121.5h-152.5c-18.1,0-32.9-14.7-32.9-32.9V904.1c0-17.9-14.4-32.5-32.3-32.6l-85.2-0.9"/>
	<path class="st41" d="M2243.6,870.5v51.6c0,16.6,13.4,30,30,30H2951c14.6,0,26.5-11.9,26.5-26.5V742.1c0-9.9-8.1-18-18-18l0,0"/>
	<path class="st41" d="M2977.5,659.9h8c11,0,20,8.9,20,20v374.6c0,16.2-13.1,29.3-29.3,29.3h-601.7"/>
	<path class="st41" d="M2243,1262.5h753.9c18.6,0,33.6-15.1,33.6-33.6V621.8c0-11.3-9.2-20.5-20.5-20.5h-36.5"/>
	<path class="st41" d="M2322.5,601.3v105.9c0,10.4-5.8,19.9-15.1,24.7l-128.1,65.4c-11.5,5.9-18.8,17.7-18.8,30.6v186.5
		c0,18.4-15,33.4-33.4,33.4h-205.5"/>
	<path class="st41" d="M1922.2,1012.1H2329c14.9,0,27-12.1,27-27V522.5"/>
	<polygon class="st31" points="3310.2,1279.5 3293,1279.5 3230.6,1279.5 3257.3,1436.6 3293,1436.6 3310.2,1436.6 3345.9,1436.6 
		3372.6,1279.5 	"/>
	<rect x="3285.1" y="1193.6" class="st27" width="27" height="85.9"/>
	<line class="st23" x1="4018.3" y1="1070.1" x2="4018.3" y2="1384.1"/>
	<line class="st23" x1="3958.5" y1="1058.1" x2="3958.5" y2="1384.1"/>
	<rect x="3949.5" y="1073.6" class="st23" width="187.5" height="19.5"/>
	<path class="st23" d="M4053,794.8c0,0,101.9-13.6,98.9,55.5c-3.4,77.6-14.9,242.9-14.9,242.9"/>
	<path class="st0" d="M3931.5,1409.8h126.8v-8c0-11.4-9.3-20.7-20.7-20.7h-106.1V1409.8z"/>
	
		<ellipse transform="matrix(0.2228 -0.9749 0.9749 0.2228 1775.405 5070.0806)" class="st12" cx="4067.4" cy="1421.6" rx="26.3" ry="26.3"/>
	<rect x="5036.6" y="1133.7" class="st0" width="131.1" height="82.7"/>
	<rect x="5863.9" y="960.4" class="st12" width="108.5" height="108.5"/>
	<path class="st12" d="M201.7,1583.6l-5,38.4l158.3,9.6c0,0,1.3-8.2-11.5-17.8c-18.3-13.8-56-23.7-56-23.7s-27.9,1.7-35,1.2
		C214.3,1588.6,201.7,1583.6,201.7,1583.6z"/>
	<path class="st12" d="M378.1,1576.4l-4.8,38.4l158.3,9c0,0,1.2-8.2-11.6-17.8c-18.4-13.7-56.1-23.5-56.1-23.5s-27.9,1.8-35,1.3
		C390.7,1581.3,378.1,1576.4,378.1,1576.4z"/>
	<circle class="st31" cx="101.6" cy="258.9" r="43.4"/>
	<rect x="462.2" y="344.9" class="st42" width="72.6" height="72.6"/>
	<rect x="462.2" y="438.4" class="st42" width="72.6" height="72.6"/>
	<rect x="462.2" y="532" class="st42" width="72.6" height="72.6"/>
	
		<linearGradient id="SVGID_19_" gradientUnits="userSpaceOnUse" x1="1673.5" y1="97.4" x2="2099.5" y2="97.4" gradientTransform="matrix(1 0 0 -1 0 1676)">
		<stop  offset="0" style="stop-color:#0B155B"/>
		<stop  offset="0.2663" style="stop-color:#0A1962"/>
		<stop  offset="0.6424" style="stop-color:#092574"/>
		<stop  offset="1" style="stop-color:#07348C"/>
	</linearGradient>
	<rect x="1673.5" y="1450.6" class="st43" width="426" height="256"/>
	<rect x="780.5" y="1548.8" class="st39" width="191" height="178"/>
	<rect x="1726.5" y="1531.8" class="st44" width="320" height="94.2"/>
	<rect x="1831" y="1531.8" class="st44" width="109.3" height="43.7"/>
	<path class="st41" d="M1922.2,1083.8h48.2V806.4c0-18.2,14.7-32.9,32.9-32.9h247.6c15,0,27.1-12.2,27.1-27.1V524.1"/>
	<polygon class="st31" points="3267.1,316.9 3312.6,262.2 3342.6,286.2 3392.6,227.7 3408.1,239.2 3408.1,316.9 	"/>
	<circle class="st31" cx="3284.9" cy="249.9" r="13.3"/>
	<path class="st27" d="M3903.4,542.3c0,0,2,51.5,22,56c12.2,2.8,25-0.2,25-0.2l13,41.8l44.1-18.3l-21.1-93l-31-24.4L3903.4,542.3z"
		/>
	<polygon class="st31" points="5815.6,738.8 5893.6,654.3 5933.9,696.6 5968.4,662.4 6007.6,696.6 6007.6,738.8 	"/>
	<circle class="st31" cx="5969.5" cy="629.3" r="13"/>
	<path class="st27" d="M5000.2,366.1c0,0,7,67.3-11.2,73.3s-28.8,3.3-28.8,3.3l11.3,26l-31,23l-41-23v-80l25.3-52L5000.2,366.1z"/>
	<path class="st12" d="M4921.9,406.7l7.6-41.6l83,1.2c0,0,19.2-72.1-42-79.4c-46.5-5.6-73.5,21-85.7,45.8c-9.8,20.1-6,39.7-1.8,53.2
		C4889.5,406.8,4921.9,406.7,4921.9,406.7z"/>
	<path class="st27" d="M5518,447.7c0,0-7.8,63.7,10.6,66.8c18.5,3.1,48.9,0,48.9,0v53h54.5l-8.3-137.5L5518,447.7z"/>
	<path class="st12" d="M5601.6,447.5l-94.2,0.2c0,0-10.8-78.8,72-79.6c79.4-0.8,74.8,48,111.7,102.5
		c36.9,54.5,106.2,33.2,126.5,104.3c20.6,72-72.5,122.6-126.6,99.7c-65.6-27.8-92.1-149.1-90.3-164.6
		C5603.4,486.3,5601.6,447.5,5601.6,447.5z"/>
	<path class="st31" d="M5575.5,491.8h-70.2c-14.8,0-26.7-12-26.7-26.7v-7.9c0-14.8,12-26.7,26.7-26.7h70.2c14.8,0,26.7,12,26.7,26.7
		v7.9C5602.2,479.8,5590.3,491.8,5575.5,491.8z"/>
	<path class="st27" d="M3952.2,585.3c0,0,13.8-15.5,16-3.8s-9.5,21.2-9.5,21.2L3952.2,585.3z"/>
	<path class="st27" d="M3716.2,598.1"/>
	<circle class="st45" cx="5541.4" cy="450.5" r="113.7"/>
	<circle class="st45" cx="5541.4" cy="450.5" r="211.6"/>
	<circle class="st45" cx="5541.4" cy="450.5" r="330.5"/>
	<g class="st4">
		<path class="st46" d="M4156.8,353.1h-134.7V245.9h23v86.5h32.9v-86.5h22.9v86.5h32.9v-86.5h23V353.1z"/>
		<path class="st46" d="M4195.7,353.1V245.9h74.3v20.7h-51.2v19.1h23.7c10.5,0,19.2,3.3,26.2,9.9s10.5,14.5,10.5,23.8
			s-3.5,17.2-10.5,23.8s-15.7,9.9-26.2,9.9L4195.7,353.1L4195.7,353.1z M4241.6,332.4c4.1,0,7.5-1.3,10.3-3.9s4.2-5.7,4.2-9.1
			c0-3.5-1.4-6.5-4.2-9.1c-2.8-2.6-6.2-3.9-10.3-3.9h-22.9v26.1h22.9V332.4z"/>
		<path class="st46" d="M4082.9,384.5h13.1v69.3h-14.8v-46.2l-22.3,28.4l-22.2-28.2v46h-14.9v-69.3h13.4l23.7,30.2L4082.9,384.5z"/>
		<path class="st46" d="M4183.1,453.9h-14.8v-28.2h-29.7v28.2h-14.9v-69.3h14.9v27.7h29.7v-27.7h14.8V453.9z"/>
		<path class="st46" d="M4225.7,414.7l27.2-30.2h17.3l-25.7,28.7l27.7,40.6h-17.3l-20.3-29.7l-8.9,9.9v19.8h-14.9v-69.3h14.9
			L4225.7,414.7L4225.7,414.7z"/>
		<path class="st46" d="M4023.5,528.6v-42.7h6.7v15.2h9.8c4.1,0,7.5,1.3,10.2,4s4.1,5.9,4.1,9.7c0,3.8-1.4,7.1-4.1,9.7
			s-6.1,4-10.2,4L4023.5,528.6L4023.5,528.6z M4039.9,522.4c2.1,0,3.9-0.7,5.4-2.2s2.2-3.3,2.2-5.4s-0.7-4-2.2-5.4
			c-1.5-1.5-3.3-2.2-5.4-2.2h-9.8v15.3L4039.9,522.4z M4066.5,528.6h-6.7v-42.7h6.7V528.6z"/>
		<path class="st46" d="M4129.6,485.8h5.8v42.7h-6.7v-31.1l-15.6,19.5l-15.5-19.5v31.1h-6.7v-42.7h5.8l16.5,20.8L4129.6,485.8z"/>
		<path class="st46" d="M4159.8,528.6v-42.7h28.1v6.1h-21.4v10.4h11c4,0,7.2,1.3,9.8,3.8c2.6,2.5,3.9,5.6,3.9,9.3
			c0,3.7-1.3,6.8-3.9,9.3s-5.9,3.8-9.8,3.8L4159.8,528.6L4159.8,528.6z M4177.5,522.4c2,0,3.6-0.7,5-2c1.3-1.3,2-3,2-5s-0.7-3.7-2-5
			s-3-2-5-2h-11v14H4177.5z"/>
		<path class="st46" d="M4264.4,528.6h-51.2v-42.7h6.7v36.6h15.5v-36.6h6.7v36.6h15.5v-36.6h6.7L4264.4,528.6L4264.4,528.6z"/>
	</g>
	<rect x="6240.6" y="101.5" class="st47" width="119.3" height="109.9"/>
	<g class="st48">
		<path class="st49" d="M6272.3,175.3l-8.3,22.8h-22.1l38-96.6h22l38,96.6h-22.1l-8.3-22.8H6272.3z M6291,125.7l-11.8,31.7h23.5
			L6291,125.7z"/>
	</g>
	<g class="st4">
		<polyline class="st50" points="6180.6,80.5 6180.6,31 6230.1,31 		"/>
		<polyline class="st50" points="6356,31 6405.5,31 6405.5,80.5 		"/>
		<polyline class="st50" points="6405.5,236.6 6405.5,286.1 6356,286.1 		"/>
		<polyline class="st50" points="6230.1,286.1 6180.6,286.1 6180.6,236.6 		"/>
	</g>
	<g class="st4">
		<polyline class="st50" points="3898.6,195.3 3898.6,130.7 3963.1,130.7 		"/>
	</g>
	<g class="st4">
		<polyline class="st50" points="4586.3,740.5 4586.3,692.8 4634,692.8 		"/>
	</g>
	<g class="st4">
		<polyline class="st50" points="4750.3,789.4 4802.2,789.4 4802.2,841.3 		"/>
	</g>
	<g class="st4">
		<polyline class="st50" points="4257.5,789.4 4205.6,789.4 4205.6,841.3 		"/>
	</g>
	<g class="st4">
		<polyline class="st50" points="4259.9,1534.1 4207.9,1534.1 4207.9,1482.1 		"/>
	</g>
	<g class="st4">
		<polyline class="st50" points="4750.3,1543.7 4802.2,1543.7 4802.2,1491.7 		"/>
	</g>
	<g class="st4">
		<polyline class="st50" points="4696.9,692.8 4744.7,692.8 4744.7,740.5 		"/>
	</g>
	<g class="st4">
		<polyline class="st50" points="4744.7,826.4 4744.7,874.1 4696.9,874.1 		"/>
	</g>
	<g class="st4">
		<polyline class="st50" points="4634,874.1 4586.3,874.1 4586.3,826.4 		"/>
	</g>
	<g class="st4">
		<polyline class="st50" points="5007.3,1137.5 5007.3,1099.3 5045.5,1099.3 		"/>
	</g>
	<g class="st4">
		<polyline class="st50" points="5045.5,1244.5 5007.3,1244.5 5007.3,1206.3 		"/>
	</g>
	<g class="st4">
		<polyline class="st50" points="5194,1206.3 5194,1244.5 5155.8,1244.5 		"/>
	</g>
	<g class="st4">
		<polyline class="st50" points="5155.8,1099.3 5194,1099.3 5194,1137.5 		"/>
	</g>
	<g class="st4">
		<polyline class="st50" points="4338,130.7 4402.6,130.7 4402.6,195.3 		"/>
	</g>
	<g class="st4">
		<polyline class="st50" points="4402.6,576.4 4402.6,640.9 4338,640.9 		"/>
	</g>
	<g class="st4">
		<polyline class="st50" points="4849.5,297.5 4849.5,256.3 4890.7,256.3 		"/>
		<polyline class="st50" points="5010.6,256.3 5051.8,256.3 5051.8,297.5 		"/>
		<polyline class="st50" points="5051.8,427.6 5051.8,468.9 5010.6,468.9 		"/>
		<polyline class="st50" points="4890.7,468.9 4849.5,468.9 4849.5,427.6 		"/>
	</g>
	<g class="st4">
		<polyline class="st50" points="3179.3,923 3179.3,877.5 3224.8,877.5 		"/>
		<polyline class="st50" points="3357.1,877.5 3402.7,877.5 3402.7,923 		"/>
		<polyline class="st50" points="3402.7,1183.9 3402.7,1229.5 3357.1,1229.5 		"/>
		<polyline class="st50" points="3224.8,1229.5 3179.3,1229.5 3179.3,1183.9 		"/>
	</g>
	<path class="st31" d="M4614,769.2c0-29,23.5-52.5,52.5-52.5s52.5,23.5,52.5,52.5s-23.5,52.5-52.5,52.5c-9.1,0-17.6-2.3-25-6.3
		C4625.1,806.4,4614,789.1,4614,769.2z"/>
	<polygon class="st0" points="4653,861.8 4641.5,815.3 4666.5,815.3 4666.5,858.6 	"/>
	<polygon class="st0" points="4680,861.8 4691.5,815.3 4666.5,815.3 4666.5,858.6 	"/>
	<line class="st41" x1="4879.5" y1="874.1" x2="5007.3" y2="874.1"/>
	<line class="st41" x1="4879.5" y1="893.8" x2="5007.3" y2="893.8"/>
	<line class="st41" x1="4879.5" y1="913.5" x2="5007.3" y2="913.5"/>
	<line class="st41" x1="4452" y1="130.2" x2="4583" y2="130.2"/>
	<line class="st41" x1="4452" y1="164.7" x2="4583" y2="164.7"/>
	<line class="st41" x1="4452" y1="199.2" x2="4583" y2="199.2"/>
	<line class="st41" x1="3441.5" y1="1163.9" x2="3572.5" y2="1163.9"/>
	<line class="st41" x1="3441.5" y1="1198.4" x2="3572.5" y2="1198.4"/>
	<line class="st41" x1="3441.5" y1="1232.9" x2="3572.5" y2="1232.9"/>
	<line class="st41" x1="5088.5" y1="286.1" x2="5213.2" y2="286.1"/>
	<line class="st41" x1="5088.5" y1="312.1" x2="5213.2" y2="312.1"/>
	<line class="st41" x1="5088.5" y1="338.2" x2="5213.2" y2="338.2"/>
	<circle class="st33" cx="79.2" cy="1082.3" r="34.5"/>
	<rect x="71.5" y="1030.5" class="st33" width="16.7" height="23.9"/>
	<polygon class="st33" points="719,1019.5 691,1096.9 785,1096.9 758.5,1019.5 	"/>
	<polygon class="st33" points="793.4,1312.3 750.3,1370.3 853.3,1370.3 807.9,1312.3 	"/>
	<rect x="793.4" y="1283.3" class="st33" width="14.5" height="38"/>
	<path class="st0" d="M1214.9,1261.9l216.8-98.8c0,0,33.7-111.3,57.1-167c8.7-20.8,32.2-95.2,77.4-73.6c46,22,33.6,64.8,25.5,89.5
		c-8.7,26.7-88.2,235.7-88.2,235.7l-270,85L1214.9,1261.9z"/>
	<path class="st32" d="M257.9,501c0,0-37.2,16.2-52.3,62.5c-24.9,76.5,74.6,139,119.2,75.2s16.6-198.9,16.6-198.9l75.2-7.7
		c0,0,27.3-76.3-44-90.5c-78.4-15.6-104,39.3-108.5,66.7S257.9,501,257.9,501z"/>
	<rect x="650.5" y="1408.1" class="st12" width="419.2" height="382.8"/>
	<polyline class="st51" points="1364.4,1294.1 1508.6,1234.4 1591.7,1012.1 	"/>
	<circle class="st52" cx="1831" cy="419.3" r="124.3"/>
	<circle class="st52" cx="5540.4" cy="455.5" r="162.7"/>
	<circle class="st52" cx="694.3" cy="338.8" r="90.5"/>
	
		<linearGradient id="SVGID_20_" gradientUnits="userSpaceOnUse" x1="3673" y1="499.2" x2="4067.5" y2="499.2" gradientTransform="matrix(1 0 0 -1 0 1676)">
		<stop  offset="0" style="stop-color:#0B155B"/>
		<stop  offset="0.2663" style="stop-color:#0A1962"/>
		<stop  offset="0.6424" style="stop-color:#092574"/>
		<stop  offset="1" style="stop-color:#07348C"/>
	</linearGradient>
	<path class="st53" d="M3918.2,960.8c-2.7,1-245.2,126.8-245.2,126.8l213.5,305.2l42-22L3808,1118.1c0,0,247.5-71.2,252.5-78.2
		s7-52,7-52L3918.2,960.8z"/>
	
		<linearGradient id="SVGID_21_" gradientUnits="userSpaceOnUse" x1="2079.3" y1="169.6" x2="2566.3" y2="169.6" gradientTransform="matrix(1 0 0 -1 0 1676)">
		<stop  offset="0" style="stop-color:#0B155B"/>
		<stop  offset="0.2663" style="stop-color:#0A1962"/>
		<stop  offset="0.6424" style="stop-color:#092574"/>
		<stop  offset="1" style="stop-color:#07348C"/>
	</linearGradient>
	<ellipse class="st54" cx="2322.8" cy="1506.4" rx="243.5" ry="59.5"/>
	
		<linearGradient id="SVGID_22_" gradientUnits="userSpaceOnUse" x1="3513.5" y1="170.8" x2="4000.5" y2="170.8" gradientTransform="matrix(1 0 0 -1 0 1676)">
		<stop  offset="0" style="stop-color:#0B155B"/>
		<stop  offset="0.2663" style="stop-color:#0A1962"/>
		<stop  offset="0.6424" style="stop-color:#092574"/>
		<stop  offset="1" style="stop-color:#07348C"/>
	</linearGradient>
	<ellipse class="st55" cx="3757" cy="1505.2" rx="243.5" ry="59.5"/>
	
		<linearGradient id="SVGID_23_" gradientUnits="userSpaceOnUse" x1="5274.7002" y1="190" x2="6070.2998" y2="190" gradientTransform="matrix(1 0 0 -1 0 1676)">
		<stop  offset="0" style="stop-color:#0B155B"/>
		<stop  offset="0.2663" style="stop-color:#0A1962"/>
		<stop  offset="0.6424" style="stop-color:#092574"/>
		<stop  offset="1" style="stop-color:#07348C"/>
	</linearGradient>
	<ellipse class="st56" cx="5672.5" cy="1486" rx="397.8" ry="88.4"/>
	<polyline class="st57" points="2657.5,661 2693.2,661 2702.5,685.4 2714.7,610.4 2726,719.2 2734.4,655.4 2773.8,655.4 
		2782.2,682.6 2794.4,610.4 2808.5,715.4 2808.5,655.4 2843.2,655.4 2855.3,691 2868.5,610.4 2877.8,719.2 2889.1,654.5 
		2919.1,654.5 	"/>
	<rect x="3507" y="598.1" class="st31" width="331.9" height="196.6"/>
	<path class="st0" d="M3817.4,747.7l42.8,75.5c0,0,82.9-58.7,113.1-81.6c23.3-17.7,68.4-48.3,37-86.9
		c-38.4-47.1-136.7,44.7-136.7,44.7L3817.4,747.7z"/>
	<circle class="st33" cx="5918.1" cy="1014.7" r="24.5"/>
	<circle class="st33" cx="5078" cy="1175" r="19.4"/>
	<circle class="st33" cx="5133.5" cy="1175" r="19.4"/>
	<line class="st58" x1="3536" y1="650.6" x2="3752.5" y2="650.6"/>
	<line class="st58" x1="3536" y1="687.3" x2="3752.5" y2="687.3"/>
	<line class="st58" x1="3536" y1="724" x2="3752.5" y2="724"/>
	<line class="st58" x1="3536" y1="760.8" x2="3752.5" y2="760.8"/>
	<path class="st27" d="M3830.3,757.2l15.8,56.3l-58.6,28.1l-124.3-119c0,0-16.4-5.8-19.4-17.5c-2.9-11.7-9.2-12-9.2-12
		s-2.1-2.7,1.5-6.9c3.4-4,8.9-4.1,8.9-4.1s-22.9-17.6-26.7-24.3c-1-1.7,2.1-6.7,6.3-3.8c13.5,9.3,37.9,29.9,37.9,29.9l130.7,102
		L3830.3,757.2z"/>
	<rect x="3741.7" y="519.8" class="st59" width="136.8" height="136.8"/>
	<path class="st31" d="M3836.7,625.8h-53.4c0,0,0.7-39.2,26.7-39.2S3836.7,625.8,3836.7,625.8z"/>
	<circle class="st31" cx="3810" cy="565.6" r="14.2"/>
	<rect x="3774.5" y="666.3" class="st58" width="37" height="37"/>
	<rect x="3774.5" y="725.6" class="st58" width="37" height="37"/>
	<rect x="3218.2" y="178" class="st52" width="226.8" height="179.8"/>
	<circle class="st52" cx="5540.4" cy="455.5" r="277.5"/>
	<rect x="4870.1" y="276.9" class="st52" width="161.1" height="171.3"/>
	<rect x="6195" y="46.4" class="st52" width="192.8" height="224.6"/>
	<g class="st4">
		<rect x="4335" y="902.3" class="st60" width="145.5" height="76.2"/>
		<polyline class="st60" points="4387.3,902.3 4387.3,927.5 4429.9,927.5 4429.9,902.3 		"/>
	</g>
	<g class="st4">
		<rect x="4530.5" y="902.3" class="st60" width="145.5" height="76.2"/>
		<polyline class="st60" points="4582.8,902.3 4582.8,927.5 4625.4,927.5 4625.4,902.3 		"/>
	</g>
	<g class="st4">
		<rect x="4335" y="1017.5" class="st60" width="145.5" height="76.2"/>
		<polyline class="st60" points="4387.3,1017.5 4387.3,1042.7 4429.9,1042.7 4429.9,1017.5 		"/>
	</g>
	<g class="st4">
		<rect x="4530.5" y="1017.5" class="st60" width="145.5" height="76.2"/>
		<polyline class="st60" points="4582.8,1017.5 4582.8,1042.7 4625.4,1042.7 4625.4,1017.5 		"/>
	</g>
	<g class="st4">
		<rect x="4335" y="1132.7" class="st60" width="145.5" height="76.2"/>
		<polyline class="st60" points="4387.3,1132.7 4387.3,1157.9 4429.9,1157.9 4429.9,1132.7 		"/>
	</g>
	<g class="st4">
		<rect x="4530.5" y="1132.7" class="st60" width="145.5" height="76.2"/>
		<polyline class="st60" points="4582.8,1132.7 4582.8,1157.9 4625.4,1157.9 4625.4,1132.7 		"/>
	</g>
	<g class="st4">
		<rect x="4335" y="1247.9" class="st60" width="145.5" height="76.2"/>
		<polyline class="st60" points="4387.3,1247.9 4387.3,1273.1 4429.9,1273.1 4429.9,1247.9 		"/>
	</g>
	<g class="st4">
		<rect x="4530.5" y="1247.9" class="st60" width="145.5" height="76.2"/>
		<polyline class="st60" points="4582.8,1247.9 4582.8,1273.1 4625.4,1273.1 4625.4,1247.9 		"/>
	</g>
	<g class="st4">
		<rect x="4335" y="1363.1" class="st60" width="145.5" height="76.2"/>
		<polyline class="st60" points="4387.3,1363.1 4387.3,1388.3 4429.9,1388.3 4429.9,1363.1 		"/>
	</g>
	<g class="st4">
		<rect x="4530.5" y="1363.1" class="st60" width="145.5" height="76.2"/>
		<polyline class="st60" points="4582.8,1363.1 4582.8,1388.3 4625.4,1388.3 4625.4,1363.1 		"/>
	</g>
	<polyline class="st61" points="4899.5,468.8 4899.5,509.8 4940.5,491.8 4977.5,508 4971.5,468.8 	"/>
	<rect x="4257.5" y="829.7" class="st52" width="487.2" height="665.1"/>
	<circle class="st61" cx="4947.9" cy="393.7" r="24.5"/>
	<circle class="st61" cx="5007.1" cy="393.7" r="24.5"/>
	<path class="st62" d="M820,586.3c0,0-6.6,3.5-6.6,9.8c0,8.6,6.6,10.5,6.6,10.5"/>
	<path class="st62" d="M872.5,585.9c0,0,5.3,2.2,5.3,9.3c0,6.8-4,9.5-4,9.5"/>
	<line class="st63" x1="806.2" y1="365.5" x2="806.2" y2="390.8"/>
	<line class="st63" x1="820" y1="378.2" x2="792.4" y2="378.2"/>
	<line class="st63" x1="846.2" y1="575.1" x2="846.2" y2="600.3"/>
	<line class="st63" x1="860" y1="587.7" x2="832.4" y2="587.7"/>
	<line class="st63" x1="792.4" y1="575.1" x2="792.4" y2="600.3"/>
	<line class="st63" x1="806.2" y1="587.7" x2="778.6" y2="587.7"/>
	<line class="st63" x1="899.6" y1="575.1" x2="899.6" y2="600.3"/>
	<line class="st63" x1="913.4" y1="587.7" x2="885.8" y2="587.7"/>
	<line class="st63" x1="879.7" y1="365.5" x2="879.7" y2="390.8"/>
	<line class="st63" x1="893.5" y1="378.2" x2="865.9" y2="378.2"/>
	<line class="st63" x1="938.6" y1="448.6" x2="938.6" y2="473.9"/>
	<line class="st63" x1="952.4" y1="461.3" x2="924.8" y2="461.3"/>
	<line class="st63" x1="744.3" y1="448.6" x2="744.3" y2="473.9"/>
	<line class="st63" x1="758.1" y1="461.3" x2="730.5" y2="461.3"/>
	<path class="st62" d="M803.5,643.1l29.6-10.3c0,0,5.2,4.4,13.1,4.4c8.2,0,11.6-2.9,11.6-2.9s7.1,2.9,14.6,4.8
		c8.3,2,16.8,3.1,16.8,3.1"/>
	<path class="st62" d="M832.3,645.5c0,0,6.8-1.9,13.7-1.9c6.4,0,15.4,2.3,15.8,2.6"/>
	<path class="st62" d="M829.3,655.9c1,0,20.1,1.4,26.8,0.8c4.2-0.3,9.8-1.5,14.9-4.5c2.8-1.7,7-4.9,14.4-4.9"/>
	<path class="st62" d="M762.7,658.8c0,0,33.6,44.5,83.5,44.5c49.1,0,81.9-46.5,81.9-46.5"/>
	<circle class="st31" cx="2286.3" cy="334.7" r="6.4"/>
	<path class="st27" d="M2355.5,371.1c0,0,21.3-12,20-1.3s-20,19.3-20,19.3V371.1z"/>
	<path class="st27" d="M349.4,450.3c0,0-19.9-0.5-20.9,10s27,14.4,27,14.4L349.4,450.3z"/>
	<path class="st27" d="M1376.7,818.8c0,0,21-27,27-15s-13.5,29-13.5,29L1376.7,818.8z"/>
	<rect x="3340.3" y="454.8" class="st64" width="209" height="209"/>
	<g class="st4">
		<path class="st49" d="M3444.8,629.5c0,0-53.7-28.2-64.5-62.7c-11.7-37.3,11.8-60.7,32.2-60.7s32.2,23.4,32.2,23.4v100H3444.8z"/>
		<path class="st49" d="M3444.8,629.5c0,0,53.7-28.2,64.5-62.7c11.7-37.3-11.8-60.7-32.2-60.7s-32.2,23.4-32.2,23.4v100H3444.8z"/>
	</g>
	<line class="st65" x1="956.8" y1="1115.3" x2="-36.5" y2="1115.3"/>
	<polyline class="st44" points="4841.4,477.4 4841.4,696.3 5106.4,697 	"/>
	<polyline class="st51" points="1622.8,1382.8 1587.3,1285.9 1729.5,1234.4 1764.8,1328.8 	"/>
	
		<linearGradient id="SVGID_24_" gradientUnits="userSpaceOnUse" x1="3339.7751" y1="360.525" x2="3596.425" y2="617.175" gradientTransform="matrix(1 0 0 -1 0 1676)">
		<stop  offset="0" style="stop-color:#0B155B"/>
		<stop  offset="0.2663" style="stop-color:#0A1962"/>
		<stop  offset="0.6424" style="stop-color:#092574"/>
		<stop  offset="1" style="stop-color:#07348C"/>
	</linearGradient>
	<rect x="3463.6" y="935" class="st66" width="9" height="504.3"/>
	
		<linearGradient id="SVGID_25_" gradientUnits="userSpaceOnUse" x1="3439.575" y1="360.525" x2="3696.2249" y2="617.175" gradientTransform="matrix(1 0 0 -1 0 1676)">
		<stop  offset="0" style="stop-color:#0B155B"/>
		<stop  offset="0.2663" style="stop-color:#0A1962"/>
		<stop  offset="0.6424" style="stop-color:#092574"/>
		<stop  offset="1" style="stop-color:#07348C"/>
	</linearGradient>
	<rect x="3563.4" y="935" class="st67" width="9" height="504.3"/>
	<path class="st12" d="M3928.5,1370.8l30,56l-132.7,57.7c0,0-8.3-16.7,8.3-34c13.7-14.2,37-29,37-29l15.3-28.7L3928.5,1370.8z"/>
	<path class="st27" d="M1198.7,1064.1L1198.7,1064.1l-82.8,14.3c0,0,6.1-13.2,19.4-19.3c13.3-6.1,28.5-11.9,28.5-11.9
		s-78.6-52.1-78.1-57.6c0.5-5.6,6.3-8.4,16.8-2.2c3,1.8,44,30.2,44,30.2s-38.7-33-50.5-45c-1.9-2-7.2-8.3-1.4-11
		c5.8-2.7,56.5,42.1,56.5,42.1l1-2.4c0,0-31.7-27-41.4-36.9c-1.6-1.6-6.6-7.7-1.1-8.8s51.6,38.9,51.6,38.9l4-2
		c0,0-22.4-25.5-21.4-28.4c1-2.8,3-2.5,6.3,0.4c3.3,3,24.8,26.2,24.8,26.2l49.9,54.2L1198.7,1064.1z"/>
	<polygon class="st0" points="1196.5,950.2 1233.5,879.3 1266.1,897.1 1227.9,968.5 	"/>
	<g class="st4">
		<path class="st68" d="M1231.3,1259.3h-103c-69.3,0-126.5-55.5-126.9-124.8c-0.4-69.6,56.1-126.3,125.6-126.3h33.8v49.1H1128
			c-42.1,0-77.1,33.6-77.5,75.7c-0.4,42.5,34.1,77.3,76.5,77.3h104.4c13.5,0,24.5,11,24.5,24.5l0,0
			C1255.9,1248.3,1244.9,1259.3,1231.3,1259.3z"/>
	</g>
	<polygon class="st0" points="1249.2,978.5 1175.1,938.5 1102.4,1069.9 1175.2,1107.8 	"/>
	<polygon class="st27" points="1204.4,954.4 1128.6,1083.5 1175.2,1107.8 1249.2,978.5 	"/>
	<path class="st27" d="M1231.9,1279.7l-40,2.8l-56.8-62c0,0-3.2,14.2,3.5,27.1c6.8,12.9,15.3,26.9,15.3,26.9s-94-6.9-97.1-2.2
		c-3,4.7-0.1,10.5,12,12c3.5,0.4,53.3,3,53.3,3s-50.8,2.4-67.5,4.7c-2.7,0.4-10.7,2.1-7.8,7.8c2.9,5.7,70.5,1.3,70.5,1.3l-0.7,2.6
		c0,0-41.6,1.9-55.3,3.8c-2.2,0.3-9.9,2.1-6.3,6.3s64.6,0.8,64.6,0.8l2,4.1c0,0-33.3,6.5-34.3,9.3c-0.9,2.9,0.8,3.9,5.3,3.5
		c4.4-0.3,35.6-5.5,35.6-5.5l101.1-8.1L1231.9,1279.7z"/>
	<path class="st27" d="M2103.6,731.5l-14.3,30.7l-68.9,16.6c0,0,9.2,8.2,21.5,8.5c12.3,0.3,26.1-0.3,26.1-0.3s-43.5,66.5-41.3,70.7
		c2.2,4.1,7.7,4.4,13.8-3.9c1.8-2.4,24-38.1,24-38.1s-18.9,38.4-24.1,51.7c-0.8,2.2-2.8,8.8,2.6,9c5.4,0.2,29.7-51.5,29.7-51.5
		l1.6,1.5c0,0-15.6,31.5-19.8,42.4c-0.7,1.7-2.5,8.2,2.1,7.2s27-47.3,27-47.3l3.8,0.2c0,0-8.8,27.2-7.1,29.1c1.7,1.8,3.2,1,4.8-2.4
		s10.5-28.6,10.5-28.6l35.3-77.9L2103.6,731.5z"/>
	<path class="st27" d="M2532.3,719.2l14.3,30.7l68.9,16.6c0,0-9.2,8.2-21.5,8.5s-26.1-0.3-26.1-0.3s43.5,66.5,41.3,70.7
		c-2.2,4.1-7.7,4.4-13.8-3.9c-1.8-2.4-24-38.1-24-38.1s18.9,38.4,24.1,51.7c0.8,2.2,2.8,8.8-2.6,9c-5.4,0.2-29.7-51.5-29.7-51.5
		l-1.6,1.5c0,0,15.6,31.5,19.8,42.4c0.7,1.7,2.5,8.2-2.1,7.2s-27-47.3-27-47.3l-3.8,0.2c0,0,8.8,27.2,7.1,29.1s-3.2,1-4.8-2.4
		s-10.5-28.6-10.5-28.6l-35.3-77.9L2532.3,719.2z"/>
	<path class="st27" d="M5604.6,924.4l-13,27.8l-62.5,15c0,0,8.3,7.4,19.5,7.7s23.6-0.3,23.6-0.3s-39.5,60.4-37.5,64.1
		c2,3.8,7,4,12.5-3.6c1.6-2.2,21.8-34.5,21.8-34.5s-17.2,34.9-21.9,46.9c-0.8,2-2.5,8,2.3,8.1c4.9,0.2,27-46.7,27-46.7l1.5,1.4
		c0,0-14.1,28.5-17.9,38.4c-0.6,1.6-2.3,7.4,1.9,6.5c4.2-0.9,24.5-42.9,24.5-42.9l3.4,0.2c0,0-8,24.7-6.4,26.4s2.9,0.9,4.3-2.2
		s9.5-25.9,9.5-25.9l32-70.7L5604.6,924.4z"/>
	<path class="st27" d="M3743.3,747.6l-43-33.3l-38.3-81.7c0,0-5.3,5.2-5.4,11.2c-0.1,6.1,8.4,26,8.4,26l-70.1-29.4
		c0,0-6.8-2.7-8.5,2.1c-1.7,4.9,52.9,33.6,52.9,33.6s-6.1,0.1-6.8,4.9c-0.6,4.2,4.6,6.4,4.6,6.4s-5.1,1.7-3.4,5.5s3.9,6.1,3.9,6.1
		s-3.7,3.3-1.1,7s8.9,11.2,15.2,15.4s23.1,9.7,23.1,9.7L3703,760L3743.3,747.6z"/>
	<path class="st27" d="M2281.8,1414.8c0,0,7.8,44.8,11.9,56.7c4.1,11.9,14.6,48.1,3.5,52.6c-20.5,8.4-22.8-16-22.8-16
		s-0.2,11.5-8.2,11.5c-9,0-9-10.7-9-10.7s-2.1,9-7.4,8.6c-5.3-0.4-7.8-11.1-7.8-11.1s-3.3,6.2-8.2,3.3s-3.3-16.7-3.3-16.7l15.6-42.4
		l-0.4-37.5L2281.8,1414.8z"/>
	<path class="st27" d="M2364,1416.8c0,0-7.5,43.1-11.5,54.6s-14,46.3-3.4,50.6c19.8,8,21.9-15.4,21.9-15.4s0.2,11.1,7.9,11.1
		c8.7,0,8.7-10.3,8.7-10.3s2,8.7,7.1,8.3c5.1-0.4,7.5-10.7,7.5-10.7s3.2,5.9,7.9,3.2c4.7-2.8,3.2-16.1,3.2-16.1l-15-40.8l0.4-36.1
		L2364,1416.8z"/>
	<polygon class="st27" points="5700.9,721.2 5656.5,721.2 5633.4,855.5 5590.7,955.1 5622.5,955.1 5676.1,838.1 	"/>
	<circle class="st52" cx="694.3" cy="338.8" r="36.5"/>
	<circle class="st69" cx="79.2" cy="1082.3" r="90.6"/>
	<circle class="st69" cx="1171.5" cy="278.8" r="90.6"/>
	<circle class="st69" cx="801.4" cy="1341.3" r="90.6"/>
	<circle class="st69" cx="3444.1" cy="559.3" r="90.6"/>
	<circle class="st69" cx="5918.1" cy="1014.7" r="90.6"/>
	<circle class="st69" cx="6288.2" cy="156.4" r="90.6"/>
	<circle class="st69" cx="736.4" cy="1059" r="90.6"/>
	<rect x="2615.6" y="559.3" class="st69" width="347.3" height="218.8"/>
	<circle class="st52" cx="849.5" cy="506.3" r="243"/>
	<circle class="st52" cx="849.5" cy="506.3" r="196.7"/>
	<path class="st27" d="M603.5,506.3l23.9-52.7l-4.6-95.8c0,0,7.5,2.3,10.6,7.9s5,28.6,5,28.6l51.2-62.4c0,0,5-5.9,9-2.2
		s-32.9,57.9-32.9,57.9s5.8-2.9,8.8,1.2c2.6,3.6-1.1,8.3-1.1,8.3s5.6-1,6,3.5c0.4,4.4-0.6,7.7-0.6,7.7s5.1,1.3,4.5,6
		c-0.7,4.7-2.8,15-6.7,22.1c-3.8,7.1-16.9,20.5-16.9,20.5l-15.1,51.6L603.5,506.3z"/>
	
		<linearGradient id="SVGID_26_" gradientUnits="userSpaceOnUse" x1="361.8638" y1="1081.15" x2="650.4" y2="1081.15" gradientTransform="matrix(1 0 0 -1 0 1676)">
		<stop  offset="0" style="stop-color:#07348C"/>
		<stop  offset="0.3791" style="stop-color:#07328A"/>
		<stop  offset="0.5985" style="stop-color:#082D81"/>
		<stop  offset="0.7771" style="stop-color:#092473"/>
		<stop  offset="0.9329" style="stop-color:#0B1860"/>
		<stop  offset="0.9614" style="stop-color:#0B155B"/>
	</linearGradient>
	<path class="st70" d="M600.2,494l-38.7,114.5l-142.1-54.8c0,0-45-8.4-55,22c-14.7,44.7,39.3,59,39.3,59l194.7,61l52-187.7
		L600.2,494z"/>
	<circle class="st0" cx="789.1" cy="524.4" r="12.3"/>
	<circle class="st0" cx="907.6" cy="524.4" r="12.3"/>
	<path class="st62" d="M831.4,498.2c0,0-16-10.9-35.1-15.5c-22-5.2-35.1,1-35.1,1"/>
	<path class="st62" d="M928.1,478.4c0,0-24-2.6-41.4,6.2c-16.3,8.2-26.4,20.2-26.4,20.2l-1.4,63.1"/>
	<path class="st62" d="M834.8,607.6c0,0,3.1,4.6,8.2,4.6c5,0,9.6-4.6,9.6-4.6h13.2"/>
	<polygon class="st27" points="5462.4,697.9 5493.9,727.9 5379.2,849.8 5348.3,834.6 	"/>
	<path class="st27" d="M5348.3,834.6l-24.5,33.4c0,0-35.6,18.3-47.2,27.9s-42.9,40.3-42.9,40.3s-0.4,11.7,9.6,3.6s10-8.1,10-8.1
		s-8.4,21.6-3,20.4s8-13.3,8-13.3s-0.4,5,2.6,3c3-2.1,6.6-16.1,6.6-16.1s1,10.5,4,7.2s8.3-24.1,8.3-24.1l26.5-12.5l-16,12.3
		c0,0-10.5,8.2-5.8,10.2s12.7-4.7,12.7-4.7l28.6-16l13-21.4l42.4-29.7L5348.3,834.6z"/>
	
		<linearGradient id="SVGID_27_" gradientUnits="userSpaceOnUse" x1="3891.4421" y1="1139.6283" x2="4035.1016" y2="1139.6283" gradientTransform="matrix(1 0 0 -1 0 1676)">
		<stop  offset="0" style="stop-color:#0B155B"/>
		<stop  offset="0.2663" style="stop-color:#0A1962"/>
		<stop  offset="0.6424" style="stop-color:#092574"/>
		<stop  offset="1" style="stop-color:#07348C"/>
	</linearGradient>
	<path class="st71" d="M3959.6,537l-62.9,22.5c0,0-35-69.5,75.6-87.6c50.6-8.3,84,100.2,47.2,116.5c-40.6,18-37.5,11.9-37.5,11.9
		l-15.3-44.5L3959.6,537z"/>
	<path class="st27" d="M3966.8,555.9c0,0,9.2-15.5,17.2-4.5s-12.5,25.7-12.5,25.7L3966.8,555.9z"/>
</g>
</svg>
