<?xml version="1.0" encoding="utf-8"?>
<!-- Generator: Adobe Illustrator 21.0.2, SVG Export Plug-In . SVG Version: 6.00 Build 0)  -->
<svg version="1.1" id="Layer_1" xmlns="http://www.w3.org/2000/svg" xmlns:xlink="http://www.w3.org/1999/xlink" x="0px" y="0px"
	 viewBox="0 0 10024 1676" style="enable-background:new 0 0 10024 1676;" xml:space="preserve">
<style type="text/css">
	.st0{fill:none;stroke:#0B155B;stroke-width:3;stroke-miterlimit:10;}
	.st1{clip-path:url(#SVGID_2_);fill:url(#SVGID_3_);}
	.st2{clip-path:url(#SVGID_2_);fill:url(#SVGID_4_);}
	.st3{clip-path:url(#SVGID_2_);fill:#07348C;}
	.st4{clip-path:url(#SVGID_2_);fill:#FF0300;}
	.st5{clip-path:url(#SVGID_2_);fill:#00ACE1;}
	.st6{clip-path:url(#SVGID_2_);fill:none;stroke:#0058AF;stroke-width:2;stroke-miterlimit:10;}
	.st7{clip-path:url(#SVGID_2_);}
	.st8{fill:#00AFE4;}
	.st9{clip-path:url(#SVGID_2_);fill:#0B155B;}
	.st10{opacity:0.41;fill:#0B155B;enable-background:new    ;}
	.st11{fill:#0B155B;}
	.st12{fill:none;stroke:#00AFE4;stroke-width:1.1601;stroke-miterlimit:10;}
	.st13{fill:#07348C;}
	.st14{fill:url(#SVGID_5_);}
	.st15{clip-path:url(#SVGID_2_);fill:none;}
	.st16{opacity:0.24;clip-path:url(#SVGID_2_);fill:#45D7EF;enable-background:new    ;}
	.st17{clip-path:url(#SVGID_2_);fill:#0A1447;}
	.st18{clip-path:url(#SVGID_7_);fill:#00ACE1;}
	.st19{clip-path:url(#SVGID_2_);fill:url(#SVGID_8_);}
	.st20{clip-path:url(#SVGID_2_);fill:none;stroke:#0B155B;stroke-width:3;stroke-miterlimit:10;}
	.st21{clip-path:url(#SVGID_10_);fill:#1BC4EC;}
	.st22{clip-path:url(#SVGID_12_);fill:#1BC4EC;}
	.st23{clip-path:url(#SVGID_14_);fill:#1BC4EC;}
	.st24{clip-path:url(#SVGID_16_);fill:#1BC4EC;}
	.st25{clip-path:url(#SVGID_2_);fill:url(#SVGID_17_);}
	.st26{clip-path:url(#SVGID_2_);fill:url(#SVGID_18_);}
	.st27{opacity:0.43;clip-path:url(#SVGID_2_);fill:url(#SVGID_19_);enable-background:new    ;}
	.st28{clip-path:url(#SVGID_2_);fill:none;stroke:#00AFE4;stroke-width:2;stroke-miterlimit:10;}
	.st29{clip-path:url(#SVGID_2_);fill:#00AFE4;}
	.st30{opacity:0.47;clip-path:url(#SVGID_2_);fill:#0B155B;enable-background:new    ;}
	.st31{clip-path:url(#SVGID_2_);fill:url(#SVGID_20_);}
	.st32{opacity:0.26;fill:#00AFE4;enable-background:new    ;}
	.st33{fill:none;stroke:#00AFE4;stroke-width:0.5529;stroke-miterlimit:10;}
	.st34{fill:none;stroke:#00AFE4;stroke-width:0.5897;stroke-miterlimit:10;}
	.st35{opacity:0.56;fill:#07348C;enable-background:new    ;}
	.st36{opacity:0.81;fill:#00AFE4;enable-background:new    ;}
	.st37{fill:none;stroke:#00AFE4;stroke-width:0.6315;stroke-miterlimit:10;}
	.st38{fill:none;stroke:#07348C;stroke-width:0.9605;stroke-miterlimit:10;}
	.st39{fill:none;stroke:#07348C;stroke-width:1.0764;stroke-miterlimit:10;}
	.st40{fill:none;stroke:#FF0300;stroke-width:1.263;stroke-miterlimit:10;}
	.st41{fill:#FF0300;}
	.st42{fill:none;stroke:#FF0300;stroke-width:0.6315;stroke-miterlimit:10;}
	.st43{fill:none;stroke:#00AFE4;stroke-width:8.2096;stroke-linecap:round;stroke-miterlimit:10;}
	.st44{fill:none;stroke:#00AFE4;stroke-width:5.0521;stroke-linecap:round;stroke-miterlimit:10;}
	.st45{fill:none;stroke:#FF0300;stroke-width:1.8945;stroke-miterlimit:10;}
	.st46{fill:none;stroke:#0058AF;stroke-width:6.3151;stroke-linecap:round;stroke-miterlimit:10;}
	.st47{fill:none;stroke:#FF0300;stroke-width:3.789;stroke-linecap:round;stroke-miterlimit:10;}
	.st48{clip-path:url(#SVGID_2_);fill:url(#SVGID_21_);}
	.st49{clip-path:url(#SVGID_23_);fill:#1BC4EC;}
	.st50{clip-path:url(#SVGID_25_);fill:#1BC4EC;}
	.st51{clip-path:url(#SVGID_27_);fill:#1BC4EC;}
	.st52{clip-path:url(#SVGID_29_);fill:#1BC4EC;}
	.st53{clip-path:url(#SVGID_31_);fill:#1BC4EC;}
	.st54{clip-path:url(#SVGID_33_);fill:#1BC4EC;}
	.st55{fill:url(#SVGID_34_);}
	.st56{fill:#0058AF;}
	.st57{fill:none;stroke:#0B155B;stroke-width:4;stroke-miterlimit:10;}
	.st58{fill:#0A1447;}
	.st59{clip-path:url(#SVGID_2_);fill:url(#SVGID_35_);}
	.st60{clip-path:url(#SVGID_2_);fill:#0058AF;}
	.st61{fill:url(#SVGID_36_);}
	.st62{fill:url(#SVGID_37_);}
	.st63{clip-path:url(#SVGID_2_);fill:url(#SVGID_38_);}
	.st64{fill:#00ACE1;}
	.st65{opacity:0.15;clip-path:url(#SVGID_2_);fill:#00AFE4;enable-background:new    ;}
	.st66{clip-path:url(#SVGID_2_);fill:none;stroke:#00AFE4;stroke-miterlimit:10;}
	.st67{clip-path:url(#SVGID_2_);fill:url(#SVGID_39_);}
	.st68{opacity:0.26;clip-path:url(#SVGID_2_);fill:#00AFE4;enable-background:new    ;}
	.st69{clip-path:url(#SVGID_2_);fill:none;stroke:#00AFE4;stroke-width:3;stroke-miterlimit:10;}
	.st70{clip-path:url(#SVGID_2_);enable-background:new    ;}
	.st71{fill:#F4F6F9;}
	.st72{font-family:'PeaceSans';}
	.st73{font-size:58.7151px;}
	.st74{clip-path:url(#SVGID_2_);fill:none;stroke:#0B155B;stroke-width:5;stroke-miterlimit:10;}
	.st75{clip-path:url(#SVGID_2_);fill:none;stroke:#0B155B;stroke-width:2;stroke-miterlimit:10;}
	.st76{clip-path:url(#SVGID_2_);fill:none;stroke:#0B155B;stroke-miterlimit:10;}
	.st77{fill:url(#SVGID_40_);}
	.st78{clip-path:url(#SVGID_2_);fill:none;stroke:#FF0300;stroke-width:2;stroke-miterlimit:10;}
</style>
<line class="st0" x1="10826" y1="1395" x2="10826" y2="1423.7"/>
<line class="st0" x1="11226.8" y1="1395" x2="11226.8" y2="1423.7"/>
<g>
	<defs>
		<rect id="SVGID_1_" x="-8.3" y="-12.3" width="10032.3" height="1688.3"/>
	</defs>
	<clipPath id="SVGID_2_">
		<use xlink:href="#SVGID_1_"  style="overflow:visible;"/>
	</clipPath>
	
		<linearGradient id="SVGID_3_" gradientUnits="userSpaceOnUse" x1="-8.3" y1="831.05" x2="10024" y2="831.05" gradientTransform="matrix(1 0 0 -1 0 1676)">
		<stop  offset="0" style="stop-color:#0B155B"/>
		<stop  offset="1" style="stop-color:#073489"/>
	</linearGradient>
	<rect x="-8.3" y="-12.3" class="st1" width="10032.3" height="1714.5"/>
	
		<linearGradient id="SVGID_4_" gradientUnits="userSpaceOnUse" x1="430" y1="1011.75" x2="3838" y2="1011.75" gradientTransform="matrix(1 0 0 -1 0 1676)">
		<stop  offset="0" style="stop-color:#0B155B"/>
		<stop  offset="1" style="stop-color:#073489"/>
	</linearGradient>
	<polygon class="st2" points="430,10.4 430,524.8 1988.7,524.8 1988.7,1318.1 3838,1318.1 3838,10.4 	"/>
	<rect x="536.6" y="521.2" class="st3" width="1788.4" height="813"/>
	<rect x="2532.1" y="522.7" class="st3" width="388.2" height="799.5"/>
	<rect x="514.1" y="98" class="st3" width="162.8" height="316.1"/>
	<rect x="739.1" y="98" class="st4" width="162.8" height="316.1"/>
	<rect x="964.1" y="98" class="st3" width="162.8" height="316.1"/>
	<rect x="1189.1" y="98" class="st3" width="162.8" height="316.1"/>
	<rect x="1414.1" y="98" class="st5" width="162.8" height="316.1"/>
	<rect x="1639.2" y="98" class="st3" width="162.8" height="316.1"/>
	<rect x="1864.2" y="98" class="st3" width="162.8" height="316.1"/>
	<rect x="2089.2" y="98" class="st4" width="162.8" height="316.1"/>
	<rect x="2314.2" y="98" class="st3" width="162.8" height="316.1"/>
	<rect x="2539.3" y="98" class="st3" width="162.8" height="316.1"/>
	<rect x="2764.3" y="98" class="st5" width="162.8" height="316.1"/>
	<rect x="2989.3" y="107" class="st3" width="162.8" height="307.1"/>
	<polygon class="st5" points="1749,615.1 1194.5,1074 1195.5,1331.2 2323.5,1330.5 2325,664 2252,615.1 	"/>
	<rect x="2982.1" y="907.2" class="st3" width="148.5" height="193"/>
	<line class="st6" x1="536.6" y1="521.2" x2="536.6" y2="1334.2"/>
	<g class="st7">
		<polygon class="st8" points="430,-101.9 430.5,-23.6 430.9,54.8 431.3,211.4 431.5,368.1 431.5,446.5 431.4,524.8 430,523.4 
			509.5,523.5 589,523.9 668.5,524.2 748,524.8 668.5,525.4 589,525.8 509.5,526.1 430,526.2 428.7,526.2 428.7,524.8 428.6,446.5 
			428.6,368.1 428.8,211.4 429.2,54.8 429.6,-23.6 		"/>
	</g>
	<circle class="st5" cx="2724.5" cy="806.6" r="14.5"/>
	<rect x="2519.9" y="504.1" class="st9" width="412.8" height="23.9"/>
	<rect x="2519.9" y="675" class="st9" width="12.3" height="69.6"/>
	<rect x="2519.9" y="1074" class="st9" width="12.3" height="69.6"/>
	<g class="st7">
		<rect x="536.6" y="521.2" class="st10" width="130.6" height="552.7"/>
		<rect x="771.9" y="521.2" class="st10" width="130.6" height="552.7"/>
		<rect x="1007.1" y="521.2" class="st10" width="130.6" height="552.7"/>
		<rect x="1242.4" y="521.2" class="st10" width="130.6" height="552.7"/>
		<rect x="1477.7" y="521.2" class="st10" width="130.6" height="552.7"/>
		<rect x="1713" y="521.2" class="st10" width="130.6" height="552.7"/>
		<rect x="1948.3" y="521.2" class="st10" width="130.6" height="552.7"/>
		<rect x="2183.6" y="521.2" class="st10" width="130.6" height="552.7"/>
	</g>
	<rect x="1743.2" y="917.3" class="st9" width="580.3" height="128.7"/>
	<polygon class="st3" points="1792.7,1046 1792.7,989.3 1684.7,989.3 1684.7,1201.2 2323.5,1201.2 2323.5,1046 	"/>
	<polygon class="st3" points="1808.8,1189.1 1743.2,1273.3 1728.2,1273.3 1758.2,1189.7 	"/>
	<g class="st7">
		<g>
			<path class="st11" d="M760.4,1348.4h-21.3v-61.8c0,0,0-9.2,6.8-16.5c3.6-3.9,6-7.1,6.2-9.8s0-20.6,0-20.6h-1.6v-10.6h9.9
				L760.4,1348.4L760.4,1348.4z"/>
			<path class="st11" d="M760.4,1348.4h21.3v-61.8c0,0,0-9.2-6.8-16.5c-3.6-3.9-6-7.1-6.2-9.8s0-20.6,0-20.6h1.6v-10.6h-9.9
				L760.4,1348.4L760.4,1348.4z"/>
		</g>
		<path class="st11" d="M859.3,1345.7h-75.1V1303h75.1c1.7,0,3.1,1.4,3.1,3.1v36.6C862.4,1344.3,861,1345.7,859.3,1345.7z"/>
		<circle class="st12" cx="827.6" cy="1318.7" r="7.8"/>
		<circle class="st12" cx="827.6" cy="1331.1" r="7.8"/>
		<circle class="st12" cx="835.4" cy="1325.5" r="7.8"/>
		<g>
			<path class="st8" d="M785.5,1335c0,0-3.9-0.6-8.1,0.5c-3.2,0.8-5.9,2.8-5.9,2.8s5.5,7.4,5.5,15.8c0,9.4-8.8,15.4-8.8,15.4
				s1.5,3.1,7.4,6c2.6,1.3,7.1,1.9,9.8,1.5L785.5,1335L785.5,1335z"/>
			<path class="st8" d="M785.5,1335c0,0,3.9-0.6,8.1,0.5c3.2,0.8,5.9,2.8,5.9,2.8s-5.5,7.4-5.5,15.8c0,9.4,8.8,15.4,8.8,15.4
				s-1.5,3.1-7.4,6c-2.6,1.3-7.2,1.9-9.8,1.5L785.5,1335L785.5,1335z"/>
		</g>
		<rect x="784.2" y="1327.1" class="st13" width="2.1" height="10.3"/>
		
			<linearGradient id="SVGID_5_" gradientUnits="userSpaceOnUse" x1="739.1" y1="369.2999" x2="781.743" y2="369.2999" gradientTransform="matrix(1 0 0 -1 0 1676)">
			<stop  offset="0" style="stop-color:#0B155B"/>
			<stop  offset="1" style="stop-color:#073489"/>
		</linearGradient>
		<rect x="739.1" y="1288.8" class="st14" width="42.6" height="35.8"/>
		<path class="st11" d="M862.4,1337.3L862.4,1337.3v-24.5l0,0c6.7,0,12.2,5.4,12.2,12.2v0.1C874.6,1331.9,869.1,1337.3,862.4,1337.3
			z"/>
		<rect x="872.8" y="1320.2" class="st11" width="8.4" height="8.4"/>
	</g>
	<polygon class="st9" points="1864.2,524.8 1749,615.1 2252,615.1 2126.7,524.8 	"/>
	<polygon class="st15" points="1022.7,1335.3 1459.5,528 1028.5,528 597.8,1335.3 	"/>
	<polygon class="st16" points="1022.7,1334.8 1847,1334.8 2281,521.2 1462.9,521.2 	"/>
	<polygon class="st16" points="949.7,1334.8 998.4,1334.8 1432.5,521.2 1389.8,521.2 	"/>
	<polygon class="st16" points="1034.5,521.2 756.3,521.2 536.6,927.4 536.6,1335.3 600.2,1335.3 	"/>
	<polygon class="st16" points="1980.6,1331.8 2029.3,1331.8 2325,776.4 2325,692.8 	"/>
	<path class="st17" d="M2027.9,1347.4c0,0-58.3-39.2-19.8-75.8c38.2-36.2,71.9,19.9,71.9,19.9s-41.8-84.8,30.1-107.9
		c138.2-44.3,155.4,165,155.4,165L2027.9,1347.4z"/>
	<g class="st7">
		<g>
			<defs>
				<circle id="SVGID_6_" cx="3055.6" cy="989.3" r="75.8"/>
			</defs>
			<clipPath id="SVGID_7_">
				<use xlink:href="#SVGID_6_"  style="overflow:visible;"/>
			</clipPath>
			<path class="st18" d="M3057.3,1068l58.9-15.2c0,0-11.5-14.9-26-22.2c-14.5-7.3-22.6-17.6-20.7-28.3c1.9-10.7,9.6-19,8.7-33.7
				c-1.1-16-14.6-18.6-21-19c-0.2,0-0.8,0-1.6,0s-1.4,0-1.6,0c-6.4,0.3-20,3-21,19c-1,14.7,6.7,22.9,8.7,33.7
				c1.9,10.7-6.1,21-20.7,28.3c-14.5,7.3-26,22.2-26,22.2l58.9,15.2v0.9l1.7-0.4l1.7,0.4L3057.3,1068L3057.3,1068z"/>
		</g>
	</g>
	<rect x="469.7" y="434.5" class="st9" width="2723.1" height="23.4"/>
	<rect x="3175.3" y="-53.1" class="st9" width="28.2" height="511"/>
	
		<linearGradient id="SVGID_8_" gradientUnits="userSpaceOnUse" x1="2164.0303" y1="420.5308" x2="2468.1257" y2="420.5308" gradientTransform="matrix(1 0 0 -1 0 1676)">
		<stop  offset="0" style="stop-color:#0B155B"/>
		<stop  offset="1" style="stop-color:#073489"/>
	</linearGradient>
	<path class="st19" d="M2209,1372.1c0,0-52.7-10.9-44-48.7c6.9-30.4,37.9-24.9,37.9-24.9s-54.5-62.3,0-107.1
		c34.6-28.4,90.9,0,90.9,0s4.6-58.3,59.2-52.1c48.4,5.5,40.3,64,40.3,64s48.7-38.8,70.8,20.8c20.1,53.9-41.6,84.2-41.6,84.2
		s43.3-15.1,44.4,23.8c1.1,39-44.4,39-44.4,39L2209,1372.1z"/>
	<line class="st20" x1="658.7" y1="1397.4" x2="658.7" y2="1426.1"/>
	<line class="st20" x1="1059.5" y1="1397.4" x2="1059.5" y2="1426.1"/>
	<line class="st20" x1="1460.3" y1="1397.4" x2="1460.3" y2="1426.1"/>
	<line class="st20" x1="1861.1" y1="1397.4" x2="1861.1" y2="1426.1"/>
	<line class="st20" x1="2261.8" y1="1397.4" x2="2261.8" y2="1426.1"/>
	<line class="st20" x1="2662.6" y1="1397.4" x2="2662.6" y2="1426.1"/>
	<line class="st20" x1="3063.4" y1="1397.4" x2="3063.4" y2="1426.1"/>
	<g class="st7">
		<g>
			<defs>
				<rect id="SVGID_9_" x="2764.3" y="98" width="162.3" height="316.1"/>
			</defs>
			<clipPath id="SVGID_10_">
				<use xlink:href="#SVGID_9_"  style="overflow:visible;"/>
			</clipPath>
			<polygon class="st21" points="2265.5,566.7 2811.2,-407.5 3137,-384.2 2419.2,942.8 			"/>
		</g>
		<g>
			<defs>
				<rect id="SVGID_11_" x="2764.3" y="98" width="162.3" height="316.1"/>
			</defs>
			<clipPath id="SVGID_12_">
				<use xlink:href="#SVGID_11_"  style="overflow:visible;"/>
			</clipPath>
			<polygon class="st22" points="2803.7,434.9 2954.3,166.2 3006.2,149.9 2808.2,516 			"/>
		</g>
	</g>
	<g class="st7">
		<g>
			<defs>
				<rect id="SVGID_13_" x="1414.4" y="98" width="162.3" height="316.1"/>
			</defs>
			<clipPath id="SVGID_14_">
				<use xlink:href="#SVGID_13_"  style="overflow:visible;"/>
			</clipPath>
			<polygon class="st23" points="915.6,566.7 1461.3,-407.5 1787.1,-384.2 1069.3,942.8 			"/>
		</g>
		<g>
			<defs>
				<rect id="SVGID_15_" x="1414.4" y="98" width="162.3" height="316.1"/>
			</defs>
			<clipPath id="SVGID_16_">
				<use xlink:href="#SVGID_15_"  style="overflow:visible;"/>
			</clipPath>
			<polygon class="st24" points="1453.8,434.9 1604.4,166.2 1656.2,149.9 1458.3,516 			"/>
		</g>
	</g>
	
		<linearGradient id="SVGID_17_" gradientUnits="userSpaceOnUse" x1="3830" y1="1021" x2="6288" y2="1021" gradientTransform="matrix(1 0 0 -1 0 1676)">
		<stop  offset="0" style="stop-color:#0B155B"/>
		<stop  offset="1" style="stop-color:#073489"/>
	</linearGradient>
	<rect x="3830" y="-0.9" class="st25" width="2458" height="1311.8"/>
	<rect x="4387.5" y="461.7" class="st9" width="1402.3" height="54"/>
	<g class="st7">
		<line class="st0" x1="4420.9" y1="518" x2="5762.7" y2="518"/>
		<line class="st0" x1="4420.9" y1="545.4" x2="5762.7" y2="545.4"/>
		<line class="st0" x1="4420.9" y1="572.7" x2="5762.7" y2="572.7"/>
		<line class="st0" x1="4420.9" y1="600.1" x2="5762.7" y2="600.1"/>
		<line class="st0" x1="4420.9" y1="627.4" x2="5762.7" y2="627.4"/>
		<line class="st0" x1="4420.9" y1="654.8" x2="5762.7" y2="654.8"/>
		<line class="st0" x1="4420.9" y1="682.1" x2="5762.7" y2="682.1"/>
		<line class="st0" x1="4420.9" y1="709.5" x2="5762.7" y2="709.5"/>
		<line class="st0" x1="4420.9" y1="736.8" x2="5762.7" y2="736.8"/>
		<line class="st0" x1="4420.9" y1="764.2" x2="5762.7" y2="764.2"/>
		<line class="st0" x1="4420.9" y1="791.5" x2="5762.7" y2="791.5"/>
		<line class="st0" x1="4420.9" y1="818.9" x2="5762.7" y2="818.9"/>
		<line class="st0" x1="4420.9" y1="846.2" x2="5762.7" y2="846.2"/>
		<line class="st0" x1="4420.9" y1="873.5" x2="5762.7" y2="873.5"/>
		<line class="st0" x1="4420.9" y1="900.9" x2="5762.7" y2="900.9"/>
		<line class="st0" x1="4420.9" y1="928.2" x2="5762.7" y2="928.2"/>
		<line class="st0" x1="4420.9" y1="955.6" x2="5762.7" y2="955.6"/>
		<line class="st0" x1="4420.9" y1="982.9" x2="5762.7" y2="982.9"/>
		<line class="st0" x1="4420.9" y1="1010.3" x2="5762.7" y2="1010.3"/>
		<line class="st0" x1="4420.9" y1="1037.6" x2="5762.7" y2="1037.6"/>
		<line class="st0" x1="4420.9" y1="1065" x2="5762.7" y2="1065"/>
		<line class="st0" x1="4420.9" y1="1092.3" x2="5762.7" y2="1092.3"/>
		<line class="st0" x1="4420.9" y1="1119.7" x2="5762.7" y2="1119.7"/>
		<line class="st0" x1="4420.9" y1="1147" x2="5762.7" y2="1147"/>
		<line class="st0" x1="4420.9" y1="1174.4" x2="5762.7" y2="1174.4"/>
		<line class="st0" x1="4420.9" y1="1201.7" x2="5762.7" y2="1201.7"/>
		<line class="st0" x1="4420.9" y1="1229.1" x2="5762.7" y2="1229.1"/>
		<line class="st0" x1="4420.9" y1="1256.4" x2="5762.7" y2="1256.4"/>
		<line class="st0" x1="4420.9" y1="1283.8" x2="5762.7" y2="1283.8"/>
		<line class="st0" x1="5762.7" y1="1311.1" x2="4420.9" y2="1311.1"/>
	</g>
	<polygon class="st9" points="8926,-8 8926,506.4 7112.9,506.4 7112.9,1299.6 6285,1299.6 6285,-8 	"/>
	<rect x="-148.5" y="1396" class="st3" width="10204.5" height="30"/>
	<rect x="7031.1" y="502.8" class="st3" width="1788.4" height="813"/>
	
		<linearGradient id="SVGID_18_" gradientUnits="userSpaceOnUse" x1="-113.0762" y1="931.05" x2="172.6123" y2="931.05" gradientTransform="matrix(1 0 0 -1 0 1676)">
		<stop  offset="0" style="stop-color:#0B155B"/>
		<stop  offset="1" style="stop-color:#073489"/>
	</linearGradient>
	<path class="st26" d="M163,760.4C128.2,530.3,29.8,184.6,29.8,184.6s-98.4,345.7-133.3,575.8c-35.8,236.4,34.6,339.4,114.7,353
		v191.9h36.4v-191.7C128,1100.5,199,997.6,163,760.4z"/>
	
		<linearGradient id="SVGID_19_" gradientUnits="userSpaceOnUse" x1="270.3205" y1="631.45" x2="386.0979" y2="631.45" gradientTransform="matrix(1 0 0 -1 0 1676)">
		<stop  offset="0" style="stop-color:#0B155B"/>
		<stop  offset="1" style="stop-color:#073489"/>
	</linearGradient>
	<path class="st27" d="M382.2,1050.8c-14.1-93.2-54-233.3-54-233.3s-39.9,140.1-54,233.3c-14.5,95.8,14,137.6,46.5,143v77.8h14.7
		v-77.7C368,1188.7,396.8,1146.9,382.2,1050.8z"/>
	<rect x="4256.5" y="121.6" class="st9" width="204" height="188.4"/>
	<rect x="4548.5" y="121.6" class="st9" width="204" height="188.4"/>
	<rect x="4840.5" y="121.6" class="st4" width="204" height="188.4"/>
	<rect x="5132.5" y="121.6" class="st9" width="204" height="188.4"/>
	<rect x="5424.5" y="121.6" class="st9" width="204" height="188.4"/>
	<rect x="5716.5" y="121.6" class="st5" width="204" height="188.4"/>
	<rect x="6435.7" y="504.3" class="st3" width="388.2" height="799.5"/>
	<path class="st3" d="M-38,1264c0,0,104.8-132.9,224.8-47.8c91.9,65.2,84.5,171.2,84.5,171.2s100.4-125.7,192.7-28
		c70.7,74.8-17,185.5-17,185.5s172.5-52.5,182.3,29.3s-68.4,146.5-68.4,146.5H-87.5L-38,1264z"/>
	<rect x="8679.2" y="104.7" class="st3" width="162.8" height="291"/>
	<rect x="8454.1" y="104.7" class="st3" width="162.8" height="291"/>
	<rect x="8229.1" y="104.7" class="st3" width="162.8" height="291"/>
	<rect x="8004.2" y="104.7" class="st3" width="162.8" height="291"/>
	<rect x="7779.1" y="104.7" class="st5" width="162.8" height="291"/>
	<rect x="7554.1" y="104.7" class="st3" width="162.8" height="291"/>
	<rect x="7329" y="104.7" class="st3" width="162.8" height="291"/>
	<rect x="7104.1" y="104.7" class="st4" width="162.8" height="291"/>
	<rect x="6879" y="104.7" class="st3" width="162.8" height="291"/>
	<rect x="6654" y="104.7" class="st3" width="162.8" height="291"/>
	<rect x="6428.9" y="106.6" class="st5" width="162.8" height="289"/>
	<polygon class="st5" points="7607,596.7 8194.2,1169.7 7031,1159 7031,645.5 7104,596.7 	"/>
	<polyline class="st28" points="2929.3,873.3 3066.6,661.5 3327.3,661.5 	"/>
	<circle class="st29" cx="3327.3" cy="661.5" r="6.3"/>
	<circle class="st29" cx="2929.3" cy="873.3" r="6.3"/>
	<line class="st6" x1="8819.5" y1="502.8" x2="8819.5" y2="1315.8"/>
	<g class="st7">
		<polygon class="st8" points="8926,-120.4 8926.5,-42 8926.8,36.3 8927.3,193 8927.5,349.7 8927.5,428 8927.4,506.4 8927.4,507.7 
			8926,507.7 8846.5,507.6 8767,507.3 8687.5,506.9 8608,506.4 8687.5,505.8 8767,505.4 8846.5,505.1 8926,505 8924.6,506.4 
			8924.5,428 8924.5,349.7 8924.7,193 8925.2,36.3 8925.5,-42 		"/>
	</g>
	<circle class="st5" cx="6631.5" cy="788.1" r="14.5"/>
	<rect x="6423.4" y="485.6" class="st9" width="412.8" height="23.9"/>
	<rect x="3916.8" y="1099" class="st9" width="504.3" height="207.8"/>
	<rect x="5762.7" y="1099" class="st30" width="522.3" height="207.8"/>
	<rect x="6823.9" y="656.6" class="st9" width="12.3" height="69.6"/>
	<rect x="6823.9" y="1055.6" class="st9" width="12.3" height="69.6"/>
	<g class="st7">
		<rect x="8688.9" y="502.8" class="st10" width="130.6" height="552.7"/>
		<rect x="8453.6" y="502.8" class="st10" width="130.6" height="552.7"/>
		<rect x="8218.3" y="502.8" class="st10" width="130.6" height="552.7"/>
		<rect x="7983" y="502.8" class="st10" width="130.6" height="552.7"/>
		<rect x="7747.7" y="502.8" class="st10" width="130.6" height="552.7"/>
		<rect x="7512.4" y="502.8" class="st10" width="130.6" height="552.7"/>
		<rect x="7277.1" y="502.8" class="st10" width="130.6" height="552.7"/>
		<rect x="7041.8" y="502.8" class="st10" width="130.6" height="552.7"/>
	</g>
	<polygon class="st9" points="7491.9,506.4 7607,596.7 7104,596.7 7229.3,506.4 	"/>
	<path class="st17" d="M3644.3,1327c0,0-56.5-38-19.2-73.4c37-35.1,69.6,19.3,69.6,19.3s-40.5-82.1,29.1-104.5
		c133.8-42.9,150.5,159.8,150.5,159.8L3644.3,1327z"/>
	<rect x="6163.2" y="416" class="st9" width="2723.1" height="23.4"/>
	<rect x="3903.3" y="345.8" class="st9" width="2274.7" height="11.7"/>
	<ellipse class="st9" cx="3517.1" cy="1559" rx="236.9" ry="52.5"/>
	
		<linearGradient id="SVGID_20_" gradientUnits="userSpaceOnUse" x1="6007.9731" y1="893.2" x2="6288.5088" y2="893.2" gradientTransform="matrix(1 0 0 -1 0 1676)">
		<stop  offset="0" style="stop-color:#0B155B"/>
		<stop  offset="1" style="stop-color:#073489"/>
	</linearGradient>
	<path class="st31" d="M6279.1,798c-34.2-225.9-130.9-565.4-130.9-565.4S6051.6,572,6017.4,798c-35.2,232.1,33.9,333.3,112.6,346.6
		V1333h35.7v-188.3C6244.6,1132,6314.4,1030.9,6279.1,798z"/>
	<g class="st7">
		<path class="st32" d="M4139.8,1009.4h-863c-13.6,0-24.6-11-24.6-24.6V174.4c0-13.6,11-24.6,24.6-24.6h863
			c13.6,0,24.6,11,24.6,24.6v810.4C4164.4,998.4,4153.4,1009.4,4139.8,1009.4z"/>
		<g>
			<g>
				<line class="st33" x1="4118.6" y1="962" x2="3711.7" y2="962"/>
				<line class="st33" x1="4118.6" y1="917.3" x2="3711.7" y2="917.3"/>
				<line class="st33" x1="4118.6" y1="872.5" x2="3711.7" y2="872.5"/>
				<line class="st33" x1="4118.6" y1="827.7" x2="3711.7" y2="827.7"/>
				<line class="st33" x1="4118.6" y1="782.9" x2="3711.7" y2="782.9"/>
				<line class="st33" x1="4118.6" y1="738.1" x2="3711.7" y2="738.1"/>
				<line class="st33" x1="4118.6" y1="693.4" x2="3711.7" y2="693.4"/>
				<line class="st33" x1="4118.6" y1="648.6" x2="3711.7" y2="648.6"/>
				<line class="st33" x1="4118.6" y1="603.8" x2="3711.7" y2="603.8"/>
				<line class="st33" x1="4118.6" y1="559" x2="3711.7" y2="559"/>
				<line class="st33" x1="4118.6" y1="514.3" x2="3711.7" y2="514.3"/>
				<line class="st33" x1="4118.6" y1="469.5" x2="3711.7" y2="469.5"/>
				<line class="st33" x1="4118.6" y1="424.7" x2="3711.7" y2="424.7"/>
				<line class="st33" x1="4118.6" y1="379.9" x2="3711.7" y2="379.9"/>
				<line class="st33" x1="4118.6" y1="335.1" x2="3711.7" y2="335.1"/>
				<line class="st33" x1="4118.6" y1="290.4" x2="3711.7" y2="290.4"/>
				<line class="st33" x1="4118.6" y1="245.6" x2="3711.7" y2="245.6"/>
				<line class="st33" x1="4118.6" y1="200.8" x2="3711.7" y2="200.8"/>
			</g>
			<g>
				<line class="st34" x1="3715.6" y1="962.6" x2="3715.6" y2="200.8"/>
				<line class="st34" x1="3760.4" y1="962.6" x2="3760.4" y2="200.8"/>
				<line class="st34" x1="3805.2" y1="962.6" x2="3805.2" y2="200.8"/>
				<line class="st34" x1="3850" y1="962.6" x2="3850" y2="200.8"/>
				<line class="st34" x1="3894.8" y1="962.6" x2="3894.8" y2="200.8"/>
				<line class="st34" x1="3939.5" y1="962.6" x2="3939.5" y2="200.8"/>
				<line class="st34" x1="3984.3" y1="962.6" x2="3984.3" y2="200.8"/>
				<line class="st34" x1="4029.1" y1="962.6" x2="4029.1" y2="200.8"/>
				<line class="st34" x1="4073.9" y1="962.6" x2="4073.9" y2="200.8"/>
				<line class="st34" x1="4118.6" y1="962.6" x2="4118.6" y2="200.8"/>
			</g>
		</g>
		<path class="st35" d="M3710.9,256.1c0,0,108.5,0.6,135.4,98.5c21,76.4,17.2,104.8,17.2,104.8s13.1,3.9,12.8,29.2
			c-0.3,25.3-14.9,51.9-16.1,55.8c-6.9,22.8-26.2,43.7-29.8,78.3c-2.1,20.7,0.1,33.9,0.1,33.9s0.1,18.6,19.9,36.9
			c12.2,11.4,45.4,29.7,62.8,33.2c27.4,5.5,91.4,19,95.3,58.5c3.2,32.5-118.6,75.9-160.8,103.2c-69.9,45.2-138,35.3-138,35.3
			L3710.9,256.1z"/>
		<g>
			<path class="st36" d="M3705.1,256.5c-54.3,0-93.7,22.5-120.2,66.6c-31.4,52.3-29.1,167.1-29.1,167.1s-10-11.4-19.6,0
				c-10.2,12,10.2,100.4,17.8,110c6.8,8.6,16.5,3.4,16.5,3.4s6.3,22.1,17.4,40.2c10.8,17.7,32.6,49.4,32.6,49.4
				s-48.1,28.1-63.1,34.4c-49.1,20.6-93.7,26.4-103.8,28.2c-5,0.9,40,75.8,95.7,111.4c79.5,50.7,155.9,57.2,155.9,57.2
				s2.1-94.8,5.8-94.8v-573C3709,256.5,3707.1,256.5,3705.1,256.5z"/>
			<path class="st37" d="M3715.6,257c0,0,43.5-3.7,43.5,17.1c0,16.2-43.5,24.3-43.5,24.3"/>
			<path class="st37" d="M3715.6,267c0,0,92.8-7.1,80.9,37c-9.5,35.4-80.9,36.6-80.9,36.6"/>
			<path class="st37" d="M3715.6,371.7c0,0,90.4-11.4,101.4-46.1c10.9-34.7-37.1-50.5-101.4-43.8"/>
			<path class="st37" d="M3715.6,397.4c0,0,124.9-18.9,121.8-59.5c-3.8-50.9-120.2-46.6-120.2-46.6"/>
			<path class="st37" d="M3715.6,421.7c0,0,49.8,2.6,82-18.1c21.4-13.8,45.3-21.8,47.7-40.1c7.9-60.2-129.7-48.9-129.7-48.9"/>
			<path class="st37" d="M3715.6,441.6c92.8-8.6,138.5-37.1,134.9-76.6c-3.7-41.3-133-36.1-133-36.1"/>
			<path class="st37" d="M3715.6,460.2c0.5-0.5,10.6,8.1,21.7,1.9c11.1-6.2,22.1-11.4,35.4-16.7c13.3-5.2,69.1-21.6,78-41.2
				c27.2-60-135.1-55.9-135.1-55.9"/>
			<path class="st37" d="M3711.8,489.7c0,0,5.2,8.1,10.9,4.3c5.7-3.8,13.3-16.7,21.4-19.5s45.2-11.4,60.4-18.1s54.1-24.7,54.1-41.9
				c0-53.8-143.2-37.1-143.2-37.1"/>
			<path class="st37" d="M3709.9,520.7c0,0,5.2,8.6,15.7,0s5.3-10.5,31-20.5s53.3-19.5,68.5-30.9s46.6-30.7,36.6-49.5
				c-16.1-30.5-149.9-30.5-149.9-30.5"/>
			<path class="st37" d="M3711.8,544.9c0,0,8.2,8.1,18.6,2.3c13.3-7.5,21.9-22.7,42.8-33.4c15-7.7,77.7-46.4,85.6-63.1
				c7.4-15.6-10.1-27.1-69.4-36.6c-27.4-4.4-73.8-5.9-73.8-5.9"/>
			<path class="st37" d="M3711.8,558.3c0,0,13.2,2.9,20.9-2c6.3-3.9,22.4-13.2,30.9-16.5s35.2-15.2,49-26.2
				c8.7-6.9,53.7-36,46.1-62.8c-5.7-19.9-145.1-21.9-143.2-21.9"/>
			<path class="st37" d="M3711.8,575.8c0,0,16.1,1.3,21.1-0.5c9-3.3,32-16,43.7-20.3c15-5.6,31.4-12.9,37.1-18.6
				c5.7-5.7,20.6-23.9,28.2-32.5c8.8-10,28.8-27.7,25.6-38.2c-10.8-34.7-151.9-15.5-151.9-15.5"/>
			<path class="st37" d="M3711.8,596.1c0,0,25.6,1.3,29.2,0c6.1-2.2,21.8-14.9,40-23.9c14.5-7.2,39.8-22.9,53.2-32.5
				c12.5-8.9,49.6-51,42.1-63.9c-4-6.8-25.5-11.4-44.3-18.9c-17.6-7-117.8,0-117.8,0"/>
			<path class="st37" d="M3711.8,615.7c0,0,14.1,2,20.9-1.6c6.8-3.6,52.1-23.7,57.1-26.6c5-2.9,35.8-26.1,50.7-38.2
				c10.9-8.8,30-40.4,31.6-47.3s-0.5-18.5-11.8-25.5c-12.3-7.5-40.5-10-48.7-10.7s-99.8,1.4-99.8,1.4"/>
			<path class="st37" d="M3711.8,630.8c0,0,13.3-0.2,21.4-2.1s17.6-0.5,28.6-8.1s64.5-34.5,81.7-58.3c14.7-20.3,32.1-42,27.2-56.5
				c-4.8-14.3-42.4-26.7-80.9-27.1c-28.9-0.3-75.3,0-75.3,0"/>
			<path class="st37" d="M3711.8,640.1c0,0,31.4,2.4,50.2-7.1c12.8-6.5,46.7-26.3,64.3-41c13.9-11.5,23.8-25.4,27.5-32.9
				c3.6-7.5,6.5-9.9,5.8-23.7c-0.3-6.4-11.7-8.2-18.9-15.7c-7.4-7.8-24.8-13.7-38.1-17.1c-43.7-11.2-87.1-3.3-87.1-3.3"/>
			<path class="st37" d="M3711.8,656.3c0,0,33.9,2.6,47.3-7.1c17.9-13,42.7-30.5,54.1-38.1c11.4-7.6,28.7-19.4,32.5-30.5
				c6.5-19.3-35.5-37.8-40.8-40.9c-28.3-16.8-93.1-14.5-93.1-14.5"/>
			<path class="st37" d="M3715.6,571.1c0,0,98.5,2.9,115.7,32.4c17.1,29.5-61,61-75.7,64.3c-20.1,4.4-40,6.7-40,6.7"/>
			<path class="st37" d="M3713.5,697.5c0.4-0.7,90.7-23.1,114.9-61c11.3-17.7-22.8-36.1-46.4-41.8c-39-9.4-70.2-8.6-70.2-8.6"/>
			<path class="st37" d="M3711.8,607.5c2.4,0,119.5-4,118.8,34.3c-0.3,17.9-36.1,45-73.3,60.7c-27.2,11.5-45.6,10.8-45.6,10.8"/>
			<path class="st37" d="M3711.8,733.2c0,0,27.4,0.4,39.9-7.9s29.6-17.1,40-22.1s39-30.3,39-46.6c0-17.7-36.1-30.5-59.4-33.9
				c-20.8-3-59.4,0-59.4,0"/>
			<path class="st37" d="M3788.4,641.8c15.9,5.3,42.2,14.8,45.3,25.7s-8.5,26.8-20.4,40.6c-7.5,8.7-25.1,23.7-51.6,34.7
				c-30.9,12.8-51.8,12.5-51.8,12.5"/>
			<path class="st37" d="M3711.8,773.9c0,0,47.3-4,80.4-28.6c29.7-22,54.1-47.8,48.3-66c-5.8-18.3-61-23.9-72.8-24.6
				c-11.8-0.7-55.9-1.4-55.9-1.4"/>
			<path class="st37" d="M3709.9,794.9c1.1,0,52.1-1.4,87.1-24.3c18.8-12.3,52.9-37.6,49.1-68.5c-3.4-27.7-62.6-30.6-82.7-31.1
				c-12.9-0.3-50,0-50,0"/>
			<path class="st37" d="M3707.4,826.3c0,0,29.9-3.8,44.6-6.1c19.2-2.9,27.8,0,46-12.9s52.5-43.9,61.8-71.7
				c7.8-23.4,3.7-38.3-9.3-42.2c-72.1-21.7-138.7-8.9-138.7-8.9"/>
			<path class="st37" d="M3707.4,866.7c0,0,64.6-0.3,96-18.2c30.8-17.5,79.8-83.9,76.5-118.2c-2.7-29.1-14.9-28.5-24.8-32.8
				c-16.2-7.1-89.6-7.1-89.6-7.1l-52.1,3.6"/>
			<path class="st37" d="M3707.4,899.2c0,0,47.1,10.4,86.4-10c39.3-20.3,158.2-97.5,162.5-106.7s-12.1-8.6-18.9-16.1
				c-11.2-12.4-41.8-53.1-57.2-58.2c-31.3-10.3-168.3-4.3-168.3-4.3"/>
			<path class="st37" d="M3709.9,918.8c0,0,87.8,1.8,118.5-20.3s32.5-23.9,56.8-36.8c24.3-12.9,122.8-42.1,123.5-76.4
				c0.7-34.3-57.8-49-74.6-52.4s-64.3-10.5-64.3-10.5s-54.3-11.3-73.5-11.1c-13.7,0.2-85,6.4-85,6.4"/>
			<path class="st37" d="M3709.9,729.2c0,0,144.9,3.1,196,10.7c35.9,5.4,86.7,15.2,90,33.9c5.7,32.5-32.5,47.5-51.9,58.4
				c-12,6.7-74.4,34.4-91,44.4c-13,7.8-32.7,21.6-47,26.2c-41.3,13.3-96,10.2-96,10.2"/>
			<path class="st37" d="M3711.8,745.8c0,0,95.9,0.3,197.3,4.5c22.6,1,68.1,9.5,75,23.6c6.1,12.4-2.1,25.9-17.1,39
				c-15.3,13.4-71.2,42.4-71.2,42.4s-82.8,42.1-107.9,46.5c-25.1,4.4-80.4,4.9-80.4,4.9"/>
			<path class="st37" d="M3709.9,904.8c6.9,1.4,87.3,6.2,175.2-45.2c20.3-11.9,51.9-34,70-45.5c17.1-10.8,34-31.4,18.3-42.6
				c-32.6-23.2-260.6-12.1-261.5-12.1"/>
			<path class="st37" d="M3711.8,773.9c1.8-1.1,195.5-7.1,245.1,4.6c14.2,3.4,18.4,16.4,12.8,23.5c-6.5,8.3-62.5,43.7-62.5,43.7
				s-68.8,38.2-78.4,41c-81,23.9-121.4,20-121.4,20"/>
			<path class="st37" d="M3709.9,790.3c0,0,186.3-8.6,219.2,0c20.1,5.2,30.3,7.5,22.5,17.8s-109.2,79.6-133.5,80.3
				s-108.2,7.1-108.2,7.1"/>
			<path class="st37" d="M3705.2,877.7c0,0,117.1,0.6,111.7-15.8c-5.4-16.4-109.6-3.5-109.6-3.5"/>
			<path class="st37" d="M3711.8,847c0,0,131.9-22.4,145.5-5c16.2,20.7-45.7,40.7-66.4,43.9s-85.7,2.5-85.7,2.5"/>
			<path class="st37" d="M3705.2,839.1c0,0,134-19.2,163.1-16c25.1,2.7,31.8,15.7,17.8,25.3s-55.4,29.9-70.5,34.3
				c-44.5,12.9-110.5,11.4-110.5,11.4"/>
			<path class="st37" d="M3709.9,805.3c0,0,179.7-16.9,211.5,4.1c18.9,12.5-3,24.4-3,24.4"/>
			<path class="st37" d="M3705.2,819.9c0,0,179.1-23,200.9-0.2c11.1,11.6-0.7,22.8-0.7,22.8"/>
			<path class="st38" d="M3683.4,604.2c0,0-7.2,3.9-7.2,10.7c0,9.3,7.2,11.4,7.2,11.4s12.3-4.1,15.3,0.1c1.7,2.5,4.9,4.3,10.9,5.5"
				/>
			<path class="st38" d="M3664.6,670.9l32.2-11.2c0,0,5.6,4.8,14.2,4.8"/>
			<path class="st39" d="M3692.9,704.4c0,0,8.3-2.3,16.7-2.3"/>
			<path class="st39" d="M3689.3,717"/>
			<path class="st38" d="M3615.7,687.9c0,0,41,48.3,95.2,48.3"/>
			<circle class="st40" cx="3644.4" cy="542" r="13.4"/>
			<path class="st38" d="M3690.4,513.5c0,0-17.4-11.9-38.1-16.8c-23.9-5.7-38.1,1-38.1,1"/>
			<path class="st39" d="M3697,658.2c0,0,5.8,5.6,12,5.6"/>
			<circle class="st36" cx="3370.8" cy="862" r="52.3"/>
			<circle class="st41" cx="3573.3" cy="401.3" r="5.8"/>
			<circle class="st41" cx="3711.8" cy="510.5" r="5.8"/>
			<circle class="st41" cx="3644.4" cy="542" r="5.8"/>
			<circle class="st40" cx="3785.3" cy="542" r="13.4"/>
			<circle class="st41" cx="3785.3" cy="542" r="5.8"/>
			<circle class="st41" cx="3711.9" cy="282.5" r="5.8"/>
			<circle class="st41" cx="3846.3" cy="401.3" r="5.8"/>
			<circle class="st41" cx="3676.2" cy="621.4" r="5.8"/>
			<circle class="st41" cx="3819.5" cy="660.6" r="5.8"/>
			<circle class="st41" cx="3747" cy="621.4" r="5.8"/>
			<circle class="st41" cx="3601.6" cy="661" r="5.8"/>
			<path class="st38" d="M3540,524.5c0.7-3.3,1.4-39.9,7.1-20.5c5.7,19.3-2.1,35.3,5,38s6.4,17.1,6.4,17.1"/>
			<polyline class="st42" points="3710.2,282.5 3847.9,401.3 3711.3,510.5 3745,621.4 3819.6,661 3752.7,661 3668.5,661 3601.6,661 
				3676.2,621.4 3709.9,510.5 3573.3,401.3 3711,282.5 			"/>
			<path class="st43" d="M3327.1,272.1v-20.6c0-9.4,7.6-17,17-17l0,0c9.4,0,17,7.6,17,17v3"/>
			<line class="st44" x1="3392.9" y1="241.3" x2="3517.1" y2="241.3"/>
			<line class="st44" x1="3392.9" y1="259.9" x2="3517.1" y2="259.9"/>
			<line class="st44" x1="3392.9" y1="278.5" x2="3517.1" y2="278.5"/>
			<line class="st44" x1="3392.9" y1="297.1" x2="3517.1" y2="297.1"/>
			<line class="st44" x1="3392.9" y1="315.7" x2="3517.1" y2="315.7"/>
			<path class="st8" d="M3317.6,268.9v33.5c0,10.4,8.5,18.9,18.9,18.9h14.3c10.4,0,18.9-8.5,18.9-18.9v-33.5H3317.6z M3343.9,306.3
				h-0.6h-6.4c0,0,2.2-7.7,3.3-11.2c-1.6-1.1-2.6-2.9-2.6-5c0-3.4,2.7-6.1,6.1-6.1s6.1,2.7,6.1,6.1c0,2.1-1.1,4-2.8,5.1
				c1.1,3.6,3.3,11.1,3.3,11.1H3343.9z"/>
			<polyline class="st45" points="4031,244.2 4074.9,244.2 4074.9,288.9 			"/>
			<polyline class="st45" points="4031,916.6 4074.9,916.6 4074.9,871.8 			"/>
			<polyline class="st46" points="3341.5,871 3364.3,888.9 3405.7,839.7 			"/>
			<line class="st47" x1="3711.8" y1="200.8" x2="3711.8" y2="962.6"/>
		</g>
	</g>
	
		<linearGradient id="SVGID_21_" gradientUnits="userSpaceOnUse" x1="14005.8828" y1="332.7309" x2="13824.6924" y2="513.9209" gradientTransform="matrix(-1 0 0 -1 17801.5703 1676)">
		<stop  offset="0" style="stop-color:#0B155B"/>
		<stop  offset="1" style="stop-color:#073489"/>
	</linearGradient>
	<path class="st48" d="M3981.2,1327.6c0,0,45.3-9.3,37.8-41.9c-6-26.1-32.5-21.4-32.5-21.4s46.9-53.6,0-92.1
		c-29.7-24.4-78.1,0-78.1,0s-4-50.1-50.9-44.8c-41.6,4.7-34.6,55-34.6,55s-41.8-33.3-60.9,17.8c-17.2,46.3,35.8,72.4,35.8,72.4
		s-37.2-13-38.1,20.5s38.1,33.5,38.1,33.5L3981.2,1327.6z"/>
	<line class="st20" x1="531.7" y1="1396" x2="531.7" y2="1424.7"/>
	<line class="st20" x1="932.5" y1="1396" x2="932.5" y2="1424.7"/>
	<line class="st20" x1="1333.3" y1="1396" x2="1333.3" y2="1424.7"/>
	<line class="st20" x1="1734.1" y1="1396" x2="1734.1" y2="1424.7"/>
	<line class="st20" x1="2134.8" y1="1396" x2="2134.8" y2="1424.7"/>
	<line class="st20" x1="2535.6" y1="1396" x2="2535.6" y2="1424.7"/>
	<line class="st20" x1="2936.4" y1="1396" x2="2936.4" y2="1424.7"/>
	<line class="st20" x1="3337.2" y1="1396" x2="3337.2" y2="1424.7"/>
	<line class="st20" x1="3738" y1="1396" x2="3738" y2="1424.7"/>
	<line class="st20" x1="4138.8" y1="1396" x2="4138.8" y2="1424.7"/>
	<line class="st20" x1="4940.3" y1="1396" x2="4940.3" y2="1424.7"/>
	<line class="st20" x1="5741.9" y1="1396" x2="5741.9" y2="1424.7"/>
	<g class="st7">
		<g>
			<defs>
				<rect id="SVGID_22_" x="6429.5" y="106.6" width="162.3" height="289"/>
			</defs>
			<clipPath id="SVGID_23_">
				<use xlink:href="#SVGID_22_"  style="overflow:visible;"/>
			</clipPath>
			<polygon class="st49" points="7090.5,548.2 6544.8,-425.9 6219.1,-402.7 6936.8,924.4 			"/>
		</g>
		<g>
			<defs>
				<rect id="SVGID_24_" x="6429.5" y="106.6" width="162.3" height="289"/>
			</defs>
			<clipPath id="SVGID_25_">
				<use xlink:href="#SVGID_24_"  style="overflow:visible;"/>
			</clipPath>
			<polygon class="st50" points="6552.3,416.4 6401.8,147.7 6349.9,131.5 6547.9,497.5 			"/>
		</g>
	</g>
	<g class="st7">
		<g>
			<defs>
				<rect id="SVGID_26_" x="7779.4" y="104.7" width="162.3" height="291"/>
			</defs>
			<clipPath id="SVGID_27_">
				<use xlink:href="#SVGID_26_"  style="overflow:visible;"/>
			</clipPath>
			<polygon class="st51" points="8440.4,548.2 7894.7,-425.9 7569,-402.7 8286.7,924.4 			"/>
		</g>
		<g>
			<defs>
				<rect id="SVGID_28_" x="7779.4" y="104.7" width="162.3" height="291"/>
			</defs>
			<clipPath id="SVGID_29_">
				<use xlink:href="#SVGID_28_"  style="overflow:visible;"/>
			</clipPath>
			<polygon class="st52" points="7902.2,416.4 7751.7,147.7 7699.8,131.5 7897.8,497.5 			"/>
		</g>
	</g>
	<g class="st7">
		<g>
			<defs>
				<rect id="SVGID_30_" x="5716.5" y="120.2" width="204.2" height="190"/>
			</defs>
			<clipPath id="SVGID_31_">
				<use xlink:href="#SVGID_30_"  style="overflow:visible;"/>
			</clipPath>
			<polygon class="st53" points="5089,502.1 5775.6,-723.5 6185.5,-694.3 5282.4,975.3 			"/>
		</g>
		<g>
			<defs>
				<rect id="SVGID_32_" x="5716.5" y="120.2" width="204.2" height="190"/>
			</defs>
			<clipPath id="SVGID_33_">
				<use xlink:href="#SVGID_32_"  style="overflow:visible;"/>
			</clipPath>
			<polygon class="st54" points="5766.2,336.3 5955.6,-1.8 6020.8,-22.3 5771.7,438.3 			"/>
		</g>
	</g>
	<polygon class="st17" points="7282.3,1196 7265.1,1249.2 7246.7,1249.2 7265.1,1196 	"/>
	<polygon class="st17" points="7243.1,1196 7234.2,1249.2 7246.7,1249.2 7265.1,1196 	"/>
	<g class="st7">
		
			<linearGradient id="SVGID_34_" gradientUnits="userSpaceOnUse" x1="10890.9434" y1="733.35" x2="11094.1426" y2="733.35" gradientTransform="matrix(-1 0 0 -1 19629.043 1676)">
			<stop  offset="0" style="stop-color:#0B155B"/>
			<stop  offset="1" style="stop-color:#073489"/>
		</linearGradient>
		<path class="st55" d="M8591.2,1110.2h90.6c31.1,0,56.3-25.2,56.3-56.3V831.4c0-31.1-25.2-56.3-56.3-56.3h-90.6
			c-31.1,0-56.3,25.2-56.3,56.3v222.4C8534.9,1085,8560.1,1110.2,8591.2,1110.2z"/>
		<path class="st56" d="M8507.9,1110.2h106.6c26.7,0,48.3-21.6,48.3-48.3V823.5c0-26.7-21.6-48.3-48.3-48.3h-106.6
			c-26.7,0-48.3,21.6-48.3,48.3v238.4C8459.6,1088.5,8481.3,1110.2,8507.9,1110.2z"/>
		<line class="st57" x1="8662.8" y1="915.4" x2="8459.6" y2="915.4"/>
		<path class="st58" d="M8485.2,1007.5L8485.2,1007.5c3.2,0,5.8-2.6,5.8-5.8v-56.1c0-3.2-2.6-5.8-5.8-5.8l0,0
			c-3.2,0-5.8,2.6-5.8,5.8v56.1C8479.5,1004.9,8482,1007.5,8485.2,1007.5z"/>
		<path class="st58" d="M8485.2,874.6L8485.2,874.6c3.2,0,5.8-2.6,5.8-5.8V843c0-3.2-2.6-5.8-5.8-5.8l0,0c-3.2,0-5.8,2.6-5.8,5.8
			v25.8C8479.5,872,8482,874.6,8485.2,874.6z"/>
	</g>
	<path class="st17" d="M8086.6,704.6c4.8-8.2,7.1-17.1,7.1-17.1l0,0c-1.2,0-2.1-1-2.1-2.1v-4.1c0-1.2,1-2.1,2.1-2.1h3.7h3.7
		c1.2,0,2.1,1,2.1,2.1v4.1c0,1.2-1,2.1-2.1,2.1l0,0c0,0,2.2,8.9,7.1,17.1c5.6,9.5,19.2,22.2,19.2,38.4c0,15.8-21.6,29.3-21.6,29.3
		h-8.4h-8.4c0,0-21.6-13.5-21.6-29.3C8067.4,726.9,8081,714.1,8086.6,704.6z"/>
	
		<linearGradient id="SVGID_35_" gradientUnits="userSpaceOnUse" x1="11336.543" y1="958.9" x2="11447.1426" y2="958.9" gradientTransform="matrix(-1 0 0 -1 19629.043 1676)">
		<stop  offset="0" style="stop-color:#0B155B"/>
		<stop  offset="1" style="stop-color:#073489"/>
	</linearGradient>
	<polygon class="st59" points="8181.9,772.4 8292.5,772.4 8292.5,661.8 8181.9,661.8 	"/>
	<rect x="8131.5" y="698.2" class="st60" width="86.3" height="77.5"/>
	<rect x="8042.5" y="768.6" class="st60" width="273.3" height="14.4"/>
	<polygon class="st16" points="7444.2,1316.4 7492.9,1316.4 7927,502.8 7884.3,502.8 	"/>
	<polygon class="st16" points="7528.9,502.8 7250.8,502.8 7031,909 7031,1316.8 7094.7,1316.8 	"/>
	<path class="st5" d="M7424.9,1072.5c426.6,0,772.4,48.2,772.4,107.7S7851.5,1288,7424.9,1288c-143.2,0-277.4-5.4-392.4-14.9v-185.7
		C7147.5,1077.9,7281.7,1072.5,7424.9,1072.5z"/>
	<g class="st7">
		
			<linearGradient id="SVGID_36_" gradientUnits="userSpaceOnUse" x1="11863.5889" y1="652.5251" x2="12476.5996" y2="652.5251" gradientTransform="matrix(-1 0 0 -1 19629.043 1676)">
			<stop  offset="0" style="stop-color:#0B155B"/>
			<stop  offset="1" style="stop-color:#073489"/>
		</linearGradient>
		<path class="st61" d="M7167.6,966.1c11.7-4.6,67.9,20.3,107.8,34.9c35.6,13,113.6,23.7,146.9,23.3l0.1,4.3l0.3-7.3
			c43.2,0.4,144.8-10.4,191-23.7c51.8-14.9,124.9-40.2,140.2-35.6c11.8,3.6,13.2,15.7,10.2,25.8c-4,13.5-30.9,31-34.4,33.2l-0.1-0.1
			c-0.1,0.1-10.4,6-29.1,13.8c-17.3,7.2-45.4,17.6-81.3,26c-87.4,20.5-167.9,24.2-195.2,24.8c0,0-82.4-1.4-152.8-22.5
			c-27.6-8.3-49.2-18.4-62.5-25.5c-14.4-7.7-22.3-13.5-22.4-13.5v0.1c-2.6-2.1-23.4-19.4-26.4-32.6
			C7157.5,981.5,7158.5,969.6,7167.6,966.1z"/>
		
			<linearGradient id="SVGID_37_" gradientUnits="userSpaceOnUse" x1="11837.1377" y1="570.35" x2="12442.5361" y2="570.35" gradientTransform="matrix(-1 0 0 -1 19629.043 1676)">
			<stop  offset="0" style="stop-color:#0B155B"/>
			<stop  offset="1" style="stop-color:#073489"/>
		</linearGradient>
		<path class="st62" d="M7208.6,1037.8c13.3,7.1,34.9,17.3,62.5,25.5c66.2,19.8,149.2,22.6,149.2,22.6
			c23.1-0.4,107.2-3.4,198.9-24.9c35.9-8.4,64-18.8,81.3-26c16.4-6.9,26.4-12.3,28.7-13.5c-0.8,5.1-16.5,104.4-64.8,152.2
			c-11.9,11.8-36,16.1-36,16.1h-201.7h-10.1h-145.5c0,0-25.7-4.2-34.9-15.8c-37.1-47-49.2-144.4-49.8-149.5
			C7188.2,1025.8,7195.9,1031.1,7208.6,1037.8z"/>
		<path class="st13" d="M7321.3,1011.8c47.3,9.5,100.9,9.6,101.3,9.6v-0.2c0,0,69.5-1.3,131.3-11.3c48.3-7.8,184.7-48.7,184.7-48.7
			s-20.3,45.3-151.6,72.7c-86.4,18-165.4,17.4-165.4,17.4v-0.1c-9.7,0-65.3-0.9-125.7-16.5c-101-26.1-116.6-69.3-116.6-69.3
			S7284.2,1004.3,7321.3,1011.8z"/>
		<polygon class="st13" points="7584.5,1186 7599.9,1233.8 7616.5,1233.8 7599.9,1186 		"/>
		<polygon class="st58" points="7619.6,1186 7627.6,1233.8 7616.5,1233.8 7599.9,1186 		"/>
	</g>
	<polygon class="st16" points="8475,1313.4 8523.8,1313.4 8819.5,758 8819.5,674.4 	"/>
	<polygon class="st16" points="7517.2,1316.4 8341.4,1316.4 8775.5,502.8 7957.4,502.8 	"/>
	<path class="st17" d="M7328.2,1328.9c0,0,58.3-39.2,19.8-75.8c-38.2-36.2-71.9,19.9-71.9,19.9s41.8-84.8-30.1-107.9
		c-138.2-44.3-155.4,165-155.4,165L7328.2,1328.9z"/>
	
		<linearGradient id="SVGID_38_" gradientUnits="userSpaceOnUse" x1="12437.0732" y1="439.0308" x2="12741.1689" y2="439.0308" gradientTransform="matrix(-1 0 0 -1 19629.043 1676)">
		<stop  offset="0" style="stop-color:#0B155B"/>
		<stop  offset="1" style="stop-color:#073489"/>
	</linearGradient>
	<path class="st63" d="M7147,1353.6c0,0,52.7-10.9,44-48.7c-6.9-30.4-37.9-24.9-37.9-24.9s54.5-62.3,0-107.1
		c-34.6-28.4-90.9,0-90.9,0s-4.6-58.3-59.2-52.1c-48.4,5.5-40.3,64-40.3,64s-48.7-38.8-70.8,20.8c-20.1,53.9,41.6,84.2,41.6,84.2
		s-43.3-15.1-44.4,23.8s44.4,39,44.4,39L7147,1353.6z"/>
	<g class="st7">
		<path class="st11" d="M8250.2,241l138.8-15.1v34l-134.6,27.4c0,0-4.8,18.7-14.6,32.8c-13.8,19.7-30,25.8-30,25.8h-47.4v-120h87.9
			L8250.2,241z"/>
		<path class="st11" d="M8074.5,241l-138.8-15.1v34l134.6,27.4c0,0,4.8,18.7,14.6,32.8c13.8,19.7,30,25.8,30,25.8h47.4v-120h-87.9
			L8074.5,241z"/>
		<rect x="8389" y="221.2" class="st56" width="71.1" height="38.6"/>
		<path class="st56" d="M8401.8,221.3h45.4v-7.7c0-9.4-7.6-17-17-17h-11.5c-9.4,0-17,7.6-17,17L8401.8,221.3L8401.8,221.3z"/>
		<path class="st56" d="M8500.5,221.3c-16.1,0-30.8-5.8-42.1-15.5h84.3C8531.3,215.4,8516.6,221.3,8500.5,221.3z"/>
		<path class="st56" d="M8348.5,193.4c16.1,0,30.8,5.8,42.1,15.5h-84.3C8317.8,199.3,8332.5,193.4,8348.5,193.4z"/>
		<rect x="8123.7" y="269.9" class="st13" width="77.4" height="48.1"/>
		<path class="st56" d="M8423.5,282.4h4.4c3.6,0,6.5-2.9,6.5-6.5v-16H8417v16C8417,279.5,8419.9,282.4,8423.5,282.4z"/>
		<rect x="7864.8" y="221.2" class="st56" width="71.1" height="38.6"/>
		<path class="st56" d="M7877.6,221.3h45.4v-7.7c0-9.4-7.6-17-17-17h-11.5c-9.4,0-17,7.6-17,17v7.7H7877.6z"/>
		<g>
			<path class="st56" d="M7976.3,193.4c-16.1,0-30.8,5.8-42.1,15.5h84.3C8007.1,199.3,7992.4,193.4,7976.3,193.4z"/>
			<path class="st56" d="M7824.3,221.3c16.1,0,30.8-5.8,42.1-15.5h-84.3C7793.5,215.4,7808.3,221.3,7824.3,221.3z"/>
		</g>
		<path class="st56" d="M7899.3,282.4h4.4c3.6,0,6.5-2.9,6.5-6.5v-16h-17.4v16C7892.8,279.5,7895.7,282.4,7899.3,282.4z"/>
		<rect x="8073.5" y="343" class="st56" width="177.6" height="127.8"/>
		<circle class="st64" cx="8163.1" cy="294.4" r="13.1"/>
	</g>
	<circle class="st5" cx="8485.2" cy="818.5" r="5.8"/>
	<circle class="st5" cx="7302.5" cy="1085.5" r="5.8"/>
	<circle class="st65" cx="8162.5" cy="295.2" r="45.2"/>
	<circle class="st66" cx="8162.3" cy="294.4" r="29.3"/>
	<circle class="st65" cx="8485.2" cy="818.5" r="30.1"/>
	<circle class="st66" cx="8485.1" cy="817.9" r="19.5"/>
	<circle class="st65" cx="7302.5" cy="1085.5" r="46.6"/>
	<circle class="st66" cx="7302.4" cy="1084.7" r="30.2"/>
	<rect x="5520.5" y="1148.9" class="st60" width="142.9" height="304"/>
	<path class="st60" d="M4488.8,1249.2l-97.5,205.7l203,415.7l222,8l-89-177c0,0,1.5-97.8-8-125c-17-49-49-78-49-78L4488.8,1249.2z"
		/>
	<path class="st3" d="M5574.9,1527.6H4500.2c-6.3,0-11.4-5.1-11.4-11.4V830.6c0-6.3,5.1-11.4,11.4-11.4h1074.7
		c6.3,0,11.4,5.1,11.4,11.4v685.6C5586.2,1522.5,5581.1,1527.6,5574.9,1527.6z"/>
	
		<linearGradient id="SVGID_39_" gradientUnits="userSpaceOnUse" x1="4611.8999" y1="507.35" x2="5545.1001" y2="507.35" gradientTransform="matrix(1 0 0 -1 0 1676)">
		<stop  offset="0" style="stop-color:#0B155B"/>
		<stop  offset="1" style="stop-color:#073489"/>
	</linearGradient>
	<rect x="4611.9" y="862.8" class="st67" width="933.2" height="611.7"/>
	<polygon class="st5" points="4911.4,939.2 4829.3,1227.2 5014.5,1227.2 5014.5,895.3 	"/>
	<polygon class="st5" points="5115.8,939.2 5197.8,1227.2 5012.6,1227.2 5012.6,895.3 	"/>
	<circle class="st68" cx="4726.5" cy="590.2" r="130.8"/>
	<path class="st60" d="M5078.9,934.7l-62-1.3l-62,1.3c0,0-4.9,50.4,6.3,68.1c8.8,13.8,24.9,18,24.9,18v31.5l30.8,19.8l30-21.2v-30.2
		c0,0,16.8-4.2,25.7-18C5083.8,985.1,5078.9,934.7,5078.9,934.7z"/>
	<path class="st3" d="M5081.8,1046.5c7.5,3.4,66,6.4,79.5,57.4s47.5,124.7,47.5,124.7l75.5-130.7l70.5,1.5
		c0,0-85.2,274.5-136.5,274.5c-76.5,0-111.9-114.7-111.9-114.7L5081.8,1046.5z"/>
	<path class="st60" d="M5302.3,1098.6c0,0,2.1-37.9,35-48.7c31.3-10.3,100.9-13,99.7,4.5c-1.2,17.5-52.9,23.2-72.1,23.3
		c-19.2,0.1-24.3,21.7-24.3,21.7L5302.3,1098.6z"/>
	<path class="st3" d="M4885.6,1164.8l-21.3,309.7h313.5l-45.3-409.9c0,0-26.1-18-50.7-18c-33.1,0-132.4,3.2-132.4,3.2L4885.6,1164.8
		z"/>
	<path class="st3" d="M4949.4,1049.8c0,0-49.1,3.2-68.6,13.7S4699.3,1389,4699.3,1389l258,85.5l24.7-60l-141.3-87.1l104.7-154.4
		L4949.4,1049.8z"/>
	<path class="st60" d="M4982,1436.4c0,0,89.3-6.9,87.8,14.1s-112.5,24-112.5,24L4982,1436.4z"/>
	<path class="st5" d="M4909.3,508.3c-25.6-54.9-78.8-94.3-141.8-100.2l-45.4,182.1L4909.3,508.3z"/>
	<polyline class="st69" points="5176.5,683.1 5511.7,683.1 5511.7,471.8 	"/>
	<path class="st69" d="M5205.5,655.1c0,0,11-57,78-44c58.8,11.4,98.1,37,144.7,0c35.1-27.8,50.3-87,50.3-87"/>
	<rect x="5210.7" y="788.1" class="st60" width="333.9" height="192.6"/>
	<polygon class="st3" points="5210.7,788.1 5377.7,874.3 5544.6,788.1 	"/>
	<circle class="st4" cx="5607.9" cy="809.6" r="48.8"/>
	<rect x="5572.9" y="787.2" class="st15" width="104.2" height="66.1"/>
	<g class="st70">
		<text transform="matrix(1 0 0 1 5572.873 830.6177)" class="st71 st72 st73">10</text>
	</g>
	<path class="st9" d="M4945.5,990.7h9v-51.6h-9c-11.9,0-21.5,9.6-21.5,21.5v8.6C4924.1,981.1,4933.7,990.7,4945.5,990.7z"/>
	<path class="st9" d="M5086.4,990.7h-9v-51.6h9c11.9,0,21.5,9.6,21.5,21.5v8.6C5107.9,981.1,5098.3,990.7,5086.4,990.7z"/>
	<path class="st74" d="M4944.5,983.3v13.5c0,5.2,4.2,9.4,9.4,9.4h53.7"/>
	<path class="st9" d="M5016.8,1008h-12.6c-1.4,0-2.5-1.1-2.5-2.5v-4.2c0-1.4,1.1-2.5,2.5-2.5h12.6c1.4,0,2.5,1.1,2.5,2.5v4.2
		C5019.3,1006.9,5018.2,1008,5016.8,1008z"/>
	<path class="st5" d="M4911.4,939.2h206.3c0,0,1.4-126.2-104-126.2C4896.1,813,4911.4,939.2,4911.4,939.2z"/>
	<polygon class="st60" points="4982,1046.5 5020.3,1101.9 5051.9,1046.5 	"/>
	<circle class="st9" cx="4552.7" cy="1190.5" r="29.2"/>
	<path class="st60" d="M4510.3,1260.5c0,0,60.2,37.4,54.2,104s-11.9,117.4-11.9,117.4s91.2-19.5,133.2,64.5s-22.5,177-22.5,177
		l-189-208.5L4510.3,1260.5z"/>
	<path class="st60" d="M5586.2,1088.5l100.4,50.7l64.7,234.8l-138,361.6c0,0-88.2-115.3-80-159c46.7-250.7,102.3-295.6,102.3-295.6
		s-16.7-25.6-20.8-54.4c-4.8-34,0.6-40.8,0.6-40.8l-29.2-21.8V1088.5z"/>
	<polyline class="st75" points="4510.3,1260.5 4474.3,1515 4552.7,1644.5 	"/>
	<path class="st75" d="M4552.7,1482c0,0,61.9-3.8,93.8,18.4c31.9,22.2,39.9,75.2,39.9,75.2"/>
	<path class="st60" d="M5503.3,1373.9c0,0-24.8-242.5,14.7-248.7c38.2-5.9,62.6,82.3,64.7,110c2.5,32.6,11.5,122.3,11.5,122.3
		l24.6,366l19.5,164.6l-188.9,21.7c0,0-45.6-312.3-12.3-406.8C5470.3,1408.5,5503.3,1373.9,5503.3,1373.9z"/>
	<path class="st76" d="M5586.2,1163.9l29.2,21.8c0,0-7.1,26.7,1.5,51.4c8.6,24.7,18.7,43.8,18.7,43.8L5595,1347"/>
	<line class="st76" x1="5627.2" y1="1263.3" x2="5581" y2="1222.9"/>
	<line class="st76" x1="5583" y1="1234.9" x2="5604.4" y2="1435"/>
	<line class="st20" x1="4678.5" y1="1527.6" x2="5425.2" y2="1527.6"/>
	<path class="st68" d="M5520.9,719.2H5152c-14.6,0-26.5-11.9-26.5-26.5v-233c0-14.6,11.9-26.5,26.5-26.5h368.9
		c14.6,0,26.5,11.9,26.5,26.5v233C5547.4,707.4,5535.6,719.2,5520.9,719.2z"/>
	<g class="st7">
		<g>
			<ellipse class="st11" cx="950.2" cy="1365.8" rx="1.6" ry="3.9"/>
			<path class="st11" d="M1343.8,1214.2c-5.1-1.9-12.4-2-12.4-2v21.1v21.1c0,0,7.2-0.1,12.4-2c6.5-2.4,7.7-7.9,7.7-7.9v-11.2v-11.2
				C1351.4,1222.1,1350.2,1216.6,1343.8,1214.2z"/>
			<polygon class="st11" points="1349.6,1225.1 1364,1227.9 1364,1238.6 1348.3,1241.2 			"/>
			<ellipse class="st11" cx="1364.6" cy="1233.6" rx="2.6" ry="6"/>
			<path class="st56" d="M1204.6,1525.2c0,0,27.5,70.4,100.3,91.9c41.1,12.1,91.9,27.5,109.8,63.3s38.2,81.2,38.2,81.2l324.8-27.5
				l-193.4-298.5l-466.8-794c0,0-60.9,16.7-37,74c10.3,24.8,149.2,290.1,149.2,290.1l-216.1-200.6c0,0-50.1-57.3-71.6-23.9
				c-21.5,33.4,40.6,106.3,90.7,156.4c71.1,71,286.6,281.8,286.6,281.8l-47.8-37c0,0-292.6-272.4-326-286.6
				c-47.8-20.3-57.3,14.3-45.4,39.4c11.9,25.1,291.3,318.8,291.3,318.8l-148.1-16.7c0,0-121.8-64.5-155.2-49s-3.6,56.1,41.8,74
				c45.4,17.9,193.4,77.6,193.4,77.6L1204.6,1525.2z"/>
			<path class="st11" d="M1437.3,1580.7h-359.6c-12.3,0-22.3-10-22.3-22.3V762.6c0-12.3,10-22.3,22.3-22.3h359.6
				c12.3,0,22.3,10,22.3,22.3v795.8C1459.6,1570.7,1449.6,1580.7,1437.3,1580.7z"/>
			<rect x="1090.1" y="805.1" class="st64" width="336" height="660.6"/>
			<circle class="st13" cx="1259.3" cy="1398.6" r="44.8"/>
			<path class="st64" d="M1269.9,1380.3v-0.6c0-1.9-1.6-3.5-3.5-3.5h-14.2c-1.9,0-3.5,1.6-3.5,3.5v0.6c0,1.9-1.6,3.5-3.5,3.5h-11.8
				c-1.9,0-3.5,1.6-3.5,3.5v26.2c0,1.9,1.6,3.5,3.5,3.5h51.8c1.9,0,3.5-1.6,3.5-3.5v-26.2c0-1.9-1.6-3.5-3.5-3.5h-11.8
				C1271.5,1383.8,1269.9,1382.2,1269.9,1380.3z"/>
			<circle class="st13" cx="1259.3" cy="1399.7" r="12.4"/>
			<circle class="st13" cx="1259" cy="1513.9" r="22.7"/>
			<path class="st56" d="M1324.3,904.4l229.7,29.4l120.9,222.8l-43.8,396.5l-131.5,55.8l-59.2-115.5c0,0-58.5-49.9-34.5-185.9
				c21.7-122.9,92.9-175,92.9-175l-25.9-108.8c0,0-61-17.3-101.9-55.3C1342.1,941.4,1324.3,904.4,1324.3,904.4z"/>
		</g>
		<g>
			<g>
				<path class="st11" d="M1185.1,1227.8h-31.7V1136c0,0,0-13.8,10.1-24.5c5.4-5.8,8.9-10.6,9.3-14.5s0-30.7,0-30.7h-2.5v-15.8h14.8
					L1185.1,1227.8L1185.1,1227.8z"/>
				<path class="st11" d="M1185.1,1227.8h31.7V1136c0,0,0-13.8-10.1-24.5c-5.4-5.8-8.9-10.6-9.3-14.5s0-30.7,0-30.7h2.5v-15.8h-14.8
					L1185.1,1227.8L1185.1,1227.8z"/>
			</g>
			<path class="st11" d="M1333.7,1223.9h-113.2v-63.4h113.2c1.7,0,3.1,1.4,3.1,3.1v57.3C1336.7,1222.5,1335.4,1223.9,1333.7,1223.9z
				"/>
			<circle class="st12" cx="1285" cy="1183.7" r="11.6"/>
			<circle class="st12" cx="1285" cy="1202.2" r="11.6"/>
			<circle class="st12" cx="1296.7" cy="1193.8" r="11.6"/>
			<g>
				<path class="st56" d="M1222.4,1207.9c0,0-5.8-0.9-12,0.7c-4.7,1.2-8.8,4.1-8.8,4.1s8.2,11,8.2,23.5c0,14-13,22.9-13,22.9
					s2.2,4.6,11,8.9c3.8,1.9,10.6,2.8,14.6,2.2L1222.4,1207.9L1222.4,1207.9z"/>
				<path class="st56" d="M1222.4,1207.9c0,0,5.8-0.9,12,0.7c4.7,1.2,8.8,4.1,8.8,4.1s-8.2,11-8.2,23.5c0,14,13,22.9,13,22.9
					s-2.2,4.6-11,8.9c-3.8,1.9-10.6,2.8-14.6,2.2L1222.4,1207.9L1222.4,1207.9z"/>
			</g>
			<rect x="1220.5" y="1196.2" class="st13" width="3.1" height="15.2"/>
			
				<linearGradient id="SVGID_40_" gradientUnits="userSpaceOnUse" x1="1153.4" y1="510.2001" x2="1216.8" y2="510.2001" gradientTransform="matrix(1 0 0 -1 0 1676)">
				<stop  offset="0" style="stop-color:#0B155B"/>
				<stop  offset="1" style="stop-color:#073489"/>
			</linearGradient>
			<rect x="1153.4" y="1139.2" class="st77" width="63.4" height="53.2"/>
			<path class="st11" d="M1342.7,1211.4h-5.9V1175h5.9c6.7,0,12.2,5.4,12.2,12.2v12C1354.8,1206,1349.4,1211.4,1342.7,1211.4z"/>
			<rect x="1352.2" y="1186" class="st11" width="12.5" height="12.5"/>
		</g>
	</g>
	<rect x="1121.5" y="1022.3" class="st78" width="266" height="266"/>
	<line class="st20" x1="6027.1" y1="1397" x2="6027.1" y2="1425.7"/>
	<line class="st20" x1="6427.8" y1="1397" x2="6427.8" y2="1425.7"/>
	<line class="st20" x1="6828.6" y1="1397" x2="6828.6" y2="1425.7"/>
	<line class="st20" x1="7229.4" y1="1397" x2="7229.4" y2="1425.7"/>
	<line class="st20" x1="7630.2" y1="1397" x2="7630.2" y2="1425.7"/>
	<line class="st20" x1="8031" y1="1397" x2="8031" y2="1425.7"/>
	<line class="st20" x1="8431.8" y1="1397" x2="8431.8" y2="1425.7"/>
	<line class="st20" x1="8822.1" y1="1397" x2="8822.1" y2="1425.7"/>
	<line class="st20" x1="9222.8" y1="1397" x2="9222.8" y2="1425.7"/>
	<line class="st20" x1="9623.6" y1="1397" x2="9623.6" y2="1425.7"/>
	<line class="st20" x1="10024.4" y1="1395" x2="10024.4" y2="1423.7"/>
	<line class="st20" x1="10425.2" y1="1395" x2="10425.2" y2="1423.7"/>
</g>
</svg>
