<?xml version="1.0" encoding="utf-8"?>
<!-- Generator: Adobe Illustrator 21.0.2, SVG Export Plug-In . SVG Version: 6.00 Build 0)  -->
<svg version="1.1" xmlns="http://www.w3.org/2000/svg" xmlns:xlink="http://www.w3.org/1999/xlink" x="0px" y="0px"
	 viewBox="0 0 3000 1686" style="enable-background:new 0 0 3000 1686;" xml:space="preserve">
<style type="text/css">
	.st0{clip-path:url(#SVGID_2_);fill:url(#SVGID_3_);}
	.st1{opacity:0.19;clip-path:url(#SVGID_2_);fill:#1F458E;}
	.st2{clip-path:url(#SVGID_2_);fill:#073489;}
	.st3{opacity:0.59;clip-path:url(#SVGID_2_);fill:url(#SVGID_4_);}
	.st4{clip-path:url(#SVGID_2_);fill:url(#SVGID_5_);}
	.st5{clip-path:url(#SVGID_2_);fill:#0B155B;}
	.st6{clip-path:url(#SVGID_2_);fill:none;stroke:#073489;stroke-width:4;stroke-miterlimit:10;}
	.st7{clip-path:url(#SVGID_2_);fill:#0D1A5B;}
	.st8{display:none;}
	.st9{display:inline;fill:#0B155B;}
	.st10{display:inline;fill:#114493;}
	.st11{display:inline;opacity:0.18;fill:#08123A;}
	.st12{display:inline;fill:url(#SVGID_6_);}
	.st13{display:inline;fill:#00ACE1;}
	.st14{display:inline;fill:url(#SVGID_7_);}
	.st15{display:inline;fill:url(#SVGID_8_);}
	.st16{display:inline;fill:url(#SVGID_9_);}
	.st17{display:inline;fill:url(#SVGID_10_);}
	.st18{display:inline;fill:url(#SVGID_11_);}
	.st19{display:inline;fill:#073489;}
	.st20{display:inline;fill:#FF0300;}
	.st21{display:inline;fill:none;stroke:#0058AC;stroke-width:0.75;stroke-miterlimit:10;}
	.st22{display:inline;}
	.st23{clip-path:url(#SVGID_13_);}
	.st24{fill:#1BC4EC;}
	.st25{display:inline;fill:none;stroke:#073489;stroke-width:2;stroke-miterlimit:10;}
	.st26{fill:#FF0300;}
	.st27{display:inline;fill:#194E9B;}
	.st28{fill:#00ACE1;}
	.st29{fill:none;stroke:#00ACE1;stroke-width:1.1651;stroke-miterlimit:10;}
	.st30{display:inline;fill:url(#SVGID_14_);}
	.st31{display:inline;fill:none;stroke:#0B155B;stroke-width:4;stroke-miterlimit:10;}
	.st32{display:inline;fill:none;stroke:#0B155B;stroke-width:2;stroke-miterlimit:10;}
	.st33{display:inline;opacity:0.88;fill:#0A1447;}
	.st34{display:inline;fill:#0A1549;}
	.st35{display:inline;fill:none;stroke:#073489;stroke-width:3;stroke-miterlimit:10;}
	.st36{display:inline;opacity:0.47;fill:#114493;}
	.st37{display:inline;opacity:0.78;fill:#0B155B;}
	.st38{clip-path:url(#SVGID_16_);}
	.st39{fill:#152472;}
	.st40{display:inline;fill:none;stroke:#0B155B;stroke-width:1.5;stroke-miterlimit:10;}
	.st41{display:inline;opacity:9.000000e-02;fill:#00ACE1;}
	.st42{display:inline;opacity:0.6;fill:url(#SVGID_17_);}
	.st43{display:inline;opacity:0.27;fill:url(#SVGID_18_);}
	.st44{display:inline;opacity:0.42;fill:url(#SVGID_19_);}
	.st45{display:inline;opacity:0.3;}
	.st46{fill:none;stroke:#00ACE1;stroke-width:1.0195;stroke-miterlimit:10;}
	.st47{display:inline;fill:none;stroke:#00ACE1;stroke-width:1.0195;stroke-miterlimit:10;}
	.st48{display:inline;opacity:0.5;}
	.st49{display:inline;fill:url(#SVGID_20_);}
	.st50{display:inline;fill:#0A1447;}
	.st51{display:inline;fill:url(#SVGID_21_);}
	.st52{display:inline;fill:none;stroke:#00ACE1;stroke-width:2;stroke-miterlimit:10;}
	.st53{clip-path:url(#SVGID_23_);}
	.st54{display:inline;fill:none;stroke:#00ACE1;stroke-miterlimit:10;}
	.st55{display:inline;fill:url(#SVGID_24_);}
	.st56{display:inline;fill:none;stroke:#0B155B;stroke-width:4;stroke-linecap:round;stroke-miterlimit:10;}
	.st57{display:inline;opacity:5.000000e-02;fill:#00ACE1;}
	.st58{fill:#114493;}
	.st59{fill:#0A1856;}
	.st60{display:inline;opacity:0.65;fill:#08123A;}
	.st61{display:inline;fill:url(#SVGID_25_);}
	.st62{display:inline;fill:url(#SVGID_26_);stroke:url(#SVGID_27_);stroke-miterlimit:10;}
	.st63{clip-path:url(#SVGID_29_);}
	.st64{display:inline;opacity:0.59;fill:#144BA0;}
	.st65{clip-path:url(#SVGID_31_);}
	.st66{fill:#144BA0;}
	.st67{fill:none;stroke:#00ACE1;stroke-width:1.4137;stroke-miterlimit:10;}
	.st68{display:inline;opacity:0.6;fill:url(#SVGID_32_);}
	.st69{display:inline;opacity:0.65;fill:#0A1447;}
	.st70{display:inline;fill:none;stroke:#FF0300;stroke-width:0.75;stroke-miterlimit:10;}
	.st71{display:inline;fill:url(#SVGID_33_);}
	.st72{display:inline;fill:#00AFE4;stroke:#0B155B;stroke-miterlimit:10;}
	.st73{display:inline;fill:url(#SVGID_34_);}
	.st74{display:inline;opacity:0.92;fill:#0A1447;}
	.st75{display:inline;opacity:0.65;fill:#073489;}
	.st76{display:inline;fill:url(#SVGID_35_);}
	.st77{clip-path:url(#SVGID_37_);fill:#00ACE1;}
	.st78{clip-path:url(#SVGID_37_);fill:#FF0300;}
	.st79{clip-path:url(#SVGID_37_);fill:#1BC4EC;}
	.st80{clip-path:url(#SVGID_37_);fill:none;stroke:#0B155B;stroke-width:8;stroke-miterlimit:10;}
	.st81{display:inline;fill:none;stroke:#144BA0;stroke-width:3;stroke-miterlimit:10;}
	.st82{display:inline;opacity:0.82;fill:#0B155B;}
	.st83{fill:#0A1549;}
	.st84{fill:#0B155B;}
	.st85{fill:url(#SVGID_38_);}
	.st86{display:inline;fill:none;stroke:#144BA0;stroke-width:0.8652;stroke-miterlimit:10;}
	.st87{fill:#0A1447;}
	.st88{fill:none;stroke:#152248;stroke-width:0.8375;stroke-miterlimit:10;}
	.st89{fill:#00AFE4;stroke:#0B155B;stroke-width:0.8539;stroke-miterlimit:10;}
	.st90{display:inline;fill:#38316D;}
	.st91{display:inline;fill:#DCB2D2;}
	.st92{display:inline;fill:#9494C8;}
	.st93{display:inline;fill:#144BA0;stroke:#0B155B;stroke-width:1.2563;stroke-miterlimit:10;}
	.st94{display:inline;fill:#144BA0;}
	.st95{display:inline;fill:none;stroke:#00ACE1;stroke-width:0.5;stroke-miterlimit:10;}
	.st96{display:inline;fill:none;stroke:#00ACE1;stroke-width:0.8;stroke-miterlimit:10;}
	.st97{fill:#144BA0;stroke:#0B155B;stroke-width:1.2643;stroke-miterlimit:10;}
	.st98{display:inline;fill:#07348C;}
	.st99{display:inline;fill:url(#SVGID_39_);}
	.st100{display:inline;fill:none;stroke:#0B155B;stroke-miterlimit:10;}
</style>
<g id="bg">
	<g>
		<defs>
			<rect id="SVGID_1_" x="0" y="0" width="3000" height="1686"/>
		</defs>
		<clipPath id="SVGID_2_">
			<use xlink:href="#SVGID_1_"  style="overflow:visible;"/>
		</clipPath>
		<linearGradient id="SVGID_3_" gradientUnits="userSpaceOnUse" x1="-45.9683" y1="828.3785" x2="3046.9395" y2="828.3785">
			<stop  offset="0" style="stop-color:#0B155B"/>
			<stop  offset="1" style="stop-color:#073489"/>
		</linearGradient>
		<rect x="-46" y="-28.9" class="st0" width="3092.9" height="1714.5"/>
		<polygon class="st1" points="2264.5,821 2316.9,821 2316.9,923.2 2391.5,923.2 2391.5,892.8 2521.3,892.8 2521.3,945.3 
			2607,945.3 2607,848.6 2684.3,881.7 2684.3,934.2 2789.3,934.2 2789.3,870.7 2877.7,821 2877.7,945.3 3054.4,945.3 3054.4,876.2 
			3137.3,876.2 3137.3,834.8 3211.9,834.8 3211.9,945.3 3239.5,945.3 3239.5,912.1 3347.2,912.1 3347.2,945.3 3369.3,945.3 
			3369.3,774 3477.1,848.6 3477.1,931.4 3595.8,931.4 3595.8,959.1 3681.5,959.1 3681.5,923.2 3808.5,923.2 3808.5,879 
			3883.1,851.3 3883.1,945.3 3960.4,945.3 3960.4,914.9 4079.2,914.9 4079.2,959.1 4181.4,959.1 4181.4,903.8 4253.2,903.8 
			4253.2,793.3 4383.1,793.3 4383.1,909.3 4551.5,909.3 4551.5,1477 2264.5,1477 		"/>
		<rect y="1475.8" class="st2" width="3000" height="209.9"/>
		<linearGradient id="SVGID_4_" gradientUnits="userSpaceOnUse" x1="0.3333" y1="1601.8142" x2="1690.0123" y2="1601.8142">
			<stop  offset="0" style="stop-color:#0B155B"/>
			<stop  offset="0.2777" style="stop-color:#0A1962"/>
			<stop  offset="0.6698" style="stop-color:#092674"/>
			<stop  offset="1" style="stop-color:#073489"/>
		</linearGradient>
		<rect x="0.3" y="1519" class="st3" width="1689.7" height="165.6"/>
		<polygon class="st1" points="-22.5,821 29.9,821 29.9,923.2 104.5,923.2 104.5,892.8 234.3,892.8 234.3,945.3 320,945.3 
			320,848.6 397.3,881.7 397.3,934.2 502.3,934.2 502.3,870.7 590.7,821 590.7,945.3 767.4,945.3 767.4,876.2 850.3,876.2 
			850.3,834.8 924.9,834.8 924.9,945.3 952.5,945.3 952.5,912.1 1060.2,912.1 1060.2,945.3 1082.3,945.3 1082.3,774 1190.1,848.6 
			1190.1,931.4 1308.8,931.4 1308.8,959.1 1394.5,959.1 1394.5,923.2 1521.5,923.2 1521.5,879 1596.1,851.3 1596.1,945.3 
			1673.4,945.3 1673.4,914.9 1792.2,914.9 1792.2,959.1 1894.4,959.1 1894.4,903.8 1966.2,903.8 1966.2,793.3 2096.1,793.3 
			2096.1,909.3 2264.5,909.3 2264.5,1477 -22.5,1477 		"/>
		<linearGradient id="SVGID_5_" gradientUnits="userSpaceOnUse" x1="-46" y1="1061" x2="2994.24" y2="1061">
			<stop  offset="0" style="stop-color:#073184"/>
			<stop  offset="0.3415" style="stop-color:#09236F"/>
			<stop  offset="0.7038" style="stop-color:#0A1960"/>
			<stop  offset="1" style="stop-color:#0B155B"/>
		</linearGradient>
		<polygon class="st4" points="2511.7,1364.7 2511.7,1185.8 2386.9,1185.8 1987.5,1185.8 1987.5,902.9 1679.7,902.9 1679.7,707.4 
			1176.3,645 1176.3,998.6 772.8,998.6 772.8,786.4 606.4,786.4 606.4,832.2 481.6,832.2 481.6,1227.4 306.9,1227.4 306.9,1269 
			221,1269 221,973 -46,973 -46,1475 24,1475 24,1477 2994.2,1477 2994.2,1364.7 		"/>
		<rect x="0.3" y="1509" class="st5" width="2999.7" height="11"/>
		<line class="st6" x1="36.8" y1="1520.3" x2="36.8" y2="1508"/>
		<line class="st6" x1="297.8" y1="1520.3" x2="297.8" y2="1508"/>
		<line class="st6" x1="558.8" y1="1520.3" x2="558.8" y2="1508"/>
		<line class="st6" x1="819.8" y1="1520.3" x2="819.8" y2="1508"/>
		<line class="st6" x1="1080.8" y1="1520.3" x2="1080.8" y2="1508"/>
		<line class="st6" x1="1341.8" y1="1520.3" x2="1341.8" y2="1508"/>
		<line class="st6" x1="1602.8" y1="1520.3" x2="1602.8" y2="1508"/>
		<line class="st6" x1="1863.8" y1="1520.3" x2="1863.8" y2="1508"/>
		<line class="st6" x1="2124.8" y1="1520.3" x2="2124.8" y2="1508"/>
		<line class="st6" x1="2385.8" y1="1520.3" x2="2385.8" y2="1508"/>
		<line class="st6" x1="2646.8" y1="1520.3" x2="2646.8" y2="1508"/>
		<line class="st6" x1="2907.8" y1="1520.3" x2="2907.8" y2="1508"/>
		<rect x="806" y="1156" class="st5" width="267" height="319"/>
		<rect x="-46" y="973" class="st5" width="267" height="502"/>
		<rect x="1872" y="1351" class="st7" width="267" height="124"/>
		<rect x="1587" y="1130" class="st5" width="401" height="345"/>
		<rect x="2702" y="1143.4" class="st5" width="298" height="272.8"/>
		<rect x="725" y="1227" class="st5" width="108" height="248"/>
		<path class="st5" d="M1207,1476c0,0-13.2-203.6,151.5-377.2c119.3-125.8,287-125.8,287-125.8v503H1207z"/>
		<rect x="2139" y="1013" class="st5" width="390" height="462"/>
		<rect x="1853" y="1183" class="st1" width="28" height="44"/>
		<rect x="1662" y="1341" class="st1" width="28" height="44"/>
		<rect x="2837" y="1258" class="st1" width="28" height="44"/>
		<rect x="2436" y="1108" class="st1" width="28" height="44"/>
		<rect x="2251" y="1294" class="st1" width="28" height="44"/>
		<rect x="993" y="1222" class="st1" width="28" height="44"/>
		<rect x="873" y="1391" class="st1" width="28" height="44"/>
		<rect x="122" y="1061" class="st1" width="28" height="44"/>
		<rect x="523" y="987" class="st1" width="19.1" height="30"/>
		<rect x="662" y="1115" class="st1" width="19.1" height="30"/>
		<rect x="372" y="1287" class="st1" width="19.1" height="30"/>
		<rect x="454" y="1398" class="st1" width="19.1" height="30"/>
		<rect x="1539" y="813" class="st1" width="19.1" height="30"/>
		<rect x="1375" y="888" class="st1" width="19.1" height="30"/>
		<rect x="1259" y="1137" class="st1" width="19.1" height="30"/>
		<rect x="1710" y="972" class="st1" width="19.1" height="30"/>
		<rect x="1903" y="1068" class="st1" width="19.1" height="30"/>
		<rect x="2048" y="1251" class="st1" width="19.1" height="30"/>
		<rect x="1021" y="1068" class="st1" width="19.1" height="30"/>
		<rect x="2672" y="1212" class="st1" width="19.1" height="30"/>
		<rect x="2048" y="972" class="st1" width="19.1" height="30"/>
		<rect x="389" y="1068" class="st1" width="19.1" height="30"/>
		<rect x="277" y="1152" class="st1" width="19.1" height="30"/>
		<rect x="2584" y="1046" class="st1" width="19.1" height="30"/>
		<rect x="1249" y="774" class="st1" width="19.1" height="30"/>
	</g>
</g>
<g id="Layer_10" class="st8">
	<rect x="2669" y="527" class="st9" width="78.2" height="946"/>
	<rect x="2745.6" y="526.3" class="st10" width="254.4" height="946.2"/>
	<rect x="2796.4" y="602.3" class="st11" width="76.4" height="119"/>
	<rect x="2898.4" y="602.3" class="st11" width="76.4" height="119"/>
	<rect x="2796.4" y="765.7" class="st11" width="76.4" height="119"/>
	<rect x="2898.4" y="765.7" class="st11" width="76.4" height="119"/>
	<rect x="2796.4" y="929" class="st11" width="76.4" height="119"/>
	<rect x="2898.4" y="929" class="st11" width="76.4" height="119"/>
	<rect x="2796.4" y="1092.3" class="st11" width="76.4" height="119"/>
	<rect x="2796.4" y="1255.7" class="st11" width="76.4" height="119"/>
	<linearGradient id="SVGID_6_" gradientUnits="userSpaceOnUse" x1="2894.5298" y1="1159.6383" x2="3022.9333" y2="1159.6383">
		<stop  offset="0" style="stop-color:#0B155B"/>
		<stop  offset="0.2921" style="stop-color:#0A1B63"/>
		<stop  offset="0.7527" style="stop-color:#082A7A"/>
		<stop  offset="1" style="stop-color:#073489"/>
	</linearGradient>
	<path class="st12" d="M3010.7,829.6c0,0-22.3-4.4-40.3,21c-32.4,45.8-3,101-3,101s-45,2.9-57,84.4s26.6,108.6,26.6,108.6
		s-45.7,21.8-42.4,99.3c4.3,100.6,85.3,109.9,85.3,109.9V1490h42.9L3010.7,829.6z"/>
</g>
<g id="Layer_9" class="st8">
</g>
<g id="cloids_x5F_and_x5F_trees" class="st8">
	<path class="st13" d="M-22.5,266.8h843c0,0-4.3-22.7-40-35c-35-12.1-61,0-61,0s-66.8-72-183.3-72c-115.7,0-154.7,36-154.7,36
		s-84-88-218-88c-104.6,0-186,59-186,59V266.8z"/>
	<path class="st13" d="M2057.9,207c-3,0-419.1,0-419.1,0s21-18,41.6-19c21.1-1,31.5,5.2,31.5,5.2s23.1-44.8,89-49.2
		c45-3,71.4,31.4,71.4,31.4s16.1-12.9,46.1-10.9s52.5,19.5,52.5,19.5s31-12.5,57.5,0.5C2049.8,195,2057.9,207,2057.9,207z"/>
	<path class="st13" d="M3081.3,369.1H2436c0,0,26.6-63,84.9-63c40.4,0,64.5,31.3,64.5,31.3s30.9-102.3,132.4-102.3
		c101.5,0,118.5,67,118.5,67s13.2-35,73.1-35c59.9,0,72.9,48,72.9,48s37.5-11.1,64.3,6C3076.9,340.4,3081.3,369.1,3081.3,369.1z"/>
	
		<linearGradient id="SVGID_7_" gradientUnits="userSpaceOnUse" x1="131.189" y1="1641.2999" x2="640.0741" y2="1641.2999" gradientTransform="matrix(0.999 4.550113e-02 -4.550113e-02 0.999 75.5377 -10.9365)">
		<stop  offset="0" style="stop-color:#0B155B"/>
		<stop  offset="0.2886" style="stop-color:#0A1A63"/>
		<stop  offset="0.7358" style="stop-color:#082979"/>
		<stop  offset="1" style="stop-color:#073489"/>
	</linearGradient>
	<path class="st14" d="M127.4,1733.3c0,0,48.6-176.7,176-188.5c87.5-8.1,119.1,74.2,119.1,74.2s22.9-38.6,68.4-32.1
		c42.5,6,51.2,55.2,51.2,55.2s21.8-14.9,52.9-0.2s41.4,96.2,41.4,96.2L127.4,1733.3z"/>
	<linearGradient id="SVGID_8_" gradientUnits="userSpaceOnUse" x1="-26.992" y1="1144.024" x2="101.4114" y2="1144.024">
		<stop  offset="0" style="stop-color:#0B155B"/>
		<stop  offset="0.2921" style="stop-color:#0A1B63"/>
		<stop  offset="0.7527" style="stop-color:#082A7A"/>
		<stop  offset="1" style="stop-color:#073489"/>
	</linearGradient>
	<path class="st15" d="M-14.8,814c0,0,22.3-4.4,40.3,21c32.4,45.8,3,101,3,101s45,2.9,57,84.4S58.9,1129,58.9,1129
		s45.7,21.8,42.4,99.3c-4.3,100.6-85.3,109.9-85.3,109.9v136.3H-27L-14.8,814z"/>
	
		<linearGradient id="SVGID_9_" gradientUnits="userSpaceOnUse" x1="1782.0896" y1="1555.0134" x2="2213.4951" y2="1555.0134" gradientTransform="matrix(-1 0 0 1 2134.0896 0)">
		<stop  offset="0" style="stop-color:#073184"/>
		<stop  offset="0.3415" style="stop-color:#09236F"/>
		<stop  offset="0.7038" style="stop-color:#0A1960"/>
		<stop  offset="1" style="stop-color:#0B155B"/>
	</linearGradient>
	<path class="st16" d="M298.7,1736.1c0,0,82.3-69.9,42.3-118.8c-31-37.8-73.6-26.2-73.6-26.2s16.8-78-37.2-102
		c-53.9-24-83.1-0.7-83.1-0.7s32.8-73.6-60.5-118c-62.2-29.6-166.1,40.1-166.1,40.1l66.3,336.6L298.7,1736.1z"/>
	<linearGradient id="SVGID_10_" gradientUnits="userSpaceOnUse" x1="2681.9058" y1="1597.5" x2="3094.1838" y2="1597.5">
		<stop  offset="0" style="stop-color:#0B155B"/>
		<stop  offset="0.2753" style="stop-color:#0A1961"/>
		<stop  offset="0.6396" style="stop-color:#092472"/>
		<stop  offset="1" style="stop-color:#073489"/>
	</linearGradient>
	<path class="st17" d="M2732.8,1770.6c0,0-78.7-66.8-40.4-113.5c29.6-36.1,70.3-25.1,70.3-25.1s-16-74.5,35.5-97.5
		c51.5-23,79.4-0.7,79.4-0.7s-31.3-70.3,57.8-112.8c59.4-28.3,158.8,38.3,158.8,38.3l-63.4,321.7L2732.8,1770.6z"/>
</g>
<g id="_x36_" class="st8">
	<rect x="2358.6" y="744.8" class="st9" width="363" height="130.2"/>
	<linearGradient id="SVGID_11_" gradientUnits="userSpaceOnUse" x1="2286.0579" y1="922.0703" x2="2792.6777" y2="1428.6901">
		<stop  offset="0" style="stop-color:#0B155B"/>
		<stop  offset="0.3769" style="stop-color:#0B175E"/>
		<stop  offset="0.6196" style="stop-color:#0A1D66"/>
		<stop  offset="0.8237" style="stop-color:#092775"/>
		<stop  offset="1" style="stop-color:#073489"/>
	</linearGradient>
	<rect x="2333.1" y="875" class="st18" width="412.5" height="600.8"/>
	<rect x="2351.2" y="922.6" class="st19" width="46.5" height="115.8"/>
	<rect x="2417.3" y="922.6" class="st19" width="46.5" height="115.8"/>
	<rect x="2483.5" y="922.6" class="st19" width="46.5" height="115.8"/>
	<rect x="2549.7" y="922.6" class="st13" width="46.5" height="115.8"/>
	<rect x="2616.2" y="922.3" class="st19" width="46.5" height="115.8"/>
	<rect x="2682.4" y="922.3" class="st19" width="46.5" height="115.8"/>
	<rect x="2351.2" y="1076.4" class="st20" width="46.5" height="115.8"/>
	<rect x="2417.3" y="1076.4" class="st19" width="46.5" height="115.8"/>
	<path class="st19" d="M2397.8,1397.2h-46.5v-92.5c0-12.8,10.4-23.2,23.2-23.2l0,0c12.8,0,23.2,10.4,23.2,23.2V1397.2z"/>
	<path class="st19" d="M2711.8,1397.2h-46.5v-92.5c0-12.8,10.4-23.2,23.2-23.2l0,0c12.8,0,23.2,10.4,23.2,23.2V1397.2z"/>
	<rect x="2616.2" y="1076.1" class="st19" width="46.5" height="115.8"/>
	<rect x="2682.4" y="1076.1" class="st19" width="46.5" height="115.8"/>
	<rect x="2428.2" y="1224" class="st19" width="203.3" height="40.7"/>
	<rect x="2428.2" y="1281.3" class="st13" width="203.3" height="194.2"/>
	<path class="st19" d="M2705.1,1477.1c-27.9-9-61.8-63.9-29.1-107.8c51.8-69.6,142-14.7,142,57.3c0,37.3-27.3,53.3-29.3,54
		S2722.4,1482.7,2705.1,1477.1z"/>
	<rect x="2738.1" y="1374.6" class="st9" width="7.2" height="94.9"/>
	<polygon class="st9" points="2741.7,1401.6 2784.3,1374.6 2741.7,1414 	"/>
	<polygon class="st9" points="2741.7,1436.2 2699.1,1409.2 2741.7,1448.6 	"/>
	<line class="st21" x1="2745.6" y1="874.8" x2="2333.1" y2="874.8"/>
	<g class="st22">
		<defs>
			<rect id="SVGID_12_" x="2428.2" y="1281.3" width="203.3" height="194.2"/>
		</defs>
		<clipPath id="SVGID_13_">
			<use xlink:href="#SVGID_12_"  style="overflow:visible;"/>
		</clipPath>
		<g class="st23">
			<polygon class="st24" points="2368.3,1488.5 2564.3,1142 2680.4,1150.8 2422.5,1622.8 			"/>
			<polygon class="st24" points="2439.8,1654 2726.7,1123.7 2752.5,1129.4 2456,1685.3 			"/>
		</g>
	</g>
	<line class="st25" x1="2526.8" y1="1280.6" x2="2526.8" y2="1481.3"/>
	<g class="st22">
		<path class="st26" d="M2463.8,1076.4c0.4,9.6,0.6,19.3,0.8,28.9c0.2,9.6,0.2,19.3,0.2,28.9c0,9.6-0.1,19.3-0.2,28.9
			c-0.1,9.6-0.4,19.3-0.8,28.9c-0.4-9.6-0.6-19.3-0.8-28.9c-0.2-9.6-0.2-19.3-0.2-28.9c0-9.6,0.1-19.3,0.2-28.9
			C2463.2,1095.7,2463.4,1086.1,2463.8,1076.4z"/>
	</g>
	<path class="st27" d="M2803.6,1476c-13.6-4.4-29.2-37.7-10.3-56.6c25.4-25.5,59.1-4.3,59.1,30.8c0,18.2-20.4,24.5-21.4,24.9
		S2803.6,1476,2803.6,1476z"/>
	<g class="st22">
		<path class="st28" d="M2705.1,1477.1c-3.9-1.4-7.7-3.3-11.3-5.5c-3.6-2.2-7-4.7-10.3-7.4c-3.2-2.8-6.2-5.8-8.9-9.1
			c-2.7-3.3-5.1-6.9-7.1-10.7c-4.1-7.6-6.4-16-7.2-24.6c-0.7-8.6,0.1-17.2,2-25.5c2-8.3,5.1-16.4,9.8-23.7
			c4.7-7.2,10.8-13.5,17.9-18.3c7.1-4.8,15-8.2,23.2-10.4c4.1-1.1,8.2-1.9,12.4-2.3c4.2-0.5,8.4-0.7,12.6-0.4
			c-8.4,0.4-16.6,2-24.4,4.6c-7.9,2.6-15.3,6.3-21.9,11.1c-6.6,4.9-12.2,10.9-16.5,17.8c-2.1,3.5-4,7.1-5.5,10.9
			c-1.5,3.8-2.7,7.7-3.6,11.7c-1.9,8-2.7,16.2-2.1,24.3c0.3,4.1,0.9,8.1,2,12c0.5,2,1.1,3.9,1.9,5.8c0.7,1.9,1.5,3.8,2.4,5.6
			c3.6,7.3,8.6,14,14.5,19.7c3,2.9,6.2,5.5,9.6,7.9c1.7,1.2,3.4,2.4,5.2,3.4C2701.4,1475.2,2703.2,1476.2,2705.1,1477.1z"/>
	</g>
	<g class="st22">
		<path class="st29" d="M2488,1257.7H2454v-27.1h5.6v22.1h8.6v-22.1h5.5v22.1h8.7v-22.1h5.6V1257.7z"/>
		<path class="st29" d="M2499.6,1257.7h-5.6v-27.1h5.6v10.7l10-10.7h6.8L2505,1243l13.5,14.7h-7.1l-11.7-12.5V1257.7z"/>
		<path class="st29" d="M2517.8,1244.1c0-4,1.3-7.3,4-10c2.7-2.7,6-4.1,10.1-4.1c4,0,7.4,1.4,10,4.1c2.7,2.7,4,6.1,4,10
			c0,3.9-1.3,7.2-4,10c-2.7,2.7-6,4.1-10,4.1c-4.1,0-7.4-1.4-10.1-4.1C2519.1,1251.4,2517.8,1248,2517.8,1244.1z M2525.8,1250.5
			c1.6,1.7,3.6,2.5,6,2.5c2.4,0,4.4-0.8,6-2.5c1.6-1.7,2.4-3.8,2.4-6.4s-0.8-4.7-2.4-6.4c-1.6-1.7-3.6-2.5-6-2.5
			c-2.4,0-4.4,0.8-6,2.5c-1.6,1.7-2.4,3.8-2.4,6.4C2523.5,1246.7,2524.2,1248.8,2525.8,1250.5z"/>
		<path class="st29" d="M2547.5,1257.5v-5c0.6,0.2,1.2,0.3,2,0.3c1.4,0,2.4-1,2.9-3c0.5-2,0.8-5.8,0.9-11.2l0.1-8h19.2v27.1h-5.5
			v-22.1h-8.2l-0.2,5.5c-0.2,6.4-0.9,10.8-2.2,13.1c-1.3,2.4-3.5,3.6-6.7,3.6C2548.8,1257.8,2548,1257.7,2547.5,1257.5z"/>
		<path class="st29" d="M2582.1,1257.7h-5.9l11.6-27.3h5.4l11.6,27.3h-5.9l-2.7-6.3h-11.5L2582.1,1257.7z M2590.5,1237.4l-4,9.4h8
			L2590.5,1237.4z"/>
	</g>
	
		<radialGradient id="SVGID_14_" cx="2613.8218" cy="6343.5425" r="119.175" gradientTransform="matrix(1 0 0 0.5889 0 -2436.7532)" gradientUnits="userSpaceOnUse">
		<stop  offset="0" style="stop-color:#F4F6F9;stop-opacity:0.4"/>
		<stop  offset="1" style="stop-color:#00AFE4;stop-opacity:0"/>
	</radialGradient>
	<ellipse class="st30" cx="2613.8" cy="1298.8" rx="119.2" ry="70.2"/>
	<line class="st31" x1="2516" y1="752" x2="2516" y2="642"/>
	<polygon class="st20" points="2517,650 2587,671 2517,697 	"/>
	<circle class="st10" cx="2539" cy="1132" r="45"/>
	<line class="st32" x1="2539" y1="1132" x2="2573" y2="1132"/>
	<line class="st32" x1="2539" y1="1132" x2="2535" y2="1109"/>
	<polygon class="st33" points="2256.7,1477.9 2334,1478 2330.1,877 2256.7,877 	"/>
	<rect x="2272" y="744.8" class="st34" width="86.6" height="128.2"/>
</g>
<g id="_x35_" class="st8">
	<polygon class="st19" points="1938.5,929.6 2333.1,929.6 2333.1,387 1941.5,387 	"/>
	<rect x="1903.2" y="929.7" class="st19" width="406.8" height="544.3"/>
	<rect x="2179.2" y="1149.2" class="st20" width="58.1" height="105.5"/>
	<polygon class="st9" points="1846.8,962.9 1938,963 1935.9,387 1846.8,387 	"/>
	<line class="st35" x1="2108.4" y1="1413.3" x2="2108.4" y2="1212.6"/>
	<polygon class="st10" points="2313.6,932.6 1903.2,929.7 1905,1473 1923,1473 	"/>
	<polygon class="st36" points="2333,387 1937,387.1 1941.1,930 	"/>
	<rect x="1984" y="1045.3" class="st20" width="58.1" height="105.5"/>
	<rect x="2046" y="1288" class="st37" width="132" height="186"/>
	<g class="st22">
		<defs>
			<rect id="SVGID_15_" x="2046" y="1288" width="132" height="186"/>
		</defs>
		<clipPath id="SVGID_16_">
			<use xlink:href="#SVGID_15_"  style="overflow:visible;"/>
		</clipPath>
		<g class="st38">
			<polygon class="st39" points="1971.7,1467.8 2128.3,1249.3 2205.7,1263.6 1998.5,1561.9 			"/>
			<polygon class="st39" points="2026.7,1592.6 2257.6,1257.2 2274.5,1262.9 2035.3,1614.7 			"/>
		</g>
	</g>
	<rect x="2003.5" y="714.5" class="st9" width="65.5" height="108.5"/>
	<rect x="2201.3" y="824.3" class="st9" width="65.7" height="105.5"/>
	<rect x="2003" y="496.8" class="st13" width="66" height="108.2"/>
	<rect x="2201.3" y="605" class="st20" width="64.7" height="108.7"/>
	<line class="st40" x1="2314" y1="932" x2="1904" y2="929.5"/>
	<polygon class="st41" points="1939.5,686 2147.5,387 2222.1,387 1940,790.2 	"/>
	<polygon class="st41" points="1901.5,1231 2109.5,932 2184.1,932 1902,1335.2 	"/>
	<g class="st22">
		<polygon class="st28" points="2192.2,387 2227.4,386.8 2262.6,386.7 2333,386.5 2333.5,386.5 2333.5,387 2333.3,460.7 
			2333.2,497.5 2333,534.3 2332.8,497.5 2332.7,460.7 2332.5,387 2333,387.5 2262.6,387.3 2227.4,387.2 		"/>
	</g>
	<polygon class="st41" points="2333.1,929.6 2195,929.1 2333,761.6 	"/>
	
		<radialGradient id="SVGID_17_" cx="2033.8218" cy="5029.77" r="84.816" gradientTransform="matrix(1 0 0 1.0883 0 -4974.5088)" gradientUnits="userSpaceOnUse">
		<stop  offset="0" style="stop-color:#F4F6F9;stop-opacity:0.4"/>
		<stop  offset="1" style="stop-color:#00AFE4;stop-opacity:0"/>
	</radialGradient>
	<ellipse class="st42" cx="2033.8" cy="499.3" rx="84.8" ry="92.3"/>
	
		<radialGradient id="SVGID_18_" cx="2333.8218" cy="4928.6934" r="29.6833" gradientTransform="matrix(1 0 0 1.0883 0 -4974.5088)" gradientUnits="userSpaceOnUse">
		<stop  offset="0" style="stop-color:#F4F6F9;stop-opacity:0.4"/>
		<stop  offset="1" style="stop-color:#00AFE4;stop-opacity:0"/>
	</radialGradient>
	<ellipse class="st43" cx="2333.8" cy="389.3" rx="29.7" ry="32.3"/>
	<linearGradient id="SVGID_19_" gradientUnits="userSpaceOnUse" x1="2211.25" y1="778.75" x2="2347.75" y2="915.25">
		<stop  offset="0" style="stop-color:#0B155B"/>
		<stop  offset="0.2753" style="stop-color:#0A1961"/>
		<stop  offset="0.6396" style="stop-color:#092472"/>
		<stop  offset="1" style="stop-color:#073489"/>
	</linearGradient>
	<polygon class="st44" points="2333,930 2119,930 2333,657 	"/>
	<g class="st45">
		<line class="st46" x1="1937" y1="387" x2="1937" y2="930"/>
		<line class="st46" x1="2003" y1="387" x2="2003" y2="930"/>
		<line class="st46" x1="2069" y1="387" x2="2069" y2="930"/>
		<line class="st46" x1="2135" y1="387" x2="2135" y2="930"/>
		<line class="st46" x1="2201" y1="387" x2="2201" y2="930"/>
		<line class="st46" x1="2267" y1="387" x2="2267" y2="930"/>
		<line class="st46" x1="2333" y1="387" x2="2333" y2="930"/>
	</g>
	<line class="st47" x1="1937.5" y1="387.5" x2="2332.5" y2="387.5"/>
	<g class="st48">
		<line class="st46" x1="1938" y1="496.5" x2="2333" y2="496.5"/>
		<line class="st46" x1="1938.5" y1="605.5" x2="2333.5" y2="605.5"/>
		<line class="st46" x1="1939" y1="714.5" x2="2334" y2="714.5"/>
		<line class="st46" x1="1939.5" y1="823.5" x2="2334.5" y2="823.5"/>
	</g>
	<g class="st45">
		<line class="st46" x1="1914" y1="931" x2="1914" y2="1474"/>
		<line class="st46" x1="1980" y1="931" x2="1980" y2="1474"/>
		<line class="st46" x1="2046" y1="931" x2="2046" y2="1474"/>
		<line class="st46" x1="2112" y1="931" x2="2112" y2="1287"/>
		<line class="st46" x1="2178" y1="931" x2="2178" y2="1474"/>
		<line class="st46" x1="2244" y1="931" x2="2244" y2="1474"/>
		<line class="st46" x1="2310" y1="931" x2="2310" y2="1474"/>
	</g>
	<g class="st48">
		<line class="st46" x1="1915" y1="1040.5" x2="2310" y2="1040.5"/>
		<line class="st46" x1="1915.5" y1="1149.5" x2="2310.5" y2="1149.5"/>
		<line class="st46" x1="1916" y1="1258.5" x2="2311" y2="1258.5"/>
		<line class="st46" x1="2178" y1="1367.5" x2="2309.5" y2="1367.5"/>
		<line class="st46" x1="1914.5" y1="1367.5" x2="2046" y2="1367.5"/>
	</g>
	<linearGradient id="SVGID_20_" gradientUnits="userSpaceOnUse" x1="2254.0125" y1="1421.8989" x2="2380.0476" y2="1421.8989">
		<stop  offset="0" style="stop-color:#0B155B"/>
		<stop  offset="0.2921" style="stop-color:#0A1B63"/>
		<stop  offset="0.7527" style="stop-color:#082A7A"/>
		<stop  offset="1" style="stop-color:#073489"/>
	</linearGradient>
	<path class="st49" d="M2286.5,1479.5c-23.2-7.5-49.8-64.4-17.6-96.7c43.4-43.6,111.1-3.9,111.1,56c0,31.1-18.6,37.6-20.3,38.2
		S2286.5,1479.5,2286.5,1479.5z"/>
	<rect x="2312.4" y="1395.5" class="st9" width="6" height="79"/>
	<polygon class="st9" points="2315.4,1418 2350.8,1395.5 2315.4,1428.3 	"/>
	<polygon class="st9" points="2315.4,1446.8 2279.9,1424.3 2315.4,1457.1 	"/>
	<polygon class="st9" points="1810,1474.9 1901.2,1475 1899.1,932 1810,932 	"/>
</g>
<g id="_x34_" class="st8">
	<polygon class="st50" points="1901,516 1812,516 1485,766 1485,841 	"/>
	<rect x="1547" y="626" class="st50" width="23" height="855"/>
	<linearGradient id="SVGID_21_" gradientUnits="userSpaceOnUse" x1="1414.049" y1="1377.1401" x2="2087.5154" y2="703.6736">
		<stop  offset="0" style="stop-color:#0B155B"/>
		<stop  offset="0.4588" style="stop-color:#0B165D"/>
		<stop  offset="0.6712" style="stop-color:#0A1B65"/>
		<stop  offset="0.8328" style="stop-color:#092471"/>
		<stop  offset="0.968" style="stop-color:#073083"/>
		<stop  offset="1" style="stop-color:#073489"/>
	</linearGradient>
	<polygon class="st51" points="1901.1,517.3 1667.2,694.1 1667.2,626.8 1574.2,626.8 1574.2,763.7 1512.7,809.8 1512.7,1475.8 
		1905.6,1475.8 	"/>
	<rect x="1558.2" y="1183.4" class="st19" width="62.8" height="97.9"/>
	<rect x="1644.8" y="1183.4" class="st13" width="62.8" height="97.9"/>
	<rect x="1731.5" y="1183.4" class="st19" width="62.8" height="97.9"/>
	<rect x="1818.2" y="1183.4" class="st13" width="62.8" height="97.9"/>
	<rect x="1664.5" y="1338.1" class="st20" width="86.3" height="138.3"/>
	<rect x="1551" y="969" class="st13" width="73.7" height="160.1"/>
	<rect x="1632.4" y="969" class="st13" width="73.7" height="160.1"/>
	<rect x="1713.7" y="969" class="st13" width="73.7" height="160.1"/>
	<rect x="1795.1" y="969" class="st13" width="73.7" height="160.1"/>
	<circle class="st20" cx="1754.1" cy="841" r="64.1"/>
	<rect x="1559.8" y="868.2" class="st13" width="29.8" height="63.1"/>
	<line class="st52" x1="1512.7" y1="838.1" x2="1880.4" y2="557.8"/>
	<g class="st22">
		<defs>
			<rect id="SVGID_22_" x="1551" y="969" width="317.8" height="160.1"/>
		</defs>
		<clipPath id="SVGID_23_">
			<use xlink:href="#SVGID_22_"  style="overflow:visible;"/>
		</clipPath>
		<g class="st53">
			<polygon class="st24" points="1508.2,1208.2 1704.3,861.8 1820.4,870.6 1562.4,1342.6 			"/>
			<polygon class="st24" points="1608.9,1383.2 1895.8,852.9 1921.6,858.7 1625,1414.5 			"/>
		</g>
	</g>
	<rect x="1623.3" y="966.9" class="st9" width="8.9" height="165.2"/>
	<rect x="1705.5" y="966.9" class="st9" width="8.9" height="165.2"/>
	<rect x="1787.5" y="966.9" class="st9" width="8.9" height="165.2"/>
	<path class="st54" d="M1557.6,1475.8v-63.3c26.5-4.3,50-38.3,38.1-116.5c-11.5-75.9-44-190-44-190"/>
	<g class="st22">
		<polygon class="st28" points="1574.2,626.8 1621.7,626.5 1669.2,626.2 1669.8,626.2 1669.8,626.8 1670.1,697.3 1668.7,696.6 
			1784.4,605.9 1842.3,560.6 1900.3,515.5 1901.4,514.6 1901.4,516 1901.1,570.4 1900.7,624.9 1900.4,570.4 1900.1,516 
			1901.1,516.5 1843.4,562 1785.6,607.4 1669.8,698 1668.4,699 1668.4,697.3 1668.7,626.8 1669.2,627.4 1621.7,627.1 		"/>
	</g>
	<linearGradient id="SVGID_24_" gradientUnits="userSpaceOnUse" x1="1504.6307" y1="1290.8604" x2="1598.9139" y2="1290.8604">
		<stop  offset="0" style="stop-color:#0B155B"/>
		<stop  offset="0.2753" style="stop-color:#0A1961"/>
		<stop  offset="0.6396" style="stop-color:#092472"/>
		<stop  offset="1" style="stop-color:#073489"/>
	</linearGradient>
	<path class="st55" d="M1595.7,1296c-11.5-75.9-44-190-44-190s-32.5,114.1-44,190c-11.8,78,11.4,112,37.8,116.5v63.3h12v-63.3
		C1584.2,1408.2,1607.6,1374.2,1595.7,1296z"/>
	
		<rect x="1551" y="1169.1" transform="matrix(-1 -4.506674e-11 4.506674e-11 -1 3109.2383 2576.8916)" class="st9" width="7.2" height="238.7"/>
	<polygon class="st9" points="1554.6,1267.3 1529.5,1227.6 1553.2,1282.2 	"/>
	<path class="st9" d="M1557.7,1366.5c0.3-1,25.3-61.9,25.3-61.9l-25.3,46.9V1366.5z"/>
	<line class="st56" x1="1754.1" y1="905" x2="1754.1" y2="776.9"/>
	<line class="st56" x1="1690" y1="841" x2="1818.2" y2="841"/>
	<rect x="1637.7" y="1090.9" class="st57" width="77.8" height="258.5"/>
	<g class="st22">
		<path class="st58" d="M1656.8,566c29.1-7.6,55.6-25.6,73.4-52.7c18.1-27.5,24.1-59.5,19.3-89.7L1656.8,566z"/>
		
			<ellipse transform="matrix(0.5502 -0.8351 0.8351 0.5502 352.7379 1642.1877)" class="st59" cx="1700.6" cy="493.7" rx="85.5" ry="16.5"/>
		<polygon class="st58" points="1692.2,505.5 1643.4,456 1708.2,481.3 1708,498 		"/>
		
			<ellipse transform="matrix(0.5502 -0.8351 0.8351 0.5502 358.0041 1577.4266)" class="st58" cx="1643.1" cy="456.4" rx="7" ry="7"/>
	</g>
	<g class="st22">
		<polygon class="st58" points="1763.3,583.3 1731.3,518.3 1736.7,515.7 1769,579 		"/>
	</g>
	<g class="st22">
		<polygon class="st58" points="1722,613.5 1715,619 1731,516.5 1737,517.5 		"/>
	</g>
	<circle class="st10" cx="1734" cy="517" r="10"/>
	
		<ellipse transform="matrix(0.7712 -0.6366 0.6366 0.7712 34.2746 1257.4196)" class="st10" cx="1766.2" cy="581" rx="7.5" ry="3.3"/>
	<ellipse transform="matrix(0.7712 -0.6366 0.6366 0.7712 1.0072 1234.87)" class="st10" cx="1718.2" cy="616" rx="7.5" ry="3.3"/>
	<rect x="1485" y="766" class="st50" width="28" height="710"/>
</g>
<g id="_x33_" class="st8">
	<rect x="1007" y="548" class="st60" width="132.2" height="928"/>
	<linearGradient id="SVGID_25_" gradientUnits="userSpaceOnUse" x1="1129" y1="644.9604" x2="1485" y2="644.9604">
		<stop  offset="0" style="stop-color:#0B155B"/>
		<stop  offset="0.3623" style="stop-color:#092573"/>
		<stop  offset="0.7247" style="stop-color:#083083"/>
		<stop  offset="1" style="stop-color:#073489"/>
	</linearGradient>
	<rect x="1129" y="548" class="st61" width="356" height="194"/>
	<linearGradient id="SVGID_26_" gradientUnits="userSpaceOnUse" x1="1095.1953" y1="1108.8604" x2="1512.6691" y2="1108.8604">
		<stop  offset="0" style="stop-color:#0B155B"/>
		<stop  offset="0.4588" style="stop-color:#0B165D"/>
		<stop  offset="0.6712" style="stop-color:#0A1B65"/>
		<stop  offset="0.8328" style="stop-color:#092471"/>
		<stop  offset="0.968" style="stop-color:#073083"/>
		<stop  offset="1" style="stop-color:#073489"/>
	</linearGradient>
	<linearGradient id="SVGID_27_" gradientUnits="userSpaceOnUse" x1="1094.6953" y1="1108.8604" x2="1513.1691" y2="1108.8604">
		<stop  offset="0" style="stop-color:#0B155B"/>
		<stop  offset="0.5256" style="stop-color:#0B165D"/>
		<stop  offset="0.715" style="stop-color:#0A1B64"/>
		<stop  offset="0.8499" style="stop-color:#09236F"/>
		<stop  offset="0.9583" style="stop-color:#082E80"/>
		<stop  offset="1" style="stop-color:#073489"/>
	</linearGradient>
	<rect x="1095.2" y="742" class="st62" width="417.5" height="733.8"/>
	<rect x="1230.9" y="581.8" class="st19" width="72.4" height="160.2"/>
	<rect x="1151" y="581.8" class="st19" width="72.4" height="160.2"/>
	<rect x="1310.7" y="581.8" class="st20" width="72.4" height="160.2"/>
	<rect x="1390.6" y="581.8" class="st19" width="72.4" height="160.2"/>
	<rect x="1113.2" y="1202" class="st19" width="94.8" height="273.8"/>
	<rect x="1208.4" y="1202" class="st19" width="86.3" height="273.8"/>
	<rect x="1303.5" y="1202" class="st19" width="86.3" height="273.8"/>
	<rect x="1390" y="1202" class="st19" width="95" height="273.8"/>
	<rect x="1113.2" y="987.8" class="st19" width="86.3" height="152.2"/>
	<rect x="1208.4" y="987.8" class="st20" width="86.3" height="152.2"/>
	<rect x="1303.5" y="987.8" class="st19" width="86.3" height="152.2"/>
	<rect x="1398.7" y="987.8" class="st19" width="86.3" height="152.2"/>
	<g class="st22">
		<rect x="1113.2" y="766.5" class="st28" width="86.3" height="187.2"/>
		<rect x="1208.4" y="766.5" class="st28" width="86.3" height="187.2"/>
		<rect x="1303.5" y="766.5" class="st28" width="86.3" height="187.2"/>
		<rect x="1398.7" y="766.5" class="st28" width="86.3" height="187.2"/>
	</g>
	<g class="st22">
		<defs>
			<rect id="SVGID_28_" x="1113.2" y="766.5" width="371.8" height="187.2"/>
		</defs>
		<clipPath id="SVGID_29_">
			<use xlink:href="#SVGID_28_"  style="overflow:visible;"/>
		</clipPath>
		<g class="st63">
			<polygon class="st24" points="1086.6,1005.8 1282.6,659.4 1398.7,668.1 1140.8,1140.1 			"/>
			<polygon class="st24" points="1187.3,1180.8 1474.1,650.5 1499.9,656.2 1203.4,1212.1 			"/>
		</g>
	</g>
	<rect x="1199.4" y="763" class="st9" width="8.9" height="195"/>
	<rect x="1294.6" y="763" class="st9" width="8.9" height="195"/>
	<rect x="1390.6" y="763" class="st9" width="8.9" height="195"/>
	<polygon class="st64" points="1151,581.8 1223.4,581.8 1151,654.3 	"/>
	<g class="st22">
		<defs>
			<rect id="SVGID_30_" x="1112.9" y="1202" width="377.7" height="274.4"/>
		</defs>
		<clipPath id="SVGID_31_">
			<use xlink:href="#SVGID_30_"  style="overflow:visible;"/>
		</clipPath>
		<g class="st65">
			<g>
				<polygon class="st66" points="930.2,1453.5 1199.5,977.6 1386.4,991.1 1032.1,1639.5 				"/>
			</g>
			<g>
				<polygon class="st66" points="1317.7,1592.9 1587.1,1116.9 1746.6,1129 1392.2,1777.4 				"/>
			</g>
			<polygon class="st66" points="1146.6,1714.2 1540.6,985.7 1612.2,967.4 1204.9,1730.9 			"/>
		</g>
	</g>
	<g class="st22">
		<path class="st26" d="M1113.2,987.8c0.2,6.3,0.3,12.7,0.5,19l0.3,19c0.2,12.7,0.1,25.4,0.2,38c-0.1,12.7-0.1,25.4-0.2,38l-0.3,19
			c-0.2,6.3-0.3,12.7-0.5,19c-0.2-6.3-0.3-12.7-0.5-19l-0.3-19c-0.2-12.7-0.2-25.4-0.2-38c0.1-12.7,0.1-25.4,0.2-38l0.3-19
			C1112.8,1000.5,1112.9,994.1,1113.2,987.8z"/>
	</g>
	<rect x="1303" y="1328" class="st13" width="11" height="36"/>
	<g class="st22">
		<path class="st67" d="M1148.3,1188.8c-4.9,0-9-1.5-12.2-4.6c-3.2-3.1-4.9-7-4.9-11.8c0-4.8,1.6-8.7,4.8-11.8
			c3.2-3.1,7.3-4.6,12.2-4.6c3.1,0,5.8,0.7,8.3,2v6.5c-2.4-1.6-5.2-2.4-8.3-2.4c-3,0-5.5,1-7.5,2.9c-2,1.9-3,4.4-3,7.4
			c0,3,1,5.5,3.1,7.4c2,1.9,4.6,2.9,7.7,2.9c3.4,0,6.3-0.9,8.6-2.7v6.5C1154.7,1188,1151.7,1188.8,1148.3,1188.8z"/>
		<path class="st67" d="M1167.3,1188.8c-2.2,0-3.7-0.3-4.8-0.9v-5.7c1,0.6,2.2,0.9,3.6,0.9c1.3,0,2.4-0.3,3.1-0.9
			c0.7-0.6,1.6-1.7,2.4-3.5l-11.9-22h7.2l8,15.5l7-15.5h6.9l-11.6,24.7C1174.9,1186.3,1171.6,1188.8,1167.3,1188.8z"/>
		<path class="st67" d="M1199.1,1188.1h-6.5v-31.5h26.4v31.5h-6.4v-25.7h-13.5V1188.1z"/>
		<path class="st67" d="M1249.6,1188.1H1226v-31.5h23.1v5.8h-16.6v6.1h13.4v5.7h-13.4v8.1h17.1V1188.1z"/>
		<path class="st67" d="M1261.2,1188.1h-6.5v-31.5h13.8c3.4,0,6.1,0.9,8,2.7c2,1.7,3,4,3,6.8c0,2.8-1,5.1-3,6.9
			c-1.9,1.8-4.6,2.7-8,2.7h-7.3V1188.1z M1261.2,1162.3v7.8h6.8c1.6,0,2.8-0.3,3.6-1c0.9-0.7,1.3-1.6,1.3-2.9c0-1.3-0.4-2.2-1.3-2.9
			c-0.9-0.7-2.1-1-3.6-1H1261.2z"/>
		<path class="st67" d="M1290.9,1188.1h-6.5v-31.5h6.4l9.1,13l9.1-13h6.4v31.5h-6.4v-21.5l-7.2,10.1h-3.6l-7.4-10.1V1188.1z"/>
		<path class="st67" d="M1326.5,1188.1h-6.8l13.5-31.7h6.2l13.5,31.7h-6.9l-3.1-7.3h-13.3L1326.5,1188.1z M1336.3,1164.5l-4.6,10.9
			h9.2L1336.3,1164.5z"/>
		<path class="st67" d="M1363.6,1188.1h-6.5v-31.5h13.8c3.4,0,6.1,0.9,8,2.7c2,1.7,3,4,3,6.8c0,2.8-1,5.1-3,6.9
			c-1.9,1.8-4.6,2.7-8,2.7h-7.3V1188.1z M1363.6,1162.3v7.8h6.8c1.6,0,2.8-0.3,3.6-1c0.9-0.7,1.3-1.6,1.3-2.9c0-1.3-0.4-2.2-1.3-2.9
			c-0.9-0.7-2.1-1-3.6-1H1363.6z"/>
		<path class="st67" d="M1393.2,1188.1h-6.5v-31.5h6.5v12.4l11.6-12.4h7.9l-13.4,14.4l15.7,17.1h-8.3l-13.5-14.5V1188.1z"/>
		<path class="st67" d="M1442.1,1188.1h-23.6v-31.5h23.1v5.8H1425v6.1h13.4v5.7H1425v8.1h17.1V1188.1z"/>
		<path class="st67" d="M1445.2,1162.4v-5.8h26.4v5.8h-10v25.7h-6.5v-25.7H1445.2z"/>
	</g>
	<path class="st19" d="M1529,1296c-11.5-75.9-44-190-44-190s-32.5,114.1-44,190c-11.8,78,11.4,112,37.8,116.5v63.3h12v-63.3
		C1517.4,1408.2,1540.8,1374.2,1529,1296z"/>
	<g class="st22">
		<path class="st26" d="M1485,1106c-6.8,26.6-13.3,53.2-19.6,80c-6.3,26.7-12.2,53.5-17.3,80.4l-1.8,10.1l-0.9,5.1l-0.8,5.1
			l-1.6,10.1c-0.5,3.4-1,6.8-1.3,10.1c-0.4,3.4-0.7,6.8-1,10.2c-0.2,3.4-0.5,6.8-0.6,10.2c-0.3,6.8-0.2,13.6,0.3,20.4
			c0.5,6.8,1.3,13.5,2.8,20.1c0.7,3.3,1.7,6.5,2.7,9.7c1.1,3.2,2.3,6.3,3.9,9.3c3,6,6.9,11.5,11.8,15.9c4.9,4.4,11,7.5,17.6,8.6
			l1.1,0.2l0,1.1c-0.2,10.6-0.2,21.1-0.4,31.7l-0.6,31.7l-0.3-0.3l12,0.3l-12,0.3l-0.3,0l0-0.3l-0.6-31.7
			c-0.2-10.6-0.3-21.1-0.4-31.7l1.1,1.3c-7-1.1-13.7-4.3-19.1-8.9c-5.4-4.6-9.7-10.4-12.9-16.7c-1.7-3.1-2.9-6.4-4.2-9.7
			c-1.1-3.3-2.2-6.7-2.9-10.1c-1.6-6.8-2.6-13.7-3.1-20.6c-0.5-6.9-0.6-13.9-0.4-20.8c0.1-3.5,0.3-6.9,0.6-10.4
			c0.3-3.4,0.6-6.9,1-10.3c0.4-3.4,0.9-6.8,1.4-10.3l1.7-10.2l0.8-5.1l0.9-5.1l1.9-10.1c5.3-27,11.6-53.7,18.4-80.3
			C1469.6,1158.7,1477,1132.2,1485,1106z"/>
	</g>
	<rect x="1295" y="1403" class="st9" width="7" height="74"/>
	
		<radialGradient id="SVGID_32_" cx="1143.8218" cy="5316.46" r="84.816" gradientTransform="matrix(1 0 0 1.0883 0 -4974.5088)" gradientUnits="userSpaceOnUse">
		<stop  offset="0" style="stop-color:#F4F6F9;stop-opacity:0.4"/>
		<stop  offset="1" style="stop-color:#00AFE4;stop-opacity:0"/>
	</radialGradient>
	<ellipse class="st68" cx="1143.8" cy="811.3" rx="84.8" ry="92.3"/>
</g>
<g id="_x32_" class="st8">
	<rect x="698.2" y="586" class="st19" width="397" height="889.8"/>
	<rect x="745.2" y="1172.8" class="st9" width="303" height="303"/>
	<rect x="414" y="586" class="st69" width="284.2" height="889.8"/>
	<rect x="725.8" y="911.8" class="st9" width="60.6" height="108.6"/>
	<rect x="814.4" y="911.8" class="st13" width="60.6" height="108.6"/>
	<rect x="903" y="911.8" class="st9" width="60.6" height="108.6"/>
	<rect x="991.6" y="911.8" class="st9" width="60.6" height="108.6"/>
	<rect x="722.5" y="1058.5" class="st9" width="352.9" height="76.5"/>
	<polygon class="st20" points="968.9,730 918,730 918,679 860.7,679 860.7,730 809.8,730 809.8,787.2 860.7,787.2 860.7,838.1 
		918,838.1 918,787.2 968.9,787.2 	"/>
	<rect x="1032" y="850" class="st13" width="16.2" height="34.3"/>
	<rect x="722.5" y="630.9" class="st9" width="16.2" height="34.3"/>
	<line class="st70" x1="1092.3" y1="608" x2="726.7" y2="608"/>
	<g class="st22">
		<polygon class="st28" points="413.5,630.9 413.1,585 413.1,584.6 413.5,584.6 456.1,584.2 498.7,584 583.9,583.7 754.3,583.5 
			839.6,583.6 882.2,583.7 924.8,583.9 1010,584.3 1095.2,585 1010,585.7 924.8,586.1 882.2,586.2 839.6,586.3 754.3,586.4 
			583.9,586.2 498.7,585.9 456.1,585.7 413.5,585.4 413.9,585 		"/>
	</g>
	<line class="st25" x1="745.2" y1="1172.8" x2="1047.5" y2="1172.8"/>
	<line class="st25" x1="745.2" y1="1187.2" x2="1047.5" y2="1187.2"/>
	<line class="st25" x1="745.2" y1="1201.6" x2="1047.5" y2="1201.6"/>
	<line class="st25" x1="745.2" y1="1216.1" x2="1047.5" y2="1216.1"/>
	<line class="st25" x1="745.2" y1="1230.5" x2="1047.5" y2="1230.5"/>
	<line class="st25" x1="745.2" y1="1244.9" x2="1047.5" y2="1244.9"/>
	<line class="st25" x1="745.2" y1="1259.3" x2="1047.5" y2="1259.3"/>
	<line class="st25" x1="745.2" y1="1273.8" x2="1047.5" y2="1273.8"/>
	<line class="st25" x1="745.2" y1="1288.2" x2="1047.5" y2="1288.2"/>
	<line class="st25" x1="745.2" y1="1302.6" x2="1047.5" y2="1302.6"/>
	<line class="st25" x1="745.2" y1="1317.1" x2="1047.5" y2="1317.1"/>
	<line class="st25" x1="745.2" y1="1331.5" x2="1047.5" y2="1331.5"/>
	<line class="st25" x1="745.2" y1="1345.9" x2="1047.5" y2="1345.9"/>
	<line class="st25" x1="745.2" y1="1360.3" x2="1047.5" y2="1360.3"/>
	<line class="st25" x1="745.2" y1="1374.8" x2="1047.5" y2="1374.8"/>
	<line class="st25" x1="745.2" y1="1389.2" x2="1047.5" y2="1389.2"/>
	<line class="st25" x1="745.2" y1="1403.6" x2="1047.5" y2="1403.6"/>
	<line class="st25" x1="745.2" y1="1418" x2="1047.5" y2="1418"/>
	<line class="st25" x1="745.2" y1="1432.5" x2="1047.5" y2="1432.5"/>
	<line class="st25" x1="745.2" y1="1446.9" x2="1047.5" y2="1446.9"/>
	<line class="st25" x1="745.2" y1="1461.3" x2="1047.5" y2="1461.3"/>
	<line class="st25" x1="745.2" y1="1475.8" x2="1047.5" y2="1475.8"/>
	<rect x="941" y="1291" class="st20" width="106.5" height="183.4"/>
	<linearGradient id="SVGID_33_" gradientUnits="userSpaceOnUse" x1="690.9283" y1="1290.8604" x2="785.2114" y2="1290.8604">
		<stop  offset="0" style="stop-color:#0B155B"/>
		<stop  offset="0.2753" style="stop-color:#0A1961"/>
		<stop  offset="0.6396" style="stop-color:#092472"/>
		<stop  offset="1" style="stop-color:#073489"/>
	</linearGradient>
	<path class="st71" d="M782,1296c-11.5-75.9-44-190-44-190s-32.5,114.1-44,190c-11.8,78,11.4,112,37.8,116.5v63.3h12v-63.3
		C770.5,1408.2,793.9,1374.2,782,1296z"/>
	<g class="st22">
		<path class="st28" d="M738.1,1106c-6.9,26.6-13.6,53.2-19.9,79.9c-3.2,13.3-6.2,26.7-9.1,40.1c-3,13.4-5.7,26.8-8.3,40.3
			l-1.8,10.1l-0.9,5.1l-0.8,5.1l-1.6,10.1c-0.5,3.4-1,6.8-1.4,10.2c-0.4,3.4-0.7,6.8-1,10.2c-0.2,3.4-0.5,6.8-0.6,10.2
			c-0.3,6.8-0.2,13.6,0.3,20.4c0.5,6.8,1.4,13.5,2.9,20.1c0.7,3.3,1.7,6.6,2.8,9.8c1.2,3.2,2.3,6.3,3.9,9.3c3,6,6.9,11.6,12,16
			c5,4.4,11.2,7.6,17.8,8.7l0.7,0.1l0,0.7l-0.1,15.8l-0.2,15.8l-0.2,15.8l-0.3,15.8l-0.3-15.8l-0.2-15.8l-0.2-15.8l-0.1-15.8
			l0.7,0.8c-6.9-1.1-13.5-4.3-18.9-8.9c-5.4-4.6-9.6-10.3-12.8-16.5c-1.6-3.1-2.9-6.3-4.1-9.6c-1.1-3.3-2.1-6.6-2.9-10
			c-1.6-6.8-2.6-13.6-3.1-20.5c-0.5-6.9-0.6-13.8-0.4-20.7c0.1-3.5,0.3-6.9,0.6-10.3c0.3-3.4,0.6-6.9,1-10.3
			c0.4-3.4,0.9-6.8,1.3-10.3l1.7-10.2l0.8-5.1l0.9-5.1l1.9-10.1c5.3-27,11.4-53.7,18.3-80.3C722.9,1158.7,730.2,1132.2,738.1,1106z"
			/>
	</g>
	<rect x="734.5" y="1169.1" class="st9" width="7.2" height="238.7"/>
	<polygon class="st9" points="738.1,1267.3 763.2,1227.6 739.5,1282.2 	"/>
	<path class="st9" d="M735,1366.5c-0.3-1-25.3-61.9-25.3-61.9l25.3,46.9V1366.5z"/>
	<g class="st22">
		<path class="st28" d="M725.8,1020.4c-0.1-4.5-0.2-9.1-0.3-13.6c-0.1-4.5-0.2-9.1-0.2-13.6c-0.1-9.1-0.3-18.1-0.3-27.2l-0.1-27.2
			l0.1-27.2l0-0.9l0.9,0c5.1,0,10.1,0,15.2,0.1l15.2,0.2c5.1,0.1,10.1,0.1,15.2,0.3c5.1,0.1,10.1,0.2,15.2,0.4
			c-5.1,0.2-10.1,0.3-15.2,0.4c-5.1,0.1-10.1,0.2-15.2,0.3l-15.2,0.2c-5.1,0.1-10.1,0.1-15.2,0.1l0.9-0.9l0.1,27.2l-0.1,27.2
			c0,9.1-0.2,18.1-0.3,27.2c0,4.5-0.1,9.1-0.2,13.6C726,1011.4,725.9,1015.9,725.8,1020.4z"/>
	</g>
	<g class="st22">
		<path class="st26" d="M903,1020.4c5.1-0.2,10.1-0.3,15.2-0.4c5.1-0.1,10.1-0.2,15.2-0.3l15.2-0.2c5.1-0.1,10.1-0.1,15.2-0.1
			l-0.9,0.9l-0.1-27.2l0.1-27.2c0-9.1,0.2-18.1,0.3-27.2c0-4.5,0.1-9.1,0.2-13.6c0.1-4.5,0.2-9.1,0.3-13.6c0.1,4.5,0.2,9.1,0.3,13.6
			c0.1,4.5,0.2,9.1,0.2,13.6c0.1,9.1,0.3,18.1,0.3,27.2l0.1,27.2l-0.1,27.2l0,0.9l-0.9,0c-5.1,0-10.1,0-15.2-0.1l-15.2-0.2
			c-5.1-0.1-10.1-0.1-15.2-0.3C913.1,1020.7,908,1020.6,903,1020.4z"/>
	</g>
	<g class="st22">
		<path class="st26" d="M1052.2,911.8c0.4,9.1,0.6,18.1,0.8,27.2c0.2,9.1,0.2,18.1,0.2,27.2c0,9.1-0.1,18.1-0.2,27.2
			c-0.1,9.1-0.4,18.1-0.8,27.2c-0.4-9.1-0.6-18.1-0.8-27.2c-0.2-9.1-0.2-18.1-0.2-27.2c0-9.1,0.1-18.1,0.2-27.2
			C1051.5,929.9,1051.8,920.8,1052.2,911.8z"/>
	</g>
	<rect x="805.8" y="887.4" class="st57" width="77.8" height="164.7"/>
	<rect x="735" y="1071.1" class="st57" width="332" height="51.8"/>
	<rect x="748.3" y="1084.9" class="st72" width="97.8" height="25.4"/>
	<rect x="858.1" y="1084.9" class="st72" width="136.9" height="25.4"/>
	<rect x="1007" y="1084.9" class="st72" width="47.8" height="25.4"/>
	<rect x="528.1" y="630.9" class="st20" width="28.2" height="34.3"/>
</g>
<g id="_x31_" class="st8">
	<linearGradient id="SVGID_34_" gradientUnits="userSpaceOnUse" x1="111.8465" y1="1344.9209" x2="671.1535" y2="785.6139">
		<stop  offset="0" style="stop-color:#0B155B"/>
		<stop  offset="0.2753" style="stop-color:#0A1961"/>
		<stop  offset="0.6396" style="stop-color:#092472"/>
		<stop  offset="1" style="stop-color:#073489"/>
	</linearGradient>
	<polygon class="st73" points="243.5,538 243.5,1476.6 655.5,1476.6 655.5,770 	"/>
	<rect x="58.9" y="538" class="st74" width="184.6" height="938.6"/>
	<rect x="122.1" y="1206.6" class="st20" width="58.1" height="105.5"/>
	<circle class="st20" cx="542.4" cy="1156.5" r="41.8"/>
	<rect x="300.7" y="1271.8" class="st13" width="43.5" height="99"/>
	<path class="st19" d="M129.3,1478.9c-15.7-5.1-34.8-36.1-16.4-60.8c29.2-39.3,80.1-8.3,80.1,32.3c0,21.1-15.4,30.1-16.5,30.5
		S139.1,1482.1,129.3,1478.9z"/>
	<rect x="399.6" y="1289.8" class="st75" width="142.8" height="186"/>
	<rect x="578.8" y="1356.3" class="st75" width="51.6" height="43.7"/>
	<g class="st22">
		<path class="st28" d="M514.2,689.3c-11.4-6.1-22.7-12.3-34.1-18.5l-34-18.7c-22.6-12.5-45.2-25.1-67.8-37.6l-67.6-38l-33.7-19.2
			c-11.2-6.5-22.4-12.8-33.6-19.3c11.4,6.1,22.7,12.3,34.1,18.5l34,18.7l67.8,37.6c22.5,12.7,45.1,25.3,67.6,38l33.7,19.2
			C491.8,676.4,503,682.8,514.2,689.3z"/>
	</g>
	<g class="st22">
		<path class="st28" d="M243.5,1381.3c-0.3-10.9-0.5-21.8-0.7-32.7l-0.4-32.7c-0.3-21.8-0.3-43.6-0.4-65.3c0-21.8,0.1-43.6,0.3-65.3
			l0.4-32.7c0.2-10.9,0.4-21.8,0.7-32.7c0.3,10.9,0.5,21.8,0.7,32.7l0.4,32.7c0.3,21.8,0.3,43.6,0.3,65.3c0,21.8-0.1,43.6-0.4,65.3
			l-0.4,32.7C244,1359.5,243.8,1370.4,243.5,1381.3z"/>
	</g>
	<linearGradient id="SVGID_35_" gradientUnits="userSpaceOnUse" x1="157.9884" y1="1401.0508" x2="313.3952" y2="1401.0508">
		<stop  offset="0" style="stop-color:#0B155B"/>
		<stop  offset="0.2753" style="stop-color:#0A1961"/>
		<stop  offset="0.6396" style="stop-color:#092472"/>
		<stop  offset="1" style="stop-color:#073489"/>
	</linearGradient>
	<path class="st76" d="M200.5,1473.9c-27.9-9-61.8-71.4-29.1-115.3c51.8-69.6,142-14.7,142,57.3c0,37.3-27.3,53.3-29.3,54
		C282.1,1470.5,217.8,1479.4,200.5,1473.9z"/>
	<rect x="232.1" y="1374.6" class="st9" width="7.2" height="94.9"/>
	<polygon class="st9" points="235.7,1401.6 278.3,1374.6 235.7,1414 	"/>
	<polygon class="st9" points="235.7,1436.2 193.1,1409.2 235.7,1448.6 	"/>
	<g class="st22">
		<defs>
			<polygon id="SVGID_36_" points="243.5,562 163.5,562 163.5,1120 243.5,1120 563.5,966.1 563.5,742 			"/>
		</defs>
		<clipPath id="SVGID_37_">
			<use xlink:href="#SVGID_36_"  style="overflow:visible;"/>
		</clipPath>
		<polygon class="st77" points="243.5,562 163.5,562 163.5,1120 243.5,1120 563.5,966.1 563.5,742 		"/>
		<rect x="536.2" y="634.3" class="st78" width="33" height="33"/>
		<polygon class="st79" points="159.4,962.3 355.5,615.9 471.5,624.6 213.6,1096.6 		"/>
		<polygon class="st79" points="241.7,1163.9 528.5,633.6 554.3,639.4 257.8,1195.2 		"/>
		<polygon class="st79" points="327.4,1241.2 614.3,711 626.3,711.3 329.7,1267.1 		"/>
		<rect x="151.2" y="551.8" class="st79" width="92.3" height="568.2"/>
		<line class="st80" x1="151.2" y1="776" x2="578.5" y2="776"/>
		<line class="st80" x1="151.2" y1="921" x2="578.5" y2="921"/>
		<line class="st80" x1="243.5" y1="551.6" x2="243.5" y2="1133.6"/>
		<line class="st80" x1="348.7" y1="608" x2="348.7" y2="1106"/>
		<line class="st80" x1="455.5" y1="667.3" x2="455.5" y2="1063.9"/>
	</g>
	<g class="st22">
		<path class="st26" d="M534.4,704.3l30.1,16.5l30,16.6l30,16.7c10,5.5,20,11.1,30,16.7l0.4,0.2l0,0.5L655,812l-0.1,40.3
			c0,13.4-0.2,26.9-0.3,40.3c0,6.7-0.1,13.4-0.2,20.2L654,933l-0.3-20.2c-0.1-6.7-0.2-13.4-0.2-20.2c-0.1-13.4-0.3-26.9-0.3-40.3
			L653,812l0.1-40.3l0.4,0.8c-10-5.6-19.9-11.3-29.8-16.9l-29.8-17l-29.8-17.1L534.4,704.3z"/>
	</g>
	<g class="st22">
		<path class="st28" d="M171.4,1354.3c10.8-12,24.5-21.7,39.8-27.3c7.7-2.8,15.9-4.3,24.1-4.2c8.2,0.1,16.4,1.8,24,4.9
			c3.8,1.6,7.4,3.5,10.9,5.6l2.6,1.6c0.9,0.5,1.7,1.1,2.6,1.7c1.7,1.1,3.3,2.4,5,3.6c6.4,5,12.3,10.9,17,17.5
			c9.5,13.2,15.3,29.2,15.6,45.4c-0.5-8.1-2.4-16-5.2-23.5c-2.8-7.5-6.7-14.6-11.6-21c-4.8-6.4-10.5-12.1-16.9-17
			c-1.6-1.2-3.2-2.4-4.9-3.5c-0.8-0.5-1.7-1.1-2.5-1.6l-2.6-1.5c-3.5-2-7-3.9-10.7-5.4c-7.4-3-15.3-4.8-23.3-4.9
			c-8-0.2-15.9,1.3-23.5,3.8c-7.6,2.5-14.8,6.2-21.6,10.6C183.4,1343.5,177.1,1348.5,171.4,1354.3z"/>
	</g>
	<rect x="598.7" y="830.7" class="st20" width="20" height="42.4"/>
	<circle class="st57" cx="604.6" cy="1378.2" r="31.5"/>
	<rect x="459.3" y="1309.5" class="st20" width="14.4" height="153.1"/>
	<circle class="st13" cx="604" cy="1378" r="11"/>
	<line class="st81" x1="542" y1="1113" x2="542" y2="1199"/>
	<line class="st81" x1="585" y1="1156" x2="499" y2="1156"/>
</g>
<g id="Transport" class="st8">
	<path class="st82" d="M1692.5,1582.9c-18.3,0-33.1,14.8-33.1,33.1v0c0,18.3,14.8,33.1,33.1,33.1c18.3,0,33.1-14.8,33.1-33.1
		c0,0,0,0,0,0C1725.6,1597.7,1710.8,1582.9,1692.5,1582.9z"/>
	<path class="st82" d="M1940.8,1582.9c-18.3,0-33.1,14.8-33.1,33.1v0c0,18.3,14.8,33.1,33.1,33.1c18.3,0,33.1-14.8,33.1-33.1
		c0,0,0,0,0,0C1973.9,1597.7,1959.1,1582.9,1940.8,1582.9z"/>
	<g class="st22">
		<path class="st83" d="M1732.9,1616c49.7,0,109.1,0.1,159,0.1c3.9,0,76.9-0.1,80.8-0.1c11.8,0,20-0.1,23.1-0.1
			c6.2-0.1,15-8.5,12.3-21.4c-6.7-33-95.7-147.3-115.1-165.6c-14-13.2-26.4-11.7-37.3-11.7c-9.6,0-129.4-1.8-129.4-1.8
			s-19.1,0-36.3,10.7c-18,11.2-23.2,28.8-23.2,28.8l-34.2,147.6c-1.6,6.9,3.6,13.4,10.6,13.4c2.1,0,4.5,0,7,0"/>
		<path class="st84" d="M2040.7,1583c-18.3,0-33.1,14.8-33.1,33.1v0c0,18.3,14.8,33.1,33.1,33.1s33.1-14.8,33.1-33.1c0,0,0,0,0,0
			C2073.8,1597.8,2059,1583,2040.7,1583z"/>
		<linearGradient id="SVGID_38_" gradientUnits="userSpaceOnUse" x1="1740.5831" y1="1515.7855" x2="2117" y2="1515.7855">
			<stop  offset="0" style="stop-color:#0B155B"/>
			<stop  offset="0.4588" style="stop-color:#0B165D"/>
			<stop  offset="0.6712" style="stop-color:#0A1B65"/>
			<stop  offset="0.8328" style="stop-color:#092471"/>
			<stop  offset="0.968" style="stop-color:#073083"/>
			<stop  offset="1" style="stop-color:#073489"/>
		</linearGradient>
		<path class="st85" d="M2116.5,1594.5c-6.7-33-95.7-147.3-115.1-165.6c-14-13.2-26.4-11.7-37.3-11.7c-9.6,0-129.4-1.8-129.4-1.8
			s-19.1,0-36.3,10.7c-18,11.2-23.2,28.8-23.2,28.8l-34.2,147.6c-1.6,6.9,3.6,13.4,10.6,13.4c2.1,0,4.5,0,7,0c4.3,0,8.1-3,9.1-7.2
			c3.3-14.8,16.5-25.8,32.3-25.8c15.8,0,29,11.1,32.3,25.9c0.9,4.2,4.7,7.2,9,7.2c49.7,0,109.1,0.1,159,0.1c3.9,0,7.2-2.8,8-6.7
			c3.1-15.1,16.4-26.5,32.5-26.5c16,0,29.3,11.3,32.4,26.4c0.8,3.8,4.1,6.7,8,6.7c11.8,0,20-0.1,23.1-0.1
			C2110.4,1615.8,2119.2,1607.5,2116.5,1594.5z"/>
		<path class="st28" d="M1816.8,1525.8v-78.6c0-4.8,3.9-8.7,8.7-8.7h151.7c4,0,7.7,1.9,10.1,5.1l60.6,82.3H1816.8z"/>
	</g>
	<path class="st86" d="M1908.7,1438.8v143.5c0,12,9.7,21.7,21.7,21.7h71.3c0,0,6.3-13.8,15.6-20.8c10.4-7.8,25.1-10.4,25.1-10.4
		v-38.1"/>
	<circle class="st86" cx="1780.8" cy="1565.5" r="11"/>
	<path class="st86" d="M1939.4,1543h-19.1c-2.1,0-3.9-1.7-3.9-3.9v0c0-2.1,1.7-3.9,3.9-3.9h19.1c2.1,0,3.9,1.7,3.9,3.9v0
		C1943.3,1541.3,1941.5,1543,1939.4,1543z"/>
	<path class="st86" d="M1892.7,1543h-19.1c-2.1,0-3.9-1.7-3.9-3.9v0c0-2.1,1.7-3.9,3.9-3.9h19.1c2.1,0,3.9,1.7,3.9,3.9v0
		C1896.5,1541.3,1894.8,1543,1892.7,1543z"/>
	<polygon class="st13" points="1748.2,1526.2 1658.2,1526.2 1675.5,1457 1765.5,1457 	"/>
	<rect x="1715.3" y="1583.3" class="st13" width="19" height="4.3"/>
	<rect x="1644.3" y="1583.3" class="st13" width="19" height="4.3"/>
	<path class="st13" d="M2108.1,1575.5l-10.4-18.2h-29.4c0,0,6.1,16.4,19,18.2C2100.4,1577.2,2107.6,1575.1,2108.1,1575.5z"/>
	<path class="st34" d="M1799.9,1583c-18.2,0-33,14.8-33.1,33c0,0,0,0.1,0,0.1c0,18.3,14.8,33.1,33.1,33.1s33.1-14.8,33.1-33.1
		c0,0,0-0.1,0-0.1C1833,1597.8,1818.2,1583,1799.9,1583z"/>
	<path class="st13" d="M1813.1,1623.1h-24.3c-3.3,0-6-2.7-6-6v0c0-3.3,2.7-6,6-6h24.3c3.3,0,6,2.7,6,6v0
		C1819.1,1620.4,1816.4,1623.1,1813.1,1623.1z"/>
	<path class="st13" d="M2052.7,1623.1h-24.3c-3.3,0-6-2.7-6-6v0c0-3.3,2.7-6,6-6h24.3c3.3,0,6,2.7,6,6v0
		C2058.8,1620.4,2056.1,1623.1,2052.7,1623.1z"/>
	<g class="st22">
		<polygon class="st87" points="1177.8,1375.2 1218.2,1486.2 1236.9,1485.3 1202,1366.9 1185.2,1365.1 		"/>
		<polygon class="st87" points="1156.3,1488.1 1192.4,1382.8 1164.2,1386.3 1141.7,1485.9 		"/>
		<path class="st88" d="M1177.4,1302.1c0,0,0.6,1.2,2.6,1.5c1,0.1,2.6-0.5,2.6-0.5l-0.3,8.3"/>
		<path class="st89" d="M1188.4,1305.1c0,0-12.7,11.4-13.2,14.2s-16.2,83.1-16.2,83.1l28.5-4.3l5.7-28.2l9.3,26.5l12.7-2.6
			L1188.4,1305.1z"/>
		<path class="st89" d="M1193,1341c0,0-8.7-34.5-1.9-32.1c6.8,2.4,13.5,35.8,13.5,39.6c0,3.9,0,5.4-4.9,6
			c-14.4,1.8-38.1-0.7-35.4-1.8l2.4-9.8L1193,1341z"/>
		<polygon class="st87" points="1232.6,1485.4 1234.8,1500.4 1209.1,1501.7 1221,1492.3 1221,1485.7 		"/>
		<polygon class="st87" points="1154.6,1486.2 1151.6,1498.1 1124.7,1500.9 1143.5,1490.4 1144.9,1484.6 		"/>
		<path class="st87" d="M1180.3,1288.1c0,0,7.3,16.9,9.3,17.3c1.9,0.4,6.1-0.8,5.8-8.4c-0.3-7.6-1.4-10.6-1.4-10.6s6.5,0.3,7.3-5.9
			c0.8-6.2-3-12.3-7.6-12.3c-10.6,0-8.4,12-8.4,12s-3.8-1-9,3.3c-7,5.8-5.3,19.4-1.5,20.3c3.7,1,4-1.1,4-1.1s-1.4-3.2-1.1-7.7
			C1178,1290.3,1180.3,1288.1,1180.3,1288.1z"/>
	</g>
	<polygon class="st90" points="645.2,2104.5 666.5,2104.5 662.1,2216.4 652.4,2216.4 	"/>
	<path class="st90" d="M631.4,2103.8c0,0-3.1,1.4-4.2,19.6c-1,16.6,0.3,21.5-0.8,27.8c-1.1,6.8-4.9,16.2-6.4,28.6
		c-1.5,12.4-0.4,36.6-0.4,36.6h8.7l22.9-111.9L631.4,2103.8z"/>
	<path class="st91" d="M717.1,2064.1c0,0,12.7-5,8-9.9c-3.3-3.4-11.7,6-11.7,6L717.1,2064.1z"/>
	<path class="st92" d="M712,2058.8l5.5,5.6c0,0-29.6,28.6-38.3,23.3c-8.7-5.4-21.6-26.4-21.6-26.4l9.3-14.4l19.9,27.1L712,2058.8z"
		/>
	<path class="st92" d="M669.7,2125.4l-4.4-78.5c0,0-7.4-1.7-14.1-1.8c-6.8,0-19.3,2.2-19.3,2.2l-6.7,76L669.7,2125.4z"/>
	<path class="st91" d="M597.6,2109.4c0,0-10.3,9.2-4.6,12.9c4,2.6,9-9.9,9-9.9L597.6,2109.4z"/>
	<path class="st91" d="M647.1,2047h6.2c0.8,0,1.4-0.6,1.4-1.4v-8.4h-8.9v8.4C645.8,2046.4,646.4,2047,647.1,2047z"/>
	<path class="st91" d="M661.9,2029.7c0,0,1.3,10.3-2.6,10.9c-3.9,0.6-13.5,0-13.5,0v-14.1L661.9,2029.7z"/>
	<path class="st90" d="M648.8,2031.7c0.6,0,15,0,15,0s2.1-14.3-14.2-12.6c-10.7,1.1-7.6,17.8-7.6,17.8s5.6,1.6,6.2-0.4
		C648.7,2034.3,648.8,2031.7,648.8,2031.7z"/>
	<polygon class="st90" points="618.5,2216.4 628.3,2216.4 632,2219.9 644,2222.9 645,2227.5 619.3,2227.5 	"/>
	<polygon class="st90" points="652.4,2216.4 662.1,2216.4 665.8,2219.9 677.8,2222.9 678.9,2227.5 653.1,2227.5 	"/>
	<polygon class="st92" points="631.9,2047.1 595.3,2108.6 602.2,2113 634.7,2067.8 	"/>
	<polygon class="st50" points="1023.8,1363.3 1046.5,1363.3 1041.9,1482.6 1031.5,1482.6 	"/>
	<path class="st50" d="M1009.1,1362.5c0,0-3.3,1.5-4.5,20.9c-1.1,17.7,0.3,22.9-0.8,29.7c-1.2,7.2-5.2,17.3-6.9,30.5
		c-1.6,13.2-0.5,39.1-0.5,39.1h9.3l24.5-119.4L1009.1,1362.5z"/>
	<path class="st93" d="M1099.6,1320.1c0,0,13.6-5.3,8.6-10.6c-3.5-3.7-12.5,6.5-12.5,6.5L1099.6,1320.1z"/>
	<path class="st94" d="M1095.1,1314.5l5.9,6c0,0-31.6,30.6-40.9,24.8c-9.3-5.7-23-28.2-23-28.2l9.9-15.4l21.2,28.9L1095.1,1314.5z"
		/>
	<path class="st94" d="M1049.9,1385.5l-4.7-83.8c0,0-7.9-1.9-15.1-1.9c-7.2,0-20.6,2.4-20.6,2.4l-7.2,81.2L1049.9,1385.5z"/>
	<path class="st93" d="M973,1368.5c0,0-11,9.8-4.9,13.8c4.2,2.8,9.6-10.6,9.6-10.6L973,1368.5z"/>
	<path class="st93" d="M1041.6,1283.4l-17.2-3.4v11.5v3.5v4.1c0,2.6,2.1,4.8,4.8,4.8h0c2.6,0,4.8-2.1,4.8-4.8v-3.9
		c1.9,0,3.6-0.1,4.9-0.3C1043.1,1294.4,1041.6,1283.4,1041.6,1283.4z"/>
	<path class="st50" d="M1027.6,1285.6c0.6,0,16,0,16,0s2.3-15.2-15.1-13.4c-11.4,1.2-8.1,19-8.1,19s6,1.7,6.6-0.4
		C1027.6,1288.3,1027.6,1285.6,1027.6,1285.6z"/>
	<polygon class="st50" points="995.4,1482.6 1005.7,1482.6 1009.7,1486.4 1022.5,1489.6 1023.6,1494.5 996.2,1494.5 	"/>
	<polygon class="st50" points="1031.5,1482.6 1041.9,1482.6 1045.8,1486.4 1058.6,1489.6 1059.7,1494.5 1032.3,1494.5 	"/>
	<polygon class="st94" points="1009.6,1302 970.6,1367.7 977.9,1372.3 1012.6,1324.1 	"/>
	<path class="st50" d="M1154.2,1357h-8.5c-1.5,0-2.8-1.2-2.8-2.8v-21.5c0-1.5,1.2-2.8,2.8-2.8h8.5c1.5,0,2.8,1.2,2.8,2.8v21.5
		C1157,1355.8,1155.8,1357,1154.2,1357z"/>
	<path class="st93" d="M1162.5,1343.1c0,0-15.6-2.4-15.6,1.2c0,3.5,12.3,3.9,13.1,4c0.9,0.1,4.6,2.7,4.6,2.7"/>
	<circle class="st95" cx="1150.5" cy="1343.5" r="25"/>
	<circle class="st96" cx="1150.5" cy="1343.5" r="40"/>
	<g class="st22">
		<polygon class="st87" points="2421.9,1400 2456.1,1488.3 2476.1,1488.3 2442.3,1397 2433.8,1397 		"/>
		<path class="st87" d="M2433.8,1397c0,0-12.9,48.5-37.8,58.8c-31.8,13.1-45.3-16.6-45.3-16.6l-14.3,3l16.5-16.9
			c0,0,10.5,20.4,26.2,18.6c25.3-3,29.3-46.9,29.3-46.9H2433.8z"/>
		<polygon class="st87" points="2460.8,1486.5 2462.2,1498 2493.9,1498 2471,1488.3 		"/>
		<path class="st66" d="M2419.2,1336.5h-9.5l-33.1,37.7c-2.7,3.1-0.6,8,3.5,8.1l41.8,1l0.3-12.6l-23.7-0.9l21.2-22.6"/>
		<path class="st66" d="M2406.1,1397h39.1l9.1-52.1c0.8-4.4-2.6-8.4-7.1-8.4H2417L2406.1,1397z"/>
		<polygon class="st66" points="2430.1,1337.6 2431.5,1328.4 2439.6,1328.4 2437.4,1338 		"/>
		<circle class="st58" cx="2436.5" cy="1321.4" r="8.7"/>
		<path class="st87" d="M2431,1318.5c0,0,12,1.5,14.2,0.3s3.9-9.8-4.6-10.1c-7.4-0.3-8.7,2.8-10.9,3.5c-2.1,0.7-13.7-7.3-19.4-2.9
			c-5.7,4.4-3.6,15.7,5.3,15.7S2431,1318.5,2431,1318.5z"/>
		<path class="st97" d="M2417,1379.4c0,0,13.1,2.5,13.7-3.7c0.5-5.1-13.2-2-13.2-2L2417,1379.4z"/>
		<path class="st97" d="M2428.5,1327.3"/>
		<polygon class="st87" points="2423.9,1321.1 2433.2,1316.4 2431.5,1330 		"/>
	</g>
	<path class="st98" d="M888,429.4l-109.1-11.9v26.7l105.8,21.5c0,0,3.8,14.7,11.5,25.8c10.8,15.5,23.6,20.3,23.6,20.3H957v-94.3
		h-69.1L888,429.4z"/>
	<path class="st98" d="M1026.1,429.4l109.1-11.9v26.7l-105.8,21.5c0,0-3.8,14.7-11.5,25.8c-10.8,15.5-23.6,20.3-23.6,20.3H957v-94.3
		h69.1L1026.1,429.4z"/>
	<rect x="723" y="413.9" class="st9" width="55.9" height="30.3"/>
	<path class="st9" d="M768.8,413.9h-35.7v-1.5c0-9.9,8-17.9,17.9-17.9h0c9.9,0,17.9,8,17.9,17.9V413.9z"/>
	<path class="st9" d="M691.2,413.9c12.6,0,24.2-4.6,33.1-12.2h-66.2C667,409.3,678.6,413.9,691.2,413.9z"/>
	<path class="st9" d="M810.7,392c-12.6,0-24.2,4.6-33.1,12.2h66.2C834.9,396.6,823.3,392,810.7,392z"/>
	<rect x="926.6" y="452.1" class="st9" width="60.8" height="37.8"/>
	<path class="st9" d="M750,461.9L750,461.9c-3.8,0-6.9-3.1-6.9-6.9v-10.9h13.7v10.9C756.9,458.9,753.8,461.9,750,461.9z"/>
	<rect x="1135" y="413.9" class="st9" width="55.9" height="30.3"/>
	<path class="st9" d="M1180.8,413.9h-35.7v-1.5c0-9.9,8-17.9,17.9-17.9l0,0c9.9,0,17.9,8,17.9,17.9V413.9z"/>
	<g class="st22">
		<path class="st84" d="M1103.2,392c12.6,0,24.2,4.6,33.1,12.2h-66.2C1079,396.6,1090.6,392,1103.2,392z"/>
		<path class="st84" d="M1222.7,413.9c-12.6,0-24.2-4.6-33.1-12.2h66.2C1246.9,409.3,1235.3,413.9,1222.7,413.9z"/>
	</g>
	<path class="st9" d="M1162,461.9L1162,461.9c-3.8,0-6.9-3.1-6.9-6.9v-10.9h13.7v10.9C1168.9,458.9,1165.8,461.9,1162,461.9z"/>
	<rect x="887.2" y="509.6" class="st9" width="139.6" height="100.5"/>
	<rect x="909" y="548" class="st98" width="93" height="21"/>
	<circle class="st13" cx="956" cy="471" r="9"/>
	<g class="st22">
		<path class="st58" d="M2577.9,479.9l-69.7-7.6v17l67.6,13.8c0,0,2.4,9.4,7.4,16.5c6.9,9.9,15.1,13,15.1,13h23.8v-60.2h-44.1
			L2577.9,479.9z"/>
		<path class="st58" d="M2666.1,479.9l69.7-7.6v17l-67.6,13.8c0,0-2.4,9.4-7.4,16.5c-6.9,9.9-15.1,13-15.1,13H2622v-60.2h44.1
			L2666.1,479.9z"/>
		<rect x="2472.5" y="470" class="st84" width="35.7" height="19.4"/>
		<path class="st84" d="M2501.8,470H2479v-5.7c0-3.7,3-6.7,6.7-6.7h9.5c3.7,0,6.7,3,6.7,6.7V470z"/>
		<path class="st84" d="M2452.2,470c8.1,0,15.5-2.9,21.2-7.8h-42.3C2436.8,467,2444.2,470,2452.2,470z"/>
		<path class="st84" d="M2528.6,456c-8.1,0-15.5,2.9-21.2,7.8h42.3C2544,458.9,2536.6,456,2528.6,456z"/>
		<rect x="2602.6" y="494.4" class="st84" width="38.9" height="24.2"/>
		<path class="st84" d="M2491.6,500.7h-3.6c-1.4,0-2.6-1.1-2.6-2.6v-8.7h8.8v8.7C2494.2,499.5,2493,500.7,2491.6,500.7z"/>
		<rect x="2735.7" y="470" class="st84" width="35.7" height="19.4"/>
		<path class="st84" d="M2765,470h-22.8v-5.7c0-3.7,3-6.7,6.7-6.7h9.5c3.7,0,6.7,3,6.7,6.7V470z"/>
		<g>
			<path class="st84" d="M2715.4,456c8.1,0,15.5,2.9,21.2,7.8h-42.3C2700,458.9,2707.4,456,2715.4,456z"/>
			<path class="st84" d="M2791.7,470c-8.1,0-15.5-2.9-21.2-7.8h42.3C2807.2,467,2799.8,470,2791.7,470z"/>
		</g>
		<path class="st84" d="M2754.8,500.7h-3.6c-1.4,0-2.6-1.1-2.6-2.6v-8.7h8.8v8.7C2757.4,499.5,2756.2,500.7,2754.8,500.7z"/>
		<circle class="st28" cx="2621.4" cy="506.5" r="5.7"/>
	</g>
	
		<linearGradient id="SVGID_39_" gradientUnits="userSpaceOnUse" x1="1876.8103" y1="1631.2987" x2="2368.2415" y2="1631.2987" gradientTransform="matrix(-1 0 0 -1 3920 3260)">
		<stop  offset="0" style="stop-color:#0B155B"/>
		<stop  offset="0.4588" style="stop-color:#0B165D"/>
		<stop  offset="0.6712" style="stop-color:#0A1B65"/>
		<stop  offset="0.8328" style="stop-color:#092471"/>
		<stop  offset="0.968" style="stop-color:#073083"/>
		<stop  offset="1" style="stop-color:#073489"/>
	</linearGradient>
	<polygon class="st99" points="2043.2,1608.4 1551.8,1608.4 1551.8,1649 2043.2,1649 	"/>
	<g class="st22">
		<path class="st26" d="M1772.7,1529c-11.7,0.3-23.4,0.4-35,0.6l-35,0.4c-11.7,0.2-23.4,0.1-35,0.2l-35,0.1l-35-0.1
			c-11.7-0.1-23.4,0-35-0.2l-35-0.4c-11.7-0.2-23.4-0.3-35-0.6c11.7-0.3,23.4-0.4,35-0.6l35-0.4c11.7-0.2,23.4-0.1,35-0.2l35-0.1
			l35,0.1c11.7,0.1,23.4,0,35,0.2l35,0.4C1749.3,1528.6,1761,1528.7,1772.7,1529z"/>
	</g>
</g>
<g id="front" class="st8">
	<line class="st100" x1="2333.5" y1="1475.5" x2="2872.5" y2="1475.5"/>
</g>
</svg>
