<svg clip-rule="evenodd" fill-rule="evenodd" stroke-miterlimit="10" viewBox="0 0 3000 1686" xmlns="http://www.w3.org/2000/svg" xmlns:xlink="http://www.w3.org/1999/xlink"><linearGradient id="a"><stop offset="0" stop-color="#0b155b"/><stop offset="1" stop-color="#073489"/></linearGradient><linearGradient id="b" gradientTransform="matrix(-.707107 .707107 .707107 .707107 .853554 -.353554)" gradientUnits="userSpaceOnUse" x1="0" x2="1" xlink:href="#a" y1="0" y2="0"/><linearGradient id="c" gradientTransform="matrix(1 0 0 -1 0 .024075)" gradientUnits="userSpaceOnUse" x1="0" x2="1" xlink:href="#a" y1="0" y2="0"/><clipPath id="d"><path clip-rule="nonzero" d="m163.5 561.96v558h80l320-153.865v-224.135l-320-180z"/></clipPath><path d="m-.167-.187h1.187v.521h-.893z" fill="url(#b)" fill-rule="nonzero" transform="matrix(0 790.98 790.98 0 391.5 669.777)"/><path d="m58.875 537.96h184.625v938.614h-184.625z" fill="#0a1447" opacity=".92"/><path d="m122.141 373.907h58.093v105.5h-58.093z" fill="#ff0300" transform="matrix(-1 0 0 1 302.375 832.686)"/><path d="m41.815-41.814c-23.094 0-41.815 18.721-41.815 41.814 0 23.094 18.721 41.815 41.815 41.815 23.093 0 41.814-18.721 41.814-41.815 0-23.093-18.721-41.814-41.814-41.814" fill="#ff0300" fill-rule="nonzero" transform="matrix(0 1 1 0 542.355 1114.64)"/><path d="m300.73 315.234h43.498v98.995h-43.498z" fill="#00ace1" transform="matrix(-1 0 0 1 644.958 956.537)"/><path d="m52.801 15.519c-11.051-12.305-47.136-17.078-62.232 9.861-23.932 42.707 25.156 76.499 62.232 59.915 19.224-8.599 21.168-26.36 21.05-27.543-.117-1.183-14.202-34.608-21.05-42.233" fill="#073489" fill-rule="nonzero" transform="matrix(.408322 .912838 .912838 -.408322 93.5795 1437.08)"/><path d="m399.559 210.239h142.796v185.99h-142.796z" fill="#073489" opacity=".65" transform="matrix(1 0 0 -1 0 1686)"/><path d="m578.813 285.979h51.586v43.727h-51.586z" fill="#073489" opacity=".65" transform="matrix(-1 0 0 1 1209.21 1070.32)"/><g fill-rule="nonzero"><path d="m0 151.333c-11.388-6.109-22.713-12.33-34.071-18.492l-33.969-18.673c-22.636-12.468-45.184-25.092-67.781-37.63l-67.554-38.034-33.697-19.16c-11.197-6.45-22.428-12.841-33.595-19.344 11.389 6.107 22.714 12.328 34.073 18.488l33.969 18.674 67.779 37.632c22.515 12.685 45.078 25.282 67.553 38.037l33.698 19.16c11.197 6.449 22.428 12.84 33.595 19.342" fill="#00ace1" transform="translate(514.166 537.961)"/><path d="m0 261.334c-.338-10.889-.484-21.778-.731-32.667l-.417-32.667c-.275-21.777-.313-43.555-.351-65.333.034-21.777.073-43.556.345-65.333l.419-32.667c.249-10.889.395-21.777.735-32.667.34 10.89.486 21.778.735 32.667l.419 32.667c.272 21.777.311 43.556.345 65.333-.038 21.778-.076 43.556-.351 65.333l-.417 32.667c-.247 10.889-.393 21.778-.731 32.667" fill="#00ace1" transform="translate(243.5 1119.96)"/><path d="m.086.298c-.21-.283.008-.685.187-.742.112-.036.525.021.538.025.013.005.189.108.189.348 0 .313-.264.575-.539.575-.132 0-.266-.061-.375-.206z" fill="url(#c)" transform="matrix(155.407 0 0 -155.407 157.988 1404.79)"/></g><path d="m232.08 1374.63h7.225v94.903h-7.225z" fill="#0b155b"/><path d="m0 14.667 42.612-27-42.612 39.333z" fill="#0b155b" fill-rule="nonzero" transform="translate(235.692 1386.96)"/><path d="m0 14.667-42.612-27 42.612 39.333z" fill="#0b155b" fill-rule="nonzero" transform="translate(235.692 1421.57)"/><g clip-path="url(#d)"><path d="m0-558h-80v558h80l320-153.865v-224.135z" fill="#00ace1" fill-rule="nonzero" transform="translate(243.5 1119.96)"/><path d="m536.217 1018.7h32.999v32.999h-32.999z" fill="#ff0300" transform="matrix(-1 0 0 1 1105.43 -384.397)"/><path d="m-13.101 189.662h398.074l49.529-105.371-537.805-7.975z" fill="#1bc4ec" fill-rule="nonzero" transform="matrix(.492474 -.870327 -.870327 -.492474 330.929 1044.32)"/><path d="m-137.48 268.28h602.876l7.245-25.434-629.959-3.659z" fill="#1bc4ec" fill-rule="nonzero" transform="matrix(.475821 -.879542 -.879542 -.475821 543.041 1170.62)"/><path d="m-143.482 263.611h602.876l5.413-10.694-629.959-3.66z" fill="#1bc4ec" fill-rule="nonzero" transform="matrix(.475821 -.879542 -.879542 -.475821 627.553 1240.45)"/><path d="m151.187 566.04h92.313v568.153h-92.313z" fill="#1bc4ec" transform="matrix(-1 0 0 1 394.687 -14.233)"/><g fill="none" stroke="#0b155b" stroke-width="8"><path d="m0 0h427.313" transform="translate(151.187 775.96)"/><path d="m0 0h427.313" transform="translate(151.187 920.96)"/><path d="m-291-291h582" transform="matrix(0 1 1 0 534.5 842.628)"/><path d="m-249-249h498" transform="matrix(0 1 1 0 597.727 856.96)"/><path d="m-198.288-198.288h396.576" transform="matrix(0 1 1 0 653.743 865.589)"/></g></g><path d="m0-228.688 30.066 16.55 30.023 16.626 29.991 16.683c10.003 5.55 19.99 11.127 29.961 16.735l.443.249.002.512.122 40.333-.113 40.333c-.003 13.445-.182 26.889-.292 40.333-.049 6.723-.134 13.445-.247 20.167l-.343 20.167-.343-20.167c-.113-6.722-.199-13.444-.247-20.167-.11-13.444-.29-26.888-.293-40.333l-.112-40.333.122-40.333.445.76c-9.965-5.618-19.913-11.266-29.845-16.942l-29.816-16.994-29.783-17.051z" fill="#ff0300" fill-rule="nonzero" transform="translate(534.387 933)"/><path d="m0-17.227c10.844-11.978 24.47-21.684 39.831-27.276 7.674-2.787 15.866-4.252 24.069-4.188 8.208.054 16.392 1.775 23.981 4.879 3.807 1.551 7.399 3.514 10.924 5.558l2.622 1.578c.866.539 1.701 1.128 2.553 1.69 1.721 1.101 3.329 2.363 4.972 3.573 6.44 5.012 12.276 10.852 17.024 17.498 9.51 13.224 15.302 29.235 15.595 45.443-.458-8.077-2.399-16.004-5.245-23.517-2.833-7.528-6.749-14.627-11.568-21.029-4.845-6.384-10.544-12.101-16.907-16.961-1.622-1.175-3.205-2.401-4.902-3.469-.84-.545-1.662-1.117-2.515-1.639l-2.586-1.531c-3.479-1.983-7.02-3.883-10.721-5.355-7.369-3.024-15.273-4.787-23.251-4.89-7.982-.16-15.939 1.322-23.537 3.828-7.605 2.528-14.825 6.207-21.563 10.605-6.762 4.368-13.097 9.446-18.776 15.203" fill="#00ace1" fill-rule="nonzero" transform="translate(171.395 1371.52)"/><path d="m598.745 812.91h20.003v42.387h-20.003z" fill="#ff0300" transform="matrix(-1 0 0 1 1217.49 17.793)"/><path d="m31.482-31.484c-17.387 0-31.481 14.096-31.481 31.483 0 17.388 14.094 31.483 31.481 31.483 17.388 0 31.483-14.095 31.483-31.483 0-17.387-14.095-31.483-31.483-31.483" fill="#00ace1" fill-rule="nonzero" opacity=".05" transform="matrix(0 1 1 0 604.607 1346.68)"/><path d="m459.266 223.364h14.382v153.118h-14.382z" fill="#ff0300" transform="matrix(-1 0 0 1 932.914 1086.15)"/><path d="m11-11c-6.075 0-11 4.925-11 11s4.925 11 11 11 11-4.925 11-11-4.925-11-11-11" fill="#00ace1" fill-rule="nonzero" transform="matrix(0 1 1 0 604 1367)"/><path d="m-43-43h86" fill="none" stroke="#144ba0" stroke-width="3" transform="matrix(0 1 1 0 585 1156)"/><path d="m-86 0h86" fill="none" stroke="#144ba0" stroke-width="3" transform="matrix(-1 0 0 1 499 1156)"/></svg>