<svg clip-rule="evenodd" fill-rule="evenodd" stroke-miterlimit="10" viewBox="0 0 3000 1686" xmlns="http://www.w3.org/2000/svg" xmlns:xlink="http://www.w3.org/1999/xlink"><linearGradient id="a" gradientTransform="matrix(.707107 -.707107 -.707107 -.707107 .146447 .353554)" gradientUnits="userSpaceOnUse" x1="0" x2="1" y1="0" y2="0"><stop offset="0" stop-color="#0b155b"/><stop offset="1" stop-color="#073489"/></linearGradient><clipPath id="b"><path clip-rule="nonzero" d="m2428.17 1281.29h203.333v194.166h-203.333z"/></clipPath><path d="m2358.63 744.803h362.981v130.197h-362.981z" fill="#0b155b"/><path d="m.212-.419h.576v.839h-.576z" fill="url(#a)" transform="matrix(716.469 0 0 -716.469 2181.13 1175.38)"/><path d="m2351.16 647.591h46.483v115.782h-46.483z" fill="#073489" transform="matrix(-1 0 0 1 4748.81 275.036)"/><path d="m2417.34 647.591h46.483v115.782h-46.483z" fill="#073489" transform="matrix(-1 0 0 1 4881.16 275.036)"/><path d="m2483.52 647.591h46.483v115.782h-46.483z" fill="#073489" transform="matrix(-1 0 0 1 5013.52 275.036)"/><path d="m2549.69 647.591h46.483v115.782h-46.483z" fill="#00ace1" transform="matrix(-1 0 0 1 5145.87 275.036)"/><path d="m2616.17 647.924h46.483v115.782h-46.483z" fill="#073489" transform="matrix(-1 0 0 1 5278.83 274.37)"/><path d="m2682.35 647.924h46.483v115.782h-46.483z" fill="#073489" transform="matrix(-1 0 0 1 5411.18 274.37)"/><path d="m2351.16 493.79h46.483v115.782h-46.483z" fill="#ff0300" transform="matrix(-1 0 0 1 4748.81 582.638)"/><g fill="#073489"><path d="m2417.34 493.79h46.483v115.782h-46.483z" transform="matrix(-1 0 0 1 4881.16 582.638)"/><path d="m0 115.782h-46.483v-92.54c0-12.836 10.406-23.242 23.242-23.242s23.241 10.406 23.241 23.242z" fill-rule="nonzero" transform="translate(2397.82 1281.43)"/><path d="m0 115.782h-46.483v-92.54c0-12.836 10.406-23.242 23.242-23.242s23.241 10.406 23.241 23.242z" fill-rule="nonzero" transform="translate(2711.82 1281.43)"/><path d="m2616.17 494.123h46.483v115.782h-46.483z" transform="matrix(-1 0 0 1 5278.83 581.972)"/><path d="m2682.35 494.123h46.483v115.782h-46.483z" transform="matrix(-1 0 0 1 5411.18 581.972)"/><path d="m2428.17 421.373h203.333v40.667h-203.333z" transform="matrix(-1 0 0 1 5059.67 802.587)"/></g><path d="m2428.17 210.54h203.333v194.166h-203.333z" fill="#00ace1" transform="matrix(-1 0 0 1 5059.67 1070.75)"/><path d="m93.6 27.511c-19.591-21.814-83.558-30.276-110.319 17.481-42.422 75.708 44.594 135.611 110.319 106.212 34.079-15.245 37.523-46.728 37.315-48.826s-25.176-61.349-37.315-74.867" fill="#073489" fill-rule="nonzero" transform="matrix(.408327 .912836 .912836 -.408327 2641.76 1402.93)"/><path d="m2738.11 1374.63h7.225v94.903h-7.225z" fill="#0b155b"/><path d="m0 14.667 42.612-27-42.612 39.333z" fill="#0b155b" fill-rule="nonzero" transform="translate(2741.72 1386.96)"/><path d="m0 14.667-42.612-27 42.612 39.333z" fill="#0b155b" fill-rule="nonzero" transform="translate(2741.72 1421.57)"/><path d="m-412.479 0h412.479" fill="none" stroke="#0058ac" stroke-width=".75" transform="matrix(-1 0 0 1 2333.13 874.8)"/><g clip-path="url(#b)" fill="#1bc4ec" fill-rule="nonzero"><path d="m-13.101 189.662h398.073l49.53-105.371-537.805-7.976z" transform="matrix(.492476 -.870326 -.870326 -.492476 2539.8 1570.49)"/><path d="m-137.48 268.28h602.876l7.245-25.434-629.959-3.659z" transform="matrix(.475821 -.879542 -.879542 -.475821 2741.22 1660.7)"/></g><path d="m-100.336-100.336h200.672" fill="none" stroke="#073489" stroke-width="2" transform="matrix(0 1 1 0 2627.17 1380.95)"/><path d="m0-115.782c.387 9.648.646 19.297.778 28.945.159 9.65.201 19.298.222 28.947-.018 9.648-.061 19.296-.22 28.945-.13 9.648-.39 19.297-.78 28.945-.389-9.648-.649-19.297-.78-28.945-.158-9.649-.201-19.297-.219-28.945.02-9.649.062-19.297.222-28.947.131-9.648.391-19.297.777-28.945" fill="#ff0300" fill-rule="nonzero" transform="translate(2463.82 1192.21)"/><path d="m41.548 13.203c-10.236-9.987-46.995-8.145-54.901 17.36-10.676 34.439 23.858 54.274 54.901 37.851 16.096-8.516 12.15-29.497 11.981-30.511-.169-1.015-11.981-24.7-11.981-24.7" fill="#194e9b" fill-rule="nonzero" transform="matrix(.467628 .883925 .883925 -.467628 2772.47 1445.41)"/><path d="m0 138.093c-3.941-1.425-7.704-3.342-11.316-5.503-3.611-2.17-7.044-4.651-10.278-7.388-3.214-2.758-6.209-5.792-8.919-9.083-2.711-3.29-5.068-6.88-7.094-10.655-4.072-7.553-6.426-16.013-7.21-24.559-.734-8.568.093-17.192 2.011-25.502 1.961-8.31 5.121-16.43 9.807-23.658 4.67-7.22 10.774-13.527 17.869-18.312 7.06-4.848 14.988-8.248 23.151-10.428 4.091-1.065 8.244-1.859 12.425-2.331 4.181-.464 8.392-.674 12.574-.417-8.354.414-16.59 2.029-24.45 4.604-7.859 2.566-15.324 6.253-21.913 11.09-6.565 4.859-12.234 10.876-16.482 17.807-2.13 3.457-3.969 7.095-5.49 10.87-1.501 3.784-2.692 7.696-3.605 11.679-1.863 7.962-2.719 16.181-2.101 24.292.269 4.056.928 8.085 1.97 12.013.511 1.966 1.144 3.901 1.858 5.805.703 1.908 1.489 3.79 2.387 5.62 3.574 7.332 8.583 13.988 14.544 19.695 2.961 2.88 6.179 5.507 9.56 7.921 1.69 1.208 3.43 2.353 5.213 3.43 1.779 1.085 3.595 2.119 5.489 3.01" fill="#00ace1" fill-rule="nonzero" transform="translate(2705.09 1339.04)"/><g fill="none"><path d="m0 27.148h-34.052v-27.148h5.585v22.145h8.649v-22.145h5.546v22.145h8.687v-22.145h5.585z" stroke="#00ace1" stroke-width="1.17" transform="translate(2488.04 1230.54)"/><path d="m0 27.148h-5.585v-27.148h5.585v10.704l10.006-10.704h6.826l-11.519 12.449 13.497 14.699h-7.136l-11.674-12.527z" stroke="#00ace1" stroke-width="1.17" transform="translate(2499.64 1230.54)"/><path d="m0 12.721c1.603 1.681 3.606 2.521 6.012 2.521 2.378 0 4.369-.84 5.972-2.521s2.405-3.801 2.405-6.36c0-2.56-.802-4.68-2.405-6.361-1.603-1.68-3.594-2.521-5.972-2.521-2.406 0-4.409.841-6.012 2.521-1.578 1.656-2.366 3.776-2.366 6.361 0 2.586.788 4.706 2.366 6.36zm-8.067-6.36c0-3.982 1.332-7.317 3.995-10.006 2.662-2.74 6.024-4.112 10.084-4.112 4.033 0 7.381 1.372 10.044 4.112 2.689 2.741 4.034 6.076 4.034 10.006 0 3.904-1.345 7.24-4.034 10.006-2.663 2.741-6.011 4.111-10.044 4.111-4.06 0-7.422-1.37-10.084-4.111-2.663-2.74-3.995-6.076-3.995-10.006z" stroke="#00ace1" stroke-width="1.17" transform="translate(2525.82 1237.76)"/><path d="m0 26.567v-5.042c.568.207 1.228.311 1.978.311 1.448 0 2.43-.996 2.948-2.987.516-2.042.814-5.792.891-11.247l.117-7.951h19.159v27.148h-5.546v-22.145h-8.222l-.155 5.508c-.208 6.386-.932 10.768-2.172 13.147-1.268 2.404-3.504 3.607-6.71 3.607-.982 0-1.745-.117-2.288-.349z" stroke="#00ace1" stroke-width="1.17" transform="translate(2547.46 1230.89)"/><path d="m0-13.341-3.994 9.424h7.95zm-8.416 20.322h-5.856l11.634-27.303h5.353l11.635 27.303h-5.934l-2.676-6.283h-11.48z" stroke="#00ace1" stroke-width="1.17" transform="translate(2590.47 1250.71)"/><path d="m-55 55h110" stroke="#0b155b" stroke-width="4" transform="matrix(0 -1 -1 0 2571 697)"/></g><path d="m0-47.04 70 21.04-70 26z" fill="#ff0300" fill-rule="nonzero" transform="translate(2517 697)"/><path d="m45-45c-24.853 0-45 20.147-45 45s20.147 45 45 45 45-20.147 45-45-20.147-45-45-45" fill="#114493" fill-rule="nonzero" transform="matrix(0 1 1 0 2539 1087)"/><path d="m0 0h34" fill="none" stroke="#0b155b" stroke-width="2" transform="translate(2539 1132)"/><path d="m-13.673 11.5h23.346" fill="none" stroke="#0b155b" stroke-width="2" transform="matrix(-.171341 -.985212 -.985212 .171341 2547.99 1116.56)"/><path d="m.568-.072h77.255l-4.989 600.991-73.402-.139z" fill="#0a1447" fill-rule="nonzero" opacity=".88" transform="matrix(.999998 .00188984 .00188984 -.999998 2256.18 1477.78)"/><path d="m2272 744.803h86.608v128.197h-86.608z" fill="#0a1549"/></svg>