<svg clip-rule="evenodd" fill-rule="evenodd" stroke-miterlimit="10" viewBox="0 0 3000 1686" xmlns="http://www.w3.org/2000/svg" xmlns:xlink="http://www.w3.org/1999/xlink"><linearGradient id="a" gradientTransform="matrix(1 0 0 -1 0 -.000007)" gradientUnits="userSpaceOnUse" x1="0" x2="1" y1="0" y2="0"><stop offset="0" stop-color="#0b155b"/><stop offset="1" stop-color="#073489"/></linearGradient><path d="m698.21 210.239h396.985v889.8h-396.985z" fill="#073489" transform="matrix(-1 0 0 1 1793.4 375.722)"/><path d="m745.21 210.239h302.985v302.985h-302.985z" fill="#0b155b" transform="matrix(-1 0 0 1 1793.4 962.537)"/><path d="m414 210.239h284.21v889.8h-284.21z" fill="#0a1447" opacity=".65" transform="matrix(-1 0 0 1 1112.21 375.722)"/><path d="m725.781 665.597h60.602v108.615h-60.602z" fill="#0b155b" transform="matrix(-1 0 0 1 1512.16 246.191)"/><path d="m814.385 665.597h60.602v108.615h-60.602z" fill="#00ace1" transform="matrix(-1 0 0 1 1689.37 246.191)"/><path d="m902.989 665.597h60.602v108.615h-60.602z" fill="#0b155b" transform="matrix(-1 0 0 1 1866.58 246.191)"/><path d="m991.593 665.597h60.602v108.615h-60.602z" fill="#0b155b" transform="matrix(-1 0 0 1 2043.79 246.191)"/><path d="m722.534 1058.491h352.91v76.496h-352.91z" fill="#0b155b"/><path d="m0-57.25h-50.933v-50.933h-57.25v50.933h-50.932v57.25h50.932v50.933h57.25v-50.933h50.933z" fill="#ff0300" fill-rule="nonzero" transform="translate(968.92 787.21)"/><path d="m1032.03 801.781h16.167v34.258h-16.167z" fill="#00ace1" transform="matrix(-1 0 0 1 2080.22 48.18)"/><path d="m722.534 1020.86h16.167v34.258h-16.167z" fill="#0b155b" transform="matrix(-1 0 0 1 1461.24 -389.972)"/><path d="m-365.622 0h365.622" fill="none" stroke="#ff0300" stroke-width=".75" transform="matrix(-1 0 0 1 726.708 607.96)"/><path d="m0 47.391-.398-45.924-.004-.395.402-.004 42.606-.314 42.606-.206 85.212-.359 170.424-.189 127.818.192 42.605.174 85.212.408 85.212.693-85.212.693-85.212.409-42.605.174-42.606.064-85.212.127-170.424-.189-85.212-.358-42.606-.207-42.606-.314.398-.399z" fill="#00ace1" fill-rule="nonzero" transform="translate(413.5 583.493)"/><g fill="none" stroke="#073489" stroke-width="2"><path d="m0 0h302.305" transform="translate(745.21 1172.78)"/><path d="m0 0h302.305" transform="translate(745.21 1187.2)"/><path d="m0 0h302.305" transform="translate(745.21 1201.63)"/><path d="m0 0h302.305" transform="translate(745.21 1216.06)"/><path d="m0 0h302.305" transform="translate(745.21 1230.49)"/><path d="m0 0h302.305" transform="translate(745.21 1244.91)"/><path d="m0 0h302.305" transform="translate(745.21 1259.34)"/><path d="m0 0h302.305" transform="translate(745.21 1273.77)"/><path d="m0 0h302.305" transform="translate(745.21 1288.2)"/><path d="m0 0h302.305" transform="translate(745.21 1302.63)"/><path d="m0 0h302.305" transform="translate(745.21 1317.05)"/><path d="m0 0h302.305" transform="translate(745.21 1331.48)"/><path d="m0 0h302.305" transform="translate(745.21 1345.91)"/><path d="m0 0h302.305" transform="translate(745.21 1360.34)"/><path d="m0 0h302.305" transform="translate(745.21 1374.77)"/><path d="m0 0h302.305" transform="translate(745.21 1389.19)"/><path d="m0 0h302.305" transform="translate(745.21 1403.62)"/><path d="m0 0h302.305" transform="translate(745.21 1418.05)"/><path d="m0 0h302.305" transform="translate(745.21 1432.48)"/><path d="m0 0h302.305" transform="translate(745.21 1446.9)"/><path d="m0 0h302.305" transform="translate(745.21 1461.33)"/><path d="m0 0h302.305" transform="translate(745.21 1475.76)"/></g><path d="m941 211.614h106.515v183.386h-106.515z" fill="#ff0300" transform="matrix(-1 0 0 1 1988.52 1079.39)"/><path d="m.034-.054c-.126-.827.121-1.188.401-1.236v-.671h.127v.671c.282.045.53.406.404 1.236-.122.805-.466 2.015-.466 2.015s-.344-1.21-.466-2.015z" fill="url(#a)" fill-rule="nonzero" transform="matrix(94.2832 0 0 -94.2832 690.928 1290.86)"/><path d="m0-369.8c-6.943 26.557-13.561 53.188-19.937 79.871-3.154 13.35-6.166 26.731-9.133 40.117-2.999 13.381-5.711 26.821-8.321 40.275l-1.822 10.112-.911 5.057-.816 5.069-1.617 10.141c-.459 3.382-.996 6.756-1.362 10.151-.44 3.386-.723 6.786-1.048 10.183-.236 3.402-.494 6.804-.6 10.211-.257 6.812-.218 13.633.255 20.421.474 6.785 1.382 13.538 2.9 20.146.719 3.314 1.702 6.558 2.759 9.767 1.161 3.17 2.343 6.343 3.889 9.339 2.972 6.039 6.942 11.613 11.967 16.049 5.003 4.445 11.191 7.563 17.798 8.725l.725.127-.007.721-.147 15.83-.218 15.83-.218 15.829-.278 15.829-.277-15.829-.218-15.829-.218-15.83-.147-15.83.717.849c-6.949-1.099-13.534-4.277-18.861-8.854-5.353-4.567-9.585-10.32-12.77-16.522-1.649-3.083-2.947-6.326-4.145-9.595-1.108-3.297-2.134-6.626-2.89-10.013-1.592-6.761-2.554-13.643-3.075-20.54-.519-6.901-.598-13.82-.375-20.72.088-3.453.329-6.895.549-10.339.31-3.435.577-6.875 1.002-10.297.358-3.43.858-6.84 1.334-10.254l1.68-10.177.848-5.086.942-5.069 1.884-10.134c5.313-26.962 11.434-53.746 18.251-80.344 6.763-26.612 14.006-53.099 21.911-79.387" fill="#00ace1" fill-rule="nonzero" transform="translate(738.07 1475.76)"/><path d="m734.458 1169.103h7.225v238.687h-7.225z" fill="#0b155b"/><path d="m0 24.763 25.097-39.667-23.667 54.571z" fill="#0b155b" fill-rule="nonzero" transform="translate(738.07 1242.53)"/><path d="m0 61.906c-.333-1-25.333-61.906-25.333-61.906l25.333 46.906z" fill="#0b155b" fill-rule="nonzero" transform="translate(735 1304.61)"/><path d="m0 109.518c-.142-4.525-.234-9.051-.327-13.577-.098-4.526-.199-9.051-.243-13.576-.094-9.052-.285-18.103-.3-27.155l-.115-27.153.087-27.154.003-.903.895.005c5.05.032 10.1.021 15.15.088l15.151.197c5.05.06 10.1.127 15.151.251 5.049.109 10.1.202 15.15.362-5.05.16-10.101.254-15.15.363-5.051.123-10.101.19-15.151.25l-15.151.197c-5.05.067-10.1.056-15.15.088l.897-.898.088 27.154-.116 27.153c-.014 9.052-.205 18.103-.299 27.155-.044 4.525-.145 9.05-.243 13.576-.093 4.526-.186 9.052-.327 13.577" fill="#00ace1" fill-rule="nonzero" transform="translate(725.781 910.885)"/><path d="m0 107.713c5.05-.159 10.1-.252 15.15-.36 5.051-.122 10.101-.192 15.151-.25l15.151-.197c5.049-.071 10.1-.056 15.15-.089l-.896.896-.092-27.153.117-27.155c.009-9.05.206-18.102.299-27.153.044-4.525.143-9.052.243-13.577.094-4.525.186-9.051.329-13.577.143 4.526.235 9.052.329 13.577.1 4.525.199 9.052.243 13.577.094 9.051.29 18.103.299 27.153l.117 27.155-.091 27.153-.004.902-.893-.006c-5.05-.033-10.101-.018-15.15-.089l-15.151-.197c-5.05-.058-10.1-.127-15.151-.25-5.05-.107-10.1-.201-15.15-.36" fill="#ff0300" fill-rule="nonzero" transform="translate(902.989 912.69)"/><path d="m0-108.615c.387 9.051.646 18.102.777 27.154.16 9.051.202 18.102.223 27.153-.018 9.052-.061 18.103-.22 27.154-.13 9.051-.391 18.103-.78 27.154-.389-9.051-.649-18.103-.78-27.154-.159-9.051-.202-18.102-.219-27.154.02-9.051.062-18.102.222-27.153.131-9.052.391-18.103.777-27.154" fill="#ff0300" fill-rule="nonzero" transform="translate(1052.19 1020.4)"/><path d="m805.799 633.941h77.774v164.675h-77.774z" fill="#00ace1" opacity=".05" transform="matrix(-1 0 0 1 1689.37 253.443)"/><path d="m735 563.087h331.98v51.832h-331.98z" fill="#00ace1" opacity=".05" transform="matrix(1 0 0 -1 0 1686)"/><path d="m748.306 575.635h97.798v25.437h-97.798z" fill="#00afe4" stroke="#0b155b" transform="matrix(-1 0 0 1 1594.41 509.293)"/><path d="m858.115 575.635h136.879v25.437h-136.879z" fill="#00afe4" stroke="#0b155b" transform="matrix(-1 0 0 1 1853.11 509.293)"/><path d="m1007 575.635h47.829v25.437h-47.829z" fill="#00afe4" stroke="#0b155b" transform="matrix(-1 0 0 1 2061.84 509.293)"/><path d="m528.086 1020.86h28.167v34.258h-28.167z" fill="#ff0300" transform="matrix(-1 0 0 1 1084.34 -389.972)"/></svg>