<svg clip-rule="evenodd" fill-rule="evenodd" stroke-miterlimit="10" viewBox="0 0 3000 1686" xmlns="http://www.w3.org/2000/svg" xmlns:xlink="http://www.w3.org/1999/xlink"><linearGradient id="a"><stop offset="0" stop-color="#0b155b"/><stop offset="1" stop-color="#073489"/></linearGradient><linearGradient id="b" gradientTransform="scale(1 -1)" gradientUnits="userSpaceOnUse" x1="0" x2="1" xlink:href="#a" y1="0" y2="0"/><linearGradient id="c" gradientTransform="matrix(1 0 0 -1 0 -.000007)" gradientUnits="userSpaceOnUse" x1="0" x2="1" xlink:href="#a" y1="0" y2="0"/><clipPath id="d"><path clip-rule="nonzero" d="m1551 968.96h317.84v160.054h-317.84z"/></clipPath><path d="m-416-325h89l327 249.96v75.04z" fill="#0a1447" fill-rule="nonzero" transform="matrix(-1 0 0 1 1485 841)"/><path d="m1547 205h23v855.04h-23z" fill="#0a1447" transform="matrix(-1 0 0 1 3117 420.96)"/><path d="m1 .277-.305.042.05.05-.069.069-.102-.101-.08.011-.494-.494.292-.292z" fill="url(#b)" fill-rule="nonzero" transform="matrix(673.466 -673.466 -673.466 -673.466 1414.05 1377.14)"/><path d="m1558.16 404.706h62.844v97.917h-62.844z" fill="#073489" transform="matrix(-1 0 0 1 3179.16 778.671)"/><path d="m1644.82 404.706h62.844v97.917h-62.844z" fill="#00ace1" transform="matrix(-1 0 0 1 3352.49 778.671)"/><path d="m1731.49 404.706h62.843v97.917h-62.843z" fill="#073489" transform="matrix(-1 0 0 1 3525.82 778.671)"/><path d="m1818.16 404.706h62.844v97.917h-62.844z" fill="#00ace1" transform="matrix(-1 0 0 1 3699.16 778.671)"/><path d="m1664.53 209.614h86.271v138.261h-86.271z" fill="#ff0300" transform="matrix(-1 0 0 1 3415.34 1128.51)"/><path d="m1551 556.985h73.745v160.055h-73.745z" fill="#00ace1" transform="matrix(-1 0 0 1 3175.75 411.975)"/><path d="m1632.37 556.985h73.744v160.055h-73.744z" fill="#00ace1" transform="matrix(-1 0 0 1 3338.48 411.975)"/><path d="m1713.73 556.985h73.745v160.055h-73.745z" fill="#00ace1" transform="matrix(-1 0 0 1 3501.21 411.975)"/><path d="m1795.1 556.985h73.745v160.055h-73.745z" fill="#00ace1" transform="matrix(-1 0 0 1 3663.94 411.975)"/><path d="m64.072-64.072c-35.386 0-64.072 28.686-64.072 64.072s28.686 64.072 64.072 64.072 64.072-28.686 64.072-64.072-28.686-64.072-64.072-64.072" fill="#ff0300" fill-rule="nonzero" transform="matrix(0 1 1 0 1754.08 776.888)"/><path d="m1559.81 754.713h29.768v63.077h-29.768z" fill="#00ace1" transform="matrix(-1 0 0 1 3149.39 113.497)"/><path d="m-47.355 140.193h462.394" fill="none" stroke="#00ace1" stroke-width="2" transform="matrix(.795175 -.60638 -.60638 -.795175 1635.33 920.906)"/><g clip-path="url(#d)" fill="#1bc4ec" fill-rule="nonzero"><path d="m-13.101 189.661h398.073l49.53-105.369-537.805-7.978z" transform="matrix(.492477 -.870325 -.870325 -.492477 1679.74 1290.23)"/><path d="m-137.481 268.281h602.877l7.245-25.435-629.96-3.657z" transform="matrix(.475819 -.879543 -.879543 -.475819 1910.28 1389.92)"/></g><path d="m1623.29 553.98h8.915v165.159h-8.915z" fill="#0b155b" transform="matrix(-1 0 0 1 3255.49 412.881)"/><path d="m1705.46 553.98h8.914v165.159h-8.914z" fill="#0b155b" transform="matrix(-1 0 0 1 3419.84 412.881)"/><path d="m1787.48 553.98h8.915v165.159h-8.915z" fill="#0b155b" transform="matrix(-1 0 0 1 3583.87 412.881)"/><path d="m0 369.8v-63.271c26.547-4.267 49.982-38.25 38.119-116.529-11.507-75.925-43.977-190-43.977-190" fill="none" stroke="#00ace1" transform="translate(1557.63 1105.96)"/><path d="m0 39.923 47.536-.325 47.536-.259.582-.004.003.588.263 70.491-1.37-.667 115.68-90.759 57.935-45.259 58.019-45.153 1.042-.811-.006 1.316-.266 54.462-.375 54.462-.375-54.462-.266-54.462 1.036.504-57.735 45.515-57.818 45.407-115.826 90.574-1.377 1.077.007-1.744.262-70.491.585.584-47.536-.259z" fill="#00ace1" fill-rule="nonzero" transform="translate(1574.17 586.88)"/><path d="m.034-.054c-.126-.827.121-1.188.401-1.236v-.671h.127v.671c.282.045.53.406.404 1.236-.122.805-.466 2.015-.466 2.015s-.344-1.21-.466-2.015z" fill="url(#c)" fill-rule="nonzero" transform="matrix(94.2831 0 0 -94.2831 1504.63 1290.86)"/><path d="m1551.01 278.21h7.225v238.687h-7.225z" fill="#0b155b" transform="matrix(-1 0 0 1 3109.24 890.893)"/><path d="m0 24.763-25.097-39.667 23.667 54.571z" fill="#0b155b" fill-rule="nonzero" transform="translate(1554.62 1242.53)"/><path d="m0 61.906c.333-1 25.333-61.906 25.333-61.906l-25.333 46.906z" fill="#0b155b" fill-rule="nonzero" transform="translate(1557.69 1304.61)"/><path d="m-64.072 64.072h128.144" fill="none" stroke="#0b155b" stroke-linecap="round" stroke-width="4" transform="matrix(0 -1 -1 0 1818.16 840.96)"/><path d="m0 0h128.144" fill="none" stroke="#0b155b" stroke-linecap="round" stroke-width="4" transform="translate(1690.01 840.96)"/><path d="m1637.73 336.559h77.774v258.547h-77.774z" fill="#00ace1" opacity=".05" transform="matrix(-1 0 0 1 3353.24 754.335)"/><g fill-rule="nonzero"><path d="m0 142.444c29.097-7.647 55.586-25.64 73.44-52.741 18.137-27.528 24.123-59.535 19.258-89.703z" fill="#114493" transform="translate(1656.81 423.518)"/><path d="m-13.779-7.422c-47.22-.001-85.499 7.385-85.5 16.498 0 9.113 38.28 16.501 85.5 16.502 47.22 0 85.501-7.386 85.501-16.499 0-9.112-38.28-16.5-85.501-16.501" fill="#0a1856" transform="matrix(.550175 -.83505 -.83505 -.550175 1715.77 487.18)"/><path d="m-45.591 30.441h69.529l-63.481-28.362-11.772 11.837z" fill="#114493" transform="matrix(-.701968 -.712208 -.712208 .701968 1681.89 451.685)"/><path d="m5.845-10.852c-3.865 0-7 3.135-7 7.001 0 3.865 3.134 6.999 7 7 3.866 0 7-3.134 7.001-7-.001-3.865-3.134-7-7.001-7.001" fill="#114493" transform="matrix(-.550192 .835038 .835038 .550192 1649.56 453.661)"/><path d="m-49.311 36.963h72.45l-.001-6-71.083-1.016z" fill="#114493" transform="matrix(-.441684 -.897171 -.897171 .441684 1774.69 522.758)"/><path d="m35.601 78.962h8.897l-76.32-70.223-4.063 4.415z" fill="#114493" transform="matrix(-.78274 .622348 .622348 .78274 1700.69 529.5)"/><path d="m10-10c-5.523 0-10 4.478-10 10s4.477 10 10 10 10-4.478 10-10-4.477-10-10-10" fill="#114493" transform="matrix(0 1 1 0 1734 507)"/><path d="m-2.085-.749c-4.12-.001-7.459 1.466-7.459 3.275 0 1.807 3.339 3.274 7.459 3.274 4.12.001 7.459-1.466 7.459-3.275 0-1.807-3.339-3.274-7.459-3.274" fill="#114493" transform="matrix(.771154 -.636649 -.636649 -.771154 1769.42 581.654)"/><path d="m-2.085-.749c-4.12-.001-7.459 1.466-7.459 3.275 0 1.807 3.339 3.274 7.459 3.274 4.12.001 7.459-1.466 7.459-3.275 0-1.807-3.339-3.274-7.459-3.274" fill="#114493" transform="matrix(.771154 -.636649 -.636649 -.771154 1721.42 616.654)"/></g><path d="m1485 766h28v710h-28z" fill="#0a1447"/></svg>