<svg fill="none" height="1686" viewBox="0 0 3000 1686" width="3000" xmlns="http://www.w3.org/2000/svg" xmlns:xlink="http://www.w3.org/1999/xlink"><radialGradient id="a" cx="0" cy="0" gradientTransform="matrix(0 91.5 -84.5 0 2033.5 496.803)" gradientUnits="userSpaceOnUse" r="1"><stop offset="0" stop-color="#fff" stop-opacity=".28"/><stop offset=".630208" stop-color="#fff" stop-opacity=".04"/><stop offset=".838542" stop-color="#fff" stop-opacity="0"/></radialGradient><linearGradient id="b"><stop offset="0" stop-color="#0b155b"/><stop offset="1" stop-color="#073489"/></linearGradient><linearGradient id="c" gradientUnits="userSpaceOnUse" x1="2211.25" x2="2347.75" xlink:href="#b" y1="778.75" y2="915.25"/><linearGradient id="d" gradientUnits="userSpaceOnUse" x1="2254.01" x2="2380.04" xlink:href="#b" y1="1421.9" y2="1421.9"/><ellipse cx="2333.5" cy="389.5" fill="#fff" rx="29.5" ry="31.5"/><path d="m1938.5 929.561h394.63v-542.561h-391.63z" fill="#073489"/><path clip-rule="evenodd" d="m1903.23 929.733h406.77v544.267h-406.77z" fill="#073489" fill-rule="evenodd"/><path clip-rule="evenodd" d="m2237.28 1149.21h-58.09v105.5h58.09z" fill="#ff0300" fill-rule="evenodd"/><path d="m1846.79 962.861 91.21.14-2.09-576-89.12-.001z" fill="#0b155b"/><path d="m2108.42 1413.29v-200.68" stroke="#073489" stroke-miterlimit="10" stroke-width="3"/><path d="m2313.63 932.648-410.4-2.911 1.77 543.263h18z" fill="#114493"/><path d="m2333 387-396 .089 4.11 542.911z" fill="#114493" opacity=".47"/><path clip-rule="evenodd" d="m2042.08 1045.27h-58.09v105.5h58.09z" fill="#ff0300" fill-rule="evenodd"/><path clip-rule="evenodd" d="m2046 1473.95h132v-185.99h-132z" fill="#0b155b" fill-rule="evenodd" opacity=".78"/><path d="m2100.65 1287.96-54.65 76.26v109.73h13.58l118.42-170.53v-15.46z" fill="#152472"/><path d="m2108.37 1473.95h22.65l46.98-69.12v-32.05z" fill="#152472"/><path clip-rule="evenodd" d="m2069 714.46h-65.5v108.54h65.5z" fill="#0b155b" fill-rule="evenodd"/><path clip-rule="evenodd" d="m2267 824.297h-65.67v105.5h65.67z" fill="#0b155b" fill-rule="evenodd"/><path clip-rule="evenodd" d="m2069 496.803h-66v108.197h66z" fill="#00ace1" fill-rule="evenodd"/><path clip-rule="evenodd" d="m2266 605h-64.71v108.71h64.71z" fill="#ff0300" fill-rule="evenodd"/><path d="m2314 932-410-2.5" stroke="#0b155b" stroke-miterlimit="10" stroke-width="1.5"/><path d="m1939.5 686 207.97-299h74.58l-282.05 403.195z" fill="#00ace1" opacity=".09"/><path d="m1901.5 1231 207.97-299.005h74.58l-282.05 403.195z" fill="#00ace1" opacity=".09"/><path d="m2192.19 387 35.2-.238 35.21-.09 70.4-.163.49-.002v.493l-.15 73.662-.09 36.831-.25 36.831-.25-36.831-.08-36.831-.16-73.662.49.491-70.4-.163-35.21-.09z" fill="#00ace1"/><path d="m2333.13 929.56-138.13-.474 138-167.437z" fill="#00ace1" opacity=".09"/><ellipse cx="2033.5" cy="496.803" fill="url(#a)" rx="84.5" ry="91.5"/><path d="m2333.01 929.992h-214.03l214.03-273z" fill="url(#c)" opacity=".42"/><g stroke="#00ace1" stroke-miterlimit="10" stroke-width="1.02"><g opacity=".3"><path d="m1937 387v543" opacity=".3"/><path d="m2003 387v543" opacity=".3"/><path d="m2069 387v543" opacity=".3"/><path d="m2135 387v543" opacity=".3"/><path d="m2201 387v543" opacity=".3"/><path d="m2267 387v543" opacity=".3"/><path d="m2333 387v543" opacity=".3"/></g><path d="m1937.5 387.5h395"/><g opacity=".5"><path d="m1938 496.5h395" opacity=".5"/><path d="m1938.5 605.5h395" opacity=".5"/><path d="m1939 714.5h395" opacity=".5"/><path d="m1939.5 823.5h395" opacity=".5"/></g><g opacity=".3"><path d="m1914 931v543" opacity=".3"/><path d="m1980 931v543" opacity=".3"/><path d="m2046 931v543" opacity=".3"/><path d="m2112 931v356" opacity=".3"/><path d="m2178 931v543" opacity=".3"/><path d="m2244 931v543" opacity=".3"/><path d="m2310 931v543" opacity=".3"/></g><g opacity=".5"><path d="m1915 1040.5h395" opacity=".5"/><path d="m1915.5 1149.5h395" opacity=".5"/><path d="m1916 1258.5h395" opacity=".5"/><path d="m2178 1367.5h131.5" opacity=".5"/><path d="m1914.5 1367.5h131.5" opacity=".5"/></g></g><path d="m2268.88 1382.83c-32.14 32.26-5.54 89.11 17.65 96.67 0 0 71.58-2.02 73.22-2.52 1.64-.51 20.29-7.06 20.29-38.19 0-42.22-33.65-74.49-68.81-74.49-14.62 0-29.49 5.67-42.35 18.53z" fill="url(#d)"/><path clip-rule="evenodd" d="m2312.36 1395.53h6.01v78.99h-6.01z" fill="#0b155b" fill-rule="evenodd"/><path d="m2315.37 1418 35.47-22.48-35.47 32.74z" fill="#0b155b"/><path d="m2315.37 1446.81-35.47-22.48 35.47 32.74z" fill="#0b155b"/><path d="m1810 1474.87 91.21.13-2.09-543.002h-89.12z" fill="#0b155b"/></svg>