<svg fill="none" height="1686" viewBox="0 0 3000 1686" width="3000" xmlns="http://www.w3.org/2000/svg" xmlns:xlink="http://www.w3.org/1999/xlink"><linearGradient id="a"><stop offset="0" stop-color="#0b155b"/><stop offset="1" stop-color="#073489"/></linearGradient><linearGradient id="b" gradientUnits="userSpaceOnUse" x1="1129" x2="1485" xlink:href="#a" y1="644.96" y2="644.96"/><linearGradient id="c" gradientUnits="userSpaceOnUse" x1="1095.2" x2="1512.67" xlink:href="#a" y1="1108.86" y2="1108.86"/><radialGradient id="d" cx="0" cy="0" gradientTransform="matrix(0 91.5 -84.5 0 1143.5 811.5)" gradientUnits="userSpaceOnUse" r="1"><stop offset="0" stop-color="#fff" stop-opacity=".38"/><stop offset=".791667" stop-color="#fff" stop-opacity=".1"/><stop offset="1" stop-color="#fff" stop-opacity="0"/></radialGradient><g clip-rule="evenodd" fill-rule="evenodd"><path d="m1007 1476h132.21v-928.04h-132.21z" fill="#08123a" opacity=".65"/><path d="m1485 548.128h-356v194.02h356z" fill="url(#b)"/><path d="m1512.67 741.9h-417.47v733.92h417.47z" fill="url(#c)"/><path d="m1303.26 581.808h-72.39v160.152h72.39z" fill="#073489"/><path d="m1223.39 581.808h-72.39v160.152h72.39z" fill="#073489"/><path d="m1383.13 581.808h-72.39v160.152h72.39z" fill="#ff0300"/><path d="m1462.99 581.808h-72.39v160.152h72.39z" fill="#073489"/><path d="m1208 1202h-94.83v273.76h94.83z" fill="#073489"/><path d="m1294.62 1202h-86.27v273.76h86.27z" fill="#073489"/><path d="m1389.82 1202h-86.27v273.76h86.27z" fill="#073489"/><path d="m1485 1202h-95v273.76h95z" fill="#073489"/><path d="m1199.44 987.794h-86.27v152.166h86.27z" fill="#073489"/><path d="m1294.62 987.794h-86.27v152.166h86.27z" fill="#ff0300"/><path d="m1389.82 987.794h-86.27v152.166h86.27z" fill="#073489"/><path d="m1485 987.794h-86.27v152.166h86.27z" fill="#073489"/><path d="m1199.44 766.545h-86.27v187.241h86.27z" fill="#00ace1"/><path d="m1294.62 766.545h-86.27v187.241h86.27z" fill="#00ace1"/><path d="m1389.82 766.545h-86.27v187.241h86.27z" fill="#00ace1"/><path d="m1485 766.545h-86.27v187.241h86.27z" fill="#00ace1"/></g><path d="m1221.98 766.544-105.95 187.241h126.62l102.31-187.241z" fill="#1bc4ec"/><path d="m1411.35 766.545-101.3 187.241h31.15l99.89-187.241z" fill="#1bc4ec"/><path clip-rule="evenodd" d="m1208.36 762.96h-8.91v195h8.91z" fill="#0b155b" fill-rule="evenodd"/><path clip-rule="evenodd" d="m1303.54 762.96h-8.92v195h8.92z" fill="#0b155b" fill-rule="evenodd"/><path clip-rule="evenodd" d="m1399.52 762.96h-8.92v195h8.92z" fill="#0b155b" fill-rule="evenodd"/><path d="m1151.01 581.808h72.39l-72.39 72.465z" fill="#144ba0" opacity=".59"/><path d="m1112.87 1202v274.39h8.39l149.94-274.39z" fill="#144ba0"/><path d="m1383.64 1476.4h106.91v-188.94z" fill="#144ba0"/><path d="m1423.63 1202-148.44 274.4h65.45l146.39-274.4z" fill="#144ba0"/><path d="m1113.17 987.794c.22 6.34.32 12.676.49 19.016l.28 19.02c.16 12.69.14 25.37.23 38.05-.08 12.68-.07 25.36-.23 38.04l-.28 19.02c-.17 6.34-.26 12.68-.49 19.02-.23-6.34-.32-12.68-.49-19.02l-.28-19.02c-.16-12.68-.15-25.36-.23-38.04.08-12.68.07-25.36.23-38.05l.28-19.02c.17-6.34.26-12.676.49-19.016z" fill="#ff0300"/><path clip-rule="evenodd" d="m1314 1328h-11v36h11z" fill="#00ace1" fill-rule="evenodd"/><path clip-rule="evenodd" d="m1148.32 1188.75c-4.89 0-8.95-1.53-12.19-4.59-3.24-3.11-4.86-7.05-4.86-11.78 0-4.8 1.6-8.73 4.81-11.79 3.24-3.06 7.32-4.59 12.24-4.59 3.06 0 5.83.66 8.32 1.98v6.52c-2.43-1.62-5.19-2.43-8.27-2.43-2.97 0-5.48.98-7.52 2.93-1.98 1.92-2.97 4.38-2.97 7.38s1.02 5.47 3.06 7.42c2.01 1.92 4.58 2.88 7.7 2.88 3.44 0 6.32-.92 8.63-2.75v6.53c-2.55 1.53-5.53 2.29-8.95 2.29z" fill-rule="evenodd" stroke="#00ace1" stroke-miterlimit="10" stroke-width="1.41"/><path clip-rule="evenodd" d="m1167.31 1188.75c-2.16 0-3.75-.3-4.77-.9v-5.71c1.02.57 2.23.85 3.64.85 1.32 0 2.37-.3 3.15-.9.75-.57 1.56-1.72 2.43-3.46l-11.92-22h7.15l7.97 15.48 6.97-15.48h6.88l-11.6 24.65c-2.34 4.98-5.64 7.47-9.9 7.47z" fill-rule="evenodd" stroke="#00ace1" stroke-miterlimit="10" stroke-width="1.41"/><path clip-rule="evenodd" d="m1199.11 1188.12h-6.48v-31.49h26.36v31.49h-6.43v-25.69h-13.45z" fill-rule="evenodd" stroke="#00ace1" stroke-miterlimit="10" stroke-width="1.41"/><path clip-rule="evenodd" d="m1249.59 1188.12h-23.62v-31.49h23.12v5.8h-16.64v6.08h13.41v5.71h-13.41v8.1h17.14z" fill-rule="evenodd" stroke="#00ace1" stroke-miterlimit="10" stroke-width="1.41"/><path clip-rule="evenodd" d="m1261.24 1162.3v7.82h6.84c1.56 0 2.77-.33 3.64-1.01.87-.67 1.31-1.64 1.31-2.9s-.44-2.23-1.31-2.9c-.87-.68-2.08-1.01-3.64-1.01zm0 25.82h-6.48v-31.49h13.77c3.39 0 6.06.88 8.01 2.65 1.97 1.74 2.96 4.02 2.96 6.84 0 2.85-.99 5.14-2.96 6.88-1.95 1.77-4.62 2.66-8.01 2.66h-7.29z" fill-rule="evenodd" stroke="#00ace1" stroke-miterlimit="10" stroke-width="1.41"/><path clip-rule="evenodd" d="m1290.89 1188.12h-6.48v-31.49h6.44l9.13 13.05 9.13-13.05h6.39v31.49h-6.39v-21.55l-7.24 10.12h-3.6l-7.38-10.12z" fill-rule="evenodd" stroke="#00ace1" stroke-miterlimit="10" stroke-width="1.41"/><path clip-rule="evenodd" d="m1336.28 1164.54-4.63 10.94h9.22zm-9.76 23.58h-6.8l13.5-31.67h6.21l13.5 31.67h-6.89l-3.1-7.29h-13.32z" fill-rule="evenodd" stroke="#00ace1" stroke-miterlimit="10" stroke-width="1.41"/><path clip-rule="evenodd" d="m1363.59 1162.3v7.82h6.84c1.56 0 2.77-.33 3.64-1.01.87-.67 1.31-1.64 1.31-2.9s-.44-2.23-1.31-2.9c-.87-.68-2.08-1.01-3.64-1.01zm0 25.82h-6.48v-31.49h13.77c3.39 0 6.06.88 8.01 2.65 1.97 1.74 2.96 4.02 2.96 6.84 0 2.85-.99 5.14-2.96 6.88-1.95 1.77-4.62 2.66-8.01 2.66h-7.29z" fill-rule="evenodd" stroke="#00ace1" stroke-miterlimit="10" stroke-width="1.41"/><path clip-rule="evenodd" d="m1393.24 1188.12h-6.48v-31.49h6.48v12.42l11.61-12.42h7.91l-13.36 14.44 15.66 17.05h-8.28l-13.54-14.53z" fill-rule="evenodd" stroke="#00ace1" stroke-miterlimit="10" stroke-width="1.41"/><path clip-rule="evenodd" d="m1442.14 1188.12h-23.62v-31.49h23.13v5.8h-16.65v6.08h13.41v5.71h-13.41v8.1h17.14z" fill-rule="evenodd" stroke="#00ace1" stroke-miterlimit="10" stroke-width="1.41"/><path clip-rule="evenodd" d="m1445.2 1162.44v-5.81h26.41v5.81h-9.99v25.68h-6.48v-25.68z" fill-rule="evenodd" stroke="#00ace1" stroke-miterlimit="10" stroke-width="1.41"/><path d="m1528.98 1295.96c-11.51-75.93-43.98-190-43.98-190s-32.47 114.07-43.97 190c-11.83 78 11.4 112.02 37.83 116.48v63.32h12v-63.27c26.55-4.27 49.98-38.25 38.12-116.53" fill="#073489"/><path d="m1485 1105.96c-6.81 26.59-13.32 53.25-19.58 79.95-6.25 26.71-12.16 53.5-17.3 80.41l-1.83 10.1-.92 5.05-.82 5.07-1.62 10.13c-.46 3.38-.96 6.75-1.33 10.14-.44 3.38-.72 6.77-1.04 10.16-.23 3.4-.49 6.79-.59 10.19-.25 6.8-.2 13.6.27 20.36s1.35 13.5 2.84 20.08c.71 3.3 1.68 6.52 2.72 9.72 1.14 3.16 2.33 6.31 3.87 9.28 2.96 5.99 6.88 11.51 11.85 15.9 4.94 4.41 11.04 7.46 17.56 8.65l1.1.2-.02 1.09c-.15 10.55-.23 21.11-.44 31.66l-.57 31.66-.29-.29 12 .29-12 .28-.28.01-.01-.29-.57-31.66c-.21-10.55-.29-21.11-.44-31.66l1.08 1.28c-7.04-1.07-13.71-4.31-19.1-8.92-5.41-4.62-9.69-10.42-12.89-16.67-1.66-3.11-2.94-6.37-4.16-9.65-1.13-3.32-2.17-6.66-2.94-10.06-1.61-6.79-2.61-13.69-3.13-20.62-.52-6.92-.59-13.86-.36-20.78.09-3.46.34-6.91.56-10.36.32-3.44.59-6.89 1.01-10.31.36-3.44.9-6.85 1.37-10.27l1.67-10.19.85-5.09.93-5.07 1.88-10.14c5.32-26.98 11.6-53.73 18.4-80.33 6.89-26.59 14.23-53.05 22.27-79.3" fill="#ff0300"/><path clip-rule="evenodd" d="m1302 1403h-7v74h7z" fill="#0b155b" fill-rule="evenodd"/><ellipse cx="1143.5" cy="811.5" fill="url(#d)" rx="84.5" ry="91.5"/></svg>