<svg xmlns="http://www.w3.org/2000/svg" xmlns:xlink="http://www.w3.org/1999/xlink" version="1.1" style="display: none;">
    <defs>
        <!-- viewBox = "0 0 17 9" -->
        <g id="arrow-left">
            <path
                d="M16.2273 3.74999H2.63827L5.18275 1.28029C5.48453 0.987439 5.48453 0.512538 5.18275 0.219638C4.88103 -0.0732126 4.39174 -0.0732126 4.08996 0.219638L0.226331 3.96964C-0.0754438 4.26249 -0.0754438 4.73739 0.226331 5.03029L4.08996 8.7803C4.2409 8.92675 4.43862 9 4.63638 9C4.83415 9 5.03192 8.92675 5.18275 8.7803C5.48453 8.48745 5.48453 8.01255 5.18275 7.71965L2.63827 5.24999H16.2273C16.654 5.24999 17 4.91419 17 4.49999C17 4.08579 16.654 3.74999 16.2273 3.74999Z" />
        </g>
        <!-- viewBox = "0 0 17 9" -->
        <g id="arrow-right">
            <path
                d="M0.772726 3.74999H14.3617L11.8172 1.28029C11.5155 0.987439 11.5155 0.512538 11.8172 0.219638C12.119 -0.0732126 12.6083 -0.0732126 12.91 0.219638L16.7737 3.96964C17.0754 4.26249 17.0754 4.73739 16.7737 5.03029L12.91 8.7803C12.7591 8.92675 12.5614 9 12.3636 9C12.1659 9 11.9681 8.92675 11.8172 8.7803C11.5155 8.48745 11.5155 8.01255 11.8172 7.71965L14.3617 5.24999H0.772726C0.345976 5.24999 0 4.91419 0 4.49999C0 4.08579 0.345976 3.74999 0.772726 3.74999Z" />
        </g>
        <!-- viewBox = "0 0 33 60" -->
        <g id="city">
            <path
                d="M31.808 18.432H30.784V32.768H31.808C32.3382 32.768 32.768 32.3383 32.768 31.808V19.392C32.768 18.8618 32.3382 18.432 31.808 18.432Z" />
            <path d="M15.4213 26.432H17.3465V32.768H15.4213V26.432Z" />
            <path
                d="M20.8 2.496H17.344V0.96C17.344 0.42975 16.9142 0 16.384 0C15.8537 0 15.424 0.42975 15.424 0.96V2.496H11.968C11.4377 2.496 11.008 2.92575 11.008 3.456V31.808C11.008 32.3383 11.4377 32.768 11.968 32.768H13.5012V25.472C13.5012 24.942 13.9312 24.512 14.4612 24.512H18.3065C18.8367 24.512 19.2665 24.942 19.2665 25.472V32.768H20.8C21.3302 32.768 21.76 32.3383 21.76 31.808V3.456C21.76 2.92575 21.3302 2.496 20.8 2.496ZM14.9145 7.744H15.3625V7.296C15.3625 6.76575 15.7925 6.336 16.3225 6.336C16.8527 6.336 17.2825 6.76575 17.2825 7.296V7.744H17.7305C18.2607 7.744 18.6905 8.17375 18.6905 8.704C18.6905 9.23425 18.2607 9.664 17.7305 9.664H17.2825V10.112C17.2825 10.6423 16.8527 11.072 16.3225 11.072C15.7925 11.072 15.3625 10.6423 15.3625 10.112V9.664H14.9145C14.3845 9.664 13.9545 9.23425 13.9545 8.704C13.9545 8.17375 14.3845 7.744 14.9145 7.744ZM18.3065 22.592H14.4455C13.9152 22.592 13.4855 22.1622 13.4855 21.632C13.4855 21.1017 13.9152 20.672 14.4455 20.672H18.3065C18.8367 20.672 19.2665 21.1017 19.2665 21.632C19.2665 22.1622 18.8367 22.592 18.3065 22.592ZM18.3065 18.752H14.4455C13.9152 18.752 13.4855 18.3222 13.4855 17.792C13.4855 17.262 13.9152 16.832 14.4455 16.832H18.3065C18.8367 16.832 19.2665 17.262 19.2665 17.792C19.2665 18.3222 18.8367 18.752 18.3065 18.752ZM18.3065 14.912H14.4455C13.9152 14.912 13.4855 14.4822 13.4855 13.952C13.4855 13.4217 13.9152 12.992 14.4455 12.992H18.3065C18.8367 12.992 19.2665 13.4217 19.2665 13.952C19.2665 14.4822 18.8367 14.912 18.3065 14.912Z" />
            <path
                d="M3.90399 10.56V13.44H5.58699C6.11724 13.44 6.54699 13.8698 6.54699 14.4C6.54699 14.9303 6.11724 15.36 5.58699 15.36H3.90399V17.28H5.58699C6.11724 17.28 6.54699 17.7098 6.54699 18.24C6.54699 18.7703 6.11724 19.2 5.58699 19.2H3.90399V21.12H5.58699C6.11724 21.12 6.54699 21.5498 6.54699 22.08C6.54699 22.6103 6.11724 23.04 5.58699 23.04H3.90399V24.96H5.58699C6.11724 24.96 6.54699 25.3898 6.54699 25.92C6.54699 26.4503 6.11724 26.88 5.58699 26.88H3.90399V31.808C3.90399 32.3383 4.33374 32.768 4.86399 32.768H9.08799V9.60001H4.86399C4.33374 9.60001 3.90399 10.0298 3.90399 10.56Z" />
            <path
                d="M0 19.392V31.808C0 32.3383 0.42975 32.768 0.96 32.768H1.984V18.432H0.96C0.42975 18.432 0 18.8618 0 19.392Z" />
            <path
                d="M27.904 9.60001H23.6745V32.768H27.904C28.4342 32.768 28.864 32.3383 28.864 31.808V26.88H27.1765C26.6463 26.88 26.2165 26.4503 26.2165 25.92C26.2165 25.3898 26.6463 24.96 27.1765 24.96H28.864V23.04H27.1765C26.6463 23.04 26.2165 22.6103 26.2165 22.08C26.2165 21.5498 26.6463 21.12 27.1765 21.12H28.864V19.2H27.1765C26.6463 19.2 26.2165 18.7703 26.2165 18.24C26.2165 17.7098 26.6463 17.28 27.1765 17.28H28.864V15.36H27.1765C26.6463 15.36 26.2165 14.9303 26.2165 14.4C26.2165 13.8698 26.6463 13.44 27.1765 13.44H28.864V10.56C28.864 10.0298 28.4342 9.60001 27.904 9.60001Z" />
            <path
                d="M12.7479 52.8006C12.9571 52.9892 12.9571 53.2949 12.7478 53.4836C12.6433 53.5779 12.5062 53.625 12.3691 53.625C12.232 53.625 12.0948 53.5779 11.9902 53.4835L6.63312 48.6539C6.53262 48.5633 6.47619 48.4405 6.47619 48.3124C6.47619 48.1843 6.53262 48.0614 6.63312 47.9709L11.9903 43.1415C12.1995 42.9528 12.5387 42.9528 12.7479 43.1415C12.9571 43.3301 12.9571 43.6359 12.7478 43.8245L8.423 47.722L20.1211 47.7222C23.3627 47.7222 26 50.4761 26 53.8611C26 57.2461 23.3627 60 20.1211 60H6.58594C6.26234 60 6 59.7261 6 59.3882C6 59.0503 6.26234 58.7763 6.58594 58.7763H20.1211C22.7166 58.7763 24.8281 56.5714 24.8281 53.8611C24.8281 51.1509 22.7166 48.9459 20.1211 48.9459L8.471 48.945L12.7479 52.8006Z" />
        </g>
        <!-- viewBox = "0 0 12 21" -->
        <g id="fb">
            <path fill-rule="evenodd" clip-rule="evenodd"
                d="M10.2694 11.4292H8.75586C8.23694 11.4292 7.7154 11.411 7.18862 11.3786V20.3711H3.52736V18.9902C3.52736 17.7988 3.51557 16.6152 3.48805 15.4394C3.46315 14.2649 3.44874 13.08 3.44874 11.8886V11.3786H0.814835C0.778143 11.3786 0.721796 11.3487 0.643172 11.289C0.564548 11.2293 0.523926 11.1839 0.523926 11.1476V7.80056H2.99927C3.17618 7.80056 3.30853 7.7759 3.39632 7.72529C3.48412 7.67208 3.52605 7.55528 3.52605 7.3671C3.52605 6.8908 3.51426 6.41841 3.48674 5.9486C3.46184 5.4762 3.47364 5.00251 3.52605 4.5327C3.63351 3.40621 4.06725 2.53149 4.83252 1.90076C5.59517 1.26873 6.5557 0.937796 7.7154 0.904053C8.20811 0.904053 8.70737 0.915733 9.21581 0.941689C9.72818 0.967645 10.2274 0.981921 10.7188 0.981921C10.8237 0.981921 10.8984 1.00139 10.9416 1.04551C10.9862 1.08704 11.0071 1.15842 11.0071 1.26225V3.66447C11.0071 3.7657 10.9862 3.83708 10.9429 3.88121C10.8984 3.92144 10.8237 3.9422 10.7188 3.9422H8.9C8.30377 3.9422 7.87003 4.07977 7.59747 4.35231C7.3249 4.62485 7.18862 5.05052 7.18862 5.62934V7.67338C7.18862 7.70842 7.20172 7.74086 7.22924 7.7759C7.25414 7.81094 7.26855 7.84339 7.26855 7.87843H10.7188C10.6297 8.45725 10.5511 9.05034 10.4803 9.65512L10.272 11.4292" />
        </g>
        <!-- viewBox = "0 0 13 22" -->
        <g id="ok">
            <path fill-rule="evenodd" clip-rule="evenodd"
                d="M8.87426 6.10704C8.87426 4.87796 7.86448 3.87821 6.6238 3.87821C5.38344 3.87821 4.37333 4.87796 4.37333 6.10704C4.37333 7.33482 5.38344 8.3349 6.6238 8.3349C7.86448 8.3349 8.87426 7.33482 8.87426 6.10704ZM12.0591 6.10704C12.0591 9.07472 9.62128 11.4884 6.6238 11.4884C3.62632 11.4884 1.18821 9.07472 1.18821 6.10704C1.18821 3.13806 3.62632 0.723389 6.6238 0.723389C9.62128 0.723389 12.0591 3.13806 12.0591 6.10704ZM11.9787 14.5846C10.9969 15.1962 9.92886 15.6297 8.82249 15.8793L11.8609 18.8889C12.484 19.5041 12.484 20.5029 11.8609 21.119C11.2395 21.7348 10.2313 21.7348 9.61048 21.119L6.62308 18.1616L3.63796 21.119C3.32739 21.4266 2.91957 21.5806 2.51143 21.5806C2.10427 21.5806 1.69743 21.4266 1.3862 21.119C0.764067 20.5029 0.764067 19.5047 1.38555 18.8889L4.42368 15.8793C3.31763 15.6297 2.25029 15.1956 1.26815 14.5846C0.524061 14.1204 0.300315 13.1474 0.768946 12.4102C1.23693 11.672 2.21939 11.45 2.96445 11.9145C5.18955 13.3001 8.05629 13.3007 10.2824 11.9145C11.0271 11.45 12.0099 11.672 12.4782 12.4102C12.9468 13.1468 12.7228 14.1204 11.9787 14.5846Z" />
        </g>
        <!-- viewBox = "0 0 19 15" -->
        <g id="tw">
            <path fill-rule="evenodd" clip-rule="evenodd"
                d="M6.45625 14.691C13.344 14.691 17.1107 9.03948 17.1107 4.13894C17.1107 3.97835 17.1074 3.81848 17.1 3.65948C17.8311 3.13606 18.4666 2.48292 18.9681 1.73925C18.2971 2.0344 17.575 2.23339 16.8176 2.32312C17.5907 1.86405 18.1843 1.13752 18.4642 0.271581C17.7405 0.696379 16.9395 1.00541 16.0865 1.17172C15.4032 0.4509 14.43 0 13.3531 0C11.2849 0 9.60785 1.66094 9.60785 3.70843C9.60785 3.99953 9.64078 4.28247 9.70503 4.55405C6.59292 4.3991 3.83314 2.92319 1.98648 0.679243C1.66458 1.22718 1.47929 1.86405 1.47929 2.54329C1.47929 3.82998 2.14045 4.96583 3.1457 5.63032C2.53148 5.6116 1.95435 5.44443 1.44965 5.16634C1.44885 5.18188 1.44885 5.19736 1.44885 5.21362C1.44885 7.00999 2.73977 8.50948 4.45312 8.84953C4.13861 8.93427 3.80766 8.97997 3.46598 8.97997C3.22469 8.97997 2.99004 8.95633 2.76204 8.91309C3.23871 10.3865 4.62104 11.4588 6.26029 11.489C4.97834 12.4838 3.36385 13.0765 1.60939 13.0765C1.30721 13.0765 1.00919 13.0594 0.716064 13.0251C2.37342 14.077 4.34113 14.691 6.45625 14.691Z" />
        </g>
        <!-- viewBox = "0 0 22 13" -->
        <g id="vk">
            <path fill-rule="evenodd" clip-rule="evenodd"
                d="M17.8069 6.1684C17.8069 6.1684 20.5817 2.29177 20.8575 1.01775C20.9493 0.562778 20.7472 0.307852 20.2694 0.307852H17.862C17.3107 0.307852 17.1085 0.544536 16.9432 0.890365C16.9432 0.890365 15.6415 3.63691 14.058 5.36767C13.5495 5.92727 13.291 6.09566 13.0104 6.09566C12.7841 6.09566 12.6797 5.90872 12.6797 5.404V0.981344C12.6797 0.362577 12.6062 0.180542 12.0916 0.180542H8.23248C7.93839 0.180542 7.75467 0.349854 7.75467 0.580943C7.75467 1.16369 8.65511 1.29521 8.65511 2.87421V6.13199C8.65511 6.78724 8.61835 7.04201 8.30592 7.04201C7.479 7.04201 5.51266 4.22104 4.41008 1.01775C4.18951 0.362577 3.95061 0.180542 3.32583 0.180542H0.918445C0.569336 0.180542 0.312012 0.417073 0.312012 0.762902C0.312012 1.39991 1.06541 4.34835 4.02421 8.29786C6.00889 10.9551 8.61835 12.3929 10.9706 12.3929C12.404 12.3929 12.7532 12.1564 12.7532 11.5557V9.51723C12.7532 9.00761 12.9554 8.78924 13.2493 8.78924C13.5801 8.78924 14.1639 8.89448 15.5281 10.2271C17.1452 11.7559 17.2556 12.3929 18.1377 12.3929H20.8391C21.1147 12.3929 21.372 12.2655 21.372 11.8105C21.372 11.2098 20.5817 10.1362 19.3689 8.86206C18.8727 8.20688 18.0641 7.49706 17.8069 7.16947C17.4393 6.78724 17.5496 6.5688 17.8069 6.1684Z" />
        </g>
        <!-- viewBox = "0 0 66 66" -->
        <g id="tass">
            <path fill-rule="evenodd" clip-rule="evenodd" d="M0 66H66V0H0V66Z" fill="#FFFFFE" />
            <path fill-rule="evenodd" clip-rule="evenodd" d="M4 41H20L17.8128 44.7237H13.6137V57H9.60789V44.7237H4V41Z"
                fill="#1D205B" />
            <path fill-rule="evenodd" clip-rule="evenodd"
                d="M38.7591 44.7237C38.3068 44.7237 37.9838 45.0006 37.9838 45.4678V52.5537C37.9838 53.0219 38.3068 53.2768 38.7591 53.2768H47.0091V57H38.7591C35.8732 57 34 55.2773 34 52.5537V45.4678C34 42.7662 35.8732 41 38.7591 41H48L45.8236 44.7237H38.7591Z"
                fill="#1D205B" />
            <path fill-rule="evenodd" clip-rule="evenodd"
                d="M29.0696 53.3923H23.3911C22.5804 53.3923 21.9891 52.7993 21.9891 51.9866C21.9891 51.1525 22.5804 50.559 23.3911 50.559H29.0696V53.3923ZM28.3253 41H20.9751L18.8283 44.7237H28.3253C28.793 44.7237 29.0696 45.0006 29.0696 45.4683V47.1704H22.9078C20.0823 47.1704 18 49.2556 18 52.085C18 54.9153 20.0823 57 22.9078 57H33V45.4683C33 42.7662 31.1508 41 28.3253 41Z"
                fill="#1D205B" />
            <path fill-rule="evenodd" clip-rule="evenodd"
                d="M52.759 44.7237C52.3072 44.7237 51.9832 45.0006 51.9832 45.4678V52.5537C51.9832 53.0219 52.3072 53.2768 52.759 53.2768H61.0082V57H52.759C49.8727 57 48 55.2773 48 52.5537V45.4678C48 42.7662 49.8727 41 52.759 41H62L59.8236 44.7237H52.759Z"
                fill="#1D205B" />
        </g>
        <!-- viewBox = "0 0 125 32" -->
        <g id="mts">
            <path fill-rule="evenodd" clip-rule="evenodd"
                d="M11.8317 0.247559C9.36209 0.247559 6.43374 2.48366 4.01878 6.24304C1.50157 10.1364 0 14.9559 0 19.1414C0 25.2689 3.65217 31.4482 11.8317 31.4482C20.0035 31.4482 23.663 25.2689 23.663 19.1414C23.663 14.9559 22.1621 10.1364 19.6574 6.24304C17.2209 2.48366 14.2939 0.247559 11.8317 0.247559Z"
                fill="#FEFEFE" />
            <path fill-rule="evenodd" clip-rule="evenodd"
                d="M71 9.83016H78.8142V31H87.1858V9.83016H95V2H71.0003L71 9.83016Z" fill="#FEFEFE" />
            <path fill-rule="evenodd" clip-rule="evenodd"
                d="M112.963 9.83016H125V2H112.964C101.904 2 96 7.82905 96 16.5002C96 25.1709 101.904 31 112.964 31H125V23.1702H112.963C107.846 23.1702 104.48 21.2308 104.48 16.5002C104.48 11.7695 107.846 9.83016 112.963 9.83016Z"
                fill="#FEFEFE" />
            <path fill-rule="evenodd" clip-rule="evenodd"
                d="M55.6338 2L50.998 19.3098L46.3621 2H31V31H39.6957V7.41165L46.013 31H55.9832L62.3043 7.39664V31H71V2H55.6338Z"
                fill="#FEFEFE" />
        </g>
        <!-- viewBox = "0 0 20 17" -->
        <g id="arrow">
            <path
                d="m6.74788211 9.80056533c.20917901.18860963.20917901.49438387-.00003571.68299357-.10457165.0943048-.24167908.1414411-.3787865.1414411-.13710743 0-.27421486-.0471363-.37882222-.1414733l-5.3571183-4.82966878c-.10050022-.09056997-.1569289-.21340127-.1569289-.34148067s.05642868-.2509429.1569289-.34151287l5.35715401-4.82941118c.20917901-.18860963.548394-.18860963.75760872.0000322.20917901.18860963.20917901.49438391-.00003571.68299354l-4.3248464 3.89752106 11.6980938.00022222c3.2416406 0 5.8789062 2.75385765 5.8789062 6.13888888 0 3.3849906-2.6372656 6.1388889-5.8789062 6.1388889h-13.5351563c-.32359375 0-.5859375-.2739484-.5859375-.6118466 0-.3378981.26234375-.6118465.5859375-.6118465h13.5351563c2.5954687 0 4.7070312-2.2049458 4.7070312-4.9151958 0-2.71025002-2.1115625-4.91519576-4.7070312-4.91519576l-11.6500938-.00091534z" />
        </g>
        <!-- viewBox = "0 0 36 37" -->
        <g id="rotate">
            <path fill-rule="evenodd" clip-rule="evenodd"
                d="M29.2258 14.7279V13.7742H36V30.2258H29.2258V29.214C27.8531 29.8121 26.3676 30.1508 24.871 30.2118V34.5806C24.871 35.9147 23.7856 37 22.4516 37H9.87097C8.53694 37 7.45161 35.9147 7.45161 34.5806V31.1248C6.61887 30.9085 6 30.1576 6 29.2581C6 28.6769 6.26226 28.1616 6.66871 27.8065C6.26226 27.4513 6 26.936 6 26.3548C6 25.7737 6.26226 25.2584 6.66871 24.9032C6.26226 24.5481 6 24.0327 6 23.4516C6 22.8705 6.26226 22.3552 6.66871 22C6.26226 21.6448 6 21.1295 6 20.5484C6 19.6489 6.61887 18.8979 7.45161 18.6816V9.41935C7.45161 8.08532 8.53694 7 9.87097 7H22.4516C23.7856 7 24.871 8.08532 24.871 9.41935V13.4752L25.3432 13.7113C26.5476 14.3137 27.8802 14.6602 29.2258 14.7279ZM9.87097 7.96774C9.07065 7.96774 8.41935 8.61903 8.41935 9.41935V9.90323H23.9032V9.41935C23.9032 8.61903 23.2519 7.96774 22.4516 7.96774H9.87097ZM7.93548 19.5806H10.8387C11.3724 19.5806 11.8065 20.0147 11.8065 20.5484C11.8065 21.0821 11.3724 21.5161 10.8387 21.5161H7.93548C7.40177 21.5161 6.96774 21.0821 6.96774 20.5484C6.96774 20.0147 7.40177 19.5806 7.93548 19.5806ZM10.8387 22.4839H7.93548C7.40177 22.4839 6.96774 22.9179 6.96774 23.4516C6.96774 23.9853 7.40177 24.4194 7.93548 24.4194H10.8387C11.3724 24.4194 11.8065 23.9853 11.8065 23.4516C11.8065 22.9179 11.3724 22.4839 10.8387 22.4839ZM7.93548 25.3871H10.8387C11.3724 25.3871 11.8065 25.8211 11.8065 26.3548C11.8065 26.8885 11.3724 27.3226 10.8387 27.3226H7.93548C7.40177 27.3226 6.96774 26.8885 6.96774 26.3548C6.96774 25.8211 7.40177 25.3871 7.93548 25.3871ZM6.96774 29.2581C6.96774 29.7918 7.40177 30.2258 7.93548 30.2258H10.8387C11.3724 30.2258 11.8065 29.7918 11.8065 29.2581C11.8065 28.7244 11.3724 28.2903 10.8387 28.2903H7.93548C7.40177 28.2903 6.96774 28.7244 6.96774 29.2581ZM23.9032 34.5806C23.9032 35.381 23.2519 36.0323 22.4516 36.0323H9.87097C9.07065 36.0323 8.41935 35.381 8.41935 34.5806V33.129H23.9032V34.5806ZM8.41935 32.1613H23.9032V19.4427L22.1284 17.8295C20.9685 16.7742 19.4656 16.1935 17.8974 16.1935H15.9194C14.7189 16.1935 13.7419 15.2166 13.7419 14.0161C13.7419 12.8156 14.7189 11.8387 15.9194 11.8387H19.0645C20.7223 11.8387 22.3815 12.2306 23.864 12.9719L23.9032 12.9913V10.871H8.41935V18.6129H10.8387C11.9061 18.6129 12.7742 19.481 12.7742 20.5484C12.7742 21.1295 12.5119 21.6448 12.1055 22C12.5119 22.3552 12.7742 22.8705 12.7742 23.4516C12.7742 24.0327 12.5119 24.5481 12.1055 24.9032C12.5119 25.2584 12.7742 25.7737 12.7742 26.3548C12.7742 26.936 12.5119 27.4513 12.1055 27.8065C12.5119 28.1616 12.7742 28.6769 12.7742 29.2581C12.7742 30.3255 11.9061 31.1935 10.8387 31.1935H8.41935V32.1613ZM29.2258 28.1471C27.869 28.8023 26.3768 29.1773 24.871 29.244V20.3229L25.5131 20.9069L26.1644 20.1908L22.7797 17.1129C21.4403 15.896 19.7066 15.2258 17.8974 15.2258H15.9194C15.2521 15.2258 14.7097 14.6834 14.7097 14.0161C14.7097 13.3489 15.2521 12.8065 15.9194 12.8065H19.0645C20.5727 12.8065 22.0824 13.1626 23.431 13.8376L24.9102 14.5765C26.2481 15.2456 27.7306 15.6269 29.2258 15.6952V28.1471ZM30.1935 29.2581H35.0323V14.7419H30.1935V29.2581Z"
                fill="white" />
            <rect x="14" y="34" width="5" height="1" fill="white" />
            <rect x="22" y="31" width="1" height="1" fill="white" />
            <rect x="22" y="21" width="1" height="9" fill="white" />
            <path fill-rule="evenodd" clip-rule="evenodd"
                d="M34 26.5C34 27.327 33.327 28 32.5 28C31.673 28 31 27.327 31 26.5C31 25.673 31.673 25 32.5 25C33.327 25 34 25.673 34 26.5ZM33 26.5C33 26.224 32.776 26 32.5 26C32.224 26 32 26.224 32 26.5C32 26.776 32.224 27 32.5 27C32.776 27 33 26.776 33 26.5Z"
                fill="white" />
            <path
                d="M2.85938 8.18569C3.07512 8.10716 3.19119 7.88127 3.11846 7.68146C2.39345 5.6895 3.54594 3.43477 5.68751 2.6553C6.61594 2.31738 7.59841 2.30003 8.48715 2.5894L8.11175 2.72604C7.89601 2.80456 7.77994 3.03045 7.85267 3.23026C7.92539 3.43008 8.15951 3.52851 8.37525 3.44999L9.65816 2.98305C9.66168 2.98177 9.66447 2.97973 9.6678 2.97852C9.68252 2.97275 9.69651 2.96561 9.71064 2.95821C9.72106 2.95278 9.73167 2.94789 9.74156 2.94163C9.75347 2.93422 9.76459 2.92525 9.77585 2.91664C9.78619 2.90858 9.79692 2.90098 9.80654 2.89215C9.81564 2.88371 9.8237 2.87422 9.83208 2.86502C9.84202 2.85403 9.85183 2.84328 9.86059 2.83148C9.8628 2.82843 9.86573 2.82613 9.86787 2.82289C9.8728 2.81577 9.87577 2.80813 9.88018 2.80078C9.88751 2.78869 9.89483 2.77659 9.90079 2.76377C9.90642 2.75188 9.91075 2.74006 9.91501 2.72805C9.91927 2.71605 9.92334 2.70411 9.92662 2.69185C9.92977 2.67923 9.93181 2.6666 9.93366 2.65404C9.93557 2.64166 9.93703 2.62924 9.93757 2.61674C9.93798 2.60389 9.93741 2.59139 9.93652 2.57859C9.93563 2.56641 9.93493 2.55417 9.93273 2.54205C9.9304 2.52835 9.9267 2.51514 9.92294 2.50176C9.92082 2.49412 9.91994 2.48624 9.91718 2.47864L9.48293 1.28556C9.41021 1.08575 9.17609 0.987315 8.96035 1.06584C8.74461 1.14436 8.62854 1.37025 8.70127 1.57007L8.80601 1.85784C7.73389 1.50424 6.54629 1.52287 5.42402 1.93135C2.85136 2.86772 1.46653 5.57492 2.3368 7.96596C2.40952 8.16577 2.64364 8.26421 2.85938 8.18569Z"
                fill="white" />
        </g>
        <!-- viewBox = "0 0 8 4" -->
        <g id="expand">
            <path
                d="M7.31156 0.107851L4.00038 3.11461L0.689204 0.107489C0.531338 -0.0358295 0.275967 -0.0358295 0.118101 0.107489C-0.039367 0.250807 -0.039367 0.483005 0.118101 0.626323L3.71465 3.89251C3.87212 4.03583 4.12788 4.03583 4.28535 3.89251L7.8819 0.626353C8.03937 0.483035 8.03937 0.250475 7.8819 0.107157C7.72483 -0.0354676 7.46903 -0.0354676 7.31156 0.107851Z" />
        </g>
        <!-- viewBox = "0 0 29 40" -->
        <g id="swipe">
            <path
                d="M3.0126 29.7942C2.99462 29.0161 3.00116 14.8043 3.00116 13.7262L4.091 14.1064C6.354 14.8989 7.90134 17.0566 7.8997 19.3891V22.9297L20.3519 10.7039C21.3078 9.76538 22.8617 9.76538 23.8175 10.7039C24.7734 11.6423 24.7734 13.1679 23.8175 14.1064L17.7376 20.0758L23.8175 14.1064C24.7734 13.1679 26.3273 13.1679 27.2831 14.1064C28.239 15.0449 28.239 16.5705 27.2831 17.509L20.3748 24.2997C20.6967 25.0441 22.3372 28.8782 22.9924 31.331C23.2228 32.1925 22.9875 33.0732 22.365 33.6844L19.9778 36.0282C16.0661 39.8687 9.59573 40.0067 5.84584 36.3266C4.07792 34.5716 3.07142 32.2518 3.0126 29.7942Z"
                fill="#F9E0D2" fill-opacity="0.01" />
            <path
                d="M9.01994 7.98938L10.0738 9.04352L14.5664 4.55112L10.0678 0.0512695L9.01398 1.10541L11.7134 3.80562H0V5.29662H11.7134L9.01994 7.98938Z"
                fill="white" />
            <path fill-rule="evenodd" clip-rule="evenodd"
                d="M25.3941 11.9773C26.3148 11.9145 27.257 12.2188 27.9578 12.9199C29.2438 14.2049 29.2438 16.3101 27.9595 17.5951L21.3676 24.1902C22.1494 26.0094 23.4288 29.5021 23.8338 31.05C24.1363 32.2043 23.8255 33.4264 22.9825 34.2698L20.5676 36.6859C16.3807 40.8749 9.2814 41.1742 5.10611 36.9968C3.21847 35.1083 2.07299 32.5152 2.00522 29.684L1.99365 29.6939V29.5355C1.99367 29.083 1.99381 28.6304 1.99531 13.6724C1.99365 13.0076 2.52094 12.4784 3.18541 12.4784C3.88129 12.4784 5.50116 13.1234 6.66152 14.2843C7.85493 15.4783 8.59213 17.1254 8.59213 18.9495V20.6033C10.1884 19.0062 10.9104 18.2836 11.5859 17.6076C12.8135 16.379 13.8874 15.3043 19.7775 9.41235C21.0618 8.12573 23.166 8.12573 24.452 9.41235C25.1511 10.1135 25.4569 11.0562 25.3941 11.9773ZM19.8006 23.4279L26.7892 16.4275C27.4338 15.7826 27.4338 14.7341 26.7909 14.0891C26.1479 13.4442 25.0983 13.4442 24.4536 14.0891L18.3031 20.2427C17.9808 20.5652 17.4568 20.5652 17.1345 20.2427C16.8121 19.9203 16.8121 19.396 17.1345 19.0735L23.285 12.9199C23.9296 12.2766 23.928 11.2265 23.285 10.5815C22.642 9.93659 21.5924 9.93659 20.9478 10.5815L8.35081 23.1848C8.11444 23.4212 7.75906 23.4907 7.44996 23.3634C7.14086 23.2344 6.93921 22.9334 6.93921 22.5993V18.9495C6.93921 17.6282 6.4268 16.3879 5.4929 15.4535C4.97057 14.9326 4.34577 14.5373 3.63666 14.2843C3.63666 14.3636 3.63658 14.5952 3.63647 14.9463C3.63551 17.8595 3.63183 29.0006 3.64658 29.6559C3.69947 31.8983 4.5623 34.0962 6.27473 35.8293C9.74753 39.3038 15.7576 39.1616 19.399 35.5184L21.8139 33.1023C22.2354 32.6806 22.3924 32.0703 22.2354 31.47C21.6883 29.3863 20.3924 26.14 19.6254 24.3358C19.4932 24.0249 19.5626 23.666 19.8006 23.4279Z"
                fill="white" />
        </g>
        <!-- viewBox = "0 0 0 0" -->
        <g id="empty"></g>
    </defs>
</svg>