<?xml version="1.0" encoding="utf-8"?>
<!-- Generator: Adobe Illustrator 21.0.2, SVG Export Plug-In . SVG Version: 6.00 Build 0)  -->
<svg version="1.1" id="Layer_1" xmlns="http://www.w3.org/2000/svg" xmlns:xlink="http://www.w3.org/1999/xlink" x="0px" y="0px"
	 viewBox="0 0 3000 1685.3" style="enable-background:new 0 0 3000 1685.3;" xml:space="preserve">
<style type="text/css">
	.st0{clip-path:url(#SVGID_2_);fill:url(#SVGID_3_);}
	.st1{opacity:0.67;clip-path:url(#SVGID_2_);fill:#0B155B;enable-background:new    ;}
	.st2{opacity:0.45;clip-path:url(#SVGID_2_);fill:#0B155B;enable-background:new    ;}
	.st3{clip-path:url(#SVGID_2_);fill:#0B174F;}
	.st4{opacity:0.64;clip-path:url(#SVGID_2_);fill:#0B174F;enable-background:new    ;}
	.st5{opacity:0.91;clip-path:url(#SVGID_2_);fill:#0B174F;enable-background:new    ;}
	.st6{opacity:0.43;clip-path:url(#SVGID_2_);fill:#0B174F;enable-background:new    ;}
	.st7{clip-path:url(#SVGID_2_);fill:#0B155B;}
	.st8{clip-path:url(#SVGID_2_);fill:url(#SVGID_4_);}
	.st9{clip-path:url(#SVGID_2_);fill:url(#SVGID_5_);}
	.st10{clip-path:url(#SVGID_2_);fill:#0B164C;}
	.st11{clip-path:url(#SVGID_2_);fill:#0058AF;}
	.st12{clip-path:url(#SVGID_2_);fill:#07348C;}
	.st13{clip-path:url(#SVGID_2_);fill:url(#SVGID_6_);}
	.st14{clip-path:url(#SVGID_2_);fill:url(#SVGID_7_);}
	.st15{clip-path:url(#SVGID_2_);fill:none;stroke:#FF0300;stroke-width:6;stroke-linecap:round;stroke-miterlimit:10;}
	.st16{clip-path:url(#SVGID_2_);fill:none;stroke:#00AFE4;stroke-width:6;stroke-linecap:round;stroke-miterlimit:10;}
	.st17{clip-path:url(#SVGID_2_);fill:#FF0300;}
	.st18{clip-path:url(#SVGID_2_);fill:#00AFE4;}
	.st19{opacity:0.33;clip-path:url(#SVGID_2_);fill:#07348C;enable-background:new    ;}
	.st20{opacity:0.43;clip-path:url(#SVGID_2_);fill:#0058AF;enable-background:new    ;}
	.st21{clip-path:url(#SVGID_2_);fill:url(#SVGID_8_);}
	.st22{clip-path:url(#SVGID_2_);}
	.st23{fill:#07348C;}
	.st24{fill:#0B155B;}
	.st25{fill:#00AFE4;}
	.st26{fill:#0058AF;}
	.st27{fill:none;stroke:#0B155B;stroke-width:3;stroke-miterlimit:10;}
	.st28{clip-path:url(#SVGID_2_);fill:none;stroke:#0058AF;stroke-width:2;stroke-miterlimit:10;}
	.st29{clip-path:url(#SVGID_2_);fill:none;stroke:#0B155B;stroke-width:2;stroke-miterlimit:10;}
	.st30{clip-path:url(#SVGID_2_);fill:none;stroke:#FF0300;stroke-width:2;stroke-linecap:round;stroke-miterlimit:10;}
	.st31{fill:#FF0300;}
	.st32{fill:none;stroke:#0058AF;stroke-width:3;stroke-miterlimit:10;}
	.st33{clip-path:url(#SVGID_2_);fill:none;stroke:#0058AF;stroke-miterlimit:10;}
	.st34{clip-path:url(#SVGID_2_);fill:none;stroke:#0B155B;stroke-miterlimit:10;}
	.st35{opacity:0.31;clip-path:url(#SVGID_2_);fill:#07348C;enable-background:new    ;}
	.st36{opacity:0.26;clip-path:url(#SVGID_2_);fill:#0058AF;enable-background:new    ;}
	.st37{clip-path:url(#SVGID_2_);fill:none;stroke:#FF0300;stroke-linecap:round;stroke-miterlimit:10;}
	.st38{opacity:9.000000e-02;clip-path:url(#SVGID_2_);fill:#FF0300;enable-background:new    ;}
	.st39{opacity:9.000000e-02;fill:#FF0300;enable-background:new    ;}
	.st40{opacity:9.000000e-02;fill:#00AFE4;enable-background:new    ;}
	.st41{clip-path:url(#SVGID_10_);}
	.st42{clip-path:url(#SVGID_2_);fill:none;stroke:#07348C;stroke-width:3;stroke-miterlimit:10;}
	.st43{clip-path:url(#SVGID_2_);fill:none;stroke:#07348C;stroke-linecap:round;stroke-miterlimit:10;}
	.st44{clip-path:url(#SVGID_2_);fill:none;stroke:#0058AF;stroke-linecap:round;stroke-miterlimit:10;}
	.st45{clip-path:url(#SVGID_2_);fill:none;stroke:#0058AF;stroke-width:3;stroke-linecap:round;stroke-miterlimit:10;}
	.st46{opacity:0.41;clip-path:url(#SVGID_2_);fill:#0058AF;enable-background:new    ;}
	.st47{fill:none;stroke:#07348C;stroke-width:3;stroke-miterlimit:10;}
	.st48{fill:none;stroke:#07348C;stroke-width:3;stroke-miterlimit:10;stroke-dasharray:27.0427,27.0427;}
	.st49{fill:none;stroke:#07348C;stroke-width:3;stroke-miterlimit:10;stroke-dasharray:25.2693,25.2693;}
	.st50{fill:none;stroke:#07348C;stroke-width:3;stroke-miterlimit:10;stroke-dasharray:25.423,25.423;}
	.st51{fill:none;stroke:#07348C;stroke-width:3;stroke-miterlimit:10;stroke-dasharray:22.6667,22.6667;}
	.st52{fill:none;stroke:#0058AF;stroke-width:3;stroke-miterlimit:10;stroke-dasharray:27.0427,27.0427;}
	.st53{fill:none;stroke:#07348C;stroke-width:3;stroke-miterlimit:10;stroke-dasharray:26.2659,26.2659;}
	.st54{opacity:0.18;clip-path:url(#SVGID_2_);fill:#07348C;enable-background:new    ;}
	.st55{opacity:0.1;clip-path:url(#SVGID_2_);fill:#00AFE4;enable-background:new    ;}
	.st56{opacity:5.000000e-02;clip-path:url(#SVGID_2_);fill:#00AFE4;enable-background:new    ;}
	.st57{opacity:0.1;fill:#00AFE4;enable-background:new    ;}
	.st58{opacity:5.000000e-02;fill:#00AFE4;enable-background:new    ;}
	.st59{opacity:0.88;clip-path:url(#SVGID_2_);}
	.st60{opacity:0.13;fill:#FF0300;enable-background:new    ;}
	.st61{opacity:0.77;clip-path:url(#SVGID_2_);}
	.st62{opacity:0.26;fill:#0058AF;enable-background:new    ;}
	.st63{opacity:0.31;fill:#07348C;enable-background:new    ;}
	.st64{opacity:0.13;clip-path:url(#SVGID_2_);fill:#FF0300;enable-background:new    ;}
	.st65{clip-path:url(#SVGID_12_);fill:#FF0300;}
	.st66{opacity:0.88;clip-path:url(#SVGID_14_);}
	.st67{clip-path:url(#SVGID_16_);fill:#FF0300;}
	.st68{opacity:0.88;clip-path:url(#SVGID_18_);}
	.st69{clip-path:url(#SVGID_20_);fill:#FF0300;}
	.st70{opacity:0.88;clip-path:url(#SVGID_22_);}
	.st71{clip-path:url(#SVGID_24_);fill:#FF0300;}
	.st72{opacity:0.88;clip-path:url(#SVGID_26_);}
	.st73{clip-path:url(#SVGID_28_);}
	.st74{opacity:3.000000e-02;clip-path:url(#SVGID_2_);fill:#00AFE4;enable-background:new    ;}
	.st75{opacity:7.000000e-02;clip-path:url(#SVGID_2_);fill:#00AFE4;enable-background:new    ;}
	.st76{clip-path:url(#SVGID_2_);fill:url(#SVGID_29_);}
	.st77{clip-path:url(#SVGID_2_);fill:url(#SVGID_30_);}
	.st78{clip-path:url(#SVGID_2_);fill:url(#SVGID_31_);}
	.st79{clip-path:url(#SVGID_2_);fill:url(#SVGID_32_);}
	.st80{opacity:0.3;clip-path:url(#SVGID_2_);fill:url(#SVGID_33_);enable-background:new    ;}
	.st81{clip-path:url(#SVGID_2_);fill:url(#SVGID_34_);}
	.st82{clip-path:url(#SVGID_2_);fill:url(#SVGID_35_);}
</style>
<g>
	<defs>
		<rect id="SVGID_1_" y="-2.3" width="3003.5" height="1695.6"/>
	</defs>
	<clipPath id="SVGID_2_">
		<use xlink:href="#SVGID_1_"  style="overflow:visible;"/>
	</clipPath>
	
		<linearGradient id="SVGID_3_" gradientUnits="userSpaceOnUse" x1="-57.9" y1="846.8" x2="3035" y2="846.8" gradientTransform="matrix(1 0 0 -1 0 1686)">
		<stop  offset="0" style="stop-color:#0B155B"/>
		<stop  offset="0.2663" style="stop-color:#0A1962"/>
		<stop  offset="0.6424" style="stop-color:#092574"/>
		<stop  offset="1" style="stop-color:#07348C"/>
	</linearGradient>
	<rect x="-57.9" y="-32.5" class="st0" width="3092.9" height="1743.4"/>
	<path class="st1" d="M1795.1,1292.7c5.3,3.3,192.9,119.6,192.9,119.6l102.6-72.1l-92.7-49.9l-152.8-24.1L1795.1,1292.7z"/>
	<path class="st2" d="M2677.9,709.4C2683.2,712.7,2854,825,2854,825l181-103.2l3.6-211.7L2677.9,709.4z"/>
	<path class="st2" d="M2142.2,48.2c5.3,3.3,176.1,115.6,176.1,115.6l181-103.2l3.6-211.7L2142.2,48.2z"/>
	<path class="st2" d="M1284,932.3c5.3,3.3,149.1,87.5,149.1,87.5l340.7-199.1l-129-87.7L1284,932.3z"/>
	<path class="st2" d="M2561.6,1833.7c5.3,3.3,149.1,87.5,149.1,87.5l340.7-199.1l-129-87.7L2561.6,1833.7z"/>
	<path class="st2" d="M1399.9,1046.4c5.3,3.3,149.1,87.5,149.1,87.5l340.7-199.1l-129-87.7L1399.9,1046.4z"/>
	<path class="st3" d="M431.3,1407.7c5.3,3.3,92.6,65.8,92.6,65.8l409.6-238.6l-82-48.2l-321,181.7l-15-9.9L431.3,1407.7z"/>
	<path class="st3" d="M552.4,1475.1C557.7,1478.4,703,1582,703,1582l413.9-226l1.2-22.6L957,1239.3L552.4,1475.1z"/>
	<path class="st3" d="M895.3,1093.2c5.3,3.3,250.1,145.5,250.1,145.5l79.4-47.8l1.2-22.6l-240.8-132L895.3,1093.2z"/>
	<path class="st4" d="M768,719.7c5.3,3.3,250.1,145.5,250.1,145.5l79.4-47.8l1.2-22.6L858,662.9L768,719.7z"/>
	<path class="st5" d="M-39.5,846.1c5.3,3.3,250.1,145.5,250.1,145.5l79.4-47.8l1.2-22.6l-240.8-132L-39.5,846.1z"/>
	<path class="st6" d="M1344.3,1799.4c5.3,3.3,150.5,106.9,150.5,106.9l413.9-226l1.2-22.6l-161.1-94.2L1344.3,1799.4z"/>
	<path class="st3" d="M996.7,617c5.3,3.3,163.7,99.7,163.7,99.7l400.7-218.8l1.2-22.6l-161.1-94.2L996.7,617z"/>
	<path class="st3" d="M691.8,106.3c5.3,3.3,163.7,99.7,163.7,99.7l400.7-218.8l1.2-22.6l-161.1-94.2L691.8,106.3z"/>
	<path class="st2" d="M1650.5,389.7c5.3,3.3,176.1,115.6,176.1,115.6l181-103.2l3.6-211.7L1650.5,389.7z"/>
	<path class="st2" d="M2872.3,830.5c5.3,3.3,176.1,115.6,176.1,115.6l181-103.2l3.6-211.7L2872.3,830.5z"/>
	<polygon class="st2" points="3031.7,1709.1 3162.9,1775.5 3032.5,1323.1 2659.4,1520.7 2907.7,1646.3 2761.1,1730.5 	"/>
	<polygon class="st7" points="1003.5,317 1003.5,622.1 1295.2,451.4 1295.2,152 	"/>
	<polygon class="st7" points="1690.6,115.2 1690.6,419.9 1989,249.8 1989,-54.8 	"/>
	<polygon class="st7" points="2067.6,797.8 2067.6,1206.1 2336,1045.7 2327.4,666.4 	"/>
	<polygon class="st7" points="850.6,766.9 530.5,946.3 530.5,1368.4 850.6,1187.5 	"/>
	<polygon class="st7" points="2192.8,1694.7 2192.8,1734.9 2488.2,1734.9 2488.2,1530.8 	"/>
	<polygon class="st7" points="433.1,1567.9 108.3,1751.9 433.1,1751.9 	"/>
	<path class="st7" d="M369.7,337c0,4.6,0,484,0,484L662,644.7V174.6L369.7,337z"/>
	
		<linearGradient id="SVGID_4_" gradientUnits="userSpaceOnUse" x1="2676.8999" y1="1338.2" x2="3006.2" y2="1338.2" gradientTransform="matrix(1 0 0 -1 0 1686)">
		<stop  offset="0" style="stop-color:#0B155B"/>
		<stop  offset="0.2663" style="stop-color:#0A1962"/>
		<stop  offset="0.6424" style="stop-color:#092574"/>
		<stop  offset="1" style="stop-color:#07348C"/>
	</linearGradient>
	<polygon class="st8" points="2676.9,171.5 3006.2,-15.6 3006.2,533.4 2676.9,711.2 	"/>
	<polygon class="st7" points="2697,1088.6 2697,1509.2 2662.9,1524.6 2662.9,1107.1 	"/>
	<polygon class="st7" points="2947.5,936.2 2947.5,1356.8 2913.4,1372.3 2913.4,954.8 	"/>
	
		<linearGradient id="SVGID_5_" gradientUnits="userSpaceOnUse" x1="2786.6001" y1="401.85" x2="2998.5" y2="401.85" gradientTransform="matrix(1 0 0 -1 0 1686)">
		<stop  offset="0" style="stop-color:#0B155B"/>
		<stop  offset="0.2663" style="stop-color:#0A1962"/>
		<stop  offset="0.6424" style="stop-color:#092574"/>
		<stop  offset="1" style="stop-color:#07348C"/>
	</linearGradient>
	<polygon class="st9" points="2998.5,1011.2 2786.6,1137.1 2786.6,1557.1 2998.5,1436.5 	"/>
	<polygon class="st7" points="2255.8,1505.7 2255.8,1544.9 2119.7,1622.5 2119.7,1584 	"/>
	<polygon class="st7" points="1634.4,527.3 1443.7,638.6 1443.7,1068.5 1631.9,959.4 	"/>
	<polygon class="st7" points="1637.2,411.3 1538.2,468 1538.2,873.2 1637.2,823.7 	"/>
	<polygon class="st7" points="1670.2,528.3 1810.9,446.6 1810.9,465 1670.2,543.8 	"/>
	<polygon class="st7" points="2828.9,839.9 3241.1,605 3241.1,623.5 2828.9,855.3 	"/>
	<polygon class="st10" points="1040,1173.6 443.9,1520 443.9,1538.5 1040,1190.9 	"/>
	<polygon class="st7" points="1769.2,821 1173.1,1167.4 1173.1,1186 1769.2,838.3 	"/>
	<polygon class="st7" points="1525.5,390.3 998.5,696.7 998.5,715.2 1525.5,407.6 	"/>
	<polygon class="st11" points="369.7,337 80.8,168.5 85.9,654.1 369.7,821 	"/>
	<polygon class="st11" points="719.1,152 719.1,454.5 1003.5,622.1 1003.5,317 	"/>
	<polygon class="st11" points="1690.6,115.2 1690.6,419.9 1394.5,249.9 1402.3,-56.3 	"/>
	<polygon class="st7" points="697.5,-197.7 697.5,107 995.9,-63.1 995.9,-367.7 	"/>
	<polygon class="st11" points="697.5,-197.7 697.5,107 401.4,-63 409.1,-369.2 	"/>
	<polygon class="st11" points="2067.6,797.8 1778.8,650 1785.5,1052.7 2067.6,1206.1 	"/>
	<polygon class="st11" points="2697,1088.6 2786.6,1137.1 2786.6,1557.1 2697,1509.2 	"/>
	<polygon class="st11" points="2676.9,171.5 2387,0.5 2387,540.7 2676.9,711.2 	"/>
	<polygon class="st11" points="2231.4,856.6 2231.4,1284.2 2662.9,1524.6 2662.9,1107.1 	"/>
	<polygon class="st11" points="1443.7,638.6 1347.8,579.9 1347.8,992.3 1450.6,1025.1 	"/>
	<polygon class="st11" points="1162.6,473.7 1060.8,411.1 1060.8,823.5 1163.6,856.4 	"/>
	<polygon class="st11" points="1248.8,636.6 1064,527.3 1064,980.6 1248.8,1100.9 	"/>
	<polygon class="st11" points="530.5,946.3 213.8,766.9 213.8,1179.9 530.5,1368.4 	"/>
	<polygon class="st11" points="610.9,1441.1 610.9,1734.9 892.3,1767.2 892.3,1605 	"/>
	<polygon class="st11" points="1775.3,1490.1 1775.3,1783.9 2056.7,1816.1 2170.7,1720.4 	"/>
	<polygon class="st12" points="443.9,1520 -41.2,1234.9 -41.2,1253.9 443.9,1538.5 	"/>
	<polygon class="st11" points="998.7,695.3 998.7,715.3 644,512.5 644,494.8 	"/>
	<polygon class="st11" points="1142.7,1100.9 874.6,951 874.6,972.8 1156.4,1127.8 	"/>
	<polygon class="st11" points="1444.7,1637.6 1444.7,1653.1 1167.4,1497.4 1167.4,1480.4 	"/>
	<polygon class="st11" points="1397.1,109.1 1397.1,124.6 1119.7,-31.1 1119.7,-48.1 	"/>
	<polygon class="st11" points="1672.4,529.1 1672.4,544.5 1636.5,527.2 1636.5,510.2 	"/>
	<polygon class="st11" points="2510.9,722.1 2510.9,737.6 2233.6,581.9 2233.6,564.9 	"/>
	<polygon class="st11" points="2090.5,1310 2079.6,1319.3 1747.8,1134.1 1747.8,1117 	"/>
	<polygon class="st11" points="2653.9,1622.5 2653.9,1638 2313.3,1447 2313.3,1429.9 	"/>
	<polygon class="st7" points="892.3,1605 892.3,1767.2 1187.7,1767.2 1187.7,1441.1 	"/>
	<polygon class="st7" points="1444.7,1637.6 1904.5,1377.8 1903.5,1395.9 1444.7,1653.1 	"/>
	<polygon class="st11" points="260.8,1087.8 154.6,1023.9 154.6,1253.4 431.3,1408.4 431.3,1382 410,1371.6 410,1345.2 
		388.7,1334.9 388.7,1308.4 367.4,1298.1 367.4,1271.6 346.1,1261.3 346.1,1234.9 324.8,1224.6 324.8,1198.1 303.4,1187.8 
		303.4,1161.3 282.1,1151 282.1,1124.6 260.8,1114.2 	"/>
	<polygon class="st12" points="80.8,168.5 369.7,337 661.9,174.6 372.1,-9.1 	"/>
	<polygon class="st7" points="455.7,193.6 558.1,135 558.1,171.6 455.7,228.6 	"/>
	<polygon class="st11" points="455.7,193.6 455.7,228.6 392.5,193.6 392.5,157.9 	"/>
	<polygon class="st12" points="1003.5,317 719.1,152 1003.5,-9.1 1295.2,152 	"/>
	<polygon class="st7" points="1006.9,253.4 1006.9,282.9 1235.8,152 1235.8,123.5 	"/>
	<polygon class="st11" points="1006.9,253.4 1006.9,282.9 777.3,152 777.3,123.5 	"/>
	<polygon class="st12" points="213.8,766.9 530.5,946.3 850.6,766.9 543.7,579.9 	"/>
	<polygon class="st12" points="433.1,1567.9 23.4,1332.1 -284.5,1513.2 -238.1,1810.7 164.9,1719.9 	"/>
	
		<linearGradient id="SVGID_6_" gradientUnits="userSpaceOnUse" x1="610.9" y1="247.05" x2="1187.7" y2="247.05" gradientTransform="matrix(1 0 0 -1 0 1686)">
		<stop  offset="0" style="stop-color:#0B155B"/>
		<stop  offset="0.279" style="stop-color:#0A1A63"/>
		<stop  offset="0.7192" style="stop-color:#08297A"/>
		<stop  offset="1" style="stop-color:#07348C"/>
	</linearGradient>
	<polygon class="st13" points="610.9,1441.1 892.3,1605 1187.7,1441.1 899.3,1272.9 	"/>
	<polygon class="st7" points="1082.6,1424.7 1082.6,1447.9 982.1,1504.9 982.1,1482.5 	"/>
	<polygon class="st11" points="982.1,1482.5 882.5,1424.9 882.5,1447.3 982.1,1504.9 	"/>
	<polygon class="st12" points="1064,527.3 1162.6,473.7 1059.1,411.3 1248.8,303.6 1347.8,359.2 1450.6,299.5 1637.2,411.3 
		1538.2,468 1634.4,527.3 1443.7,638.6 1347.8,579.9 1248.8,636.6 	"/>
	<polygon class="st12" points="1402.3,-56.3 1690.6,115.2 2006.9,-54.8 	"/>
	<polygon class="st12" points="2387,0.5 2591.2,-80 3018,-119.1 3006.2,-15.6 2676.9,171.5 	"/>
	
		<linearGradient id="SVGID_7_" gradientUnits="userSpaceOnUse" x1="2050.5764" y1="34.9533" x2="2212.6482" y2="315.6698" gradientTransform="matrix(1 0 0 -1 0 1686)">
		<stop  offset="0" style="stop-color:#0B155B"/>
		<stop  offset="0.279" style="stop-color:#0A1A63"/>
		<stop  offset="0.7192" style="stop-color:#08297A"/>
		<stop  offset="1" style="stop-color:#07348C"/>
	</linearGradient>
	<polygon class="st14" points="1775.3,1490.1 2170.7,1720.4 2488.2,1530.8 2098.8,1304.6 	"/>
	<polygon class="st12" points="1778.8,650 2060.2,507.7 2327.4,666.4 2067.6,797.8 	"/>
	<polygon class="st7" points="2005.7,364.8 2005.7,797.8 2327.4,666.4 2327.4,239.6 	"/>
	<polygon class="st11" points="1778.8,190.1 1778.8,612.9 2005.7,797.8 2005.7,364.8 	"/>
	<polygon class="st12" points="2102.5,54.1 1778.8,190.1 2005.7,364.8 2327.4,239.6 	"/>
	<polygon class="st7" points="1347.8,579.9 1248.8,636.6 1248.8,1041.7 1347.8,992.3 	"/>
	<line class="st15" x1="1809.7" y1="207.9" x2="1809.7" y2="645.3"/>
	<line class="st15" x1="2279.8" y1="882.5" x2="2279.8" y2="1119.6"/>
	<line class="st15" x1="2343.2" y1="918" x2="2343.2" y2="1155.1"/>
	<line class="st15" x1="2406.6" y1="953.6" x2="2406.6" y2="1190.7"/>
	<line class="st15" x1="2470" y1="989.2" x2="2470" y2="1226.3"/>
	<line class="st15" x1="2533.4" y1="1024.7" x2="2533.4" y2="1261.8"/>
	<line class="st15" x1="2596.8" y1="1060.3" x2="2596.8" y2="1297.4"/>
	<line class="st16" x1="1824" y1="664.2" x2="1824" y2="1101.7"/>
	<line class="st16" x1="1886.7" y1="693.6" x2="1886.7" y2="1131.1"/>
	<line class="st16" x1="1941.7" y1="727.1" x2="1941.7" y2="1164.6"/>
	<line class="st16" x1="2283.4" y1="677.6" x2="2283.4" y2="825"/>
	<line class="st16" x1="2005.7" y1="797.8" x2="2005.7" y2="1188.3"/>
	<line class="st15" x1="1856.4" y1="245.7" x2="1856.4" y2="683.1"/>
	<line class="st15" x1="1903.9" y1="279.3" x2="1903.9" y2="716.8"/>
	<line class="st15" x1="1953.2" y1="322.1" x2="1953.2" y2="759.6"/>
	<line class="st15" x1="2071.6" y1="335.9" x2="2071.6" y2="773.3"/>
	<line class="st15" x1="2136.2" y1="312.5" x2="2136.2" y2="750"/>
	<line class="st15" x1="2201.8" y1="284.3" x2="2201.8" y2="721.8"/>
	<line class="st15" x1="2270.9" y1="261.6" x2="2270.9" y2="699.1"/>
	<ellipse transform="matrix(0.866 -0.5 0.5 0.866 201.8132 1291.5089)" class="st17" cx="2510.8" cy="269.2" rx="75.9" ry="132.4"/>
	<ellipse transform="matrix(0.866 -0.5 0.5 0.866 -141.7474 115.7487)" class="st18" cx="145.1" cy="322.4" rx="27.1" ry="47.3"/>
	<polygon class="st17" points="2722.6,503.1 2722.6,593.8 2776.7,562.3 2776.7,473.2 	"/>
	<polygon class="st18" points="2399.9,1633.7 2399.9,1691.7 2434.5,1671.6 2434.5,1614.6 	"/>
	<polygon class="st18" points="2832.7,1178.5 2832.7,1269.2 2886.8,1237.8 2886.8,1148.6 	"/>
	<polygon class="st18" points="2920.4,1338 2920.4,1428.8 2974.5,1397.3 2974.5,1308.1 	"/>
	<polygon class="st17" points="1064,1573.7 1064,1664.5 1118.1,1633 1118.1,1543.8 	"/>
	<polygon class="st18" points="2859.7,148.9 2859.7,239.6 2913.9,208.1 2913.9,119 	"/>
	<polygon class="st18" points="2452,467.5 2452,579.9 2592.7,661.6 2592.7,547.9 	"/>
	<polygon class="st18" points="2603.7,585.3 2603.7,604.3 2619.9,613.7 2619.9,594.6 	"/>
	<polygon class="st18" points="335.7,963.8 335.7,982.8 351.9,992.2 351.9,973.1 	"/>
	<polygon class="st18" points="389.8,914.1 389.8,1029.6 472.9,1074.9 472.9,961.2 	"/>
	<polygon class="st17" points="256.5,846.1 256.5,990.9 318.5,1023.9 318.5,880.8 	"/>
	<polygon class="st18" points="1622.6,142.7 1592,125.4 1592,193.2 1622.6,209.4 	"/>
	<polygon class="st18" points="687.7,1535.7 646.6,1512.9 646.6,1570.2 687.7,1592.2 	"/>
	<polygon class="st17" points="1866.4,1610.6 1825.2,1587.8 1825.2,1645.1 1866.4,1667.1 	"/>
	<polygon class="st18" points="751.6,1575.1 710.5,1552.3 710.5,1609.6 751.6,1631.6 	"/>
	<polygon class="st18" points="815.5,1610.6 774.4,1587.8 774.4,1645.1 815.5,1667.1 	"/>
	<polygon class="st17" points="838.8,284.2 808.1,266.9 808.1,334.7 838.8,350.9 	"/>
	<polygon class="st17" points="324.7,377 294,359.8 294,446.6 324.7,462.8 	"/>
	<polygon class="st17" points="150.4,560.1 119.8,542.8 119.8,629.7 150.4,645.9 	"/>
	<polygon class="st18" points="944.4,468.8 913.7,451.5 913.7,519.3 944.4,535.5 	"/>
	<polygon class="st17" points="1460.2,663.6 1460.2,759.9 1617.9,676.1 1617.9,572.9 	"/>
	<polygon class="st17" points="1228.9,657.1 1076.3,570.6 1076.3,666.5 1228.9,757.6 	"/>
	<polygon class="st18" points="1064,873.2 1064,980.6 1187.7,1060.3 1187.7,947.1 	"/>
	<polygon class="st12" points="1064,873.2 1099.4,848.9 1197.1,901.5 1152.6,925.6 	"/>
	<polygon class="st17" points="554,966.7 554,1111.5 836.5,951 836.5,810.8 	"/>
	<ellipse class="st11" cx="1339.1" cy="460.8" rx="134.1" ry="81.8"/>
	<ellipse class="st11" cx="2107.2" cy="1476" rx="40" ry="24.4"/>
	<ellipse class="st11" cx="2170.7" cy="1436.7" rx="40" ry="24.4"/>
	<ellipse class="st19" cx="644" cy="1352.1" rx="33.7" ry="20.6"/>
	<ellipse class="st20" cx="2379.8" cy="711.2" rx="33.7" ry="20.6"/>
	
		<linearGradient id="SVGID_8_" gradientUnits="userSpaceOnUse" x1="1116.9" y1="744.05" x2="1747.8" y2="744.05" gradientTransform="matrix(1 0 0 -1 0 1686)">
		<stop  offset="0" style="stop-color:#0B155B"/>
		<stop  offset="0.279" style="stop-color:#0A1A63"/>
		<stop  offset="0.7192" style="stop-color:#08297A"/>
		<stop  offset="1" style="stop-color:#07348C"/>
	</linearGradient>
	<polygon class="st21" points="1116.9,951 1426.5,1128.6 1747.8,936.2 1427.5,755.3 1197.3,883 1212.1,891.4 	"/>
	<polygon class="st7" points="1433,1019.7 1433,1078.2 1670.2,940 1670.2,883 	"/>
	<polygon class="st11" points="1433,1019.7 1197.3,883 1197.3,942.8 1433,1078.2 	"/>
	<path class="st7" d="M1430.3,1122.2c-6.2,4.1,0,422.7,0,422.7l323.7-183.5c-2.1-6.2-6.2-425.1-6.2-425.1L1430.3,1122.2z"/>
	<polygon class="st11" points="1430.3,1122.2 1116.9,951 1116.9,1356.1 1430.3,1544.9 	"/>
	<polygon class="st18" points="1452.9,1529.2 1452.9,1327.8 1733.8,1178 1736.5,1368.4 	"/>
	<polygon class="st18" points="1404.9,1332.9 1133.6,1176.7 1133.6,1365.8 1401.9,1527.4 	"/>
	<g class="st22">
		<path class="st23" d="M2153.1-34.4c0,0,0-10.8,11-20.9c10.4-9.6,60.8-39.5,67.4-42.9c5.8-3,15.2-2.9,17.7-1.7
			c2.6,1.2,73.3,44.7,73.3,44.7L2231.9,10L2153.1-34.4z"/>
		<path class="st24" d="M2225.2,97.7c-3.6,2.2-8.1-0.8-7.5-5c3.7-23.5,12.2-77.6,12.2-78.8c0-1.5,2-11.2,9.3-20.6
			c4.1-5.3,12.9-11.6,17.7-14.9c15.2-10.5,58.9-35.8,65.6-33.6c7.4,2.3,45.5,44,45.5,44s4.4,6,4.8,12.5S2357.2,16,2357.2,16
			L2225.2,97.7z"/>
		<path class="st25" d="M2249.2,0.7v37.9l96.2-55.8l-23.1-24.2c-1.9-2-4.9-2.4-7.3-1L2252.4-5C2250.4-3.8,2249.2-1.6,2249.2,0.7z"/>
		<path class="st26" d="M2153.1-34.4l-14.2,76.1c0,0-0.8,6.4,0.6,8.7c1.4,2.3,6.4,4.8,6.4,4.8l73.8,42.4l11.1-88.1L2153.1-34.4z"/>
		<path class="st25" d="M2227.3,7.3l-70.7-40l-6.8,35.6c2,0.5,79.6,46.8,71.5,42.2L2227.3,7.3z"/>
		
			<ellipse transform="matrix(0.4151 -0.9098 0.9098 0.4151 1346.381 2145.3064)" class="st24" cx="2341.6" cy="25.6" rx="17" ry="12.6"/>
		
			<ellipse transform="matrix(0.4151 -0.9098 0.9098 0.4151 1235.1321 2091.5454)" class="st24" cx="2244.2" cy="85.2" rx="17" ry="12.6"/>
	</g>
	<polygon class="st17" points="2641.2,1512.5 2641.2,1371.4 2255.8,1154.3 2255.8,1297.8 	"/>
	<path class="st12" d="M1103.8,1097.4c1.3,3.8-2.7,7.2-6.3,5.3l-74.6,43.9l-64.1-121.3c0,0-68.5-23.3-66.2-32.8s77-47,85.8-47.3
		c6.1-0.2,40.7,20.5,61.5,33.3c10.4,6.4,18.7,15.6,24.1,26.6c9.9,20.3,26,53.8,31.9,70.2C1099.1,1084.1,1101.8,1091.7,1103.8,1097.4
		z"/>
	<polygon class="st18" points="985.2,1036.4 1011.3,1088.1 1079.7,1047.4 1052.8,996.5 	"/>
	<path class="st11" d="M1025.9,1140.7c1.3,3.8-2.7,7.2-6.3,5.3l-138.8-77.4c0,0-6.5-3-4.3-12.6c2.3-9.5,12.6-56.7,12.6-56.7
		s2.5-10.5,11.3-10.8c6.1-0.2,40.7,20.5,61.5,33.3c10.4,6.4,18.7,15.6,24.1,26.6c9.9,20.3,26,53.8,31.9,70.2
		C1021.2,1127.4,1023.9,1135,1025.9,1140.7z"/>
	<ellipse transform="matrix(0.866 -0.5 0.5 0.866 -433.8963 647.2916)" class="st7" cx="990.9" cy="1133.3" rx="11.1" ry="16.9"/>
	<ellipse transform="matrix(0.866 -0.5 0.5 0.866 -419.3364 592.1631)" class="st7" cx="895.3" cy="1078.6" rx="11.1" ry="16.9"/>
	<path class="st18" d="M902.9,998.9v39.4l91.7,53c1,0.6,2.1-0.4,1.6-1.5c-4-8.8-15.1-32.9-20.1-42.7c-2.3-4.5-8.8-12.5-14.7-16.1
		C958.6,1029.2,902.9,998.9,902.9,998.9z"/>
	<path class="st18" d="M1017.9,1118.5l9.7-5.3c3-1.6,6.6-1.4,9.3,0.7l3,2.3l41.8-23l0.6-5.1c0.4-3.1,2.1-5.8,4.6-7.5l8.9-5.9
		l4.7,12.9l-78.1,43.4L1017.9,1118.5z"/>
	<path class="st18" d="M1017.9,1118.5l-2.8-0.8c-2.4-0.7-4.6,1.6-3.9,4c0.6,1.8,1.4,3.8,2.6,5.1c3.2,3.4,8.6,4.1,8.6,4.1
		L1017.9,1118.5z"/>
	<g class="st22">
		<polygon class="st24" points="338.6,1062.4 338.6,1038 260.8,1084 260.8,1108.4 		"/>
		<polygon class="st24" points="366.3,1101.2 366.3,1074.7 282.1,1124.6 282.1,1151 		"/>
		<polygon class="st24" points="387.6,1138 387.6,1111.5 303.4,1161.3 303.4,1187.8 		"/>
		<polygon class="st24" points="408.9,1174.7 408.9,1148.3 324.8,1198.1 324.8,1224.6 		"/>
		<polygon class="st24" points="430.3,1211.5 430.3,1185 346.1,1234.9 346.1,1261.3 		"/>
		<polygon class="st24" points="451.6,1248.3 451.6,1221.8 367.4,1271.6 367.4,1298.1 		"/>
		<polygon class="st24" points="472.9,1285 472.9,1258.6 388.7,1308.4 388.7,1334.9 		"/>
		<polygon class="st24" points="494.2,1321.8 494.2,1295.4 410,1345.2 410,1371.6 		"/>
		<polygon class="st24" points="515.5,1358.6 515.5,1332.1 431.3,1382 431.3,1408.4 		"/>
	</g>
	<polygon class="st12" points="154.6,1023.9 237,978 338.6,1038 258.1,1085.5 	"/>
	<polygon class="st12" points="259.5,1112.3 282.1,1124.6 366.3,1074.7 338.6,1062.4 	"/>
	<polygon class="st12" points="282.1,1151 303.6,1161.3 387.8,1111.5 366.3,1101.2 	"/>
	<polygon class="st12" points="303.6,1187.6 325.1,1197.9 409.2,1148 387.7,1137.7 	"/>
	<polygon class="st12" points="324.2,1225.1 345.7,1235.4 429.9,1185.5 408.4,1175.2 	"/>
	<polygon class="st12" points="346,1260.9 367.5,1271.2 451.7,1221.4 430.2,1211.1 	"/>
	<polygon class="st12" points="367.4,1297.9 388.9,1308.2 473.1,1258.4 451.6,1248.1 	"/>
	<polygon class="st12" points="388.2,1335.1 409.8,1345.5 494.6,1295.3 472.9,1285 	"/>
	<polygon class="st12" points="409.5,1372.1 431.1,1382.5 515.9,1332.3 494.2,1322 	"/>
	<g class="st22">
		<line class="st27" x1="604.8" y1="936.2" x2="604.8" y2="1108.4"/>
		<line class="st27" x1="651.7" y1="908.4" x2="651.7" y2="1080.6"/>
		<line class="st27" x1="698.7" y1="880.6" x2="698.7" y2="1052.8"/>
		<line class="st27" x1="745.6" y1="852.8" x2="745.6" y2="1025"/>
		<line class="st27" x1="792.5" y1="825" x2="792.5" y2="997.2"/>
	</g>
	<line class="st28" x1="1193.7" y1="1153.4" x2="1193.7" y2="1402.9"/>
	<line class="st28" x1="1262.8" y1="1195.4" x2="1262.8" y2="1444.9"/>
	<line class="st28" x1="2516.5" y1="497.3" x2="2516.5" y2="619.3"/>
	<line class="st28" x1="1149.4" y1="592.1" x2="1149.4" y2="841.6"/>
	<line class="st28" x1="1331.8" y1="1237.1" x2="1331.8" y2="1486.6"/>
	<line class="st29" x1="1519" y1="1243.7" x2="1519" y2="1493.2"/>
	<line class="st29" x1="1596.8" y1="1208.8" x2="1596.8" y2="1458.3"/>
	<line class="st29" x1="1540.8" y1="598.5" x2="1540.8" y2="786.5"/>
	<line class="st29" x1="1674.6" y1="1173.8" x2="1674.6" y2="1405.5"/>
	<polygon class="st17" points="1647.7,1077.5 1647.7,1152.7 1692.6,1126.7 1692.6,1052.7 	"/>
	<polygon class="st18" points="1185.9,1049.5 1149.7,1029.2 1149.7,1131.7 1185.9,1150.9 	"/>
	<polyline class="st30" points="2098.8,1304.6 1775.3,1490.1 2170.7,1720.4 	"/>
	<g class="st22">
		<polygon class="st31" points="2676.9,711.2 2725.6,683.6 2774.4,656.1 2872.2,601.5 2970.2,547.3 3019.3,520.3 3068.5,493.5 
			3019.8,521.1 2971,548.6 2873.2,603.2 2775.1,657.5 2726,684.4 		"/>
	</g>
	<g class="st22">
		<path class="st23" d="M2811.2,610.4c0,0,0-10.8,11-20.9c10.4-9.6,60.8-39.5,67.4-42.9c5.8-3,15.2-2.9,17.7-1.7
			c2.6,1.2,73.3,44.7,73.3,44.7l-90.6,65.2L2811.2,610.4z"/>
		<path class="st24" d="M2883.3,742.6c-3.6,2.2-8.1-0.8-7.5-5c3.7-23.5,12.2-77.6,12.2-78.8c0-1.5,2-11.2,9.3-20.6
			c4.1-5.3,12.9-11.6,17.7-14.9c15.2-10.5,58.9-35.8,65.6-33.6c7.4,2.3,45.5,44,45.5,44s4.4,6,4.8,12.5c0.4,6.6-15.6,14.7-15.6,14.7
			L2883.3,742.6z"/>
		<path class="st25" d="M2907.3,645.6v37.9l96.2-55.8l-23.1-24.2c-1.9-2-4.9-2.4-7.3-1l-62.5,37.4
			C2908.5,641,2907.3,643.2,2907.3,645.6z"/>
		<path class="st26" d="M2811.2,610.4l-14.2,76.1c0,0-0.8,6.4,0.6,8.7c1.4,2.3,6.4,4.8,6.4,4.8l73.8,42.4l11.1-88.1L2811.2,610.4z"
			/>
		<path class="st25" d="M2885.4,652.2l-70.7-40l-6.8,35.6c2,0.5,79.6,46.8,71.5,42.2L2885.4,652.2z"/>
		
			<ellipse transform="matrix(0.4151 -0.9098 0.9098 0.4151 1144.6613 3121.1125)" class="st24" cx="2999.7" cy="670.3" rx="17" ry="12.6"/>
		
			<ellipse transform="matrix(0.4151 -0.9098 0.9098 0.4151 1033.4274 3067.4585)" class="st24" cx="2902.3" cy="730" rx="17" ry="12.6"/>
	</g>
	<polyline class="st28" points="571.1,1345.5 571.1,1205.3 815.5,1073.2 	"/>
	<line class="st28" x1="685" y1="1283.6" x2="685" y2="1160"/>
	<line class="st28" x1="739.8" y1="1254" x2="739.8" y2="1130.4"/>
	<line class="st28" x1="794.6" y1="1224.4" x2="794.6" y2="1100.8"/>
	<line class="st28" x1="628" y1="1317.7" x2="628" y2="1194"/>
	<line class="st28" x1="943.2" y1="1088.1" x2="943.2" y2="1018.3"/>
	<polygon class="st12" points="2231.4,856.6 2531.9,674.1 2964.5,920 2913.4,954.8 2998.5,1011.2 2786.6,1137.1 2697,1088.6 
		2662.9,1107.1 	"/>
	<g class="st22">
		<line class="st32" x1="2300.7" y1="1325.1" x2="2300.7" y2="1164.6"/>
		<line class="st32" x1="2359" y1="1357.9" x2="2359" y2="1195.9"/>
		<line class="st32" x1="2417.2" y1="1389.2" x2="2417.2" y2="1227.2"/>
		<line class="st32" x1="2475.5" y1="1421.9" x2="2475.5" y2="1258.4"/>
		<line class="st32" x1="2533.7" y1="1454.7" x2="2533.7" y2="1289.7"/>
		<line class="st32" x1="2592" y1="1486" x2="2592" y2="1321"/>
	</g>
	<polygon class="st7" points="56.4,1630.4 225.2,1533.8 225.2,1594.1 56.4,1688.1 	"/>
	<polygon class="st11" points="56.4,1630.4 56.4,1688.1 -47.8,1630.4 -47.8,1571.4 	"/>
	<polygon class="st28" points="1870.5,190.1 2006.9,303.5 2237.8,217.7 2092.5,97.5 	"/>
	<line class="st33" x1="874.6" y1="951" x2="1064" y2="846.1"/>
	<line class="st34" x1="1666.7" y1="1507.2" x2="1666.7" y2="1605"/>
	<g class="st22">
		<path class="st26" d="M2733.9,1754l-90.1-53.4c0,0,4.7-59.6,5.9-65.3s8.7-50.8,8.7-50.8l91.2,50.4L2733.9,1754z"/>
		<path class="st23" d="M2928.9,1532.2l-96.1-54.9c0,0-72.8,39.1-83.2,45.2s-68.6,42.4-75.1,48s-16.1,14.1-16.1,14.1l91.2,50.4
			L2928.9,1532.2z"/>
		<path class="st24" d="M2937.4,1644.1L2752,1750.7c0,0-17.4,9.4-18.6,2c-1.2-7.5,10.6-96,14.8-113.9c1.8-7.7,13-17.9,22.3-23.8
			c20.3-12.8,33.8-23.7,85.4-51.7c15.2-8.2,46-25.6,62.5-31.6c3.1-1.1,10.2-2.5,12.7,3.4s6.3,32.1,8.1,55.3
			c0.9,11.6,1.4,37.1,1.5,48C2940.7,1640.6,2939.4,1642.9,2937.4,1644.1z"/>
		<path class="st25" d="M2934.2,1605l-7.4-62.2c-0.2-1.8-2.1-2.9-3.7-2.1c-13,6-50.4,25-69.2,35.2c-13.7,7.4-76.9,42.9-80.7,49.9
			c-5.2,9.5-13,66-15.2,82.5c-0.2,1.9,1.8,3.2,3.4,2.2l170.5-100.8C2933.5,1608.7,2934.4,1606.9,2934.2,1605z"/>
		
			<ellipse transform="matrix(0.4227 -0.9063 0.9063 0.4227 30.7977 3515.4834)" class="st24" cx="2774.7" cy="1733.6" rx="20.6" ry="14"/>
		
			<ellipse transform="matrix(0.4227 -0.9063 0.9063 0.4227 166.3178 3586.9666)" class="st24" cx="2898.6" cy="1662.9" rx="20.6" ry="14"/>
		<polygon class="st25" points="2740.2,1638.4 2661.9,1596.2 2653.9,1647.7 2733.2,1692.3 		"/>
		<path class="st25" d="M2726.1,1729.9l-74.6-43.7c-0.9-0.5-2,0.1-2,1.2v4.5l7,4.3c0.8,0.5,1.8-0.1,1.8-1v-1.2l58.9,34.3v1.5
			c0,2.1,1.2,4.1,3.1,5.1l7.3,3.9l0.2-5.8C2727.8,1731.7,2727.2,1730.5,2726.1,1729.9z"/>
	</g>
	<line class="st34" x1="2846.1" y1="1576.8" x2="2846.1" y2="1674.6"/>
	<ellipse class="st35" cx="2572.5" cy="300.7" rx="54.2" ry="32.5"/>
	<ellipse class="st35" cx="2562.6" cy="427.4" rx="54.2" ry="32.5"/>
	<ellipse class="st36" cx="2782.2" cy="305.5" rx="54.2" ry="32.5"/>
	<ellipse class="st36" cx="2787.4" cy="429.8" rx="54.2" ry="32.5"/>
	<line class="st37" x1="1690.6" y1="115.2" x2="1364.1" y2="-81.9"/>
	<g class="st22">
		<polygon class="st25" points="1778.8,190.1 1859.5,155.6 1940.3,121.3 2102.1,53.2 2102.7,53 2103.1,53.3 2159.3,99.8 
			2215.4,146.3 2271.4,192.9 2327.4,239.6 2270.9,193.6 2214.5,147.4 2158.1,101.1 2101.9,54.8 2102.9,55 1940.9,122.8 
			1859.9,156.6 		"/>
	</g>
	<g class="st22">
		<polygon class="st25" points="1040,1173.6 971.5,1214 902.9,1254.2 765.5,1334.3 627.9,1414 559,1453.7 490,1493.2 558.5,1452.8 
			627.1,1412.6 764.5,1332.5 902.1,1252.8 971,1213.1 		"/>
	</g>
	<g class="st22">
		<polygon class="st25" points="1040,234.6 1137.6,178.6 1235.4,122.7 1235.3,124.2 1132.2,63.7 1029.2,2.9 926.2,-58 874.8,-88.5 
			823.4,-119.1 875.1,-89.1 926.8,-59 1030.1,1.4 1133.2,62 1236.2,122.7 1237.5,123.5 1236.2,124.2 1138.2,179.5 		"/>
	</g>
	<g class="st22">
		<polygon class="st25" points="369.7,337 442.5,296.1 515.5,255.2 588.4,214.5 661.5,173.8 661.4,175.4 563.5,112.8 465.6,50.1 
			367.8,-12.8 270.1,-75.9 368.4,-13.7 466.5,48.6 564.5,111.2 662.4,173.8 663.8,174.7 662.4,175.5 589.3,216 516.1,256.4 
			442.9,296.8 		"/>
	</g>
	<g class="st22">
		<polygon class="st31" points="371.3,669.2 370.9,621.6 370.6,574 370.3,478.9 370.6,383.8 370.9,336.2 371.3,288.6 371.8,336.2 
			372.1,383.8 372.3,478.9 372.1,574 371.8,621.6 		"/>
	</g>
	<g class="st22">
		<polygon class="st31" points="1719.1,99.8 1777.6,68.1 1836.1,36.5 1953.4,-26.4 2070.8,-88.9 2129.6,-120 2188.5,-150.9 
			2130.1,-119.2 2071.5,-87.6 1954.3,-24.7 1836.8,37.8 1778,68.9 		"/>
	</g>
	<path class="st37" d="M-15.3,1318.3c3.8,0.7,448.3,249.6,448.3,249.6L-99.5,1859"/>
	<g class="st22">
		<polygon class="st31" points="1059.1,411.3 1111.1,442 1163,473 1164.2,473.7 1163,474.4 1064.5,528.2 1064.5,526.4 1110.7,553.8 
			1156.8,581.3 1202.9,608.8 1248.8,636.6 1202.4,609.7 1156,582.6 1109.7,555.4 1063.5,528.1 1062,527.2 1063.5,526.4 1162.2,473 
			1162.2,474.4 1110.6,442.9 		"/>
	</g>
	<g class="st22">
		<polygon class="st31" points="431.3,1408.4 361.9,1370.1 292.6,1331.7 223.3,1293 188.7,1273.7 154.2,1254.3 153.7,1254 
			153.7,1253.4 153.8,1196 154,1138.6 154.2,1081.3 154.6,1023.9 155.1,1081.3 155.3,1138.6 155.5,1196 155.6,1253.4 155.1,1252.6 
			189.7,1271.9 224.3,1291.3 293.4,1330.2 362.4,1369.2 		"/>
	</g>
	<g class="st22">
		<polygon class="st31" points="2387,0.5 2459.7,42.9 2532.3,85.4 2604.8,128 2677.3,170.7 2676.4,170.7 2778.8,115.8 2881.2,61 
			2983.7,6.3 3086.3,-48.1 2984.2,7.3 2882,62.5 2779.7,117.5 2677.3,172.4 2676.8,172.6 2676.4,172.4 2604,129.5 2531.6,86.6 
			2459.3,43.6 		"/>
	</g>
	<g class="st22">
		<path class="st31" d="M2255.8,841.8l36.1-22.8l36.2-22.6l72.5-45l72.8-44.6l36.5-22.1c12.2-7.3,24.4-14.7,36.6-22
			c-12,7.7-24.1,15.2-36.1,22.8l-36.2,22.6l-72.5,45l-72.8,44.6l-36.5,22.2L2255.8,841.8z"/>
	</g>
	<g class="st22">
		<path class="st25" d="M2647.2,737.6l37.7,24.5l18.9,12.3l18.8,12.3c25.1,16.5,50.2,32.9,75.2,49.4l75.1,49.6l75,49.8l1.2,0.8
			l-1.3,0.7c-11.3,6.2-22.8,12.2-34.1,18.4v-1.1l42.4,28.4l42.3,28.5l-42.7-27.9l-42.7-28l-0.9-0.6l0.9-0.5
			c11.3-6.2,22.6-12.6,33.9-18.7l-0.1,1.5l-75.1-49.6l-75-49.7c-25-16.6-50-33.2-74.9-49.9l-18.7-12.5l-18.7-12.6L2647.2,737.6z"/>
	</g>
	<g class="st22">
		<polygon class="st25" points="949.2,1573.5 1008.6,1540 1068.1,1506.6 1127.6,1473.4 1187.2,1440.3 1187.2,1442 1128.1,1407 
			1069,1371.9 1010,1336.8 951.1,1301.4 1010.5,1335.9 1069.8,1370.6 1129,1405.4 1188.2,1440.3 1189.7,1441.2 1188.2,1442 
			1128.5,1475 1068.8,1508 1009,1540.8 		"/>
	</g>
	<g class="st22">
		<polygon class="st25" points="850.6,1187.5 850.1,1134.9 849.8,1082.4 849.6,977.2 849.8,872.1 850.1,819.5 850.6,766.9 
			851.1,819.5 851.4,872.1 851.6,977.2 851.3,1082.4 851.1,1134.9 		"/>
	</g>
	<g class="st22">
		<path class="st31" d="M1116.9,951c0.2,10.8,0.3,21.5,0.5,32.3l0.3,32.3c0.2,21.5,0.1,43.1,0.2,64.6c-0.1,21.5-0.1,43.1-0.2,64.6
			l-0.3,32.3c-0.2,10.8-0.3,21.5-0.5,32.3c-0.2-10.8-0.3-21.5-0.5-32.3l-0.3-32.3c-0.2-21.5-0.2-43.1-0.2-64.6
			c0.1-21.5,0.1-43.1,0.2-64.6l0.3-32.3C1116.6,972.5,1116.7,961.8,1116.9,951z"/>
	</g>
	<g class="st22">
		<path class="st31" d="M1197.1,901.5c-6.6,4.3-13.2,8.5-19.8,12.8l-19.9,12.6c-6.6,4.2-13.3,8.3-20,12.5l-20,12.4v-1.7l18.6,10.7
			c6.2,3.6,12.4,7.1,18.6,10.8l18.5,10.9c6.1,3.7,12.3,7.3,18.4,11c-6.3-3.3-12.6-6.8-18.9-10.2l-18.8-10.4
			c-6.3-3.4-12.5-7-18.7-10.5l-18.7-10.5l-1.5-0.8l1.4-0.9l20.1-12.3c6.7-4.1,13.4-8.2,20.1-12.3l20.2-12.1
			C1183.5,909.5,1190.3,905.4,1197.1,901.5z"/>
	</g>
	<g class="st22">
		<polygon class="st31" points="1396.5,770.3 1346.9,798.8 1297.2,827.2 1247.5,855.6 1197.8,883.8 1197.8,882.1 1227.3,899.2 
			1256.7,916.3 1315.6,950.6 1374.4,985.1 1433,1019.7 1373.8,986 1314.8,952.1 1255.8,918 1226.3,900.9 1196.8,883.8 1195.4,883 
			1196.8,882.1 1246.7,854 1296.6,826 1346.5,798.1 		"/>
	</g>
	<g class="st22">
		<polygon class="st31" points="309.3,821 364.8,851.9 420.3,883 475.6,914.2 531,945.4 530,945.4 593,910.2 656.1,875 719.3,839.9 
			782.5,805 719.8,840.8 656.9,876.4 593.9,911.8 531,947.1 530.5,947.4 530,947.1 474.8,915.7 419.5,884.3 364.4,852.7 		"/>
	</g>
	<g class="st22">
		<path class="st25" d="M661.9,174.6c0.2,6.5,0.3,13.1,0.5,19.6l0.3,19.6c0.2,13.1,0.1,26.2,0.2,39.2c-0.1,13.1-0.1,26.2-0.2,39.2
			l-0.3,19.6c-0.2,6.5-0.3,13.1-0.5,19.6c-0.2-6.5-0.3-13.1-0.5-19.6l-0.3-19.6c-0.2-13.1-0.2-26.2-0.2-39.2
			c0.1-13.1,0.1-26.2,0.2-39.2l0.3-19.6C661.6,187.7,661.7,181.2,661.9,174.6z"/>
	</g>
	<path class="st38" d="M2071.7,797.8L2071.7,797.8c-14.8,0-26.8-12-26.8-26.8V326.4c0-14.8,12-26.8,26.8-26.8l0,0
		c14.8,0,26.8,12,26.8,26.8v444.7C2098.5,785.9,2086.5,797.8,2071.7,797.8z"/>
	<path class="st38" d="M2071.7,784.1L2071.7,784.1c-8.7,0-15.8-7.1-15.8-15.8V337.9c0-8.7,7.1-15.8,15.8-15.8l0,0
		c8.7,0,15.8,7.1,15.8,15.8v430.5C2087.5,777.1,2080.4,784.1,2071.7,784.1z"/>
	<g class="st22">
		<path class="st39" d="M2136.2,776.4L2136.2,776.4c-14.8,0-26.8-12-26.8-26.8V305c0-14.8,12-26.8,26.8-26.8l0,0
			c14.8,0,26.8,12,26.8,26.8v444.7C2162.9,764.4,2150.9,776.4,2136.2,776.4z"/>
		<path class="st39" d="M2136.2,762.7L2136.2,762.7c-8.7,0-15.8-7.1-15.8-15.8V316.4c0-8.7,7.1-15.8,15.8-15.8l0,0
			c8.7,0,15.8,7.1,15.8,15.8v430.5C2151.9,755.6,2144.9,762.7,2136.2,762.7z"/>
	</g>
	<g class="st22">
		<path class="st39" d="M2201.8,743.1L2201.8,743.1c-14.8,0-26.8-12-26.8-26.8V271.6c0-14.8,12-26.8,26.8-26.8l0,0
			c14.8,0,26.8,12,26.8,26.8v444.7C2228.6,731.1,2216.6,743.1,2201.8,743.1z"/>
		<path class="st39" d="M2201.8,729.4L2201.8,729.4c-8.7,0-15.8-7.1-15.8-15.8V283.1c0-8.7,7.1-15.8,15.8-15.8l0,0
			c8.7,0,15.8,7.1,15.8,15.8v430.5C2217.6,722.3,2210.5,729.4,2201.8,729.4z"/>
	</g>
	<g class="st22">
		<path class="st39" d="M2269.7,722.2L2269.7,722.2c-14.8,0-26.8-12-26.8-26.8V250.8c0-14.8,12-26.8,26.8-26.8l0,0
			c14.8,0,26.8,12,26.8,26.8v444.7C2296.5,710.3,2284.5,722.2,2269.7,722.2z"/>
		<path class="st39" d="M2269.7,708.6L2269.7,708.6c-8.7,0-15.8-7.1-15.8-15.8V262.3c0-8.7,7.1-15.8,15.8-15.8l0,0
			c8.7,0,15.8,7.1,15.8,15.8v430.5C2285.5,701.5,2278.4,708.6,2269.7,708.6z"/>
	</g>
	<g class="st22">
		<path class="st39" d="M1954.8,767.1L1954.8,767.1c-8.7,0-15.8-7.1-15.8-15.8V320.8c0-8.7,7.1-15.8,15.8-15.8l0,0
			c8.7,0,15.8,7.1,15.8,15.8v430.5C1970.5,760,1963.5,767.1,1954.8,767.1z"/>
	</g>
	<g class="st22">
		<path class="st39" d="M2596.6,1320.1L2596.6,1320.1c-8.7,0-15.8-7.1-15.8-15.8v-256c0-8.7,7.1-15.8,15.8-15.8l0,0
			c8.7,0,15.8,7.1,15.8,15.8v256C2612.4,1313,2605.3,1320.1,2596.6,1320.1z"/>
	</g>
	<g class="st22">
		<path class="st39" d="M2533.7,1290L2533.7,1290c-8.7,0-15.8-7.1-15.8-15.8v-256c0-8.7,7.1-15.8,15.8-15.8l0,0
			c8.7,0,15.8,7.1,15.8,15.8v256C2549.5,1282.9,2542.5,1290,2533.7,1290z"/>
	</g>
	<g class="st22">
		<path class="st39" d="M2470,1256.5L2470,1256.5c-8.7,0-15.8-7.1-15.8-15.8v-256c0-8.7,7.1-15.8,15.8-15.8l0,0
			c8.7,0,15.8,7.1,15.8,15.8v256C2485.8,1249.5,2478.7,1256.5,2470,1256.5z"/>
	</g>
	<g class="st22">
		<path class="st39" d="M2407.1,1215.9L2407.1,1215.9c-8.7,0-15.8-7.1-15.8-15.8v-256c0-8.7,7.1-15.8,15.8-15.8l0,0
			c8.7,0,15.8,7.1,15.8,15.8v256C2422.8,1208.8,2415.8,1215.9,2407.1,1215.9z"/>
	</g>
	<g class="st22">
		<path class="st39" d="M2343.2,1184.7L2343.2,1184.7c-8.7,0-15.8-7.1-15.8-15.8v-256c0-8.7,7.1-15.8,15.8-15.8l0,0
			c8.7,0,15.8,7.1,15.8,15.8v256C2359,1177.6,2351.9,1184.7,2343.2,1184.7z"/>
	</g>
	<g class="st22">
		<path class="st39" d="M2279.8,1140.7L2279.8,1140.7c-8.7,0-15.8-7.1-15.8-15.8V869c0-8.7,7.1-15.8,15.8-15.8l0,0
			c8.7,0,15.8,7.1,15.8,15.8v256C2295.6,1133.6,2288.5,1140.7,2279.8,1140.7z"/>
	</g>
	<g class="st22">
		<path class="st39" d="M1905.3,724.5L1905.3,724.5c-8.7,0-15.8-7.1-15.8-15.8V278.2c0-8.7,7.1-15.8,15.8-15.8l0,0
			c8.7,0,15.8,7.1,15.8,15.8v430.5C1921.1,717.5,1914,724.5,1905.3,724.5z"/>
	</g>
	<g class="st22">
		<path class="st39" d="M1856.7,695.3L1856.7,695.3c-8.7,0-15.8-7.1-15.8-15.8V249c0-8.7,7.1-15.8,15.8-15.8l0,0
			c8.7,0,15.8,7.1,15.8,15.8v430.5C1872.5,688.2,1865.4,695.3,1856.7,695.3z"/>
	</g>
	<g class="st22">
		<path class="st40" d="M1824,1118.3L1824,1118.3c-8.7,0-15.8-7.1-15.8-15.8V672c0-8.7,7.1-15.8,15.8-15.8l0,0
			c8.7,0,15.8,7.1,15.8,15.8v430.5C1839.8,1111.2,1832.7,1118.3,1824,1118.3z"/>
	</g>
	<g class="st22">
		<path class="st40" d="M1886.7,1143.4L1886.7,1143.4c-8.7,0-15.8-7.1-15.8-15.8V697.1c0-8.7,7.1-15.8,15.8-15.8l0,0
			c8.7,0,15.8,7.1,15.8,15.8v430.5C1902.4,1136.3,1895.4,1143.4,1886.7,1143.4z"/>
	</g>
	<g class="st22">
		<path class="st40" d="M1942,1176.4L1942,1176.4c-8.7,0-15.8-7.1-15.8-15.8V730.1c0-8.7,7.1-15.8,15.8-15.8l0,0
			c8.7,0,15.8,7.1,15.8,15.8v430.5C1957.7,1169.3,1950.7,1176.4,1942,1176.4z"/>
	</g>
	<g class="st22">
		<path class="st40" d="M2006.9,1210.1L2006.9,1210.1c-8.7,0-15.8-7.1-15.8-15.8V763.8c0-8.7,7.1-15.8,15.8-15.8l0,0
			c8.7,0,15.8,7.1,15.8,15.8v430.5C2022.6,1203,2015.6,1210.1,2006.9,1210.1z"/>
	</g>
	<g class="st22">
		<path class="st39" d="M1809.7,657.3L1809.7,657.3c-8.7,0-15.8-7.1-15.8-15.8V211c0-8.7,7.1-15.8,15.8-15.8l0,0
			c8.7,0,15.8,7.1,15.8,15.8v430.5C1825.5,650.2,1818.4,657.3,1809.7,657.3z"/>
	</g>
	<g class="st22">
		<g>
			<defs>
				<polygon id="SVGID_9_" points="2231.4,1240.5 2231,1107.7 2231.4,856.6 2359,779.1 2359,628.9 2006.9,711.2 2002.4,1270.8 				
					"/>
			</defs>
			<clipPath id="SVGID_10_">
				<use xlink:href="#SVGID_9_"  style="overflow:visible;"/>
			</clipPath>
			<g class="st41">
				<g>
					<path class="st40" d="M2121.6,1220.4L2121.6,1220.4c-14.8,0-26.8-12-26.8-26.8V749c0-14.8,12-26.8,26.8-26.8l0,0
						c14.8,0,26.8,12,26.8,26.8v444.7C2148.3,1208.4,2136.3,1220.4,2121.6,1220.4z"/>
					<path class="st40" d="M2121.6,1206.7L2121.6,1206.7c-8.7,0-15.8-7.1-15.8-15.8V760.5c0-8.7,7.1-15.8,15.8-15.8l0,0
						c8.7,0,15.8,7.1,15.8,15.8V1191C2137.3,1199.7,2130.3,1206.7,2121.6,1206.7z"/>
				</g>
				<g>
					<path class="st40" d="M2175.9,1190.7L2175.9,1190.7c-14.8,0-26.8-12-26.8-26.8V719.3c0-14.8,12-26.8,26.8-26.8l0,0
						c14.8,0,26.8,12,26.8,26.8V1164C2202.6,1178.7,2190.6,1190.7,2175.9,1190.7z"/>
					<path class="st40" d="M2175.9,1177L2175.9,1177c-8.7,0-15.8-7.1-15.8-15.8V730.7c0-8.7,7.1-15.8,15.8-15.8l0,0
						c8.7,0,15.8,7.1,15.8,15.8v430.5C2191.6,1170,2184.6,1177,2175.9,1177z"/>
				</g>
				<g>
					<path class="st40" d="M2231,1167.1L2231,1167.1c-14.8,0-26.8-12-26.8-26.8V695.7c0-14.8,12-26.8,26.8-26.8l0,0
						c14.8,0,26.8,12,26.8,26.8v444.7C2257.7,1155.1,2245.8,1167.1,2231,1167.1z"/>
					<path class="st40" d="M2231,1153.4L2231,1153.4c-8.7,0-15.8-7.1-15.8-15.8V707.2c0-8.7,7.1-15.8,15.8-15.8l0,0
						c8.7,0,15.8,7.1,15.8,15.8v430.5C2246.7,1146.4,2239.7,1153.4,2231,1153.4z"/>
				</g>
				<g>
					<path class="st40" d="M2284,1136.4L2284,1136.4c-14.8,0-26.8-12-26.8-26.8V665c0-14.8,12-26.8,26.8-26.8l0,0
						c14.8,0,26.8,12,26.8,26.8v444.7C2310.8,1124.4,2298.8,1136.4,2284,1136.4z"/>
					<path class="st40" d="M2284,1122.7L2284,1122.7c-8.7,0-15.8-7.1-15.8-15.8V676.4c0-8.7,7.1-15.8,15.8-15.8l0,0
						c8.7,0,15.8,7.1,15.8,15.8v430.5C2299.8,1115.6,2292.7,1122.7,2284,1122.7z"/>
				</g>
			</g>
		</g>
	</g>
	<g class="st22">
		<polygon class="st24" points="2836.5,814.5 2848,806.8 2848,622.9 2836.5,630.4 		"/>
		<path class="st23" d="M2891.4,624.7c0,0-18.5-11.7-25.3-14.7c-1.4-0.6-9.4-3.7-17.9,1c-0.3,0.2-0.6,0.3-0.9,0.5l0,0l0,0
			c-0.2,0.1-0.3,0.2-0.5,0.3c-2.3,1.5-11.8,7.8-12,7.9l5.3,1.5c-0.2,0.7-0.3,1.4-0.4,2.1h8.1l32.1,8.9l3.7-2.4l7.8,4L2891.4,624.7
			L2891.4,624.7z"/>
		<path class="st26" d="M2836.5,814.5V638.6c0,0,0.3-6.3,4.9-10.1c5.3-4.5,11.1-1.2,11.1-1.2l27.4,14v-9.1c0,0-18.5-11.7-25.3-14.7
			c-1.4-0.6-9.4-3.7-17.9,1c-7,3.9-8.7,10.3-8.7,16.2l0.4,174.7L2836.5,814.5z"/>
		<polygon class="st24" points="2879.9,641.4 2891.4,633.7 2891.4,624.8 2879.9,632.3 		"/>
	</g>
	<g class="st22">
		<polygon class="st24" points="452,1473.3 463.4,1465.6 463.4,1281.7 452,1289.2 		"/>
		<path class="st23" d="M506.8,1283.5c0,0-18.5-11.7-25.3-14.7c-1.4-0.6-9.4-3.7-17.9,1c-0.3,0.2-0.6,0.3-0.9,0.5l0,0l0,0
			c-0.2,0.1-0.3,0.2-0.5,0.3c-2.3,1.5-11.8,7.8-12,7.9l5.3,1.5c-0.2,0.7-0.3,1.4-0.4,2.1h8.1l32.1,8.9l3.7-2.4l7.8,4L506.8,1283.5
			L506.8,1283.5z"/>
		<path class="st26" d="M452,1473.3v-175.9c0,0,0.3-6.3,4.9-10.1c5.3-4.5,11.1-1.2,11.1-1.2l27.4,14v-9.1c0,0-18.5-11.7-25.3-14.7
			c-1.4-0.6-9.4-3.7-17.9,1c-7,3.9-8.7,10.3-8.7,16.2l0.4,174.7L452,1473.3z"/>
		<polygon class="st24" points="495.3,1300.2 506.8,1292.5 506.8,1283.5 495.3,1291 		"/>
	</g>
	<g class="st22">
		<polygon class="st26" points="195.9,1343 184.4,1335.3 184.4,1151.3 195.9,1158.8 		"/>
		<path class="st23" d="M141,1153.1c0,0,18.5-11.7,25.3-14.7c1.4-0.6,9.4-3.7,17.9,1c0.3,0.2,0.6,0.3,0.9,0.5l0,0l0,0
			c0.2,0.1,0.3,0.2,0.5,0.3c2.3,1.5,11.8,7.8,12,7.9l-5.3,1.5c0.2,0.7,0.3,1.4,0.4,2.1h-8.1l-32.1,8.9l-3.7-2.4l-7.8,4L141,1153.1
			L141,1153.1z"/>
		<path class="st24" d="M195.9,1343v-175.9c0,0-0.3-6.3-4.9-10.1c-5.3-4.5-11.1-1.2-11.1-1.2l-27.4,14v-9.1c0,0,18.5-11.7,25.3-14.7
			c1.4-0.6,9.4-3.7,17.9,1c7,3.9,8.7,10.3,8.7,16.2l-0.4,174.7L195.9,1343z"/>
		<polygon class="st26" points="152.5,1169.9 141,1162.1 141,1153.2 152.5,1160.7 		"/>
	</g>
	<g class="st22">
		<polygon class="st26" points="855.9,572.1 844.4,564.4 844.4,380.4 855.9,387.9 		"/>
		<path class="st23" d="M801,382.2c0,0,18.5-11.7,25.3-14.7c1.4-0.6,9.4-3.7,17.9,1c0.3,0.2,0.6,0.3,0.9,0.5l0,0l0,0
			c0.2,0.1,0.3,0.2,0.5,0.3c2.3,1.5,11.8,7.8,12,7.9l-5.3,1.5c0.2,0.7,0.3,1.4,0.4,2.1h-8.1l-32.1,8.9l-3.7-2.4l-7.8,4L801,382.2
			L801,382.2z"/>
		<path class="st24" d="M855.9,572.1V396.2c0,0-0.3-6.3-4.9-10.1c-5.3-4.5-11.1-1.2-11.1-1.2l-27.4,14v-9.1c0,0,18.5-11.7,25.3-14.7
			c1.4-0.6,9.4-3.7,17.9,1c7,3.9,8.7,10.3,8.7,16.2L864,567L855.9,572.1z"/>
		<polygon class="st26" points="812.5,399 801,391.2 801,382.3 812.5,389.8 		"/>
	</g>
	<g class="st22">
		<polygon class="st26" points="1342.2,267 1330.7,259.3 1330.7,75.4 1342.2,82.9 		"/>
		<path class="st23" d="M1287.3,77.2c0,0,18.5-11.7,25.3-14.7c1.4-0.6,9.4-3.7,17.9,1c0.3,0.2,0.6,0.3,0.9,0.5l0,0l0,0
			c0.2,0.1,0.3,0.2,0.5,0.3c2.3,1.5,11.8,7.8,12,7.9l-5.3,1.5c0.2,0.7,0.3,1.4,0.4,2.1h-8.1l-32.1,8.9l-3.7-2.4l-7.8,4L1287.3,77.2
			L1287.3,77.2z"/>
		<path class="st24" d="M1342.2,267V91.1c0,0-0.3-6.3-4.9-10.1c-5.3-4.5-11.1-1.2-11.1-1.2l-27.4,14v-9.1c0,0,18.5-11.7,25.3-14.7
			c1.4-0.6,9.4-3.7,17.9,1c7,3.9,8.7,10.3,8.7,16.2l-0.4,174.7L1342.2,267z"/>
		<polygon class="st26" points="1298.8,93.9 1287.3,86.2 1287.3,77.2 1298.8,84.7 		"/>
	</g>
	<g class="st22">
		<path class="st24" d="M889.5,770.3l81.9-48.5c0,0-4.2-54.2-5.4-59.4c-1.1-5.2-7.9-46.1-7.9-46.1l-82.9,45.8L889.5,770.3z"/>
		<path class="st23" d="M712.3,568.7l87.3-49.9c0,0,66.2,35.5,75.6,41c9.4,5.5,62.3,38.5,68.2,43.6s14.7,12.8,14.7,12.8L875.2,662
			L712.3,568.7z"/>
		<path class="st26" d="M704.6,670.4L873,767.2c0,0,15.8,8.5,16.9,1.8c1.1-6.8-9.6-87.2-13.4-103.5c-1.6-7-11.8-16.3-20.3-21.6
			c-18.4-11.6-30.7-21.6-77.6-47c-13.8-7.5-41.8-23.3-56.8-28.7c-2.8-1-9.3-2.3-11.6,3.1c-2.3,5.4-5.7,29.2-7.3,50.2
			c-0.8,10.6-1.2,33.7-1.4,43.6C701.6,667.3,702.7,669.3,704.6,670.4z"/>
		<path class="st25" d="M707.4,634.9l6.7-56.5c0.2-1.6,1.9-2.6,3.4-1.9c11.8,5.4,45.8,22.7,62.9,32c12.5,6.8,69.9,39,73.3,45.3
			c4.7,8.6,11.8,59.9,13.8,75c0.2,1.7-1.6,2.9-3.1,2l-155-91.6C708.1,638.3,707.2,636.6,707.4,634.9z"/>
		
			<ellipse transform="matrix(0.9063 -0.4227 0.4227 0.9063 -237.8948 430.7693)" class="st24" cx="852.4" cy="751.8" rx="12.7" ry="18.7"/>
		
			<ellipse transform="matrix(0.9063 -0.4227 0.4227 0.9063 -221.3597 377.176)" class="st24" cx="739.8" cy="687.7" rx="12.7" ry="18.7"/>
		<polygon class="st25" points="883.8,665.2 954.8,626.9 962.2,673.7 890,711.5 		"/>
		<path class="st25" d="M896.5,748.3l67.7-39.7c0.8-0.5,1.8,0.1,1.8,1.1v4.1l-6.4,4c-0.7,0.5-1.7-0.1-1.7-0.9v-1.1l-53.5,31.1v1.4
			c0,1.9-1.1,3.7-2.8,4.7l-6.6,3.6l-0.2-5.3C895,750,895.6,748.9,896.5,748.3z"/>
	</g>
	<polygon class="st17" points="405.5,725.2 495.2,902.6 791.1,730.7 700.4,553.1 	"/>
	<line class="st42" x1="576" y1="872.5" x2="467.6" y2="655.7"/>
	<line class="st42" x1="654.5" y1="833.2" x2="546" y2="616.4"/>
	<line class="st42" x1="732.9" y1="794" x2="632.3" y2="592.8"/>
	<line class="st43" x1="530.5" y1="1367.7" x2="613" y2="1417.5"/>
	<line class="st43" x1="1683.8" y1="415.9" x2="1766.3" y2="465.7"/>
	<line class="st43" x1="678.5" y1="1285.5" x2="761.1" y2="1335.4"/>
	<line class="st43" x1="818" y1="1205.3" x2="900.5" y2="1255.2"/>
	<line class="st43" x1="852.4" y1="1073.4" x2="1025" y2="1177.7"/>
	<line class="st43" x1="1636.5" y1="737.8" x2="1773.7" y2="820.6"/>
	<line class="st43" x1="1752.1" y1="1285.8" x2="1903.5" y2="1377.2"/>
	<g class="st22">
		<polygon class="st24" points="960.8,1182.1 972.3,1174.4 972.3,990.4 960.8,997.9 		"/>
		<path class="st23" d="M1015.7,992.2c0,0-18.5-11.7-25.3-14.7c-1.4-0.6-9.4-3.7-17.9,1c-0.3,0.2-0.6,0.3-0.9,0.5l0,0l0,0
			c-0.2,0.1-0.3,0.2-0.5,0.3c-2.3,1.5-11.8,7.8-12,7.9l5.3,1.5c-0.2,0.7-0.3,1.4-0.4,2.1h8.1l32.1,8.9l3.7-2.4l7.8,4L1015.7,992.2
			L1015.7,992.2z"/>
		<path class="st26" d="M960.8,1182.1v-175.9c0,0,0.3-6.3,4.9-10.1c5.3-4.5,11.1-1.2,11.1-1.2l27.4,14v-9.1c0,0-18.5-11.7-25.3-14.7
			c-1.4-0.6-9.4-3.7-17.9,1c-7,3.9-8.7,10.3-8.7,16.2l0.4,174.7L960.8,1182.1z"/>
		<polygon class="st24" points="1004.2,1008.9 1015.7,1001.2 1015.7,992.3 1004.2,999.8 		"/>
	</g>
	<line class="st43" x1="-41.2" y1="1234.9" x2="154.6" y2="1112.9"/>
	<line class="st43" x1="416" y1="1763.9" x2="611.8" y2="1641.9"/>
	<line class="st44" x1="2432.2" y1="690.3" x2="2530.1" y2="626.6"/>
	<line class="st43" x1="264.5" y1="1412.7" x2="342.6" y2="1360.7"/>
	<line class="st44" x1="1256.3" y1="1542.3" x2="1334.5" y2="1490.3"/>
	<line class="st44" x1="2320.5" y1="1435.4" x2="2398.6" y2="1383.4"/>
	<line class="st44" x1="2070.6" y1="1298.9" x2="2228.6" y2="1207.5"/>
	<line class="st44" x1="1001" y1="1334.2" x2="1116.9" y2="1267.6"/>
	<line class="st43" x1="73.4" y1="1304.1" x2="151.5" y2="1252.1"/>
	<line class="st43" x1="739.3" y1="549.4" x2="805.4" y2="505.4"/>
	<g class="st22">
		<polygon class="st26" points="1063.2,1367.7 1051.7,1360 1051.7,1176 1063.2,1183.5 		"/>
		<path class="st23" d="M1008.3,1177.8c0,0,18.5-11.7,25.3-14.7c1.4-0.6,9.4-3.7,17.9,1c0.3,0.2,0.6,0.3,0.9,0.5l0,0l0,0
			c0.2,0.1,0.3,0.2,0.5,0.3c2.3,1.5,11.8,7.8,12,7.9l-5.3,1.5c0.2,0.7,0.3,1.4,0.4,2.1h-8.1l-32.1,8.9l-3.7-2.4l-7.8,4
			L1008.3,1177.8L1008.3,1177.8z"/>
		<path class="st24" d="M1063.2,1367.7v-175.9c0,0-0.3-6.3-4.9-10.1c-5.3-4.5-11.1-1.2-11.1-1.2l-27.4,14v-9.1
			c0,0,18.5-11.7,25.3-14.7c1.4-0.6,9.4-3.7,17.9,1c7,3.9,8.7,10.3,8.7,16.2l-0.4,174.7L1063.2,1367.7z"/>
		<polygon class="st26" points="1019.8,1194.5 1008.3,1186.8 1008.3,1177.9 1019.8,1185.4 		"/>
	</g>
	<polygon class="st7" points="2109.7,1525.4 2244.3,1448.4 2244.3,1496.5 2109.7,1571.5 	"/>
	<polygon class="st11" points="2109.7,1525.4 2109.7,1571.5 2026.6,1525.4 2026.6,1478.4 	"/>
	<polyline class="st45" points="154.6,1023.9 154.6,959 256.3,1023 258.1,1085.5 	"/>
	<line class="st45" x1="154.6" y1="959" x2="225.2" y2="924.4"/>
	<line class="st45" x1="256.3" y1="1023" x2="431.3" y2="1321.2"/>
	<line class="st45" x1="431.3" y1="1407.7" x2="431.3" y2="1321.2"/>
	<polygon class="st11" points="2643.7,935.1 2354.8,766.6 2359.9,885.2 2643.7,1052.1 	"/>
	<polygon class="st12" points="2354.8,766.6 2643.7,935.1 2669.9,921.8 2379.9,753 	"/>
	<polygon class="st7" points="2643.7,1052.1 2662.9,1040 2662.9,925.2 2643.7,935.1 	"/>
	<polygon class="st18" points="2371.5,804 2623.2,948.5 2623.2,973.3 2372.2,829.6 	"/>
	<polygon class="st18" points="2371.5,845.4 2623.2,991.5 2623.2,1016.2 2372.2,871.1 	"/>
	<polygon class="st11" points="2571.5,953.6 2571.5,996.5 2585.5,1003.5 2585.5,963.5 	"/>
	<polygon class="st11" points="2485.2,859.4 2485.2,902.3 2499.2,909.3 2499.2,869.3 	"/>
	<g class="st22">
		<path class="st24" d="M1740.5,595.2c0,0,0.2,5.2-2.1,8.3c-2.4,3.1-9.5,6.5-13.8,9.4c-4,2.7-9.7,7.8-13.7,13.5
			c-6.7,9.6-9.3,15-10,25.7l-0.6,157.3l-8.2,5.3l-4.7-19.6l1.8-153.2l16.5-29.6l27-18L1740.5,595.2z"/>
		<path class="st26" d="M1683.9,809.9c0,0,0-112.5,0-152.4c0-7.8,0-20.2,10.3-36.7c15.2-24.5,38.1-30.3,38.1-30.3l8.2,4.7
			c0,0-22.9,5.8-38.1,30.3c-10.3,16.6-10.3,29-10.3,36.7c0,40,0,152.4,0,152.4L1683.9,809.9z"/>
	</g>
	<polygon class="st18" points="2872.6,722.7 2871.9,729.1 2861.3,723.2 2861.9,716.9 	"/>
	<polygon class="st18" points="2812.1,688.2 2811.4,694.6 2800.8,688.7 2801.4,682.4 	"/>
	<polygon class="st18" points="114.5,890.1 115.3,896.5 125.9,890.6 125.2,884.3 	"/>
	<polygon class="st18" points="175,855.6 175.8,862 186.4,856.1 185.7,849.8 	"/>
	<polygon class="st46" points="2461,0.5 2683,125.4 2964.4,-25.6 	"/>
	<g class="st22">
		<g>
			<line class="st47" x1="865.5" y1="862.6" x2="876.5" y2="856.5"/>
			<line class="st48" x1="900.1" y1="843.4" x2="1030.1" y2="771.1"/>
			<line class="st47" x1="1041.9" y1="764.5" x2="1052.9" y2="758.5"/>
		</g>
	</g>
	<g class="st22">
		<g>
			<line class="st47" x1="20.8" y1="114.7" x2="31.7" y2="108.7"/>
			<line class="st48" x1="55.4" y1="95.5" x2="185.4" y2="23.3"/>
			<line class="st47" x1="197.2" y1="16.7" x2="208.1" y2="10.7"/>
		</g>
	</g>
	<g class="st22">
		<g>
			<line class="st47" x1="942.9" y1="1294.2" x2="953.8" y2="1288.1"/>
			<line class="st48" x1="977.5" y1="1275" x2="1107.5" y2="1202.7"/>
			<line class="st47" x1="1119.3" y1="1196.2" x2="1130.2" y2="1190.1"/>
		</g>
	</g>
	<g class="st22">
		<g>
			<line class="st47" x1="433.1" y1="1639.1" x2="444" y2="1633"/>
			<line class="st49" x1="466.1" y1="1620.8" x2="587.6" y2="1553.3"/>
			<line class="st47" x1="598.6" y1="1547.1" x2="609.5" y2="1541.1"/>
		</g>
	</g>
	<g class="st22">
		<g>
			<line class="st47" x1="1645.4" y1="622.6" x2="1656.3" y2="616.6"/>
			<line class="st50" x1="1678.5" y1="604.2" x2="1756.3" y2="561"/>
			<line class="st47" x1="1767.4" y1="554.8" x2="1778.4" y2="548.7"/>
		</g>
	</g>
	<g class="st22">
		<g>
			<line class="st47" x1="1987.9" y1="1349.4" x2="1977.3" y2="1342.9"/>
			<line class="st51" x1="1957.9" y1="1331" x2="1774.3" y2="1218.5"/>
			<line class="st47" x1="1764.7" y1="1212.6" x2="1754" y2="1206.1"/>
		</g>
	</g>
	<g class="st22">
		<g>
			<line class="st32" x1="2924.3" y1="888.2" x2="2935.3" y2="882.2"/>
			<line class="st52" x1="2958.9" y1="869" x2="3088.9" y2="796.8"/>
			<line class="st32" x1="3100.7" y1="790.2" x2="3111.6" y2="784.1"/>
		</g>
	</g>
	<g class="st22">
		<g>
			<line class="st47" x1="1423.3" y1="1717.7" x2="1412.4" y2="1711.6"/>
			<line class="st53" x1="1389.4" y1="1698.9" x2="1217.2" y2="1603.2"/>
			<line class="st47" x1="1205.7" y1="1596.8" x2="1194.8" y2="1590.7"/>
		</g>
	</g>
	<g class="st22">
		<g>
			<line class="st47" x1="26.1" y1="1067.4" x2="37" y2="1061.4"/>
			<line class="st48" x1="60.7" y1="1048.2" x2="190.7" y2="976"/>
			<line class="st47" x1="202.5" y1="969.4" x2="213.4" y2="963.3"/>
		</g>
	</g>
	<polygon class="st54" points="1240.9,881.2 1432.4,989.3 1622.6,883.1 1427.5,773.9 	"/>
	<ellipse class="st55" cx="1339.1" cy="460.8" rx="171.9" ry="104.9"/>
	<polygon class="st18" points="1347.8,528.3 1226.5,458.3 1252.6,444.1 1301.3,471.2 1356.3,440.4 1307.9,413 1332.4,400.1 
		1452.4,467.4 1427.6,481.2 1376.7,452.3 1318.8,483.4 1375.1,513.9 	"/>
	<ellipse class="st56" cx="1339.1" cy="460.8" rx="217.1" ry="132.4"/>
	<polygon class="st55" points="1125.8,1160.4 1125.8,1361.8 1104.1,1372.7 1394.1,1547 1411.7,1535.2 1414,1326.5 	"/>
	<polygon class="st56" points="1116.9,1142 1435,1320.2 1430.3,1544.9 1400.4,1571.6 1076.7,1374.3 1117.2,1355.2 	"/>
	<polygon class="st55" points="1740.2,1167.9 1745.3,1366.3 1767.1,1377.2 1470.4,1542.5 1452.8,1530.7 1452,1317.5 	"/>
	<polygon class="st56" points="1751.1,1149.5 1431,1320.2 1435.7,1544.9 1465.7,1571.6 1793.6,1380.3 1753.1,1361.2 	"/>
	<polygon class="st55" points="1190.7,1044.1 1144.9,1018.3 1144.9,1137.3 1190.7,1161.6 	"/>
	<polygon class="st55" points="1190.7,912.4 1144.9,886.6 1144.9,1271.4 1190.7,1295.7 	"/>
	<polygon class="st55" points="480,911.6 383.1,857 383.1,1075.3 480,1126.6 	"/>
	<g class="st22">
		<polygon class="st26" points="1440.7,1615.6 1429.3,1607.8 1429.3,1423.9 1440.7,1431.4 		"/>
		<path class="st23" d="M1385.9,1425.7c0,0,18.5-11.7,25.3-14.7c1.4-0.6,9.4-3.7,17.9,1c0.3,0.2,0.6,0.3,0.9,0.5l0,0l0,0
			c0.2,0.1,0.3,0.2,0.5,0.3c2.3,1.5,11.8,7.8,12,7.9l-5.3,1.5c0.2,0.7,0.3,1.4,0.4,2.1h-8.1l-32.1,8.9l-3.7-2.4l-7.8,4
			L1385.9,1425.7L1385.9,1425.7z"/>
		<path class="st24" d="M1440.7,1615.6v-175.9c0,0-0.3-6.3-4.9-10.1c-5.3-4.5-11.1-1.2-11.1-1.2l-27.4,14v-9.1
			c0,0,18.5-11.7,25.3-14.7c1.4-0.6,9.4-3.7,17.9,1c7,3.9,8.7,10.3,8.7,16.2l-0.4,174.7L1440.7,1615.6z"/>
		<polygon class="st26" points="1397.4,1442.4 1385.9,1434.7 1385.9,1425.8 1397.4,1433.3 		"/>
	</g>
	<g class="st22">
		<path class="st26" d="M1554.4,1684.5l-90.1-53.4c0,0,4.7-59.6,5.9-65.3c1.2-5.7,8.7-50.8,8.7-50.8l91.2,50.4L1554.4,1684.5z"/>
		<path class="st23" d="M1749.5,1462.6l-96.1-54.9c0,0-72.8,39.1-83.2,45.2s-68.6,42.4-75.1,48S1479,1515,1479,1515l91.2,50.4
			L1749.5,1462.6z"/>
		<path class="st24" d="M1757.9,1574.5l-185.4,106.6c0,0-17.4,9.4-18.6,2c-1.2-7.5,10.6-96,14.8-113.9c1.8-7.7,13-17.9,22.3-23.8
			c20.3-12.8,33.8-23.7,85.4-51.7c15.2-8.2,46-25.6,62.5-31.6c3.1-1.1,10.2-2.5,12.7,3.4s6.3,32.1,8.1,55.3
			c0.9,11.6,1.4,37.1,1.5,48C1761.2,1571.1,1760,1573.3,1757.9,1574.5z"/>
		<path class="st25" d="M1754.8,1535.5l-7.4-62.2c-0.2-1.8-2.1-2.9-3.7-2.1c-13,6-50.4,25-69.2,35.2c-13.7,7.4-76.9,42.9-80.7,49.9
			c-5.2,9.5-13,66-15.2,82.5c-0.2,1.9,1.8,3.2,3.4,2.2l170.5-100.8C1754.1,1539.2,1755,1537.4,1754.8,1535.5z"/>
		
			<ellipse transform="matrix(0.4227 -0.9063 0.9063 0.4227 -587.0541 2406.4297)" class="st24" cx="1595.3" cy="1664" rx="20.6" ry="14"/>
		
			<ellipse transform="matrix(0.4227 -0.9063 0.9063 0.4227 -451.6407 2477.9268)" class="st24" cx="1719.1" cy="1593.5" rx="20.6" ry="14"/>
		<polygon class="st25" points="1560.7,1568.8 1482.5,1526.6 1474.4,1578.1 1553.8,1619.7 		"/>
		<path class="st25" d="M1546.6,1660.3l-74.6-43.7c-0.9-0.5-2,0.1-2,1.2v4.5l7,4.3c0.8,0.5,1.8-0.1,1.8-1v-1.2l58.9,34.3v1.5
			c0,2.1,1.2,4.1,3.1,5.1l7.3,3.9l0.2-5.8C1548.4,1662.1,1547.7,1660.9,1546.6,1660.3z"/>
	</g>
	<polygon class="st56" points="480,818 383.1,763.4 383.1,1181.9 480,1233.2 	"/>
	<polygon class="st56" points="480,720.6 383.1,666 383.1,1262.1 480,1313.4 	"/>
	<g class="st22">
		<polygon class="st57" points="949.2,457.7 908.9,435 908.9,525.7 949.2,547 		"/>
		<polygon class="st58" points="949.2,418.8 908.9,396.1 908.9,570 949.2,591.3 		"/>
		<polygon class="st58" points="949.2,378.3 908.9,355.7 908.9,603.3 949.2,624.6 		"/>
	</g>
	<g class="st22">
		<polygon class="st57" points="1627.1,134.5 1586.8,111.9 1586.8,202.5 1627.1,223.8 		"/>
		<polygon class="st58" points="1627.1,95.7 1586.8,73 1586.8,246.8 1627.1,268.1 		"/>
		<polygon class="st58" points="1627.1,55.2 1586.8,32.5 1586.8,280.1 1627.1,301.4 		"/>
	</g>
	<g class="st59">
		<polygon class="st60" points="334.6,364.4 281,334.2 281,454.9 334.6,483.2 		"/>
		<polygon class="st60" points="334.6,312.7 281,282.5 281,513.8 334.6,542.2 		"/>
		<polygon class="st60" points="334.6,258.8 281,228.6 281,558.1 334.6,586.5 		"/>
	</g>
	<g class="st59">
		<polygon class="st60" points="327,874.5 247,829.5 247,1009.5 327,1051.8 		"/>
		<polygon class="st60" points="327,797.3 247,752.2 247,1097.4 327,1139.8 		"/>
		<polygon class="st60" points="327,716.9 247,671.9 247,1163.6 327,1206 		"/>
	</g>
	<g class="st59">
		<polygon class="st60" points="161.9,550 108.3,519.8 108.3,640.5 161.9,668.8 		"/>
		<polygon class="st60" points="161.9,498.3 108.3,468.1 108.3,699.4 161.9,727.8 		"/>
		<polygon class="st60" points="161.9,444.4 108.3,414.2 108.3,743.8 161.9,772.1 		"/>
	</g>
	<g class="st59">
		<polygon class="st60" points="1873.4,1576.6 1819.8,1546.4 1819.8,1667 1873.4,1695.4 		"/>
		<polygon class="st60" points="1873.4,1524.8 1819.8,1494.7 1819.8,1726 1873.4,1754.4 		"/>
		<polygon class="st60" points="1873.4,1471 1819.8,1440.8 1819.8,1770.3 1873.4,1798.7 		"/>
	</g>
	<g class="st59">
		<polygon class="st60" points="852.8,263 799.2,232.9 799.2,353.5 852.8,381.9 		"/>
		<polygon class="st60" points="852.8,211.3 799.2,181.1 799.2,412.4 852.8,440.8 		"/>
		<polygon class="st60" points="852.8,157.4 799.2,127.2 799.2,456.8 852.8,485.2 		"/>
	</g>
	<g class="st59">
		<polygon class="st60" points="2712.8,466.3 2786.1,425.1 2786.1,590 2712.8,628.8 		"/>
		<polygon class="st60" points="2712.8,395.6 2786.1,354.3 2786.1,670.6 2712.8,709.4 		"/>
		<polygon class="st60" points="2712.8,321.9 2786.1,280.6 2786.1,731.3 2712.8,770.1 		"/>
	</g>
	<g class="st59">
		<polygon class="st60" points="1054,1537.1 1127.3,1495.9 1127.3,1660.9 1054,1699.7 		"/>
		<polygon class="st60" points="1054,1466.4 1127.3,1425.1 1127.3,1741.5 1054,1780.3 		"/>
		<polygon class="st60" points="1054,1392.7 1127.3,1351.5 1127.3,1802.1 1054,1840.9 		"/>
	</g>
	<g class="st22">
		<polygon class="st57" points="2846,102.8 2927.6,56.9 2927.6,240.5 2846,283.6 		"/>
		<polygon class="st58" points="2846,24.1 2927.6,-21.8 2927.6,330.1 2846,373.3 		"/>
		<polygon class="st58" points="2846,-57.8 2927.6,-103.7 2927.6,397.6 2846,440.8 		"/>
	</g>
	<g class="st22">
		<polygon class="st57" points="2817.9,1135.4 2899.4,1089.5 2899.4,1273 2817.9,1316.2 		"/>
		<polygon class="st58" points="2817.9,1056.7 2899.4,1010.8 2899.4,1362.7 2817.9,1405.8 		"/>
		<polygon class="st58" points="2817.9,974.7 2899.4,928.8 2899.4,1430.1 2817.9,1473.3 		"/>
	</g>
	<g class="st61">
		<polygon class="st57" points="2906.7,1301.6 2988.2,1255.7 2988.2,1439.2 2906.7,1482.4 		"/>
		<polygon class="st58" points="2906.7,1222.9 2988.2,1176.9 2988.2,1528.9 2906.7,1572 		"/>
		<polygon class="st58" points="2906.7,1140.9 2988.2,1095 2988.2,1596.3 2906.7,1639.5 		"/>
	</g>
	<g class="st61">
		<polygon class="st57" points="2393.3,1607.3 2442.7,1579.5 2442.7,1690.7 2393.3,1716.8 		"/>
		<polygon class="st58" points="2393.3,1559.6 2442.7,1531.8 2442.7,1745 2393.3,1771.2 		"/>
		<polygon class="st58" points="2393.3,1510 2442.7,1482.2 2442.7,1785.9 2393.3,1812 		"/>
	</g>
	<polygon class="st55" points="690.7,1512.7 643.7,1486.3 643.7,1592 690.7,1616.9 	"/>
	<polygon class="st56" points="690.7,1467.3 643.7,1440.9 643.7,1643.7 690.7,1668.6 	"/>
	<polygon class="st56" points="690.7,1420.1 643.7,1393.7 643.7,1682.6 690.7,1707.4 	"/>
	<polygon class="st55" points="754.6,1549.9 707.6,1523.5 707.6,1629.2 754.6,1654.1 	"/>
	<polygon class="st56" points="754.6,1504.6 707.6,1478.1 707.6,1680.9 754.6,1705.8 	"/>
	<polygon class="st56" points="754.6,1457.3 707.6,1430.9 707.6,1719.8 754.6,1744.7 	"/>
	<polygon class="st55" points="818.5,1586.4 771.5,1560 771.5,1665.7 818.5,1690.6 	"/>
	<polygon class="st56" points="818.5,1541.1 771.5,1514.6 771.5,1717.4 818.5,1742.3 	"/>
	<polygon class="st56" points="818.5,1493.8 771.5,1467.4 771.5,1756.3 818.5,1781.2 	"/>
	<ellipse transform="matrix(0.866 -0.5 0.5 0.866 -141.7474 115.7487)" class="st55" cx="145.1" cy="322.4" rx="56.2" ry="98"/>
	<ellipse transform="matrix(0.866 -0.5 0.5 0.866 -141.7474 115.7487)" class="st55" cx="145.1" cy="322.4" rx="88.6" ry="154.6"/>
	<g class="st22">
		<ellipse class="st62" cx="545.1" cy="434.1" rx="54.2" ry="32.5"/>
		<ellipse class="st62" cx="552.1" cy="305.4" rx="54.2" ry="32.5"/>
		<ellipse class="st63" cx="763.9" cy="308.9" rx="54.2" ry="32.5"/>
		<ellipse class="st63" cx="772.6" cy="434.5" rx="54.2" ry="32.5"/>
		<g>
			<g>
				<polygon class="st26" points="568.1,322.4 568.1,308.5 537.6,308.5 537.6,322.4 559.1,321.7 				"/>
				<ellipse class="st26" cx="552.8" cy="322.4" rx="15.2" ry="9.1"/>
				<ellipse class="st23" cx="552.8" cy="308.5" rx="15.2" ry="9.1"/>
				<path class="st25" d="M543,306.9c0,0,1.5-7.5,9.8-7.5c7.5,0,10,6.6,10,6.6s0.8,6-9.1,6.7C543,313.4,543,306.9,543,306.9z"/>
			</g>
			<path class="st23" d="M552.8,319.9c0,0,7.8-0.4,10.8-2.2c3-1.8,4.6-4.8,4.6-4.8l60.5,44.5l-13.4,11L552.8,319.9z"/>
			<path class="st23" d="M541.9,300.8l-28-16.4c0,0,6.8,12.6,14,15.3C534.5,302.2,541.9,300.8,541.9,300.8z"/>
			<path class="st23" d="M562.3,309.5l24.3,14.7c0,0-6.3-10.3-13.3-13.6S562.3,309.5,562.3,309.5z"/>
			<polygon class="st26" points="552.8,319.9 552.8,331.5 611.9,382.4 615.2,368.4 			"/>
			<g>
				<polygon class="st23" points="748.7,326.6 748.7,312.6 779.1,312.6 779.1,326.6 757.6,325.8 				"/>
				<ellipse class="st23" cx="763.9" cy="326.6" rx="15.2" ry="9.1"/>
				<ellipse class="st26" cx="763.9" cy="312.6" rx="15.2" ry="9.1"/>
				<path class="st25" d="M773.7,311c0,0-1.5-7.5-9.8-7.5c-7.5,0-10,6.6-10,6.6s-0.8,6,9.1,6.7C773.7,317.6,773.7,311,773.7,311z"/>
			</g>
			<path class="st26" d="M763.9,324.1c0,0-7.8-0.4-10.8-2.2c-3-1.8-4.6-4.8-4.6-4.8L688,361.6l13.4,11L763.9,324.1z"/>
			<path class="st23" d="M774.8,305l28-16.4c0,0-6.8,12.6-14,15.3C782.3,306.4,774.8,305,774.8,305z"/>
			<path class="st23" d="M754.4,313.7l-24.3,14.7c0,0,6.3-10.3,13.3-13.6S754.4,313.7,754.4,313.7z"/>
			<polygon class="st24" points="763.9,324.1 763.9,335.7 704.8,386.6 701.5,372.6 			"/>
			<path class="st23" d="M611.9,382.4V423c0,0,15.6,22.7,46.7,22.7l-0.4-39.1L611.9,382.4z"/>
			<path class="st24" d="M704.4,378.8l0.9,44.1c0,0-18.7,22.6-49.8,22.6l1.1-39L704.4,378.8z"/>
			<path class="st26" d="M633,408.8c0,0-73.4,29.6-74.1,28.6c-0.7-1-6.8-10.3-6.8-10.3l66.8-27L633,408.8z"/>
			<path class="st24" d="M540,454.7c0,0.3,0,2.8,0,3.7c0,0.7,1.3,2.5,3.8,2.5s4-1.6,4.1-1.9s0-4.7,0-4.7L540,454.7z"/>
			<polygon class="st24" points="633,408.8 633,426.5 557.6,448.4 558.9,437.4 561.3,436.3 			"/>
			<polygon class="st23" points="559.3,448.4 559.3,434.5 528.8,434.5 528.8,448.4 550.3,447.7 			"/>
			<ellipse class="st23" cx="544" cy="448.4" rx="15.2" ry="9.1"/>
			<path class="st23" d="M553.5,426.5c0,0,2.8-7.4,12.3-13.6c8.9-5.8,15.2-2.7,15.2-2.7L553.5,426.5z"/>
			<ellipse class="st26" cx="544" cy="434.5" rx="15.2" ry="9.1"/>
			<path class="st25" d="M534.2,432.9c0,0,1.5-7.5,9.8-7.5c7.5,0,10,6.6,10,6.6s0.8,6-9.1,6.7C534.2,439.4,534.2,432.9,534.2,432.9z
				"/>
			<path class="st23" d="M535.3,437.4l-28.2,16c0,0,10.1,2.1,15.9-1.4C531.3,447.1,535.3,437.4,535.3,437.4z"/>
			<path class="st26" d="M683.8,413c0,0,73.4,29.6,74.1,28.6c0.7-1,6.8-10.3,6.8-10.3l-66.8-27L683.8,413z"/>
			<polygon class="st23" points="683.8,413 683.8,430.7 759.2,452.6 757.8,441.6 755.4,440.5 			"/>
			<polygon class="st23" points="757.5,452.6 757.5,438.6 787.9,438.6 787.9,452.6 766.4,451.9 			"/>
			<ellipse class="st23" cx="772.7" cy="452.6" rx="15.2" ry="9.1"/>
			<path class="st23" d="M763.2,430.7c0,0-2.8-7.4-12.3-13.6c-8.9-5.8-15.2-2.7-15.2-2.7L763.2,430.7z"/>
			<ellipse class="st26" cx="772.7" cy="438.6" rx="15.2" ry="9.1"/>
			<path class="st25" d="M782.5,437c0,0-1.5-7.5-9.8-7.5c-7.5,0-10,6.6-10,6.6s-0.8,6,9.1,6.7C782.6,443.6,782.5,437,782.5,437z"/>
			<path class="st23" d="M781.4,441.6l28.2,16c0,0-10.1,2.1-15.9-1.4C785.4,451.2,781.4,441.6,781.4,441.6z"/>
			<ellipse class="st23" cx="658.2" cy="378.8" rx="46.3" ry="27.7"/>
		</g>
	</g>
	<ellipse transform="matrix(0.866 -0.5 0.5 0.866 201.8132 1291.5089)" class="st64" cx="2510.8" cy="269.2" rx="108" ry="188.5"/>
	
		<ellipse transform="matrix(0.866 -0.5 0.5 0.866 201.8132 1291.5089)" class="st64" cx="2510.8" cy="269.2" rx="156.1" ry="272.5"/>
	<g class="st22">
		<g>
			<polygon class="st26" points="2586.5,317.7 2586.5,303.8 2556.1,303.8 2556.1,317.7 2577.6,317 			"/>
			<ellipse class="st26" cx="2571.3" cy="317.7" rx="15.2" ry="9.1"/>
			<ellipse class="st23" cx="2571.3" cy="303.8" rx="15.2" ry="9.1"/>
			<path class="st25" d="M2561.5,302.2c0,0,1.5-7.5,9.8-7.5c7.5,0,10,6.6,10,6.6s0.8,6-9.1,6.7
				C2561.5,308.7,2561.5,302.2,2561.5,302.2z"/>
		</g>
		<path class="st23" d="M2571.3,315.3c0,0,7.8-0.4,10.8-2.2c3-1.8,4.6-4.8,4.6-4.8l60.5,44.5l-13.4,11L2571.3,315.3z"/>
		<path class="st23" d="M2560.4,296.2l-28-16.4c0,0,6.8,12.6,14,15.3C2553,297.6,2560.4,296.2,2560.4,296.2z"/>
		<path class="st23" d="M2580.8,304.8l24.3,14.7c0,0-6.3-10.3-13.3-13.6C2584.8,302.6,2580.8,304.8,2580.8,304.8z"/>
		<polygon class="st26" points="2571.3,315.3 2571.3,326.9 2630.4,377.8 2633.7,363.7 		"/>
		<g>
			<polygon class="st23" points="2767.2,321.9 2767.2,307.9 2797.6,307.9 2797.6,321.9 2776.1,321.2 			"/>
			<ellipse class="st23" cx="2782.4" cy="321.9" rx="15.2" ry="9.1"/>
			<ellipse class="st26" cx="2782.4" cy="307.9" rx="15.2" ry="9.1"/>
			<path class="st25" d="M2792.2,306.4c0,0-1.5-7.5-9.8-7.5c-7.5,0-10,6.6-10,6.6s-0.8,6,9.1,6.7
				C2792.2,312.9,2792.2,306.4,2792.2,306.4z"/>
		</g>
		<path class="st26" d="M2782.4,319.4c0,0-7.8-0.4-10.8-2.2c-3-1.8-4.6-4.8-4.6-4.8l-60.5,44.5l13.4,11L2782.4,319.4z"/>
		<path class="st23" d="M2793.3,300.3l28-16.4c0,0-6.8,12.6-14,15.3C2800.8,301.7,2793.3,300.3,2793.3,300.3z"/>
		<path class="st23" d="M2772.9,309l-24.3,14.7c0,0,6.3-10.3,13.3-13.6S2772.9,309,2772.9,309z"/>
		<polygon class="st24" points="2782.4,319.4 2782.4,331 2723.3,381.9 2720,367.9 		"/>
		<path class="st23" d="M2630.4,377.8v40.5c0,0,15.6,22.7,46.7,22.7l-0.4-39.1L2630.4,377.8z"/>
		<path class="st24" d="M2722.9,374.1l0.9,44.1c0,0-18.7,22.6-49.8,22.6l1.1-39L2722.9,374.1z"/>
		<path class="st26" d="M2651.5,404.1c0,0-73.4,29.6-74.1,28.6c-0.7-1-6.8-10.3-6.8-10.3l66.8-27L2651.5,404.1z"/>
		<path class="st24" d="M2558.5,450c0,0.3,0,2.8,0,3.7c0,0.7,1.3,2.5,3.8,2.5s4-1.6,4.1-1.9s0-4.7,0-4.7L2558.5,450z"/>
		<polygon class="st24" points="2651.5,404.1 2651.5,421.8 2576.1,443.7 2577.4,432.7 2579.8,431.7 		"/>
		<polygon class="st23" points="2577.7,443.7 2577.7,429.8 2547.3,429.8 2547.3,443.7 2568.8,443 		"/>
		<ellipse class="st23" cx="2562.5" cy="443.7" rx="15.2" ry="9.1"/>
		<path class="st23" d="M2572,421.8c0,0,2.8-7.4,12.3-13.6c8.9-5.8,15.2-2.7,15.2-2.7L2572,421.8z"/>
		<ellipse class="st26" cx="2562.5" cy="429.8" rx="15.2" ry="9.1"/>
		<path class="st25" d="M2552.7,428.2c0,0,1.5-7.5,9.8-7.5c7.5,0,10,6.6,10,6.6s0.8,6-9.1,6.7
			C2552.7,434.7,2552.7,428.2,2552.7,428.2z"/>
		<path class="st23" d="M2553.8,432.7l-28.2,16c0,0,10.1,2.1,15.9-1.4C2549.8,442.4,2553.8,432.7,2553.8,432.7z"/>
		<path class="st26" d="M2702.2,408.3c0,0,73.4,29.6,74.1,28.6c0.7-1,6.8-10.3,6.8-10.3l-66.8-27L2702.2,408.3z"/>
		<polygon class="st23" points="2702.2,408.3 2702.2,426 2777.7,447.9 2776.3,436.9 2773.9,435.8 		"/>
		<polygon class="st23" points="2776,447.9 2776,434 2806.4,434 2806.4,447.9 2784.9,447.2 		"/>
		<ellipse class="st23" cx="2791.2" cy="447.9" rx="15.2" ry="9.1"/>
		<path class="st23" d="M2781.7,426c0,0-2.8-7.4-12.3-13.6c-8.9-5.8-15.2-2.7-15.2-2.7L2781.7,426z"/>
		<ellipse class="st26" cx="2791.2" cy="434" rx="15.2" ry="9.1"/>
		<path class="st25" d="M2801,432.4c0,0-1.5-7.5-9.8-7.5c-7.5,0-10,6.6-10,6.6s-0.8,6,9.1,6.7C2801,438.9,2801,432.4,2801,432.4z"/>
		<path class="st23" d="M2799.9,436.9l28.2,16c0,0-10.1,2.1-15.9-1.4C2803.9,446.5,2799.9,436.9,2799.9,436.9z"/>
		<ellipse class="st23" cx="2676.7" cy="374.1" rx="46.3" ry="27.7"/>
	</g>
	<polygon class="st55" points="2364.5,788.6 2367.8,878 2630.5,1032.1 2630.5,940.7 	"/>
	<polygon class="st55" points="2364.5,738.5 2367.8,905.6 2630.5,1059.8 2630.5,890.6 	"/>
	<polygon class="st55" points="2367.8,905.6 2340.4,920.3 2604.3,1073 2630.5,1059.8 	"/>
	<polygon class="st64" points="544,951 544,1136.7 844.4,966.7 844.4,787.7 	"/>
	<polygon class="st64" points="544,908 544,1175.5 844.4,1005.5 844.4,744.7 	"/>
	<polygon class="st64" points="384.7,712 492.1,926 809.9,741.4 701.4,527 	"/>
	<g class="st22">
		<g>
			<defs>
				<polygon id="SVGID_11_" points="1793.9,-78 1823,171.5 1981.5,104.9 1974.5,-100.7 				"/>
			</defs>
			<clipPath id="SVGID_12_">
				<use xlink:href="#SVGID_11_"  style="overflow:visible;"/>
			</clipPath>
			<polygon class="st65" points="1885.9,53.5 1885.9,111.4 1920.5,91.4 1920.5,34.3 			"/>
		</g>
		<g>
			<defs>
				<polygon id="SVGID_13_" points="1793.9,-78 1823,171.5 1981.5,104.9 1974.5,-100.7 				"/>
			</defs>
			<clipPath id="SVGID_14_">
				<use xlink:href="#SVGID_13_"  style="overflow:visible;"/>
			</clipPath>
			<g class="st66">
				<polygon class="st60" points="1882.3,29.3 1922.6,6.6 1922.6,97.3 1882.3,118.6 				"/>
				<polygon class="st60" points="1882.3,-9.6 1922.6,-32.3 1922.6,141.6 1882.3,162.9 				"/>
				<polygon class="st60" points="1882.3,-50.1 1922.6,-72.7 1922.6,174.9 1882.3,196.2 				"/>
			</g>
		</g>
	</g>
	<g class="st22">
		<g>
			<defs>
				<polygon id="SVGID_15_" points="1520.4,341.3 1450.6,299.5 1450.6,70.5 1538.2,111.2 				"/>
			</defs>
			<clipPath id="SVGID_16_">
				<use xlink:href="#SVGID_15_"  style="overflow:visible;"/>
			</clipPath>
			<polygon class="st67" points="1499.2,224.4 1468.5,207.1 1468.5,274.9 1499.2,291.2 			"/>
		</g>
		<g>
			<defs>
				<polygon id="SVGID_17_" points="1520.4,341.3 1450.6,299.5 1450.6,70.5 1538.2,111.2 				"/>
			</defs>
			<clipPath id="SVGID_18_">
				<use xlink:href="#SVGID_17_"  style="overflow:visible;"/>
			</clipPath>
			<g class="st68">
				<polygon class="st60" points="1504,213.2 1463.7,190.6 1463.7,281.2 1504,302.5 				"/>
				<polygon class="st60" points="1504,174.3 1463.7,151.7 1463.7,325.5 1504,346.8 				"/>
				<polygon class="st60" points="1504,133.9 1463.7,111.2 1463.7,358.8 1504,380.1 				"/>
			</g>
		</g>
	</g>
	<g class="st22">
		<g>
			<defs>
				<polygon id="SVGID_19_" points="1190.3,336.8 1247.5,303.5 1266.5,317 1266.5,51.3 1167.2,68.5 				"/>
			</defs>
			<clipPath id="SVGID_20_">
				<use xlink:href="#SVGID_19_"  style="overflow:visible;"/>
			</clipPath>
			<polygon class="st69" points="1201.9,242.5 1201.9,317.8 1246.7,291.7 1246.7,217.7 			"/>
		</g>
		<g>
			<defs>
				<polygon id="SVGID_21_" points="1190.3,336.8 1247.5,303.5 1266.5,317 1266.5,51.3 1167.2,68.5 				"/>
			</defs>
			<clipPath id="SVGID_22_">
				<use xlink:href="#SVGID_21_"  style="overflow:visible;"/>
			</clipPath>
			<g class="st70">
				<polygon class="st60" points="1196.3,225.7 1254.9,192.7 1254.9,324.6 1196.3,355.7 				"/>
				<polygon class="st60" points="1196.3,169.1 1254.9,136.1 1254.9,389.1 1196.3,420.1 				"/>
				<polygon class="st60" points="1196.3,110.2 1254.9,77.2 1254.9,437.6 1196.3,468.6 				"/>
			</g>
		</g>
	</g>
	<g class="st22">
		<g>
			<defs>
				<polygon id="SVGID_23_" points="419.6,650.2 515.8,595.7 515.8,223 392.5,284.5 				"/>
			</defs>
			<clipPath id="SVGID_24_">
				<use xlink:href="#SVGID_23_"  style="overflow:visible;"/>
			</clipPath>
			<polygon class="st71" points="438.5,512.9 438.5,599.5 493.1,569.6 493.1,483 			"/>
		</g>
		<g>
			<defs>
				<polygon id="SVGID_25_" points="419.6,650.2 515.8,595.7 515.8,223 392.5,284.5 				"/>
			</defs>
			<clipPath id="SVGID_26_">
				<use xlink:href="#SVGID_25_"  style="overflow:visible;"/>
			</clipPath>
			<g class="st72">
				<polygon class="st60" points="429.6,481.8 502.9,440.6 502.9,605.5 429.6,644.3 				"/>
				<polygon class="st60" points="429.6,411.1 502.9,369.8 502.9,686.1 429.6,724.9 				"/>
				<polygon class="st60" points="429.6,337.4 502.9,296.1 502.9,746.8 429.6,785.6 				"/>
			</g>
		</g>
	</g>
	<polygon class="st64" points="1240.9,608.8 1064.4,508.7 1064.4,702.1 1240.9,807.6 	"/>
	<polygon class="st64" points="1240.9,548.9 1064.4,448.8 1064.4,769.2 1240.9,874.6 	"/>
	<polygon class="st64" points="2659,1359.7 2242.4,1129.6 2242.4,1306.5 2659,1542 	"/>
	<g class="st22">
		<g>
			<defs>
				<polygon id="SVGID_27_" points="1446,765.7 1569.3,835.4 1654.4,786.5 1670.2,411.3 1364.5,544.5 				"/>
			</defs>
			<clipPath id="SVGID_28_">
				<use xlink:href="#SVGID_27_"  style="overflow:visible;"/>
			</clipPath>
			<g class="st73">
				<polygon class="st60" points="1451.9,613.5 1628.4,513.4 1628.4,706.8 1451.9,812.2 				"/>
				<polygon class="st60" points="1451.9,553.6 1628.4,453.5 1628.4,773.8 1451.9,879.3 				"/>
			</g>
		</g>
	</g>
	<ellipse class="st18" cx="2170.7" cy="1436.7" rx="13.4" ry="8.2"/>
	<ellipse class="st18" cx="2107.1" cy="1475.4" rx="13.4" ry="8.2"/>
	<circle class="st55" cx="1612.9" cy="164" r="109.2"/>
	<circle class="st55" cx="900.4" cy="750.3" r="23"/>
	<circle class="st55" cx="962" cy="713.7" r="23"/>
	<circle class="st55" cx="1023.7" cy="1121.1" r="23"/>
	<circle class="st55" cx="1091" cy="1086.3" r="23"/>
	<circle class="st55" cx="2170.8" cy="1436.7" r="61.9"/>
	<line class="st34" x1="1666.7" y1="1605" x2="1666.7" y2="1493.6"/>
	<g class="st22">
		<polygon class="st26" points="190,790.7 178.5,783 178.5,599.1 190,606.6 		"/>
		<path class="st23" d="M135.1,600.9c0,0,18.5-11.7,25.3-14.7c1.4-0.6,9.4-3.7,17.9,1c0.3,0.2,0.6,0.3,0.9,0.5l0,0l0,0
			c0.2,0.1,0.3,0.2,0.5,0.3c2.3,1.5,11.8,7.8,12,7.9l-5.3,1.5c0.2,0.7,0.3,1.4,0.4,2.1h-8.1l-32.1,8.9l-3.7-2.4l-7.8,4L135.1,600.9
			L135.1,600.9z"/>
		<path class="st24" d="M190,790.7V614.8c0,0-0.3-6.3-4.9-10.1c-5.3-4.5-11.1-1.2-11.1-1.2l-27.4,14v-9.1c0,0,18.5-11.7,25.3-14.7
			c1.4-0.6,9.4-3.7,17.9,1c7,3.9,8.7,10.3,8.7,16.2l-0.4,174.7L190,790.7z"/>
		<polygon class="st26" points="146.6,617.6 135.1,609.9 135.1,600.9 146.6,608.4 		"/>
	</g>
	<g class="st22">
		<path class="st23" d="M177,781.8c0,0,0-10.8-11-20.9c-10.4-9.6-60.8-39.5-67.4-42.9c-5.8-3-15.2-2.9-17.7-1.7S7.5,761,7.5,761
			l90.6,65.2L177,781.8z"/>
		<path class="st26" d="M104.9,914c3.6,2.2,8.1-0.8,7.5-5c-3.7-23.5-12.2-77.6-12.2-78.8c0-1.5-2-11.2-9.3-20.6
			c-4.1-5.3-12.9-11.6-17.7-14.9C58,784.2,14.3,758.9,7.5,761C0.2,763.4-38,805-38,805s-4.4,6-4.8,12.5
			c-0.4,6.6,15.6,14.7,15.6,14.7L104.9,914z"/>
		<path class="st25" d="M80.9,817v37.9L-15.3,799l23.1-24.2c1.9-2,4.9-2.4,7.3-1l62.5,37.4C79.6,812.4,80.9,814.6,80.9,817z"/>
		<path class="st23" d="M177,781.8l14.2,76.1c0,0,0.8,6.4-0.6,8.7c-1.4,2.3-6.4,4.8-6.4,4.8l-73.8,42.4l-11.1-88.1L177,781.8z"/>
		<path class="st25" d="M102.8,823.5l70.7-40l6.8,35.6c-2,0.5-79.6,46.8-71.5,42.2L102.8,823.5z"/>
		
			<ellipse transform="matrix(0.9098 -0.4151 0.4151 0.9098 -350.5282 71.1222)" class="st24" cx="-11.7" cy="841.9" rx="12.6" ry="17"/>
		
			<ellipse transform="matrix(0.9098 -0.4151 0.4151 0.9098 -366.5196 116.9468)" class="st24" cx="85.8" cy="901.6" rx="12.6" ry="17"/>
	</g>
	<polygon class="st55" points="2452,419.9 2452,579.9 2592.7,661.6 2592.7,500.4 	"/>
	<polygon class="st55" points="2452,579.9 2379.8,619.3 2503.9,691.3 2532.5,674.1 2552.7,687.3 2592.7,661.6 	"/>
	<g class="st22">
		<polygon class="st26" points="2418.3,651.8 2406.8,644.1 2406.8,460.1 2418.3,467.6 		"/>
		<path class="st23" d="M2363.4,461.9c0,0,18.5-11.7,25.3-14.7c1.4-0.6,9.4-3.7,17.9,1c0.3,0.2,0.6,0.3,0.9,0.5l0,0l0,0
			c0.2,0.1,0.3,0.2,0.5,0.3c2.3,1.5,11.8,7.8,12,7.9l-5.3,1.5c0.2,0.7,0.3,1.4,0.4,2.1h-8.1l-32.1,8.9l-3.7-2.4l-7.8,4L2363.4,461.9
			L2363.4,461.9z"/>
		<path class="st24" d="M2418.3,651.8V475.9c0,0-0.3-6.3-4.9-10.1c-5.3-4.5-11.1-1.2-11.1-1.2l-27.4,14v-9.1
			c0,0,18.5-11.7,25.3-14.7c1.4-0.6,9.4-3.7,17.9,1c7,3.9,8.7,10.3,8.7,16.2l-0.4,174.7L2418.3,651.8z"/>
		<polygon class="st26" points="2374.9,478.7 2363.4,470.9 2363.4,462 2374.9,469.5 		"/>
	</g>
	<polygon class="st55" points="1064,980.6 1054.5,986 1116.9,1026 1116.9,1014.7 	"/>
	<polygon class="st55" points="1060.3,870.4 1060.3,855.2 1164.1,916.4 1152.7,925.6 	"/>
	<g class="st22">
		<polygon class="st26" points="2258.9,1358.3 2247.4,1350.6 2247.4,1166.6 2258.9,1174.1 		"/>
		<path class="st23" d="M2204,1168.4c0,0,18.5-11.7,25.3-14.7c1.4-0.6,9.4-3.7,17.9,1c0.3,0.2,0.6,0.3,0.9,0.5l0,0l0,0
			c0.2,0.1,0.3,0.2,0.5,0.3c2.3,1.5,11.8,7.8,12,7.9l-5.3,1.5c0.2,0.7,0.3,1.4,0.4,2.1h-8.1l-32.1,8.9l-3.7-2.4l-7.8,4L2204,1168.4
			L2204,1168.4z"/>
		<path class="st24" d="M2258.9,1358.3v-175.9c0,0-0.3-6.3-4.9-10.1c-5.3-4.5-11.1-1.2-11.1-1.2l-27.4,14v-9.1
			c0,0,18.5-11.7,25.3-14.7c1.4-0.6,9.4-3.7,17.9,1c7,3.9,8.7,10.3,8.7,16.2l-0.4,174.7L2258.9,1358.3z"/>
		<polygon class="st26" points="2215.5,1185.1 2204,1177.4 2204,1168.5 2215.5,1176 		"/>
	</g>
	<g class="st22">
		<polygon class="st26" points="2559.5,1548 2548,1540.3 2548,1356.3 2559.5,1363.8 		"/>
		<path class="st23" d="M2504.6,1358.1c0,0,18.5-11.7,25.3-14.7c1.4-0.6,9.4-3.7,17.9,1c0.3,0.2,0.6,0.3,0.9,0.5l0,0l0,0
			c0.2,0.1,0.3,0.2,0.5,0.3c2.3,1.5,11.8,7.8,12,7.9l-5.3,1.5c0.2,0.7,0.3,1.4,0.4,2.1h-8.1l-32.1,8.9l-3.7-2.4l-7.8,4
			L2504.6,1358.1L2504.6,1358.1z"/>
		<path class="st24" d="M2559.5,1548v-175.9c0,0-0.3-6.3-4.9-10.1c-5.3-4.5-11.1-1.2-11.1-1.2l-27.4,14v-9.1
			c0,0,18.5-11.7,25.3-14.7c1.4-0.6,9.4-3.7,17.9,1c7,3.9,8.7,10.3,8.7,16.2l-0.4,174.7L2559.5,1548z"/>
		<polygon class="st26" points="2516.1,1374.8 2504.6,1367.1 2504.6,1358.2 2516.1,1365.7 		"/>
	</g>
	<g class="st22">
		<path class="st23" d="M1987.9,1218.4c0,0,0-10.8-11-20.9c-10.4-9.6-60.8-39.5-67.4-42.9c-5.8-3-15.2-2.9-17.7-1.7
			c-2.6,1.2-73.3,44.7-73.3,44.7l90.6,65.2L1987.9,1218.4z"/>
		<path class="st26" d="M1915.9,1350.5c3.6,2.2,8.1-0.8,7.5-5c-3.7-23.5-12.2-77.6-12.2-78.8c0-1.5-2-11.2-9.3-20.6
			c-4.1-5.3-12.9-11.6-17.7-14.9c-15.2-10.5-58.9-35.8-65.6-33.6c-7.4,2.3-45.5,44-45.5,44s-4.4,6-4.8,12.5
			c-0.4,6.6,15.6,14.7,15.6,14.7L1915.9,1350.5z"/>
		<path class="st25" d="M1891.9,1253.6v37.9l-96.2-55.8l23.1-24.2c1.9-2,4.9-2.4,7.3-1l62.5,37.4
			C1890.6,1249,1891.9,1251.2,1891.9,1253.6z"/>
		<path class="st24" d="M1987.9,1218.4l14.2,76.1c0,0,0.8,6.4-0.6,8.7c-1.4,2.3-6.4,4.8-6.4,4.8l-73.8,42.4l-11.1-88.1
			L1987.9,1218.4z"/>
		<path class="st25" d="M1913.7,1260.1l70.7-40l6.8,35.6c-2,0.5-79.6,46.8-71.5,42.2L1913.7,1260.1z"/>
		
			<ellipse transform="matrix(0.9098 -0.4151 0.4151 0.9098 -368.426 862.2427)" class="st24" cx="1799.3" cy="1278.7" rx="12.6" ry="17"/>
		
			<ellipse transform="matrix(0.9098 -0.4151 0.4151 0.9098 -384.4175 908.0673)" class="st24" cx="1896.7" cy="1338.4" rx="12.6" ry="17"/>
	</g>
	<line class="st28" x1="1856.4" y1="1290.2" x2="1856.4" y2="1220.5"/>
	<g class="st22">
		<polygon class="st24" points="1833.5,1394.5 1845,1386.8 1845,1202.8 1833.5,1210.3 		"/>
		<path class="st23" d="M1888.4,1204.6c0,0-18.5-11.7-25.3-14.7c-1.4-0.6-9.4-3.7-17.9,1c-0.3,0.2-0.6,0.3-0.9,0.5l0,0l0,0
			c-0.2,0.1-0.3,0.2-0.5,0.3c-2.3,1.5-11.8,7.8-12,7.9l5.3,1.5c-0.2,0.7-0.3,1.4-0.4,2.1h8.1l32.1,8.9l3.7-2.4l7.8,4L1888.4,1204.6
			L1888.4,1204.6z"/>
		<path class="st26" d="M1833.5,1394.5v-175.9c0,0,0.3-6.3,4.9-10.1c5.3-4.5,11.1-1.2,11.1-1.2l27.4,14v-9.1
			c0,0-18.5-11.7-25.3-14.7c-1.4-0.6-9.4-3.7-17.9,1c-7,3.9-8.7,10.3-8.7,16.2l0.4,174.7L1833.5,1394.5z"/>
		<polygon class="st24" points="1876.9,1221.3 1888.4,1213.6 1888.4,1204.7 1876.9,1212.2 		"/>
	</g>
	<polygon class="st18" points="1926.6,1330.5 1927.3,1336.9 1937.9,1331 1937.3,1324.8 	"/>
	<polygon class="st18" points="1987.1,1296 1987.8,1302.4 1998.4,1296.5 1997.8,1290.2 	"/>
	<line class="st43" x1="2876.6" y1="1730.3" x2="3072.5" y2="1608.3"/>
	<polygon class="st2" points="2067.6,1206.1 2231.4,1284.2 2231,1107.7 	"/>
	<line class="st16" x1="2121.6" y1="759.6" x2="2121.6" y2="1197.1"/>
	<line class="st16" x1="2176.5" y1="727.1" x2="2176.5" y2="1164.6"/>
	<line class="st16" x1="2231.4" y1="706.5" x2="2231.4" y2="1144"/>
	<path class="st1" d="M2110.9,1573.2c5.3,3.3,149.7,92.8,149.7,92.8l130.5-77.2l-146.8-92.3L2110.9,1573.2z"/>
	<path class="st1" d="M455.2,229.8c5.3,3.3,51.6,31,51.6,31l101.5-59l-48.7-30.5L455.2,229.8z"/>
	<path class="st1" d="M1431.9,1078.2c5.3,3.3,36.4,23.1,36.4,23.1L1703.6,963l-33.5-22.6L1431.9,1078.2z"/>
	<g class="st59">
		<polygon class="st60" points="1640.1,1052.3 1700.2,1018.5 1700.2,1153.8 1640.1,1185.6 		"/>
		<polygon class="st60" points="1640.1,994.3 1700.2,960.5 1700.2,1219.9 1640.1,1251.7 		"/>
		<polygon class="st60" points="1640.1,933.9 1700.2,900.1 1700.2,1269.6 1640.1,1301.4 		"/>
	</g>
	<ellipse transform="matrix(0.866 -0.5 0.5 0.866 -141.7474 115.7487)" class="st74" cx="145.1" cy="322.4" rx="153.1" ry="267.3"/>
	<ellipse class="st74" cx="1339.1" cy="460.8" rx="317.2" ry="193.4"/>
	<polygon class="st75" points="948.8,308.2 909.2,285.9 909.2,685 948.8,705.9 	"/>
	<polygon class="st55" points="1104.1,1350 1104.1,1115.1 1452,1308.5 1453.9,1559.8 	"/>
	<polygon class="st55" points="1764.7,1360.3 1764.7,1125.5 1427.5,1303.8 1425.6,1555.1 	"/>
	<g class="st22">
		<ellipse class="st63" cx="1281.3" cy="1105" rx="66.3" ry="39.8"/>
		<ellipse class="st63" cx="1562.1" cy="1110.9" rx="66.3" ry="39.8"/>
		<ellipse class="st63" cx="1570.7" cy="1278.5" rx="66.3" ry="39.8"/>
		<g>
			<g>
				<path class="st24" d="M1420.3,1312.6c0,1.1,0,77.7,0,77.7l67.4-40.7v-74.5L1420.3,1312.6z"/>
				<polygon class="st26" points="1420.3,1312.6 1353.7,1273.7 1354.9,1351.8 1420.3,1390.3 				"/>
				<polygon class="st23" points="1353.7,1273.7 1420.3,1312.6 1487.7,1275.1 1420.9,1232.8 				"/>
			</g>
			<g>
				<polygon class="st26" points="1302.2,1128.8 1302.2,1110.5 1262.3,1110.5 1262.3,1128.8 1290.5,1127.8 				"/>
				<ellipse class="st26" cx="1282.3" cy="1128.8" rx="20" ry="12"/>
				<ellipse class="st23" cx="1282.3" cy="1110.5" rx="20" ry="12"/>
				<path class="st25" d="M1269.4,1108.4c0,0,2-9.9,12.9-9.9c9.9,0,13.1,8.7,13.1,8.7s1,7.9-11.9,8.8
					C1269.4,1117,1269.4,1108.4,1269.4,1108.4z"/>
			</g>
			<path class="st23" d="M1282.3,1125.6c0,0,10.2-0.5,14.2-2.8s6-6.3,6-6.3l79.3,58.3l-17.6,14.4L1282.3,1125.6z"/>
			<path class="st23" d="M1268,1100.5l-36.8-21.5c0,0,9,16.5,18.4,20.1C1258.2,1102.3,1268,1100.5,1268,1100.5z"/>
			<path class="st23" d="M1294.7,1111.9l31.9,19.3c0,0-8.3-13.5-17.4-17.9C1300,1109,1294.7,1111.9,1294.7,1111.9z"/>
			<polygon class="st26" points="1282.3,1125.6 1282.3,1140.8 1359.7,1207.5 1364.1,1189.1 			"/>
			<g>
				<polygon class="st23" points="1539.2,1134.3 1539.2,1116 1579.1,1116 1579.1,1134.3 1550.9,1133.3 				"/>
				<ellipse class="st23" cx="1559.1" cy="1134.3" rx="20" ry="12"/>
				<ellipse class="st26" cx="1559.1" cy="1116" rx="20" ry="12"/>
				<path class="st25" d="M1572,1113.9c0,0-2-9.9-12.9-9.9c-9.9,0-13.1,8.7-13.1,8.7s-1,7.9,11.9,8.8
					C1572,1122.4,1572,1113.9,1572,1113.9z"/>
			</g>
			<path class="st26" d="M1559.1,1131c0,0-10.2-0.5-14.2-2.8s-6-6.3-6-6.3l-79.3,58.3l17.6,14.4L1559.1,1131z"/>
			<path class="st23" d="M1573.4,1106l36.8-21.5c0,0-9,16.5-18.4,20.1C1583.2,1107.8,1573.4,1106,1573.4,1106z"/>
			<path class="st23" d="M1546.7,1117.3l-31.9,19.3c0,0,8.3-13.5,17.4-17.9C1541.4,1114.5,1546.7,1117.3,1546.7,1117.3z"/>
			<polygon class="st24" points="1559.1,1131 1559.1,1146.3 1481.7,1213 1477.3,1194.6 			"/>
			<path class="st23" d="M1359.7,1207.5v53.1c0,0,20.5,29.7,61.3,29.7l-0.6-51.2L1359.7,1207.5z"/>
			<path class="st24" d="M1481.1,1202.8l1.1,57.9c0,0-24.5,29.6-65.3,29.6l1.4-51.1L1481.1,1202.8z"/>
			<path class="st26" d="M1387.4,1242.1c0,0-96.3,38.8-97.2,37.5c-0.9-1.3-9-13.5-9-13.5l87.6-35.4L1387.4,1242.1z"/>
			<path class="st24" d="M1265.5,1302.3c0,0.3,0,3.7,0,4.9c0,0.9,1.7,3.2,5,3.2s5.2-2.1,5.3-2.5c0.1-0.4,0-6.2,0-6.2L1265.5,1302.3z
				"/>
			<polygon class="st24" points="1387.4,1242.1 1387.4,1265.4 1288.5,1294.1 1290.2,1279.6 1293.4,1278.2 			"/>
			<polygon class="st23" points="1290.7,1294.1 1290.7,1275.8 1250.7,1275.8 1250.7,1294.1 1278.9,1293.1 			"/>
			<ellipse class="st23" cx="1270.7" cy="1294.1" rx="20" ry="12"/>
			<path class="st23" d="M1283.2,1265.4c0,0,3.7-9.7,16.1-17.9c11.7-7.6,20-3.5,20-3.5L1283.2,1265.4z"/>
			<ellipse class="st26" cx="1270.7" cy="1275.8" rx="20" ry="12"/>
			<path class="st25" d="M1257.8,1273.7c0,0,2-9.9,12.9-9.9c9.9,0,13.1,8.7,13.1,8.7s1,7.9-11.9,8.8
				C1257.8,1282.3,1257.8,1273.7,1257.8,1273.7z"/>
			<path class="st23" d="M1259.3,1279.6l-37,21c0,0,13.2,2.7,20.8-1.8C1254,1292.3,1259.3,1279.6,1259.3,1279.6z"/>
			<path class="st26" d="M1454,1247.6c0,0,96.3,38.8,97.2,37.5c0.9-1.3,9-13.5,9-13.5l-87.6-35.4L1454,1247.6z"/>
			<polygon class="st23" points="1454,1247.6 1454,1270.8 1552.9,1299.6 1551.2,1285.1 1548,1283.7 			"/>
			<polygon class="st26" points="1550.7,1299.6 1550.7,1281.2 1590.7,1281.2 1590.7,1299.6 1562.5,1298.6 			"/>
			<ellipse class="st26" cx="1570.7" cy="1299.6" rx="20" ry="12"/>
			<path class="st26" d="M1558.2,1270.8c0,0-3.7-9.7-16.1-17.9c-11.7-7.6-20-3.5-20-3.5L1558.2,1270.8z"/>
			<ellipse class="st26" cx="1570.7" cy="1281.2" rx="20" ry="12"/>
			<path class="st25" d="M1583.6,1279.2c0,0-2-9.9-12.9-9.9c-9.9,0-13.1,8.7-13.1,8.7s-1,7.9,11.9,8.8
				C1583.6,1287.7,1583.6,1279.2,1583.6,1279.2z"/>
			<path class="st26" d="M1582.1,1285.1l37,21c0,0-13.2,2.7-20.8-1.8C1587.4,1297.8,1582.1,1285.1,1582.1,1285.1z"/>
			<ellipse class="st23" cx="1420.4" cy="1202.8" rx="60.7" ry="36.4"/>
		</g>
		<ellipse class="st63" cx="1269.4" cy="1272.7" rx="66.3" ry="39.8"/>
	</g>
	<ellipse class="st11" cx="1419.9" cy="1201.1" rx="34.2" ry="20.9"/>
	<polygon class="st55" points="2440.5,382.1 2440.5,574.6 2609.8,672.8 2609.8,478.8 	"/>
	
		<radialGradient id="SVGID_29_" cx="125.6" cy="1397.4" r="68" gradientTransform="matrix(1 0 0 -1 0 1686)" gradientUnits="userSpaceOnUse">
		<stop  offset="0" style="stop-color:#F4F6F9;stop-opacity:0.4"/>
		<stop  offset="1" style="stop-color:#00AFE4;stop-opacity:0"/>
	</radialGradient>
	<circle class="st76" cx="125.6" cy="288.6" r="68"/>
	
		<radialGradient id="SVGID_30_" cx="2886.8" cy="1506.7" r="68" gradientTransform="matrix(1 0 0 -1 0 1686)" gradientUnits="userSpaceOnUse">
		<stop  offset="0" style="stop-color:#F4F6F9;stop-opacity:0.4"/>
		<stop  offset="1" style="stop-color:#00AFE4;stop-opacity:0"/>
	</radialGradient>
	<circle class="st77" cx="2886.8" cy="179.3" r="68"/>
	
		<radialGradient id="SVGID_31_" cx="1019.2" cy="555.6" r="68" gradientTransform="matrix(1 0 0 -1 0 1686)" gradientUnits="userSpaceOnUse">
		<stop  offset="0" style="stop-color:#F4F6F9;stop-opacity:0.4"/>
		<stop  offset="1" style="stop-color:#00AFE4;stop-opacity:0"/>
	</radialGradient>
	<circle class="st78" cx="1019.2" cy="1130.4" r="68"/>
	
		<radialGradient id="SVGID_32_" cx="762.7" cy="1377.2" r="68" gradientTransform="matrix(1 0 0 -1 0 1686)" gradientUnits="userSpaceOnUse">
		<stop  offset="0" style="stop-color:#F4F6F9;stop-opacity:0.4"/>
		<stop  offset="1" style="stop-color:#00AFE4;stop-opacity:0"/>
	</radialGradient>
	<circle class="st79" cx="762.7" cy="308.8" r="68"/>
	
		<radialGradient id="SVGID_33_" cx="1991.3" cy="384.6" r="68" gradientTransform="matrix(1 0 0 -1 0 1686)" gradientUnits="userSpaceOnUse">
		<stop  offset="0" style="stop-color:#F4F6F9;stop-opacity:0.4"/>
		<stop  offset="1" style="stop-color:#00AFE4;stop-opacity:0"/>
	</radialGradient>
	<circle class="st80" cx="1991.3" cy="1301.4" r="68"/>
	
		<radialGradient id="SVGID_34_" cx="1336.8" cy="-3054.4375" r="119.0821" gradientTransform="matrix(1 0 0 -0.5889 0 -1337.9584)" gradientUnits="userSpaceOnUse">
		<stop  offset="0" style="stop-color:#F4F6F9;stop-opacity:0.4"/>
		<stop  offset="1" style="stop-color:#00AFE4;stop-opacity:0"/>
	</radialGradient>
	<ellipse class="st81" cx="1336.8" cy="460.8" rx="119.2" ry="70.2"/>
	
		<linearGradient id="SVGID_35_" gradientUnits="userSpaceOnUse" x1="280.3" y1="-154.85" x2="651.8" y2="-154.85" gradientTransform="matrix(1 0 0 -1 0 1686)">
		<stop  offset="0" style="stop-color:#0B155B"/>
		<stop  offset="1" style="stop-color:#073489"/>
	</linearGradient>
	<rect x="280.3" y="1737.9" class="st82" width="371.5" height="205.9"/>
</g>
</svg>
